<svg width="24" height="24" viewBox="0 0 24 24" fill="none" xmlns="http://www.w3.org/2000/svg">
<path d="M11.9993 1.5C6.20138 1.5 1.5 6.31976 1.5 12.2666C1.5 17.0224 4.50825 21.0576 8.68134 22.4814C9.20634 22.5803 9.39797 22.2479 9.39797 21.9626C9.39797 21.7069 9.38878 21.03 9.38353 20.1318C6.46256 20.7824 5.84634 18.6885 5.84634 18.6885C5.36925 17.445 4.68084 17.1139 4.68084 17.1139C3.72731 16.4458 4.75303 16.4592 4.75303 16.4592C5.80631 16.5353 6.36084 17.5688 6.36084 17.5688C7.29797 19.214 8.8185 18.7389 9.417 18.463C9.51216 17.7673 9.78384 17.2929 10.0838 17.0238C7.75209 16.7519 5.301 15.8288 5.301 11.7034C5.301 10.5279 5.70984 9.56703 6.38184 8.81409C6.27356 8.54158 5.91328 7.44749 6.48422 5.96516C6.48422 5.96516 7.36622 5.67583 9.37172 7.06867C10.2098 6.8298 11.1075 6.7107 12.0007 6.70599C12.8925 6.7107 13.7909 6.8298 14.6296 7.06867C16.6338 5.67583 17.5138 5.96516 17.5138 5.96516C18.0867 7.44749 17.7264 8.54158 17.6182 8.81409C18.2915 9.56703 18.6977 10.5279 18.6977 11.7034C18.6977 15.8389 16.2427 16.7492 13.9038 17.0157C14.2805 17.3481 14.6165 18.0048 14.6165 19.0094C14.6165 20.4487 14.6033 21.6094 14.6033 21.9626C14.6033 22.2506 14.7923 22.5857 15.3252 22.4801C19.4944 21.0536 22.5 17.0211 22.5 12.2666C22.5 6.31976 17.7986 1.5 11.9993 1.5Z" fill="#1C252E"/>
</svg>
