<svg width="24" height="24" viewBox="0 0 24 24" fill="none" xmlns="http://www.w3.org/2000/svg">
<path d="M22.437 7.67096C22.3859 6.55328 22.2084 5.78997 21.9488 5.12223C21.6852 4.42158 21.2719 3.78688 20.7377 3.26241C20.2132 2.72817 19.5785 2.31476 18.8779 2.05101C18.2099 1.79158 17.4468 1.61423 16.3292 1.56345C15.2094 1.51218 14.8516 1.5 12.0001 1.5C9.14852 1.5 8.79073 1.51218 7.67096 1.56316C6.55328 1.61423 5.79018 1.79175 5.12223 2.05129C4.42156 2.31493 3.78685 2.72826 3.26237 3.26245C2.72813 3.78686 2.31472 4.4215 2.05097 5.12211C1.79154 5.79005 1.61419 6.55332 1.56341 7.67084C1.51218 8.79073 1.5 9.14835 1.5 11.9999C1.5 14.8516 1.51218 15.2094 1.56345 16.3291C1.61439 17.4467 1.79191 18.2099 2.05146 18.8779C2.31509 19.5785 2.7284 20.2132 3.26258 20.7376C3.78701 21.2718 4.4217 21.6851 5.12236 21.9487C5.79018 22.2084 6.55344 22.3857 7.67112 22.4368C8.79106 22.4879 9.14864 22.5 12.0002 22.5C14.8518 22.5 15.2096 22.4879 16.3293 22.4368C17.447 22.3857 18.2101 22.2084 18.8781 21.9487C19.5756 21.6789 20.209 21.2665 20.7378 20.7377C21.2666 20.2089 21.6791 19.5754 21.9488 18.8779C22.2085 18.2099 22.3859 17.4467 22.437 16.3292C22.4879 15.2092 22.5001 14.8516 22.5001 12.0001C22.5001 9.14835 22.4879 8.79073 22.437 7.67096ZM20.5469 16.2432C20.5003 17.2669 20.3292 17.8229 20.1855 18.1928C20.0108 18.6457 19.7432 19.057 19.4 19.4002C19.0568 19.7434 18.6455 20.011 18.1927 20.1856C17.8227 20.3294 17.2668 20.5005 16.243 20.5471C15.1361 20.5977 14.8039 20.6083 12.0001 20.6083C9.19614 20.6083 8.86415 20.5977 7.75701 20.5471C6.73342 20.5005 6.17749 20.3294 5.80736 20.1856C5.35132 20.0173 4.93879 19.7488 4.6001 19.4001C4.25133 19.0614 3.98291 18.6489 3.81457 18.1928C3.67085 17.8229 3.49973 17.2669 3.45309 16.2432C3.40264 15.1361 3.3919 14.8039 3.3919 12.0003C3.3919 9.19642 3.40264 8.86448 3.45309 7.75717C3.49985 6.73342 3.67085 6.17745 3.81457 5.80753C3.98296 5.35144 4.25138 4.93887 4.6001 4.6001C4.93879 4.25132 5.35139 3.98295 5.80753 3.81473C6.17749 3.67085 6.73342 3.49989 7.75722 3.45309C8.86432 3.40264 9.19646 3.3919 12.0001 3.3919C14.8038 3.3919 15.1357 3.40264 16.243 3.45326C17.2668 3.49989 17.8226 3.67101 18.1927 3.81473C18.6487 3.98311 19.0612 4.25147 19.3999 4.6001C19.7487 4.93879 20.0171 5.35139 20.1854 5.80753C20.3292 6.17749 20.5004 6.73342 20.5469 7.75722C20.5974 8.86432 20.6081 9.19646 20.6081 12.0001C20.6081 14.8039 20.5976 15.1358 20.5469 16.2432Z" fill="url(#paint0_linear_309_1474)"/>
<path d="M11.9999 6.60812C9.02211 6.60812 6.60808 9.02223 6.60808 12.0001C6.60808 14.9779 9.02211 17.3919 11.9999 17.3919C14.9779 17.3919 17.3919 14.9779 17.3919 12.0001C17.3919 9.02223 14.9779 6.60812 11.9999 6.60812ZM11.9999 15.5C10.067 15.4999 8.49993 13.9329 8.5001 11.9999C8.5001 10.067 10.067 8.49993 12.0001 8.49993C13.9331 8.5001 15.5 10.067 15.5 11.9999C15.5 13.9329 13.9329 15.5 11.9999 15.5Z" fill="url(#paint1_linear_309_1474)"/>
<path d="M18.8649 6.39516C18.8649 7.091 18.3008 7.65509 17.605 7.65509C16.909 7.65509 16.3449 7.09095 16.3449 6.39516C16.3449 5.69912 16.909 5.13503 17.605 5.13503C18.3008 5.13503 18.8649 5.69916 18.8649 6.39516Z" fill="url(#paint2_linear_309_1474)"/>
<defs>
<linearGradient id="paint0_linear_309_1474" x1="3.26229" y1="20.7377" x2="20.7378" y2="3.26212" gradientUnits="userSpaceOnUse">
<stop stop-color="#FFD600"/>
<stop offset="0.5" stop-color="#FF0100"/>
<stop offset="1" stop-color="#D800B9"/>
</linearGradient>
<linearGradient id="paint1_linear_309_1474" x1="4.57544" y1="19.4246" x2="19.4247" y2="4.57532" gradientUnits="userSpaceOnUse">
<stop stop-color="#FF6400"/>
<stop offset="0.5" stop-color="#FF0100"/>
<stop offset="1" stop-color="#FD0056"/>
</linearGradient>
<linearGradient id="paint2_linear_309_1474" x1="16.7139" y1="7.28603" x2="18.4957" y2="5.50413" gradientUnits="userSpaceOnUse">
<stop stop-color="#F30072"/>
<stop offset="1" stop-color="#E50097"/>
</linearGradient>
</defs>
</svg>
