<svg width="24" height="24" viewBox="0 0 24 24" fill="none" xmlns="http://www.w3.org/2000/svg">
<path d="M5.14678 2.52608C5.85835 2.65326 6.45746 3.09997 6.77593 3.74217C6.88945 3.97025 6.95882 4.20149 6.99245 4.46426C7.01558 4.64609 7.00822 4.94775 6.97669 5.12433C6.82323 5.99567 6.18418 6.68832 5.33071 6.9122C5.1699 6.95424 5.03326 6.97316 4.84722 6.98157C3.96327 7.01731 3.14449 6.52856 2.75034 5.72869C2.44342 5.10646 2.44342 4.37597 2.74928 3.75268C3.08983 3.06003 3.73729 2.60281 4.51613 2.50821C4.64962 2.4914 5.00909 2.50191 5.14678 2.52608ZM17.2025 8.64541C17.768 8.70007 18.324 8.84932 18.7844 9.0711C19.1407 9.24242 19.5464 9.50414 19.9154 9.80264C20.3274 10.1358 20.6175 10.5436 20.9549 11.2626C21.2281 11.8449 21.3784 12.341 21.4562 12.9128C21.473 13.0347 21.4741 13.3626 21.4772 17.2715L21.4804 21.5H19.5622H17.644V17.9442C17.644 15.5436 17.6408 14.3538 17.6335 14.2791C17.5452 13.3899 17.1374 12.753 16.4437 12.4188C16.2797 12.3399 16.1704 12.3 15.998 12.2558C15.3159 12.0803 14.5097 12.1791 13.9095 12.5102C13.3514 12.8182 12.931 13.4499 12.7733 14.2161C12.7113 14.5188 12.7145 14.3096 12.7145 18.0598V21.5H10.8015H8.88858V15.1778V8.85563H10.6912H12.4938V9.76585V10.675L12.5715 10.571C12.7344 10.3513 13.0351 10.037 13.2579 9.85204C14.1187 9.13626 15.2244 8.69271 16.2944 8.6349C16.4952 8.62439 17.0491 8.6307 17.2025 8.64541ZM6.72338 15.1778V21.5H4.76313H2.80289V15.1778V8.85563H4.76313H6.72338V15.1778Z" fill="#0A66C2"/>
</svg>
