<svg width="1017" height="479" viewBox="0 0 1017 479" fill="none" xmlns="http://www.w3.org/2000/svg">
<path d="M534.761 384.886V93.9773H654.932C676.712 93.9773 695.51 98.2386 711.324 106.761C727.233 115.189 739.496 126.979 748.114 142.131C756.731 157.188 761.04 174.706 761.04 194.688C761.04 214.763 756.636 232.33 747.83 247.386C739.117 262.349 726.665 273.949 710.472 282.188C694.278 290.426 675.055 294.545 652.801 294.545H578.654V239.148H639.733C650.339 239.148 659.193 237.301 666.296 233.608C673.493 229.915 678.938 224.754 682.631 218.125C686.324 211.402 688.171 203.589 688.171 194.688C688.171 185.691 686.324 177.926 682.631 171.392C678.938 164.763 673.493 159.65 666.296 156.051C659.099 152.453 650.244 150.653 639.733 150.653H605.074V384.886H534.761Z" fill="black"/>
<path d="M427.943 181.193C426.996 170.777 422.782 162.68 415.301 156.903C407.915 151.032 397.356 148.097 383.625 148.097C374.534 148.097 366.958 149.28 360.898 151.648C354.837 154.015 350.292 157.282 347.261 161.449C344.231 165.521 342.669 170.208 342.574 175.511C342.385 179.867 343.237 183.703 345.131 187.017C347.119 190.331 349.96 193.267 353.654 195.824C357.441 198.286 361.987 200.464 367.29 202.358C372.593 204.252 378.559 205.909 385.188 207.33L410.188 213.011C424.582 216.136 437.271 220.303 448.256 225.511C459.335 230.72 468.616 236.922 476.097 244.119C483.672 251.316 489.402 259.602 493.284 268.977C497.167 278.352 499.155 288.864 499.25 300.511C499.155 318.883 494.515 334.65 485.33 347.813C476.144 360.975 462.934 371.061 445.699 378.068C428.559 385.076 407.868 388.58 383.625 388.58C359.288 388.58 338.076 384.934 319.989 377.642C301.902 370.35 287.839 359.271 277.801 344.403C267.763 329.536 262.602 310.739 262.318 288.011H329.648C330.216 297.386 332.725 305.199 337.176 311.449C341.627 317.699 347.735 322.434 355.5 325.653C363.36 328.873 372.451 330.483 382.773 330.483C392.243 330.483 400.292 329.205 406.921 326.648C413.644 324.091 418.805 320.54 422.404 315.994C426.002 311.449 427.849 306.241 427.943 300.369C427.849 294.877 426.144 290.189 422.83 286.307C419.515 282.33 414.402 278.92 407.489 276.08C400.671 273.144 391.958 270.445 381.352 267.983L350.955 260.881C325.765 255.104 305.926 245.777 291.438 232.898C276.949 219.924 269.752 202.405 269.847 180.341C269.752 162.348 274.582 146.581 284.335 133.04C294.089 119.498 307.583 108.939 324.818 101.364C342.053 93.7879 361.703 90 383.767 90C406.305 90 425.86 93.8352 442.432 101.506C459.099 109.081 472.025 119.735 481.21 133.466C490.396 147.197 495.083 163.106 495.273 181.193H427.943Z" fill="black"/>
<path d="M157.24 93.9773H226.558V295.114C226.464 313.958 221.966 330.436 213.064 344.545C204.163 358.561 191.852 369.451 176.132 377.216C160.507 384.981 142.42 388.864 121.871 388.864C103.689 388.864 87.1644 385.691 72.297 379.347C57.5243 373.002 45.7345 363.153 36.9277 349.801C28.2155 336.449 23.9068 319.356 24.0015 298.523H94.0299C94.314 306.004 95.7345 312.396 98.2913 317.699C100.943 322.907 104.589 326.837 109.229 329.489C113.869 332.14 119.409 333.466 125.848 333.466C132.572 333.466 138.253 332.045 142.894 329.205C147.534 326.269 151.038 321.96 153.405 316.278C155.867 310.597 157.145 303.542 157.24 295.114V93.9773Z" fill="black"/>
<path d="M909.897 388.864C955.658 388.864 992.754 351.767 992.754 306.007C992.754 260.246 955.658 223.15 909.897 223.15C864.136 223.15 827.04 260.246 827.04 306.007C827.04 351.767 864.136 388.864 909.897 388.864Z" fill="#FF0000"/>
</svg>
