<svg width="120" height="120" viewBox="0 0 120 120" fill="none" xmlns="http://www.w3.org/2000/svg">
<path d="M95 10C103.27 10 110 16.73 110 25V95C110 103.27 103.27 110 95 110H25C16.73 110 10 103.27 10 95V25C10 16.73 16.73 10 25 10H95ZM95 0H25C11.195 0 0 11.195 0 25V95C0 108.805 11.195 120 25 120H95C108.81 120 120 108.805 120 95V25C120 11.195 108.81 0 95 0ZM55 40H50V30H55V35H65V40H60V45H55V40ZM65 100V95H60V100H65ZM60 25V20H50V25H55V30H60V25ZM100 20V50H95V45H75V20H100ZM95 40V25H80V40H95ZM25 50H20V55H30V50H25ZM25 65H30V70H35V55H30V60H20V70H25V65ZM50 70V80H55V70H50ZM70 20H65V35H70V20ZM70 45V40H65V45H70ZM85 35H90V30H85V35ZM35 30H30V35H35V30ZM45 20V45H20V20H45ZM40 25H25V40H40V25ZM85 50V55H80V50H70V55H65V50H50V45H45V50H40V55H45V65H50V60H55V70H60V60H75V65H65V70H75V75H80V60H85V65H90V75H95V70H100V65H95V60H90V55H95V50H85ZM30 90H35V85H30V90ZM20 75H45V100H20V75ZM25 95H40V80H25V95ZM85 80V75H80V80H85ZM85 85H80V90H75V85H70V80H75V75H65V70H60V80H55V85H50V100H55V95H60V90H70V100H75V95H80V100H90V95H95V90H85V85ZM40 70H45V65H40V70ZM90 80V85H95V90H100V75H95V80H90ZM100 100V95H95V100H100ZM100 60V55H95V60H100Z" fill="#1C252E"/>
</svg>
