<?xml version="1.0" encoding="utf-8"?>
<!-- Generator: Adobe Illustrator 27.5.0, SVG Export Plug-In . SVG Version: 6.00 Build 0)  -->
<svg version="1.1" xmlns="http://www.w3.org/2000/svg" xmlns:xlink="http://www.w3.org/1999/xlink" x="0px" y="0px"
  viewBox="0 0 500 500" style="enable-background:new 0 0 500 500;" xml:space="preserve">
  <g id="BACKGROUND">
    <rect id="BACKGROUND_1_" x="1.131" y="1.131" style="fill:#FFFFFF;" width="497.738" height="497.738" />
  </g>
  <g id="OBJECTS">
    <g style="opacity:0.45;">
      <circle style="fill:#DED7FF;" cx="371.5" cy="373.5" r="82.5" />
      <circle style="fill:#DED7FF;" cx="189.5" cy="209.5" r="140.5" />
    </g>
    <path style="fill:none;stroke:#0F1B63;stroke-miterlimit:10;" d="M445.913,195.421l-4.194,3.84
		c-0.14,0.128-0.262,0.267-0.374,0.412c-2.664-1.857-5.593-3.191-8.641-3.996c0.04-0.183,0.07-0.37,0.077-0.562l0.223-5.682
		c0.069-1.768-1.313-3.263-3.081-3.332l-5.682-0.223c-1.767-0.069-3.263,1.313-3.332,3.081l-0.223,5.682
		c-0.007,0.191,0.008,0.379,0.033,0.564c-3.018,0.548-5.965,1.606-8.705,3.178c-0.099-0.154-0.209-0.303-0.336-0.443l-3.84-4.194
		c-1.195-1.305-3.229-1.395-4.534-0.2l-4.194,3.84c-1.305,1.195-1.395,3.229-0.199,4.534l3.84,4.194
		c0.128,0.139,0.267,0.262,0.412,0.374c-1.857,2.664-3.191,5.593-3.996,8.641c-0.183-0.04-0.37-0.07-0.561-0.077l-5.682-0.223
		c-0.851-0.034-1.665,0.264-2.293,0.839c-0.004,0.003-0.008,0.007-0.011,0.011c-0.629,0.582-0.995,1.374-1.028,2.231l-0.223,5.682
		l0,0c-0.069,1.768,1.313,3.263,3.081,3.332l5.682,0.223c0.192,0.008,0.379-0.009,0.564-0.035c0.548,3.019,1.606,5.966,3.178,8.706
		c-0.154,0.098-0.303,0.208-0.443,0.336l-4.194,3.84c-1.305,1.195-1.395,3.229-0.199,4.534l3.84,4.194
		c1.195,1.305,3.229,1.395,4.534,0.199l4.194-3.84c0.14-0.128,0.262-0.267,0.374-0.412c2.665,1.858,5.594,3.192,8.643,3.997
		c-0.04,0.182-0.071,0.368-0.079,0.561l-0.223,5.682c-0.034,0.857,0.268,1.675,0.85,2.304c0.582,0.63,1.374,0.995,2.23,1.028
		l5.682,0.223l0,0c0.879,0.034,1.689-0.29,2.292-0.841c0.61-0.558,1.006-1.35,1.041-2.24l0.223-5.682
		c0.008-0.192-0.009-0.38-0.035-0.564c3.019-0.548,5.966-1.606,8.706-3.178c0.099,0.154,0.209,0.304,0.337,0.443l3.84,4.194
		c1.195,1.305,3.229,1.395,4.534,0.2l4.194-3.84c1.305-1.195,1.395-3.229,0.199-4.534l-3.84-4.194
		c-0.128-0.14-0.267-0.262-0.412-0.374c1.858-2.664,3.192-5.594,3.997-8.643c0.182,0.04,0.368,0.071,0.561,0.079l5.682,0.223
		c0.879,0.034,1.69-0.29,2.292-0.841c0.61-0.558,1.006-1.35,1.04-2.24l0.224-5.682c0.069-1.768-1.313-3.263-3.081-3.332
		l-5.682-0.223c-0.191-0.008-0.379,0.007-0.565,0.032c-0.548-3.018-1.606-5.964-3.178-8.704c0.154-0.098,0.304-0.208,0.443-0.336
		l4.194-3.84c1.305-1.195,1.395-3.229,0.199-4.534l-3.84-4.194C449.251,194.315,447.218,194.226,445.913,195.421z M435.839,233.287
		c-6.129,5.612-15.681,5.192-21.294-0.937c-5.612-6.129-5.192-15.681,0.937-21.294c6.129-5.612,15.681-5.192,21.294,0.937
		C442.388,218.123,441.968,227.675,435.839,233.287z" />
    <g>
      <g>
        <g>
          <g>
            <path style="fill:#B19CFE;" d="M114.387,415.756h-2.21c-0.408,0-0.739-0.331-0.739-0.739s0.331-0.739,0.739-0.739h2.21
						c0.408,0,0.739,0.331,0.739,0.739S114.795,415.756,114.387,415.756z M107.253,415.756h-4.925c-0.408,0-0.739-0.331-0.739-0.739
						s0.331-0.739,0.739-0.739h4.925c0.408,0,0.739,0.331,0.739,0.739S107.661,415.756,107.253,415.756z M97.403,415.756h-4.925
						c-0.408,0-0.739-0.331-0.739-0.739s0.331-0.739,0.739-0.739h4.925c0.408,0,0.739,0.331,0.739,0.739
						S97.811,415.756,97.403,415.756z M87.553,415.756h-4.925c-0.408,0-0.739-0.331-0.739-0.739s0.331-0.739,0.739-0.739h4.925
						c0.408,0,0.739,0.331,0.739,0.739S87.961,415.756,87.553,415.756z M77.703,415.756h-4.925c-0.408,0-0.739-0.331-0.739-0.739
						s0.331-0.739,0.739-0.739h4.925c0.408,0,0.739,0.331,0.739,0.739S78.111,415.756,77.703,415.756z M67.853,415.756h-4.925
						c-0.408,0-0.739-0.331-0.739-0.739s0.331-0.739,0.739-0.739h4.925c0.408,0,0.739,0.331,0.739,0.739
						S68.261,415.756,67.853,415.756z M58.003,415.749c-0.007,0-0.013,0-0.02-0.001c-1.717-0.048-3.413-0.328-5.041-0.834
						c-0.39-0.121-0.607-0.535-0.486-0.925c0.121-0.389,0.531-0.607,0.924-0.486c1.5,0.466,3.062,0.724,4.644,0.769
						c0.407,0.011,0.729,0.351,0.718,0.759C58.731,415.431,58.403,415.749,58.003,415.749z M48.717,412.862
						c-0.138,0-0.277-0.039-0.401-0.119c-1.432-0.929-2.735-2.051-3.87-3.336c-0.269-0.306-0.24-0.773,0.065-1.043
						c0.304-0.27,0.771-0.242,1.043,0.064c1.046,1.184,2.245,2.218,3.566,3.074c0.342,0.222,0.44,0.68,0.217,1.022
						C49.196,412.743,48.96,412.862,48.717,412.862z M42.28,405.57c-0.275,0-0.539-0.153-0.667-0.417
						c-0.744-1.544-1.274-3.18-1.574-4.862c-0.071-0.402,0.196-0.785,0.598-0.857c0.399-0.067,0.785,0.196,0.856,0.598
						c0.276,1.55,0.764,3.056,1.451,4.478c0.177,0.367,0.023,0.809-0.344,0.986C42.497,405.547,42.388,405.57,42.28,405.57z
						 M40.488,395.993c-0.408,0-0.739-0.331-0.739-0.739v-4.925c0-0.408,0.331-0.739,0.739-0.739c0.408,0,0.739,0.331,0.739,0.739
						v4.925C41.227,395.662,40.896,395.993,40.488,395.993z M40.488,386.143c-0.408,0-0.739-0.331-0.739-0.739v-4.925
						c0-0.408,0.331-0.739,0.739-0.739c0.408,0,0.739,0.331,0.739,0.739v4.925C41.227,385.812,40.896,386.143,40.488,386.143z
						 M40.488,376.293c-0.408,0-0.739-0.331-0.739-0.739v-4.925c0-0.408,0.331-0.739,0.739-0.739c0.408,0,0.739,0.331,0.739,0.739
						v4.925C41.227,375.962,40.896,376.293,40.488,376.293z M40.488,366.443c-0.408,0-0.739-0.331-0.739-0.739v-4.925
						c0-0.408,0.331-0.739,0.739-0.739c0.408,0,0.739,0.331,0.739,0.739v4.925C41.227,366.112,40.896,366.443,40.488,366.443z
						 M40.488,356.593c-0.408,0-0.739-0.331-0.739-0.739v-4.925c0-0.408,0.331-0.739,0.739-0.739c0.408,0,0.739,0.331,0.739,0.739
						v4.925C41.227,356.262,40.896,356.593,40.488,356.593z M40.488,346.743c-0.408,0-0.739-0.331-0.739-0.739v-4.925
						c0-0.408,0.331-0.739,0.739-0.739c0.408,0,0.739,0.331,0.739,0.739v4.925C41.227,346.413,40.896,346.743,40.488,346.743z
						 M40.488,336.893c-0.408,0-0.739-0.331-0.739-0.739v-4.925c0-0.408,0.331-0.739,0.739-0.739c0.408,0,0.739,0.331,0.739,0.739
						v4.925C41.227,336.563,40.896,336.893,40.488,336.893z M40.488,327.044c-0.408,0-0.739-0.331-0.739-0.739v-4.925
						c0-0.408,0.331-0.739,0.739-0.739c0.408,0,0.739,0.331,0.739,0.739v4.925C41.227,326.713,40.896,327.044,40.488,327.044z
						 M40.488,317.194c-0.408,0-0.739-0.331-0.739-0.739v-4.925c0-0.408,0.331-0.739,0.739-0.739c0.408,0,0.739,0.331,0.739,0.739
						v4.925C41.227,316.863,40.896,317.194,40.488,317.194z M40.488,307.344c-0.408,0-0.739-0.331-0.739-0.739v-4.925
						c0-0.408,0.331-0.739,0.739-0.739c0.408,0,0.739,0.331,0.739,0.739v4.925C41.227,307.013,40.896,307.344,40.488,307.344z
						 M40.488,297.494c-0.408,0-0.739-0.331-0.739-0.739v-4.925c0-0.408,0.331-0.739,0.739-0.739c0.408,0,0.739,0.331,0.739,0.739
						v4.925C41.227,297.163,40.896,297.494,40.488,297.494z M40.488,287.644c-0.408,0-0.739-0.331-0.739-0.739v-4.925
						c0-0.408,0.331-0.739,0.739-0.739c0.408,0,0.739,0.331,0.739,0.739v4.925C41.227,287.313,40.896,287.644,40.488,287.644z
						 M40.488,277.794c-0.408,0-0.739-0.331-0.739-0.739v-0.498c0-1.543,0.188-3.078,0.558-4.56
						c0.099-0.396,0.508-0.636,0.896-0.538c0.396,0.099,0.637,0.5,0.538,0.895c-0.34,1.365-0.514,2.779-0.514,4.202v0.498
						C41.227,277.463,40.896,277.794,40.488,277.794z M42.854,268.361c-0.124,0-0.25-0.031-0.366-0.097
						c-0.354-0.202-0.477-0.654-0.275-1.008c0.847-1.483,1.895-2.846,3.114-4.051c0.291-0.286,0.758-0.284,1.045,0.006
						c0.287,0.29,0.285,0.758-0.006,1.045c-1.123,1.11-2.089,2.366-2.869,3.732C43.36,268.227,43.111,268.361,42.854,268.361z
						 M49.773,261.524c-0.26,0-0.512-0.137-0.646-0.38c-0.198-0.357-0.07-0.806,0.287-1.005c1.498-0.832,3.101-1.453,4.766-1.848
						c0.401-0.092,0.794,0.151,0.889,0.549c0.094,0.397-0.151,0.795-0.548,0.889c-1.533,0.363-3.01,0.935-4.389,1.702
						C50.018,261.494,49.895,261.524,49.773,261.524z M172.51,259.265h-4.925c-0.408,0-0.739-0.331-0.739-0.739
						c0-0.408,0.331-0.739,0.739-0.739h4.925c0.408,0,0.739,0.331,0.739,0.739C173.249,258.934,172.918,259.265,172.51,259.265z
						 M162.661,259.265h-4.925c-0.408,0-0.739-0.331-0.739-0.739c0-0.408,0.331-0.739,0.739-0.739h4.925
						c0.408,0,0.739,0.331,0.739,0.739C163.399,258.934,163.068,259.265,162.661,259.265z M152.811,259.265h-4.925
						c-0.408,0-0.739-0.331-0.739-0.739c0-0.408,0.331-0.739,0.739-0.739h4.925c0.408,0,0.739,0.331,0.739,0.739
						C153.549,258.934,153.219,259.265,152.811,259.265z M142.961,259.265h-4.925c-0.408,0-0.739-0.331-0.739-0.739
						c0-0.408,0.331-0.739,0.739-0.739h4.925c0.408,0,0.739,0.331,0.739,0.739C143.7,258.934,143.369,259.265,142.961,259.265z
						 M133.111,259.265h-4.925c-0.408,0-0.739-0.331-0.739-0.739c0-0.408,0.331-0.739,0.739-0.739h4.925
						c0.408,0,0.739,0.331,0.739,0.739C133.85,258.934,133.519,259.265,133.111,259.265z M123.261,259.265h-4.925
						c-0.408,0-0.739-0.331-0.739-0.739c0-0.408,0.331-0.739,0.739-0.739h4.925c0.408,0,0.739,0.331,0.739,0.739
						C124,258.934,123.669,259.265,123.261,259.265z M113.411,259.265h-4.925c-0.408,0-0.739-0.331-0.739-0.739
						c0-0.408,0.331-0.739,0.739-0.739h4.925c0.408,0,0.739,0.331,0.739,0.739C114.15,258.934,113.819,259.265,113.411,259.265z
						 M103.561,259.265h-4.925c-0.408,0-0.739-0.331-0.739-0.739c0-0.408,0.331-0.739,0.739-0.739h4.925
						c0.408,0,0.739,0.331,0.739,0.739C104.3,258.934,103.969,259.265,103.561,259.265z M93.711,259.265h-4.925
						c-0.408,0-0.739-0.331-0.739-0.739c0-0.408,0.331-0.739,0.739-0.739h4.925c0.408,0,0.739,0.331,0.739,0.739
						C94.45,258.934,94.119,259.265,93.711,259.265z M83.861,259.265h-4.925c-0.408,0-0.739-0.331-0.739-0.739
						c0-0.408,0.331-0.739,0.739-0.739h4.925c0.408,0,0.739,0.331,0.739,0.739C84.6,258.934,84.269,259.265,83.861,259.265z
						 M74.011,259.265h-4.925c-0.408,0-0.739-0.331-0.739-0.739c0-0.408,0.331-0.739,0.739-0.739h4.925
						c0.408,0,0.739,0.331,0.739,0.739C74.75,258.934,74.419,259.265,74.011,259.265z M64.161,259.265h-4.925
						c-0.408,0-0.739-0.331-0.739-0.739c0-0.408,0.331-0.739,0.739-0.739h4.925c0.408,0,0.739,0.331,0.739,0.739
						C64.9,258.934,64.569,259.265,64.161,259.265z" />
          </g>
        </g>
        <g>
          <g>
            <circle style="fill:#B19CFE;" cx="40.488" cy="336.99" r="3.219" />
          </g>
          <g>
            <path style="fill:#B19CFE;"
              d="M40.488,343.024c-3.326,0-6.033-2.706-6.033-6.033c0-3.327,2.707-6.033,6.033-6.033
						c3.326,0,6.033,2.706,6.033,6.033C46.521,340.317,43.814,343.024,40.488,343.024z M40.488,331.696
						c-2.919,0-5.294,2.375-5.294,5.294s2.375,5.294,5.294,5.294c2.919,0,5.294-2.375,5.294-5.294S43.408,331.696,40.488,331.696z" />
          </g>
        </g>
      </g>
    </g>
    <g>
      <g>
        <g>
          <path style="fill:#B19CFE;"
            d="M206.296,236.753c-0.496,0-0.899-0.403-0.899-0.899v-5.992c0-0.496,0.403-0.899,0.899-0.899
					c0.496,0,0.899,0.403,0.899,0.899v5.992C207.195,236.35,206.792,236.753,206.296,236.753z M206.296,224.769
					c-0.496,0-0.899-0.403-0.899-0.899v-5.992c0-0.496,0.403-0.899,0.899-0.899c0.496,0,0.899,0.403,0.899,0.899v5.992
					C207.195,224.366,206.792,224.769,206.296,224.769z M206.296,212.784c-0.496,0-0.899-0.403-0.899-0.899v-5.992
					c0-0.496,0.403-0.899,0.899-0.899c0.496,0,0.899,0.403,0.899,0.899v5.992C207.195,212.382,206.792,212.784,206.296,212.784z
					 M206.296,200.8c-0.496,0-0.899-0.403-0.899-0.899v-5.992c0-0.496,0.403-0.899,0.899-0.899c0.496,0,0.899,0.403,0.899,0.899
					v5.992C207.195,200.398,206.792,200.8,206.296,200.8z M206.296,188.816c-0.496,0-0.899-0.403-0.899-0.899v-5.992
					c0-0.496,0.403-0.899,0.899-0.899c0.496,0,0.899,0.403,0.899,0.899v5.992C207.195,188.413,206.792,188.816,206.296,188.816z
					 M206.296,176.832c-0.496,0-0.899-0.403-0.899-0.899v-5.992c0-0.496,0.403-0.899,0.899-0.899c0.496,0,0.899,0.403,0.899,0.899
					v5.992C207.195,176.429,206.792,176.832,206.296,176.832z M301.458,166.037c-0.496,0-0.899-0.403-0.899-0.899v-3.326
					c0-0.496,0.403-0.899,0.899-0.899c0.496,0,0.899,0.403,0.899,0.899v3.326C302.357,165.634,301.954,166.037,301.458,166.037z
					 M206.296,164.848c-0.496,0-0.899-0.402-0.899-0.899v-5.992c0-0.496,0.403-0.899,0.899-0.899c0.496,0,0.899,0.403,0.899,0.899
					v5.992C207.195,164.445,206.792,164.848,206.296,164.848z M301.458,156.719c-0.496,0-0.899-0.402-0.899-0.899v-5.992
					c0-0.496,0.403-0.899,0.899-0.899c0.496,0,0.899,0.403,0.899,0.899v5.992C302.357,156.316,301.954,156.719,301.458,156.719z
					 M206.296,152.864c-0.496,0-0.899-0.403-0.899-0.899v-5.992c0-0.496,0.403-0.899,0.899-0.899c0.496,0,0.899,0.403,0.899,0.899
					v5.992C207.195,152.461,206.792,152.864,206.296,152.864z M301.458,144.734c-0.496,0-0.899-0.403-0.899-0.899v-5.992
					c0-0.496,0.403-0.899,0.899-0.899c0.496,0,0.899,0.403,0.899,0.899v5.992C302.357,144.332,301.954,144.734,301.458,144.734z
					 M206.296,140.879c-0.496,0-0.899-0.403-0.899-0.899v-5.992c0-0.496,0.403-0.899,0.899-0.899c0.496,0,0.899,0.403,0.899,0.899
					v5.992C207.195,140.477,206.792,140.879,206.296,140.879z M301.458,132.75c-0.496,0-0.899-0.403-0.899-0.899v-5.992
					c0-0.496,0.403-0.899,0.899-0.899c0.496,0,0.899,0.403,0.899,0.899v5.992C302.357,132.348,301.954,132.75,301.458,132.75z
					 M206.296,128.895c-0.496,0-0.899-0.403-0.899-0.899v-5.992c0-0.496,0.403-0.899,0.899-0.899c0.496,0,0.899,0.403,0.899,0.899
					v5.992C207.195,128.493,206.792,128.895,206.296,128.895z M301.458,120.766c-0.496,0-0.899-0.403-0.899-0.899v-5.992
					c0-0.496,0.403-0.899,0.899-0.899c0.496,0,0.899,0.403,0.899,0.899v5.992C302.357,120.364,301.954,120.766,301.458,120.766z
					 M206.296,116.911c-0.496,0-0.899-0.403-0.899-0.899v-5.992c0-0.496,0.403-0.899,0.899-0.899c0.496,0,0.899,0.403,0.899,0.899
					v5.992C207.195,116.508,206.792,116.911,206.296,116.911z M301.458,108.782c-0.496,0-0.899-0.403-0.899-0.899v-5.992
					c0-0.496,0.403-0.899,0.899-0.899c0.496,0,0.899,0.403,0.899,0.899v5.992C302.357,108.379,301.954,108.782,301.458,108.782z
					 M206.296,104.927c-0.496,0-0.899-0.403-0.899-0.899v-5.992c0-0.496,0.403-0.899,0.899-0.899c0.496,0,0.899,0.403,0.899,0.899
					v5.992C207.195,104.524,206.792,104.927,206.296,104.927z M301.419,96.799c-0.473,0-0.869-0.37-0.896-0.848
					c-0.109-1.921-0.479-3.811-1.099-5.62c-0.16-0.469,0.09-0.981,0.559-1.142c0.465-0.16,0.982,0.089,1.141,0.559
					c0.674,1.964,1.076,4.017,1.194,6.101c0.028,0.496-0.351,0.92-0.846,0.949C301.454,96.798,301.437,96.799,301.419,96.799z
					 M206.887,92.99c-0.069,0-0.138-0.008-0.208-0.024c-0.483-0.115-0.782-0.599-0.667-1.082c0.48-2.028,1.237-3.979,2.249-5.799
					c0.24-0.434,0.789-0.59,1.222-0.348c0.434,0.241,0.59,0.789,0.349,1.223c-0.933,1.675-1.629,3.472-2.071,5.339
					C207.663,92.712,207.294,92.99,206.887,92.99z M297.586,85.61c-0.286,0-0.566-0.135-0.741-0.387
					c-1.092-1.58-2.392-3.003-3.866-4.23c-0.38-0.318-0.433-0.885-0.115-1.266c0.318-0.383,0.884-0.432,1.266-0.115
					c1.598,1.331,3.008,2.875,4.193,4.588c0.282,0.409,0.18,0.968-0.228,1.251C297.941,85.559,297.762,85.61,297.586,85.61z
					 M212.629,82.643c-0.228,0-0.456-0.087-0.632-0.26c-0.353-0.349-0.356-0.918-0.007-1.271c1.466-1.483,3.124-2.758,4.927-3.789
					c0.429-0.246,0.98-0.096,1.227,0.335c0.246,0.431,0.096,0.98-0.335,1.227c-1.662,0.949-3.189,2.124-4.541,3.492
					C213.092,82.554,212.86,82.643,212.629,82.643z M288.492,78.035c-0.123,0-0.248-0.025-0.367-0.078
					c-1.751-0.785-3.601-1.325-5.498-1.606c-0.492-0.072-0.831-0.53-0.758-1.021c0.073-0.491,0.525-0.841,1.021-0.757
					c2.061,0.304,4.069,0.891,5.971,1.743c0.453,0.203,0.655,0.735,0.453,1.188C289.163,77.837,288.835,78.035,288.492,78.035z
					 M222.902,76.776c-0.403,0-0.769-0.273-0.871-0.681c-0.12-0.482,0.172-0.97,0.654-1.09c1.803-0.45,3.67-0.679,5.548-0.679h0.606
					c0.496,0,0.899,0.403,0.899,0.899c0,0.496-0.403,0.899-0.899,0.899h-0.606c-1.731,0-3.451,0.21-5.113,0.625
					C223.048,76.767,222.974,76.776,222.902,76.776z M276.777,76.124h-5.992c-0.496,0-0.899-0.403-0.899-0.899
					c0-0.496,0.403-0.899,0.899-0.899h5.992c0.496,0,0.899,0.403,0.899,0.899C277.676,75.721,277.273,76.124,276.777,76.124z
					 M264.793,76.124h-5.992c-0.496,0-0.899-0.403-0.899-0.899c0-0.496,0.403-0.899,0.899-0.899h5.992
					c0.496,0,0.899,0.403,0.899,0.899C265.691,75.721,265.289,76.124,264.793,76.124z M252.808,76.124h-5.992
					c-0.496,0-0.899-0.403-0.899-0.899c0-0.496,0.403-0.899,0.899-0.899h5.992c0.496,0,0.899,0.403,0.899,0.899
					C253.707,75.721,253.305,76.124,252.808,76.124z M240.824,76.124h-5.992c-0.496,0-0.899-0.403-0.899-0.899
					c0-0.496,0.403-0.899,0.899-0.899h5.992c0.496,0,0.899,0.403,0.899,0.899C241.723,75.721,241.321,76.124,240.824,76.124z" />
        </g>
      </g>
      <g>
        <g>
          <g>
            <circle style="fill:#B19CFE;" cx="253.877" cy="75.225" r="3.377" />
          </g>
        </g>
        <g>
          <g>
            <path style="fill:#B19CFE;" d="M253.877,81.554c-3.49,0-6.329-2.839-6.329-6.329c0-3.49,2.84-6.329,6.329-6.329
						c3.49,0,6.329,2.839,6.329,6.329C260.206,78.715,257.367,81.554,253.877,81.554z M253.877,69.671
						c-3.063,0-5.554,2.492-5.554,5.554c0,3.063,2.492,5.554,5.554,5.554c3.063,0,5.554-2.492,5.554-5.554
						C259.431,72.163,256.94,69.671,253.877,69.671z" />
          </g>
        </g>
      </g>
    </g>
    <g>
      <rect x="199.958" y="123.914" style="fill:#C1C1C1;" width="57.954" height="9.908" />
      <path style="fill:#FFC655;" d="M304.733,120.185h-41.427c-3.015,0-5.875,1.012-7.813,2.765l-11.254,8.421h-44.335
			c-1.853,0-3.356,1.503-3.356,3.356v61.363c0,1.853,1.503,3.356,3.356,3.356h108.025c1.853,0,3.356-1.502,3.356-3.356v-59.286
			v-2.077v-7.084C311.285,123.701,308.352,120.185,304.733,120.185z" />
    </g>
    <path style="fill:none;stroke:#0F1B63;stroke-miterlimit:10;" d="M133.516,305.616l-6.144,5.956
		c-0.204,0.198-0.383,0.413-0.545,0.636c-4.087-2.68-8.55-4.561-13.169-5.641c0.052-0.278,0.089-0.56,0.092-0.848l0.092-8.557
		c0.028-2.662-2.114-4.852-4.777-4.88l-8.557-0.092c-2.661-0.028-4.852,2.114-4.88,4.777l-0.092,8.557
		c-0.003,0.288,0.028,0.57,0.073,0.848c-4.517,0.954-8.903,2.671-12.957,5.153c-0.155-0.228-0.327-0.448-0.525-0.652l-5.956-6.144
		c-1.854-1.912-4.917-1.96-6.829-0.106l-6.144,5.956c-1.912,1.854-1.959,4.917-0.106,6.829l5.956,6.144
		c0.198,0.204,0.413,0.383,0.635,0.545c-2.68,4.087-4.561,8.55-5.641,13.169c-0.277-0.052-0.559-0.089-0.848-0.092l-8.557-0.092
		c-1.282-0.014-2.493,0.469-3.413,1.361c-0.006,0.005-0.011,0.011-0.016,0.017c-0.922,0.902-1.437,2.11-1.451,3.399l-0.092,8.557
		l0,0c-0.028,2.662,2.114,4.852,4.777,4.88l8.557,0.092c0.29,0.003,0.57-0.03,0.847-0.076c0.954,4.518,2.671,8.905,5.154,12.959
		c-0.228,0.155-0.448,0.327-0.652,0.525l-6.144,5.956c-1.912,1.854-1.959,4.917-0.106,6.828l5.956,6.144
		c1.854,1.912,4.917,1.959,6.829,0.106l6.144-5.956c0.204-0.198,0.383-0.413,0.545-0.635c4.088,2.68,8.552,4.561,13.172,5.641
		c-0.052,0.276-0.092,0.557-0.095,0.847l-0.092,8.557c-0.014,1.29,0.475,2.508,1.378,3.43c0.902,0.922,2.11,1.437,3.399,1.451
		l8.557,0.092l0,0c1.323,0.014,2.529-0.508,3.411-1.363c0.893-0.866,1.455-2.074,1.469-3.413l0.092-8.557
		c0.003-0.29-0.03-0.57-0.076-0.847c4.518-0.954,8.905-2.671,12.96-5.154c0.155,0.228,0.327,0.448,0.525,0.652l5.956,6.144
		c1.854,1.912,4.917,1.959,6.829,0.106l6.144-5.956c1.912-1.854,1.959-4.917,0.106-6.829l-5.956-6.144
		c-0.198-0.204-0.413-0.383-0.636-0.545c2.68-4.088,4.561-8.551,5.641-13.172c0.276,0.052,0.557,0.092,0.847,0.095l8.557,0.092
		c1.323,0.014,2.529-0.508,3.412-1.363c0.893-0.866,1.455-2.074,1.469-3.413l0.093-8.557c0.028-2.663-2.115-4.852-4.777-4.881
		l-8.557-0.092c-0.288-0.003-0.57,0.027-0.848,0.073c-0.954-4.517-2.671-8.903-5.153-12.957c0.228-0.155,0.448-0.327,0.652-0.525
		l6.144-5.956c1.912-1.854,1.959-4.917,0.106-6.828l-5.956-6.144C138.49,303.81,135.427,303.762,133.516,305.616z M119.986,363.006
		c-8.979,8.705-23.365,8.482-32.07-0.496c-8.705-8.979-8.482-23.365,0.497-32.07c8.979-8.705,23.365-8.482,32.07,0.497
		C129.187,339.915,128.964,354.301,119.986,363.006z" />
    <g>
      <rect x="204.512" y="375.757" style="fill:#C60C88;" width="91.971" height="44.088" />
      <path style="fill:#D42190;" d="M403.278,167.604v200.842c0,6.451-5.229,11.68-11.689,11.68H109.405
			c-6.451,0-11.689-5.229-11.689-11.68V167.604c0-6.451,5.238-11.689,11.689-11.689h282.184
			C398.049,155.915,403.278,161.153,403.278,167.604z" />
      <path style="opacity:0.5;fill:#FFFFFF;" d="M256,366c0,3.314-2.686,6-6,6c-3.314,0-6-2.686-6-6c0-3.314,2.686-6,6-6
			C253.314,360,256,362.686,256,366z" />
      <path style="fill:#DED7FF;" d="M399.608,352.765V169.854c0-5.544-4.34-10.038-9.693-10.038H111.08
			c-5.353,0-9.693,4.494-9.693,10.038v182.911H399.608z" />
      <path style="fill:#D42190;" d="M314.579,424.595H186.416v-0.307c0-5.078,4.117-9.194,9.194-9.194h109.774
			c5.078,0,9.194,4.116,9.194,9.194V424.595z" />
    </g>
    <g>
      <path style="fill:#B19CFE;" d="M125.432,157.939c0-8.853-6.674-16.138-15.263-17.122c0.066-0.579,0.108-1.165,0.108-1.761
			c0-8.488-6.881-15.368-15.368-15.368c-2.274,0-4.425,0.507-6.367,1.393c-4.092-6.379-11.24-10.609-19.382-10.609
			c-12.712,0-23.017,10.305-23.017,23.017c0,1.119,0.084,2.219,0.239,3.295c-8.699,0.88-15.488,8.225-15.488,17.156
			c0,9.524,7.721,17.245,17.245,17.245h60.903v-0.043C118.166,174.692,125.432,167.174,125.432,157.939z" />
      <polygon style="fill:#FFC655;" points="89.208,188.343 89.208,161.549 67.118,161.549 67.118,188.343 60.213,188.343
			78.163,205.16 96.114,188.343 		" />
    </g>
    <g>
      <path style="fill:#542FD0;" d="M333.235,170.609h-54.237c-5.015,0-9.081-4.066-9.081-9.081V143.49
			c0-5.015,4.066-9.081,9.081-9.081h54.237c5.015,0,9.081,4.066,9.081,9.081v18.037C342.316,166.543,338.25,170.609,333.235,170.609
			z" />
    </g>
    <g>
      <path style="fill:#542FD0;" d="M130.776,431.104H76.54c-5.015,0-9.081-4.066-9.081-9.081v-18.037c0-5.015,4.066-9.081,9.081-9.081
			h54.237c5.015,0,9.081,4.066,9.081,9.081v18.037C139.858,427.038,135.792,431.104,130.776,431.104z" />
    </g>
    <g>
      <path style="fill:#542FD0;" d="M156.857,277.965H102.62c-5.015,0-9.081-4.066-9.081-9.081v-18.037
			c0-5.015,4.066-9.081,9.081-9.081h54.237c5.015,0,9.081,4.066,9.081,9.081v18.037
			C165.938,273.899,161.872,277.965,156.857,277.965z" />
    </g>
    <g>
      <g>
        <path style="fill:#B19CFE;" d="M347.967,393.867h-2.583c-0.428,0-0.775-0.347-0.775-0.775c0-0.428,0.347-0.775,0.775-0.775h2.583
				c0.428,0,0.775,0.347,0.775,0.775C348.742,393.52,348.395,393.867,347.967,393.867z" />
      </g>
      <g>
        <path style="fill:#B19CFE;"
          d="M409.98,393.867h-5.168c-0.428,0-0.775-0.347-0.775-0.775c0-0.428,0.347-0.775,0.775-0.775h5.168
				c0.428,0,0.775,0.347,0.775,0.775C410.755,393.52,410.408,393.867,409.98,393.867z M399.644,393.867h-5.167
				c-0.428,0-0.775-0.347-0.775-0.775c0-0.428,0.347-0.775,0.775-0.775h5.167c0.428,0,0.775,0.347,0.775,0.775
				C400.419,393.52,400.072,393.867,399.644,393.867z M389.309,393.867h-5.168c-0.428,0-0.775-0.347-0.775-0.775
				c0-0.428,0.347-0.775,0.775-0.775h5.168c0.428,0,0.775,0.347,0.775,0.775C390.084,393.52,389.737,393.867,389.309,393.867z
				 M378.973,393.867h-5.168c-0.428,0-0.775-0.347-0.775-0.775c0-0.428,0.347-0.775,0.775-0.775h5.168
				c0.428,0,0.775,0.347,0.775,0.775C379.749,393.52,379.401,393.867,378.973,393.867z M368.638,393.867h-5.167
				c-0.428,0-0.775-0.347-0.775-0.775c0-0.428,0.347-0.775,0.775-0.775h5.167c0.428,0,0.775,0.347,0.775,0.775
				C369.413,393.52,369.066,393.867,368.638,393.867z M358.303,393.867h-5.168c-0.428,0-0.775-0.347-0.775-0.775
				c0-0.428,0.347-0.775,0.775-0.775h5.168c0.428,0,0.775,0.347,0.775,0.775C359.078,393.52,358.731,393.867,358.303,393.867z
				 M415.097,393.266c-0.349,0-0.666-0.238-0.752-0.593c-0.101-0.416,0.154-0.835,0.57-0.936c1.614-0.391,3.179-0.978,4.65-1.746
				c0.38-0.198,0.848-0.051,1.045,0.329c0.198,0.379,0.051,0.847-0.329,1.045c-1.583,0.826-3.266,1.458-5.001,1.878
				C415.219,393.259,415.158,393.266,415.097,393.266z M424.175,388.54c-0.215,0-0.429-0.089-0.582-0.263
				c-0.283-0.321-0.251-0.811,0.071-1.094c1.248-1.097,2.363-2.343,3.314-3.703c0.244-0.351,0.727-0.437,1.079-0.191
				c0.351,0.245,0.436,0.729,0.191,1.079c-1.021,1.461-2.219,2.8-3.56,3.979C424.54,388.476,424.357,388.54,424.175,388.54z
				 M430.034,380.152c-0.093,0-0.188-0.017-0.279-0.052c-0.399-0.154-0.598-0.603-0.443-1.002c0.598-1.548,1.006-3.168,1.213-4.815
				c0.053-0.425,0.427-0.727,0.866-0.672c0.425,0.053,0.726,0.441,0.672,0.866c-0.223,1.772-0.662,3.514-1.306,5.18
				C430.639,379.964,430.345,380.152,430.034,380.152z M431.464,369.996c-0.428,0-0.775-0.347-0.775-0.775v-5.168
				c0-0.428,0.347-0.775,0.775-0.775c0.428,0,0.775,0.347,0.775,0.775v5.168C432.24,369.649,431.892,369.996,431.464,369.996z
				 M431.464,359.66c-0.428,0-0.775-0.347-0.775-0.775v-5.167c0-0.428,0.347-0.775,0.775-0.775c0.428,0,0.775,0.347,0.775,0.775
				v5.167C432.24,359.313,431.892,359.66,431.464,359.66z M431.464,349.325c-0.428,0-0.775-0.347-0.775-0.775v-5.167
				c0-0.428,0.347-0.775,0.775-0.775c0.428,0,0.775,0.347,0.775,0.775v5.167C432.24,348.978,431.892,349.325,431.464,349.325z
				 M431.464,338.99c-0.428,0-0.775-0.347-0.775-0.775v-5.168c0-0.428,0.347-0.775,0.775-0.775c0.428,0,0.775,0.347,0.775,0.775
				v5.168C432.24,338.642,431.892,338.99,431.464,338.99z M431.464,328.655c-0.428,0-0.775-0.347-0.775-0.775v-5.168
				c0-0.428,0.347-0.775,0.775-0.775c0.428,0,0.775,0.347,0.775,0.775v5.168C432.24,328.307,431.892,328.655,431.464,328.655z
				 M431.464,318.319c-0.428,0-0.775-0.347-0.775-0.775v-5.167c0-0.428,0.347-0.775,0.775-0.775c0.428,0,0.775,0.347,0.775,0.775
				v5.167C432.24,317.972,431.892,318.319,431.464,318.319z M431.464,307.983c-0.428,0-0.775-0.347-0.775-0.775v-5.168
				c0-0.428,0.347-0.775,0.775-0.775c0.428,0,0.775,0.347,0.775,0.775v5.168C432.24,307.636,431.892,307.983,431.464,307.983z" />
      </g>
      <g>
        <path style="fill:#B19CFE;" d="M431.464,297.625c-0.428,0-0.775-0.347-0.775-0.775v-1.808h-0.65
				c-0.428,0-0.775-0.347-0.775-0.775c0-0.428,0.347-0.775,0.775-0.775h1.425c0.428,0,0.775,0.347,0.775,0.775v2.583
				C432.24,297.278,431.892,297.625,431.464,297.625z" />
      </g>
    </g>
    <g>
      <path style="fill:#B19CFE;" d="M407.411,215.995h-67.805c-4.076,0-7.38,3.304-7.38,7.38v140.909c0,4.076,3.304,7.38,7.38,7.38
			h67.805c4.076,0,7.38-3.304,7.38-7.38V223.375C414.791,219.299,411.487,215.995,407.411,215.995z" />
      <g>
        <path style="fill:#0F1B63;" d="M388.67,224.115h-37.297c-0.647,0-1.172-0.525-1.172-1.172v-0.151
				c0-0.647,0.525-1.172,1.172-1.172h37.297c0.647,0,1.172,0.525,1.172,1.172v0.151C389.842,223.59,389.317,224.115,388.67,224.115z
				" />
        <path style="fill:#0F1B63;" d="M396.816,222.867c0,0.689-0.559,1.248-1.248,1.248c-0.689,0-1.248-0.559-1.248-1.248
				c0-0.689,0.559-1.248,1.248-1.248C396.257,221.619,396.816,222.178,396.816,222.867z" />
      </g>
      <rect x="336.771" y="230.131" style="fill:#FFFFFF;" width="73.475" height="45.149" />
      <polygon style="fill:#FFC655;" points="387.448,248.997 382.061,255.441 368.122,238.766 344.816,266.645 372.695,266.645
			391.426,266.645 402.201,266.645 		" />
      <g>
        <rect x="336.771" y="335.083" style="fill:#FFFFFF;" width="34.689" height="20.346" />
        <polygon style="fill:#FFC655;" points="360.697,342.99 358.153,346.032 351.572,338.159 340.569,351.322 353.731,351.322
				362.575,351.322 367.662,351.322 			" />
      </g>
      <g>
        <g>
          <g>
            <g>
              <rect x="336.771" y="286.893" style="fill:#B19CFE;" width="34.689" height="1.949" />
            </g>
          </g>
          <g>
            <rect x="336.771" y="282.809" style="fill:#B19CFE;" width="34.689" height="1.949" />
          </g>
          <g>
            <g>
              <rect x="336.771" y="290.883" style="fill:#B19CFE;" width="21.934" height="1.949" />
            </g>
          </g>
          <g>
            <g>
              <rect x="360.264" y="290.883" style="fill:#B19CFE;" width="11.195" height="1.949" />
            </g>
          </g>
          <g>
            <g>
              <rect x="336.771" y="294.868" style="fill:#B19CFE;" width="30.69" height="1.949" />
            </g>
          </g>
          <g>
            <g>
              <rect x="336.771" y="298.962" style="fill:#B19CFE;" width="10.659" height="1.949" />
            </g>
          </g>
          <g>
            <g>
              <rect x="349.269" y="298.962" style="fill:#B19CFE;" width="7.677" height="1.949" />
            </g>
          </g>
        </g>
      </g>
      <g>
        <g>
          <g>
            <g>
              <rect x="375.557" y="314.188" style="fill:#B19CFE;" width="34.689" height="1.949" />
            </g>
          </g>
          <g>
            <rect x="375.557" y="310.103" style="fill:#B19CFE;" width="34.689" height="1.949" />
          </g>
          <g>
            <g>
              <rect x="375.557" y="318.177" style="fill:#B19CFE;" width="21.934" height="1.949" />
            </g>
          </g>
          <g>
            <g>
              <rect x="399.05" y="318.177" style="fill:#B19CFE;" width="11.195" height="1.949" />
            </g>
          </g>
          <g>
            <g>
              <rect x="375.557" y="322.162" style="fill:#B19CFE;" width="30.69" height="1.949" />
            </g>
          </g>
          <g>
            <g>
              <rect x="375.557" y="326.256" style="fill:#B19CFE;" width="10.659" height="1.949" />
            </g>
          </g>
          <g>
            <g>
              <rect x="388.055" y="326.256" style="fill:#B19CFE;" width="7.677" height="1.949" />
            </g>
          </g>
        </g>
      </g>
      <g>
        <g>
          <g>
            <g>
              <rect x="375.557" y="286.893" style="fill:#B19CFE;" width="34.689" height="1.949" />
            </g>
          </g>
          <g>
            <rect x="375.557" y="282.809" style="fill:#B19CFE;" width="34.689" height="1.949" />
          </g>
          <g>
            <g>
              <rect x="375.557" y="290.883" style="fill:#B19CFE;" width="21.934" height="1.949" />
            </g>
          </g>
          <g>
            <g>
              <rect x="399.05" y="290.883" style="fill:#B19CFE;" width="11.195" height="1.949" />
            </g>
          </g>
          <g>
            <g>
              <rect x="375.557" y="294.868" style="fill:#B19CFE;" width="34.689" height="1.949" />
            </g>
          </g>
          <g>
            <g>
              <rect x="375.557" y="298.962" style="fill:#B19CFE;" width="10.659" height="1.949" />
            </g>
          </g>
          <g>
            <g>
              <rect x="388.055" y="298.962" style="fill:#B19CFE;" width="22.191" height="1.949" />
            </g>
          </g>
        </g>
      </g>
      <g>
        <g>
          <g>
            <g>
              <rect x="336.771" y="314.188" style="fill:#B19CFE;" width="34.689" height="1.949" />
            </g>
          </g>
          <g>
            <rect x="336.771" y="310.103" style="fill:#B19CFE;" width="34.689" height="1.949" />
          </g>
          <g>
            <g>
              <rect x="336.771" y="318.177" style="fill:#B19CFE;" width="34.689" height="1.949" />
            </g>
          </g>
          <g>
            <g>
              <rect x="336.771" y="322.162" style="fill:#B19CFE;" width="34.689" height="1.949" />
            </g>
          </g>
          <g>
            <g>
              <rect x="336.771" y="326.256" style="fill:#B19CFE;" width="34.689" height="1.949" />
            </g>
          </g>
        </g>
      </g>
      <g>
        <g>
          <g>
            <g>
              <rect x="375.557" y="339.833" style="fill:#B19CFE;" width="34.689" height="1.949" />
            </g>
          </g>
          <g>
            <rect x="375.557" y="335.749" style="fill:#B19CFE;" width="34.689" height="1.949" />
          </g>
          <g>
            <g>
              <rect x="388.311" y="343.822" style="fill:#B19CFE;" width="21.934" height="1.949" />
            </g>
          </g>
          <g>
            <g>
              <rect x="375.557" y="343.822" style="fill:#B19CFE;" width="11.195" height="1.949" />
            </g>
          </g>
          <g>
            <g>
              <rect x="375.557" y="347.807" style="fill:#B19CFE;" width="26.636" height="1.949" />
            </g>
          </g>
          <g>
            <g>
              <rect x="404.043" y="347.807" style="fill:#B19CFE;" width="6.202" height="1.949" />
            </g>
          </g>
          <g>
            <g>
              <rect x="384.658" y="351.901" style="fill:#B19CFE;" width="25.588" height="1.949" />
            </g>
          </g>
          <g>
            <g>
              <rect x="375.557" y="351.901" style="fill:#B19CFE;" width="7.677" height="1.949" />
            </g>
          </g>
        </g>
      </g>
    </g>
    <g>
      <path style="fill:#542FD0;" d="M348.653,407.864h-54.237c-5.015,0-9.081-4.066-9.081-9.081v-18.037
			c0-5.015,4.066-9.081,9.081-9.081h54.237c5.015,0,9.081,4.066,9.081,9.081v18.037
			C357.734,403.798,353.668,407.864,348.653,407.864z" />
    </g>
    <g>
      <g>
        <g>
          <path style="fill:#B19CFE;" d="M434.258,347.825c0,1.865-1.512,3.377-3.377,3.377c-1.865,0-3.377-1.512-3.377-3.377
					c0-1.865,1.512-3.377,3.377-3.377C432.746,344.448,434.258,345.96,434.258,347.825z" />
        </g>
        <g>
          <path style="fill:#B19CFE;"
            d="M430.88,354.154c-3.49,0-6.329-2.839-6.329-6.329c0-3.49,2.84-6.329,6.329-6.329
					c3.49,0,6.329,2.839,6.329,6.329C437.21,351.315,434.37,354.154,430.88,354.154z M430.88,342.27
					c-3.063,0-5.554,2.492-5.554,5.554s2.492,5.554,5.554,5.554c3.063,0,5.554-2.492,5.554-5.554S433.943,342.27,430.88,342.27z" />
        </g>
      </g>
    </g>
    <g>
      <path style="fill:#542FD0;" d="M460.024,298.274h-54.237c-5.015,0-9.081-4.066-9.081-9.081v-18.037
			c0-5.015,4.066-9.081,9.081-9.081h54.237c5.015,0,9.081,4.066,9.081,9.081v18.037
			C469.105,294.208,465.039,298.274,460.024,298.274z" />
    </g>
    <g>
      <g>
        <g>
          <rect x="242.526" y="304.901" style="fill:#0F1B63;" width="22.781" height="2.067" />
        </g>
        <g>
          <rect x="271.151" y="304.901" style="fill:#0F1B63;" width="52.757" height="2.067" />
        </g>
        <g>
          <path style="fill:#0F1B63;" d="M296.869,322.686c-9.056,0-18.132-0.011-27.166-0.033l0.004-2.067
					c18.066,0.043,36.3,0.043,54.198,0l0.005,2.067C314.96,322.675,305.925,322.686,296.869,322.686z" />
        </g>
        <g>
          <rect x="261.403" y="312.744" style="fill:#0F1B63;" width="62.505" height="2.067" />
        </g>
        <g>
          <rect x="258.003" y="328.462" style="fill:#0F1B63;" width="65.906" height="2.067" />
        </g>
        <g>
          <rect x="248.862" y="336.305" style="fill:#0F1B63;" width="75.047" height="2.067" />
        </g>
      </g>
      <g>
        <g>
          <rect x="119.403" y="186.717" style="fill:#B19CFE;" width="35.285" height="2.067" />
        </g>
        <g>
          <rect x="200.285" y="186.717" style="fill:#B19CFE;" width="36.412" height="2.067" />
        </g>
        <g>
          <g>
            <g>
              <rect x="211.439" y="194.56" style="fill:#FFC655;" width="25.258" height="2.067" />
            </g>
          </g>
        </g>
        <g>
          <g>
            <g>
              <rect x="201.049" y="210.279" style="fill:#FFC655;" width="35.648" height="2.067" />
            </g>
          </g>
        </g>
        <g>
          <g>
            <g>
              <rect x="194.067" y="218.121" style="fill:#FFC655;" width="42.63" height="2.067" />
            </g>
          </g>
        </g>
        <g>
          <g>
            <g>
              <rect x="181.862" y="227.291" style="fill:#FFC655;" width="54.835" height="2.067" />
            </g>
          </g>
        </g>
        <g>
          <rect x="160.407" y="186.717" style="fill:#FFC655;" width="35.285" height="2.067" />
        </g>
        <g>
          <g>
            <g>
              <path style="fill:#FFC655;"
                d="M208.212,204.502c-5.39,0-10.799-0.008-21.617-0.023l-7.033-0.01l0.002-2.067l7.034,0.01
							c21.632,0.03,21.634,0.03,43.113,0l6.986-0.01v2.067l-6.983,0.01C218.973,204.495,213.602,204.502,208.212,204.502z" />
            </g>
          </g>
        </g>
        <g>
          <path style="fill:#B19CFE;" d="M146.442,204.502c-9.056,0-18.091-0.011-27.041-0.032l0.004-2.067
					c17.898,0.043,36.134,0.043,54.2,0l0.004,2.067C164.574,204.492,155.497,204.502,146.442,204.502z" />
        </g>
        <g>
          <rect x="119.403" y="194.56" style="fill:#B19CFE;" width="87.025" height="2.067" />
        </g>
        <g>
          <rect x="119.403" y="227.291" style="fill:#B19CFE;" width="57.628" height="2.067" />
        </g>
        <g>
          <rect x="119.403" y="210.279" style="fill:#B19CFE;" width="77.146" height="2.067" />
        </g>
        <g>
          <rect x="119.403" y="218.121" style="fill:#B19CFE;" width="69.917" height="2.067" />
        </g>
        <g>
          <g>
            <g>
              <circle style="fill:#D42190;" cx="112.017" cy="187.751" r="1.425" />
            </g>
            <g>
              <path style="fill:#D42190;" d="M113.442,195.594c0,0.787-0.638,1.425-1.425,1.425c-0.787,0-1.425-0.638-1.425-1.425
							c0-0.787,0.638-1.425,1.425-1.425C112.804,194.168,113.442,194.806,113.442,195.594z" />
            </g>
            <g>
              <circle style="fill:#D42190;" cx="112.017" cy="203.436" r="1.425" />
            </g>
            <g>
              <path style="fill:#D42190;" d="M113.442,211.279c0,0.787-0.638,1.425-1.425,1.425c-0.787,0-1.425-0.638-1.425-1.425
							c0-0.787,0.638-1.425,1.425-1.425C112.804,209.854,113.442,210.492,113.442,211.279z" />
            </g>
            <g>
              <circle style="fill:#D42190;" cx="112.017" cy="219.155" r="1.425" />
            </g>
            <g>
              <path style="fill:#D42190;" d="M113.442,228.324c0,0.787-0.638,1.425-1.425,1.425c-0.787,0-1.425-0.638-1.425-1.425
							s0.638-1.425,1.425-1.425C112.804,226.899,113.442,227.537,113.442,228.324z" />
            </g>
          </g>
        </g>
        <g>
          <path style="fill:#D42190;" d="M246.103,232.997c-0.286,0-0.517-0.231-0.517-0.517V186.59c0-0.286,0.231-0.517,0.517-0.517
					s0.517,0.231,0.517,0.517v45.891C246.619,232.766,246.388,232.997,246.103,232.997z" />
        </g>
      </g>
      <g>
        <g>
          <path style="fill:#0F1B63;" d="M158.137,331.986h-3.177c-0.293,0-0.529-0.237-0.529-0.529c0-0.293,0.237-0.529,0.529-0.529
					h3.177c0.293,0,0.529,0.237,0.529,0.529C158.667,331.749,158.43,331.986,158.137,331.986z M151.784,331.986h-3.176
					c-0.293,0-0.529-0.237-0.529-0.529c0-0.293,0.237-0.529,0.529-0.529h3.176c0.293,0,0.529,0.237,0.529,0.529
					C152.314,331.749,152.077,331.986,151.784,331.986z M145.431,331.986h-1.286c-0.723,0-1.438-0.185-2.067-0.534
					c-0.257-0.142-0.348-0.464-0.207-0.72c0.143-0.257,0.468-0.347,0.72-0.206c0.473,0.262,1.01,0.401,1.554,0.401h1.286
					c0.293,0,0.529,0.237,0.529,0.529C145.961,331.749,145.724,331.986,145.431,331.986z M140.493,329.048
					c-0.243,0-0.462-0.169-0.516-0.417c-0.065-0.299-0.098-0.606-0.098-0.911v-2.371c0-0.293,0.237-0.529,0.529-0.529
					s0.529,0.237,0.529,0.529v2.371c0,0.229,0.025,0.461,0.074,0.687c0.062,0.286-0.119,0.568-0.404,0.63
					C140.568,329.044,140.53,329.048,140.493,329.048z M140.408,322.702c-0.293,0-0.529-0.237-0.529-0.529v-3.177
					c0-0.293,0.237-0.529,0.529-0.529s0.529,0.237,0.529,0.529v3.177C140.937,322.465,140.701,322.702,140.408,322.702z
					 M140.408,316.349c-0.293,0-0.529-0.237-0.529-0.53v-3.177c0-0.293,0.237-0.529,0.529-0.529s0.529,0.237,0.529,0.529v3.177
					C140.937,316.112,140.701,316.349,140.408,316.349z M140.408,309.995c-0.293,0-0.529-0.237-0.529-0.529v-3.177
					c0-0.293,0.237-0.529,0.529-0.529s0.529,0.237,0.529,0.529v3.177C140.937,309.759,140.701,309.995,140.408,309.995z
					 M140.408,303.642c-0.293,0-0.529-0.237-0.529-0.529v-0.387c0-1.077,0.402-2.106,1.133-2.896
					c0.199-0.214,0.533-0.228,0.749-0.029c0.214,0.198,0.228,0.534,0.029,0.748c-0.549,0.594-0.852,1.367-0.852,2.178v0.387
					C140.937,303.406,140.701,303.642,140.408,303.642z M160.121,299.519h-3.176c-0.293,0-0.529-0.237-0.529-0.529
					s0.237-0.529,0.529-0.529h3.176c0.293,0,0.53,0.237,0.53,0.529S160.414,299.519,160.121,299.519z M153.768,299.519h-3.176
					c-0.293,0-0.529-0.237-0.529-0.529s0.237-0.529,0.529-0.529h3.176c0.293,0,0.529,0.237,0.529,0.529
					S154.061,299.519,153.768,299.519z M147.415,299.519h-3.176c-0.293,0-0.529-0.237-0.529-0.529s0.237-0.529,0.529-0.529h3.176
					c0.293,0,0.529,0.237,0.529,0.529S147.708,299.519,147.415,299.519z" />
        </g>
        <g>
          <rect x="152.655" y="318.238" style="fill:#0F1B63;" width="17.005" height="2.118" />
        </g>
        <g>
          <rect x="174.111" y="318.238" style="fill:#0F1B63;" width="27.472" height="2.118" />
        </g>
        <g>
          <rect x="184.578" y="336.254" style="fill:#0F1B63;" width="17.004" height="2.118" />
        </g>
        <g>
          <rect x="152.655" y="336.254" style="fill:#0F1B63;" width="27.473" height="2.118" />
        </g>
        <g>
          <rect x="152.655" y="324.374" style="fill:#0F1B63;" width="29.909" height="2.118" />
        </g>
        <g>
          <rect x="187.014" y="324.374" style="fill:#0F1B63;" width="14.568" height="2.118" />
        </g>
        <g>
          <rect x="152.655" y="330.398" style="fill:#0F1B63;" width="24.613" height="2.118" />
        </g>
        <g>
          <rect x="184.881" y="330.398" style="fill:#0F1B63;" width="16.701" height="2.118" />
        </g>
        <g>
          <g>
            <rect x="152.655" y="292.654" style="fill:#FFC655;" width="8.902" height="16.576" />
          </g>
          <g>
            <g>
              <rect x="166.621" y="286.361" style="fill:#D42190;" width="8.902" height="22.868" />
            </g>
          </g>
          <g>
            <rect x="180.127" y="273.315" style="fill:#542FD0;" width="8.902" height="35.914" />
          </g>
        </g>
        <g>
          <rect x="179.62" y="330.398" style="fill:#0F1B63;" width="3.195" height="2.118" />
        </g>
      </g>
      <g>
        <rect x="256.468" y="217.052" style="fill:#B19CFE;" width="66.639" height="74.35" />
        <g>
          <g>
            <rect x="261.848" y="230.266" style="fill:#FFFFFF;" width="46.466" height="1.55" />
          </g>
          <g>
            <path style="fill:#FFFFFF;" d="M285.032,243.098c-7.98,0-15.945-0.008-23.185-0.026l0.004-1.55
						c14.478,0.036,31.849,0.036,46.462,0l0.004,1.55C301.008,243.09,293.012,243.098,285.032,243.098z" />
          </g>
          <g>
            <rect x="261.848" y="235.894" style="fill:#FFFFFF;" width="46.466" height="1.55" />
          </g>
          <g>
            <rect x="261.848" y="247.176" style="fill:#FFFFFF;" width="33.874" height="1.55" />
          </g>
          <g>
            <rect x="261.848" y="285.061" style="fill:#FFFFFF;" width="46.466" height="1.55" />
          </g>
          <g>
            <path style="fill:#FFFFFF;" d="M308.313,275.356c-14.615-0.035-31.985-0.035-46.462,0l-0.004-1.55
						c14.481-0.034,31.854-0.034,46.47,0L308.313,275.356z" />
          </g>
          <g>
            <rect x="261.848" y="279.434" style="fill:#FFFFFF;" width="46.466" height="1.55" />
          </g>
          <g>
            <rect x="261.848" y="268.152" style="fill:#FFFFFF;" width="33.874" height="1.55" />
          </g>
        </g>
        <g>
          <path style="fill:#542FD0;" d="M324.14,292.435h-68.706v-76.44h68.706V292.435z M256.468,291.402h66.639v-74.374h-66.639
					V291.402z" />
        </g>
        <g>
          <g>
            <rect x="255.951" y="216.511" style="fill:#542FD0;" width="67.673" height="8.906" />
          </g>
        </g>
        <g>
          <g>
            <path style="fill:#FFFFFF;" d="M304.298,264.192c-0.183,0-0.365-0.064-0.514-0.194l-5.207-4.601
						c-0.167-0.147-0.261-0.359-0.261-0.581c0-0.222,0.095-0.434,0.261-0.581l5.207-4.601c0.321-0.283,0.81-0.255,1.095,0.068
						c0.283,0.321,0.252,0.81-0.068,1.094l-4.55,4.02l4.55,4.02c0.32,0.284,0.35,0.773,0.068,1.094
						C304.726,264.104,304.512,264.192,304.298,264.192z" />
          </g>
          <g>
            <path style="fill:#FFFFFF;" d="M312.331,264.192c-0.214,0-0.428-0.088-0.581-0.262c-0.283-0.321-0.252-0.81,0.068-1.094
						l4.55-4.02l-4.55-4.02c-0.32-0.284-0.35-0.773-0.068-1.094c0.284-0.321,0.773-0.35,1.095-0.068l5.207,4.601
						c0.167,0.147,0.261,0.359,0.261,0.581c0,0.222-0.095,0.433-0.261,0.581l-5.207,4.601
						C312.697,264.128,312.514,264.192,312.331,264.192z" />
          </g>
        </g>
        <g>
          <g>
            <g>
              <path style="fill:#FFFFFF;"
                d="M262.36,220.965l1.805-1.805c0.171-0.171,0.171-0.447,0-0.618
							c-0.171-0.171-0.447-0.171-0.618,0l-1.805,1.805l-1.805-1.805c-0.171-0.171-0.447-0.171-0.618,0
							c-0.171,0.171-0.171,0.447,0,0.618l1.805,1.805l-1.805,1.805c-0.171,0.171-0.171,0.447,0,0.618
							c0.085,0.085,0.197,0.128,0.309,0.128c0.112,0,0.224-0.043,0.309-0.128l1.805-1.805l1.805,1.805
							c0.085,0.085,0.197,0.128,0.309,0.128c0.112,0,0.224-0.043,0.309-0.128c0.171-0.171,0.171-0.447,0-0.618L262.36,220.965z" />
            </g>
          </g>
          <g>
            <g>
              <path style="fill:#FFFFFF;" d="M270.103,223.516c-1.407,0-2.552-1.145-2.552-2.551c0-1.407,1.145-2.551,2.552-2.551
							c1.407,0,2.551,1.145,2.551,2.551C272.654,222.372,271.51,223.516,270.103,223.516z M270.103,219.23
							c-0.956,0-1.734,0.778-1.734,1.734c0,0.956,0.778,1.734,1.734,1.734s1.734-0.778,1.734-1.734
							C271.837,220.008,271.059,219.23,270.103,219.23z" />
            </g>
          </g>
          <g>
            <g>
              <path style="fill:#FFFFFF;" d="M279.974,223.516h-4.158c-0.242,0-0.437-0.196-0.437-0.437c0-0.241,0.195-0.437,0.437-0.437
							h4.158c0.242,0,0.437,0.196,0.437,0.437C280.411,223.32,280.215,223.516,279.974,223.516z" />
            </g>
          </g>
        </g>
      </g>
    </g>
    <path style="fill:#0F1B63;" d="M235.172,116.956l-6.018,1.904c-0.2,0.063-0.389,0.146-0.569,0.24
		c-1.813-3.116-4.137-5.829-6.828-8.065c0.126-0.166,0.243-0.34,0.34-0.529l2.883-5.615c0.897-1.747,0.205-3.898-1.542-4.796
		l-5.615-2.883c-1.747-0.896-3.899-0.205-4.796,1.542l-2.883,5.615c-0.097,0.189-0.17,0.385-0.231,0.583
		c-3.295-0.861-6.755-1.174-10.249-0.873c-0.027-0.201-0.068-0.403-0.131-0.603l-1.904-6.018c-0.592-1.873-2.598-2.915-4.471-2.322
		l-6.018,1.904c-1.873,0.592-2.914,2.598-2.322,4.471l1.904,6.018c0.063,0.2,0.146,0.389,0.24,0.569
		c-3.116,1.813-5.829,4.137-8.065,6.828c-0.166-0.126-0.34-0.243-0.529-0.34l-5.615-2.883c-0.841-0.432-1.8-0.513-2.701-0.228
		c-0.005,0.002-0.011,0.003-0.016,0.006c-0.906,0.291-1.644,0.918-2.079,1.764l-2.883,5.615l0,0
		c-0.897,1.747-0.205,3.898,1.542,4.796l5.615,2.883c0.19,0.098,0.386,0.168,0.584,0.229c-0.861,3.295-1.175,6.756-0.874,10.25
		c-0.201,0.027-0.403,0.068-0.603,0.131l-6.018,1.904c-1.873,0.592-2.914,2.598-2.322,4.471l1.904,6.018
		c0.592,1.873,2.598,2.914,4.471,2.322l6.018-1.904c0.2-0.063,0.389-0.146,0.569-0.24c1.813,3.117,4.138,5.83,6.83,8.067
		c-0.125,0.165-0.244,0.337-0.342,0.527l-2.883,5.615c-0.435,0.846-0.514,1.812-0.223,2.717c0.291,0.906,0.918,1.644,1.764,2.078
		l5.615,2.883l0,0c0.868,0.446,1.836,0.499,2.7,0.225c0.875-0.277,1.644-0.889,2.095-1.768l2.883-5.615
		c0.098-0.19,0.168-0.386,0.229-0.584c3.295,0.861,6.756,1.174,10.251,0.874c0.027,0.201,0.068,0.403,0.131,0.604l1.904,6.018
		c0.592,1.873,2.598,2.914,4.471,2.322l6.018-1.904c1.873-0.592,2.914-2.598,2.322-4.471l-1.904-6.018
		c-0.063-0.2-0.146-0.389-0.24-0.569c3.117-1.813,5.83-4.138,8.067-6.83c0.165,0.126,0.337,0.244,0.528,0.342l5.615,2.883
		c0.868,0.446,1.836,0.499,2.701,0.226c0.875-0.277,1.644-0.889,2.095-1.768l2.884-5.615c0.897-1.747,0.205-3.899-1.542-4.796
		l-5.615-2.883c-0.189-0.097-0.385-0.17-0.584-0.232c0.86-3.295,1.174-6.755,0.873-10.248c0.201-0.027,0.403-0.068,0.604-0.131
		l6.018-1.904c1.873-0.592,2.914-2.598,2.322-4.47l-1.904-6.018C239.05,117.406,237.045,116.364,235.172,116.956z M207.317,150.359
		c-8.795,2.782-18.214-2.11-20.996-10.905c-2.782-8.795,2.11-18.214,10.905-20.996c8.795-2.782,18.213,2.11,20.995,10.905
		C221.003,138.159,216.111,147.577,207.317,150.359z" />
    <g>
      <path style="fill:#B19CFE;"
        d="M227.573,256.675l-1.463,3.582c-0.049,0.119-0.084,0.24-0.11,0.362
			c-2.179-0.368-4.369-0.336-6.478,0.055c-0.029-0.124-0.065-0.248-0.116-0.368l-1.516-3.56c-0.472-1.108-1.756-1.625-2.864-1.154
			l-3.56,1.515c-1.107,0.471-1.625,1.757-1.154,2.864l1.516,3.56c0.051,0.12,0.115,0.231,0.184,0.338
			c-1.697,1.215-3.202,2.723-4.43,4.487c-0.105-0.066-0.216-0.126-0.336-0.175l-3.582-1.463c-1.115-0.455-2.392,0.081-2.847,1.196
			l-1.463,3.582c-0.455,1.115,0.081,2.392,1.196,2.847l3.582,1.463c0.119,0.049,0.24,0.084,0.362,0.11
			c-0.368,2.179-0.336,4.369,0.055,6.478c-0.124,0.029-0.248,0.065-0.368,0.116l-3.56,1.516c-0.534,0.227-0.947,0.647-1.166,1.183
			c-0.001,0.003-0.003,0.007-0.004,0.01c-0.218,0.541-0.212,1.135,0.016,1.671l1.516,3.56l0,0c0.472,1.107,1.757,1.625,2.864,1.154
			l3.56-1.516c0.12-0.051,0.231-0.116,0.337-0.185c1.215,1.698,2.723,3.203,4.488,4.431c-0.066,0.105-0.126,0.217-0.175,0.336
			l-1.463,3.582c-0.455,1.115,0.081,2.392,1.196,2.847l3.582,1.463c1.115,0.455,2.392-0.081,2.847-1.196l1.463-3.582
			c0.049-0.119,0.084-0.24,0.11-0.362c2.179,0.368,4.37,0.336,6.479-0.056c0.029,0.124,0.063,0.247,0.115,0.368l1.516,3.56
			c0.228,0.537,0.652,0.952,1.193,1.17c0.541,0.218,1.135,0.212,1.671-0.016l3.56-1.516l0,0c0.55-0.234,0.955-0.669,1.165-1.184
			c0.213-0.521,0.226-1.123-0.011-1.68l-1.515-3.56c-0.051-0.121-0.116-0.231-0.186-0.337c1.698-1.215,3.203-2.723,4.431-4.488
			c0.106,0.066,0.217,0.126,0.336,0.175l3.582,1.463c1.115,0.455,2.392-0.081,2.847-1.196l1.463-3.582
			c0.455-1.115-0.081-2.392-1.196-2.847l-3.582-1.463c-0.119-0.049-0.24-0.084-0.362-0.11c0.368-2.179,0.336-4.37-0.056-6.479
			c0.124-0.029,0.247-0.063,0.368-0.115l3.56-1.516c0.55-0.234,0.955-0.67,1.165-1.184c0.213-0.521,0.226-1.123-0.012-1.68
			l-1.515-3.561c-0.472-1.108-1.757-1.625-2.864-1.154l-3.56,1.516c-0.12,0.051-0.231,0.115-0.338,0.184
			c-1.215-1.697-2.723-3.202-4.487-4.43c0.066-0.105,0.126-0.217,0.175-0.336l1.463-3.582c0.455-1.115-0.081-2.392-1.196-2.847
			l-3.582-1.463C229.305,255.023,228.028,255.56,227.573,256.675z M232.391,282.898c-2.138,5.235-8.136,7.755-13.371,5.618
			c-5.235-2.138-7.755-8.136-5.618-13.371c2.138-5.235,8.136-7.755,13.371-5.617C232.008,271.665,234.528,277.663,232.391,282.898z" />
      <path style="fill:none;stroke:#B19CFE;stroke-width:0.5;stroke-miterlimit:10;" d="M203.848,238.489l-1.904,1.929
			c-0.063,0.064-0.118,0.133-0.168,0.205c-1.313-0.82-2.739-1.385-4.21-1.694c0.015-0.088,0.024-0.178,0.023-0.269l-0.03-2.71
			c-0.01-0.843-0.704-1.522-1.547-1.512l-2.711,0.031c-0.843,0.01-1.522,0.703-1.512,1.547l0.031,2.71
			c0.001,0.091,0.013,0.18,0.029,0.268c-1.424,0.334-2.801,0.908-4.067,1.723c-0.051-0.071-0.106-0.139-0.171-0.203l-1.929-1.904
			c-0.6-0.592-1.571-0.586-2.163,0.014l-1.904,1.929c-0.592,0.6-0.586,1.571,0.014,2.163l1.929,1.904
			c0.064,0.063,0.133,0.118,0.205,0.168c-0.82,1.313-1.385,2.74-1.694,4.21c-0.088-0.015-0.178-0.024-0.269-0.023l-2.71,0.031
			c-0.406,0.005-0.786,0.166-1.071,0.455c-0.002,0.002-0.004,0.003-0.005,0.005c-0.286,0.292-0.44,0.678-0.436,1.087l0.031,2.71l0,0
			c0.01,0.843,0.704,1.522,1.547,1.512l2.711-0.031c0.092-0.001,0.18-0.013,0.268-0.03c0.334,1.424,0.908,2.801,1.723,4.068
			c-0.071,0.051-0.139,0.107-0.203,0.171l-1.904,1.929c-0.592,0.6-0.586,1.571,0.014,2.163l1.929,1.904
			c0.6,0.592,1.571,0.586,2.163-0.014l1.904-1.929c0.063-0.064,0.118-0.133,0.168-0.205c1.313,0.82,2.74,1.385,4.211,1.694
			c-0.015,0.088-0.025,0.177-0.024,0.269l0.031,2.71c0.005,0.409,0.168,0.791,0.46,1.077c0.292,0.286,0.678,0.44,1.087,0.436
			l2.711-0.03l0,0c0.419-0.005,0.797-0.179,1.071-0.456c0.277-0.28,0.446-0.667,0.441-1.091l-0.031-2.71
			c-0.001-0.092-0.014-0.18-0.03-0.268c1.424-0.334,2.801-0.908,4.068-1.723c0.051,0.071,0.107,0.14,0.171,0.203l1.929,1.904
			c0.6,0.593,1.571,0.586,2.163-0.014l1.904-1.929c0.592-0.6,0.586-1.571-0.014-2.163l-1.929-1.904
			c-0.064-0.063-0.133-0.118-0.205-0.168c0.82-1.313,1.385-2.74,1.695-4.211c0.088,0.015,0.177,0.025,0.269,0.024l2.71-0.031
			c0.419-0.005,0.798-0.178,1.071-0.456c0.277-0.281,0.446-0.667,0.441-1.091l-0.03-2.711c-0.01-0.843-0.704-1.522-1.547-1.512
			l-2.71,0.031c-0.091,0.001-0.18,0.013-0.268,0.029c-0.334-1.424-0.908-2.801-1.723-4.067c0.071-0.051,0.14-0.107,0.203-0.171
			l1.904-1.929c0.592-0.6,0.586-1.571-0.014-2.163l-1.929-1.904C205.411,237.883,204.441,237.889,203.848,238.489z M199.965,256.758
			c-2.783,2.82-7.34,2.85-10.16,0.067c-2.82-2.783-2.85-7.34-0.067-10.16c2.782-2.819,7.34-2.849,10.16-0.067
			C202.717,249.382,202.747,253.939,199.965,256.758z" />
    </g>
    <g>
      <g>
        <g>
          <rect x="39.249" y="213.29" style="fill:#0F1B63;" width="12.355" height="2.067" />
        </g>
        <g>
          <rect x="56.71" y="213.29" style="fill:#0F1B63;" width="31.514" height="2.067" />
        </g>
        <g>
          <rect x="68.717" y="235.479" style="fill:#0F1B63;" width="19.507" height="2.067" />
        </g>
        <g>
          <rect x="39.249" y="235.479" style="fill:#0F1B63;" width="24.363" height="2.067" />
        </g>
        <g>
          <rect x="39.249" y="220.846" style="fill:#0F1B63;" width="27.158" height="2.067" />
        </g>
        <g>
          <rect x="71.512" y="220.846" style="fill:#0F1B63;" width="16.712" height="2.067" />
        </g>
        <g>
          <rect x="39.249" y="228.266" style="fill:#0F1B63;" width="21.082" height="2.067" />
        </g>
        <g>
          <rect x="69.065" y="228.266" style="fill:#0F1B63;" width="19.159" height="2.067" />
        </g>
        <g>
          <rect x="63.029" y="228.266" style="fill:#0F1B63;" width="3.665" height="2.067" />
        </g>
      </g>
      <g>
        <g>
          <rect x="364.877" y="406.848" style="fill:#0F1B63;" width="12.355" height="2.067" />
        </g>
        <g>
          <rect x="382.337" y="406.848" style="fill:#0F1B63;" width="31.514" height="2.067" />
        </g>
        <g>
          <rect x="394.344" y="429.037" style="fill:#0F1B63;" width="19.507" height="2.067" />
        </g>
        <g>
          <rect x="364.877" y="429.037" style="fill:#0F1B63;" width="24.362" height="2.067" />
        </g>
        <g>
          <rect x="364.877" y="414.405" style="fill:#0F1B63;" width="27.157" height="2.067" />
        </g>
        <g>
          <rect x="397.139" y="414.405" style="fill:#0F1B63;" width="16.712" height="2.067" />
        </g>
        <g>
          <rect x="364.877" y="421.824" style="fill:#0F1B63;" width="21.082" height="2.067" />
        </g>
        <g>
          <rect x="394.692" y="421.824" style="fill:#0F1B63;" width="19.159" height="2.067" />
        </g>
        <g>
          <rect x="388.656" y="421.824" style="fill:#0F1B63;" width="3.665" height="2.067" />
        </g>
      </g>
    </g>
    <path style="fill:#0F1B63;" d="M405.94,151.791l-4.852,1.039c-0.161,0.035-0.315,0.085-0.463,0.145
		c-1.185-2.574-2.801-4.871-4.74-6.823c0.111-0.12,0.216-0.248,0.306-0.389l2.677-4.178c0.833-1.3,0.453-3.035-0.847-3.868
		l-4.178-2.677c-1.3-0.832-3.035-0.453-3.868,0.848l-2.677,4.178c-0.09,0.14-0.162,0.288-0.225,0.439
		c-2.514-0.92-5.198-1.425-7.955-1.451c-0.006-0.16-0.023-0.32-0.057-0.482l-1.039-4.852c-0.323-1.51-1.814-2.475-3.324-2.152
		l-4.852,1.039c-1.51,0.323-2.475,1.815-2.152,3.325l1.039,4.852c0.035,0.161,0.085,0.315,0.145,0.463
		c-2.574,1.185-4.871,2.801-6.823,4.739c-0.12-0.111-0.248-0.216-0.388-0.306l-4.178-2.677c-0.626-0.401-1.37-0.536-2.096-0.381
		c-0.004,0.001-0.009,0.002-0.013,0.003c-0.731,0.16-1.355,0.595-1.759,1.225l-2.677,4.178h0c-0.832,1.3-0.453,3.035,0.848,3.868
		l4.178,2.677c0.142,0.091,0.29,0.161,0.44,0.223c-0.92,2.514-1.425,5.199-1.452,7.956c-0.159,0.006-0.32,0.023-0.482,0.057
		l-4.852,1.039c-1.51,0.323-2.475,1.814-2.152,3.325l1.039,4.852c0.323,1.51,1.814,2.475,3.324,2.152l4.852-1.039
		c0.161-0.035,0.315-0.085,0.463-0.145c1.185,2.575,2.801,4.872,4.741,6.824c-0.111,0.12-0.216,0.245-0.307,0.387l-2.677,4.178
		c-0.404,0.63-0.538,1.379-0.378,2.11c0.16,0.731,0.595,1.355,1.225,1.758l4.178,2.677l0,0c0.646,0.414,1.399,0.528,2.096,0.379
		c0.705-0.151,1.353-0.572,1.772-1.226l2.677-4.178c0.091-0.141,0.161-0.29,0.223-0.44c2.514,0.92,5.199,1.425,7.956,1.452
		c0.006,0.16,0.023,0.321,0.058,0.482l1.039,4.852c0.323,1.51,1.814,2.475,3.324,2.152l4.852-1.039
		c1.51-0.323,2.475-1.814,2.152-3.324l-1.039-4.852c-0.035-0.161-0.085-0.315-0.145-0.463c2.575-1.185,4.872-2.801,6.824-4.741
		c0.12,0.111,0.246,0.216,0.387,0.307l4.178,2.677c0.646,0.414,1.4,0.528,2.097,0.379c0.705-0.151,1.353-0.572,1.772-1.226
		l2.677-4.178c0.833-1.3,0.452-3.035-0.847-3.868l-4.178-2.677c-0.14-0.09-0.289-0.162-0.439-0.225
		c0.92-2.514,1.425-5.198,1.451-7.954c0.16-0.006,0.321-0.023,0.482-0.057l4.852-1.039c1.51-0.323,2.475-1.814,2.152-3.324
		l-1.039-4.852C408.941,152.433,407.45,151.468,405.94,151.791z M381.641,175.844c-7.091,1.518-14.095-3.015-15.613-10.106
		c-1.518-7.091,3.015-14.095,10.106-15.613c7.091-1.518,14.095,3.015,15.613,10.106
		C393.265,167.322,388.731,174.326,381.641,175.844z" />
  </g>
  <g id="TEXTS">
    <g>
      <text transform="matrix(1 0 0 1 285.2305 160.5649)"
        style="fill:#FFFFFF; font-family:'Montserrat-Bold'; font-size:25px;">&lt;/&gt;</text>
    </g>
    <g>
      <text transform="matrix(1 0 0 1 77.1318 418.2392)"
        style="fill:#FFFFFF; font-family:'Montserrat-Bold'; font-size:18px;">html</text>
    </g>
    <g>
      <text transform="matrix(1 0 0 1 119.415 265.9365)"
        style="fill:#FFFFFF; font-family:'Montserrat-Bold'; font-size:19.2946px;">js</text>
    </g>
    <g>
      <text transform="matrix(1 0 0 1 300.2344 396.8203)"
        style="fill:#FFFFFF; font-family:'Montserrat-Bold'; font-size:24.3464px;">c++</text>
    </g>
    <g>
      <text transform="matrix(1 0 0 1 408.5547 286.2461)"
        style="fill:#FFFFFF; font-family:'Montserrat-Bold'; font-size:18.2598px;">java</text>
    </g>
  </g>
</svg>