<svg width="24" height="24" viewBox="0 0 24 24" fill="none" xmlns="http://www.w3.org/2000/svg">
<path d="M19.5 19.5H8.25C7.85232 19.4995 7.47105 19.3414 7.18984 19.0602C6.90864 18.779 6.75046 18.3977 6.75 18V15C6.75046 14.6023 6.90864 14.221 7.18984 13.9398C7.47105 13.6586 7.85232 13.5005 8.25 13.5H19.5C19.8977 13.5005 20.279 13.6586 20.5602 13.9398C20.8414 14.221 20.9995 14.6023 21 15V18C20.9995 18.3977 20.8414 18.779 20.5602 19.0602C20.279 19.3414 19.8977 19.4995 19.5 19.5ZM19.5 14.9991L8.25 15V18H19.5V14.9991Z" fill="#1877F2"/>
<path d="M13.5 10.5H8.25C7.85232 10.4995 7.47105 10.3414 7.18984 10.0602C6.90864 9.77895 6.75046 9.39768 6.75 9V6C6.75046 5.60232 6.90864 5.22105 7.18984 4.93984C7.47105 4.65864 7.85232 4.50046 8.25 4.5H13.5C13.8977 4.50046 14.279 4.65864 14.5602 4.93984C14.8414 5.22105 14.9995 5.60232 15 6V9C14.9995 9.39768 14.8414 9.77895 14.5602 10.0602C14.279 10.3414 13.8977 10.4995 13.5 10.5ZM13.5 5.9991L8.25 6V9H13.5V5.9991Z" fill="#1877F2"/>
<path d="M4.5 1.5H3V22.5H4.5V1.5Z" fill="#1877F2"/>
</svg>
