<svg width="24" height="24" viewBox="0 0 24 24" fill="none" xmlns="http://www.w3.org/2000/svg">
<path d="M10.1268 4.0602C9.783 5.52812 9.73622 7.04998 9.98923 8.53625C10.2422 10.0225 10.79 11.4432 11.6001 12.7146C12.4103 13.9861 13.4666 15.0827 14.7068 15.9399C15.9471 16.7971 17.3462 17.3977 18.822 17.7061C18.046 18.5088 17.1168 19.1474 16.0893 19.5841C15.0619 20.0208 13.9572 20.2466 12.8408 20.2481C12.7369 20.2481 12.6321 20.2519 12.5274 20.2481C10.5839 20.1794 8.7259 19.432 7.27606 18.1359C5.82622 16.8398 4.87615 15.0768 4.59088 13.1531C4.3056 11.2294 4.70314 9.2666 5.71444 7.60551C6.72575 5.94442 8.28692 4.69003 10.1268 4.0602V4.0602ZM11.235 2.25C11.191 2.25007 11.1472 2.25398 11.104 2.2617C8.71582 2.68589 6.56906 3.97876 5.07722 5.89129C3.58538 7.80382 2.85398 10.2007 3.0239 12.6203C3.19382 15.0399 4.25304 17.3111 5.99754 18.9963C7.74204 20.6816 10.0484 21.6617 12.4725 21.748C12.5955 21.7525 12.7186 21.748 12.8406 21.748C14.4147 21.7488 15.9659 21.3706 17.363 20.6454C18.7601 19.9201 19.962 18.8691 20.8671 17.5813C20.9405 17.4703 20.9833 17.3419 20.9913 17.2091C20.9993 17.0763 20.9721 16.9438 20.9126 16.8248C20.853 16.7058 20.7631 16.6047 20.652 16.5315C20.5409 16.4583 20.4125 16.4157 20.2797 16.408C18.7813 16.2765 17.3332 15.8023 16.0474 15.0219C14.7615 14.2416 13.6723 13.176 12.864 11.9076C12.0557 10.6391 11.5498 9.20177 11.3856 7.70665C11.2214 6.21153 11.4031 4.69867 11.9169 3.285C11.9606 3.1719 11.9766 3.04999 11.9637 2.92942C11.9507 2.80886 11.9092 2.69314 11.8425 2.59188C11.7758 2.49063 11.6858 2.40678 11.5801 2.34731C11.4745 2.28784 11.3561 2.25448 11.235 2.25V2.25Z" fill="#1877F2"/>
</svg>
