<svg width="64" height="65" viewBox="0 0 64 65" fill="none" xmlns="http://www.w3.org/2000/svg">
<path d="M62.885 56.3471H58.871V52.5561C58.871 51.9403 58.3718 51.4411 57.756 51.4411H56.4973V30.2567H57.756C58.3718 30.2567 58.871 29.7575 58.871 29.1417V25.3509H60.6548C61.2706 25.3509 61.7698 24.8516 61.7698 24.2358V19.776H62.8848C63.5006 19.776 63.9999 19.2768 63.9999 18.661V13.086C63.9999 12.6187 63.7086 12.2011 63.2702 12.0397L32.3854 0.666952C32.1366 0.575371 31.8634 0.575371 31.6146 0.666952L0.729675 12.0397C0.291246 12.2011 0 12.6189 0 13.086V18.661C0 19.2768 0.499236 19.776 1.11503 19.776H2.23006V24.2358C2.23006 24.8516 2.72929 25.3509 3.34509 25.3509H5.12884V29.1417C5.12884 29.7575 5.62807 30.2567 6.24387 30.2567H7.50251V51.4411H6.24387C5.62807 51.4411 5.12884 51.9403 5.12884 52.5561V56.3471H1.11503C0.499236 56.3471 0 56.8463 0 57.4621V63.0369C0 63.6527 0.499236 64.152 1.11503 64.152H62.885C63.5008 64.152 64 63.6527 64 63.0369V57.4621C64 56.8463 63.5008 56.3471 62.885 56.3471ZM56.641 53.6711V56.3471H45.4914V53.6711H56.641ZM38.6897 51.4411H37.4311V30.2567H38.6897C39.3055 30.2567 39.8048 29.7575 39.8048 29.1417V25.3509H43.2614V29.1417C43.2614 29.7575 43.7606 30.2567 44.3764 30.2567H45.635V51.4411H44.3764C43.7606 51.4411 43.2614 51.9403 43.2614 52.5561V56.3471H39.8048V52.5561C39.8048 51.9403 39.3055 51.4411 38.6897 51.4411ZM19.6236 51.4411H18.365V30.2567H19.6236C20.2394 30.2567 20.7387 29.7575 20.7387 29.1417V25.3509H24.1952V29.1417C24.1952 29.7575 24.6945 30.2567 25.3103 30.2567H26.5689V51.4411H25.3103C24.6945 51.4411 24.1952 51.9403 24.1952 52.5561V56.3471H20.7387V52.5561C20.7387 51.9403 20.2394 51.4411 19.6236 51.4411ZM26.4252 28.0266V25.3509H37.5749V28.0266H26.4252ZM35.2012 30.2567V51.4411H28.7988V30.2567H35.2012ZM26.4252 53.6711H37.5749V56.3471H26.4252V53.6711ZM47.8652 51.4411V30.2567H54.2674V51.4411H47.8652ZM56.641 28.0266H45.4914V25.3509H56.641V28.0266ZM4.46012 23.1208V19.776H8.28467C8.90046 19.776 9.3997 19.2768 9.3997 18.661C9.3997 18.0452 8.90046 17.546 8.28467 17.546H2.23006V13.8637L32 2.90162L61.7699 13.8637V17.546H14.879C14.2632 17.546 13.7639 18.0452 13.7639 18.661C13.7639 19.2768 14.2632 19.776 14.879 19.776H59.5399V23.1208H4.46012ZM7.35904 28.0266V25.3509H18.5086V28.0266H7.35904ZM16.1348 30.2567V51.4411H9.73257V30.2567H16.1348ZM7.35904 53.6711H18.5086V56.3471H7.35904V53.6711ZM61.7699 61.9219H2.23006V58.5771H61.7699V61.9219Z" fill="#1C252E"/>
<path d="M10.5042 19.0867C10.4759 19.0198 10.5324 19.1551 10.5042 19.0867V19.0867Z" fill="#1C252E"/>
<path d="M10.745 17.8721C10.4347 18.1917 10.3292 18.6721 10.5042 19.0867C10.5602 19.2225 10.6429 19.3442 10.745 19.4495C11.1845 19.876 11.8831 19.8766 12.3224 19.4495C12.7489 19.0108 12.7489 18.3108 12.3224 17.8721C11.8835 17.4454 11.184 17.446 10.745 17.8721Z" fill="#1C252E"/>
</svg>
