<svg width="64" height="65" viewBox="0 0 64 65" fill="none" xmlns="http://www.w3.org/2000/svg">
<g clip-path="url(#clip0_3_183390)">
<path d="M55.2194 47.3085C55.5582 45.5101 55.5495 43.6636 55.1938 41.8685L60.0792 30.0786C60.0797 30.0708 60.0797 30.063 60.0792 30.0551C60.8708 27.8877 62.031 25.8734 63.5085 24.101C63.8761 23.7127 64.024 23.1657 63.9021 22.645L61.8989 13.9943C61.8751 13.9039 61.8392 13.8171 61.7922 13.7362C61.7837 13.7202 61.7805 13.701 61.772 13.6861C61.7634 13.6711 61.7261 13.6349 61.7048 13.6071C61.6611 13.5432 61.6107 13.4842 61.5544 13.4311C61.5173 13.405 61.4784 13.3815 61.4381 13.3607C61.3861 13.3225 61.3308 13.2889 61.2728 13.2605C61.1924 13.2301 61.1085 13.2097 61.0232 13.1997C60.9986 13.1997 60.9773 13.1837 60.9528 13.1815C60.7483 13.1679 60.5443 13.2135 60.365 13.3127C60.349 13.3213 60.3298 13.3245 60.3138 13.3341H60.3032L52.7714 18.0349C52.3153 18.3173 52.0322 18.8106 52.0184 19.3469C51.8091 21.65 51.2025 23.8994 50.2253 25.9954V26.0071L47.7837 31.909C46.5853 31.272 45.3024 30.8087 43.9736 30.533C44.4766 27.0609 44.6615 23.5502 44.5261 20.0445C46.5117 17.6621 47.4647 14.586 47.1736 11.4983C46.5069 5.28181 40.8888 0.792209 40.6488 0.603409C40.2881 0.319348 39.786 0.297985 39.4025 0.550374C39.0189 0.802764 38.8399 1.27227 38.9581 1.71594C39.5074 3.77888 39.0317 5.95594 34.9741 10.4327C33.1511 12.1931 32.5732 14.8809 33.5117 17.2349C33.8705 18.1352 34.3846 18.9656 35.0306 19.6882C34.7725 21.3362 34.5698 22.8967 34.4301 24.4167C34.1895 26.9308 34.1275 29.4587 34.2445 31.9815C33.2929 32.4975 32.4021 33.1182 31.5885 33.8322L26.4152 11.7095C26.4152 11.6871 26.3938 11.6711 26.3874 11.6509C26.3701 11.5798 26.345 11.5107 26.3128 11.445L21.0285 1.68608C20.4997 0.709301 19.3825 0.207365 18.301 0.460658C17.2195 0.71395 16.4414 1.65979 16.4013 2.76981L16.0002 13.8578C16.0005 13.9378 16.0094 14.0176 16.0269 14.0957C16.0269 14.1127 16.0269 14.1277 16.0269 14.1437L21.3048 36.6685C20.4722 36.7052 19.6457 36.8286 18.8386 37.0365L13.0328 23.0151C12.5672 21.9433 11.3324 21.4376 10.2488 21.8749L1.37517 25.5485C0.289162 26.0018 -0.22694 27.247 0.219971 28.3357L8.0941 47.3309C3.47918 47.5732 -0.103045 51.4472 0.0160698 56.067C0.135185 60.6867 3.91229 64.371 8.53357 64.3751H55.4669C58.5156 64.3309 61.3091 62.6636 62.7951 60.0013C64.2812 57.339 64.234 54.0861 62.6714 51.468C61.1088 48.8499 58.2681 47.2643 55.2194 47.3085ZM54.1325 19.6989L58.604 16.9085L57.021 20.7314C56.7954 21.2757 57.0538 21.8999 57.5981 22.1255C58.1424 22.3512 58.7666 22.0928 58.9922 21.5485L60.5752 17.7255L61.7602 22.8594C60.4923 24.4062 59.4508 26.1255 58.6669 27.9655C57.5548 28.481 56.2778 28.5078 55.1451 28.0393C54.0124 27.5708 53.1273 26.6498 52.7042 25.4994C53.4534 23.6435 53.9343 21.6904 54.1325 19.6989ZM51.6792 28.0733C52.3848 28.936 53.3006 29.6027 54.3384 30.0093C55.1633 30.3641 56.0506 30.5512 56.9485 30.5597C57.1646 30.5589 57.3804 30.5457 57.5949 30.5202L54.1912 38.7335C53.172 36.4864 51.5953 34.5371 49.6109 33.0706L51.6792 28.0733ZM37.0658 20.4551L42.4248 20.7826C42.4578 21.7789 42.4461 22.8093 42.413 23.8557C40.6278 23.9832 38.8337 23.8966 37.069 23.5975C36.9346 23.5783 36.8034 23.5634 36.6701 23.5453C36.7768 22.5405 36.9069 21.5229 37.0637 20.4551H37.0658ZM36.557 11.8653C39.389 8.74101 40.8568 6.33781 41.1981 4.07861C43.2337 6.17306 44.5775 8.84187 45.0477 11.7245C45.2717 14.2339 44.4958 16.7303 42.8888 18.6706C40.7817 18.5426 38.6978 18.4146 36.637 18.2866C35.7515 17.4588 35.2421 16.3055 35.2266 15.0935C35.2111 13.8814 35.6909 12.7155 36.5549 11.8653H36.557ZM36.476 25.6711L36.7853 25.7117C38.1598 25.9242 39.5472 26.0422 40.9378 26.0647C41.3794 26.0647 41.8445 26.0295 42.3106 25.9933C42.2136 27.3661 42.0546 28.7997 41.853 30.2813C41.5896 30.2674 41.3314 30.2418 41.0669 30.2418C39.4565 30.2447 37.8581 30.5199 36.3394 31.0557C36.2903 29.2597 36.3351 27.4624 36.4738 25.6711H36.476ZM28.2253 38.1447L25.1736 25.1453C25.0309 24.5813 24.4627 24.2357 23.8962 24.3683C23.3298 24.501 22.9742 25.063 23.0968 25.6317L25.8392 37.3319C25.0852 37.0623 24.3062 36.8683 23.5138 36.7527L18.8322 16.7741C19.4881 17.0727 20.2002 17.2276 20.9208 17.2285C20.988 17.2285 21.0594 17.2189 21.1277 17.2157L21.8818 20.4359C21.9631 20.8129 22.2415 21.1166 22.6099 21.2303C22.9783 21.3441 23.3795 21.2501 23.6591 20.9846C23.9387 20.7191 24.0532 20.3234 23.9586 19.9495L23.2034 16.7271C23.9272 16.4068 24.5655 15.9208 25.0669 15.3085L29.8264 35.6594C29.2083 36.4304 28.6718 37.2632 28.2253 38.1447ZM21.708 14.9981C20.3438 15.2626 18.9509 14.7049 18.1464 13.5719L18.2818 9.81514C18.653 9.88446 19.0296 9.92016 19.4072 9.92181C19.7718 9.92334 20.1355 9.8829 20.4909 9.80128C21.2105 9.6123 21.8836 9.27756 22.4685 8.81781L24.2648 12.133C24.0507 13.5085 23.0501 14.6307 21.708 15.0002V14.9981ZM18.7864 2.53728C18.9317 2.50362 19.0816 2.57075 19.1533 2.70154L21.4402 6.93088C21.0277 7.3041 20.5351 7.57777 20.0002 7.73088C19.4536 7.83121 18.8912 7.80457 18.3565 7.65301L18.5304 2.84661C18.5362 2.69756 18.641 2.57084 18.7864 2.53728ZM11.0669 23.8418L11.8818 25.8109L7.93517 27.445C7.46729 27.6415 7.20261 28.1404 7.30228 28.638C7.40195 29.1356 7.83838 29.494 8.34584 29.4951C8.48598 29.4948 8.62473 29.4673 8.75437 29.4141L12.701 27.7789L13.517 29.7501L11.5426 30.5682C11.0721 30.7629 10.8048 31.2632 10.9045 31.7626C11.0042 32.262 11.443 32.6213 11.9522 32.6205C12.092 32.62 12.2304 32.5925 12.3597 32.5394L14.3341 31.7213L15.1501 33.6925L11.2002 35.3298C10.7297 35.5245 10.4624 36.0248 10.5621 36.5242C10.6618 37.0236 11.1006 37.3829 11.6098 37.3821C11.7496 37.3817 11.888 37.3542 12.0173 37.301L15.964 35.6669L16.8269 37.7501C13.3511 39.3366 10.8023 42.4389 9.92024 46.1565L2.18904 27.5154L11.0669 23.8418ZM55.4669 62.2418H8.53357C4.99895 62.2418 2.13357 59.3764 2.13357 55.8418C2.13357 52.3072 4.99895 49.4418 8.53357 49.4418C9.15163 49.4398 9.7666 49.5289 10.3586 49.7063C10.6785 49.803 11.0251 49.7441 11.2951 49.5474C11.5652 49.3507 11.7275 49.0388 11.7336 48.7047C11.8094 44.9032 14.0071 41.4641 17.4249 39.7981C20.8428 38.1321 24.9057 38.5197 27.9469 40.8018C28.2157 41.0018 28.5628 41.064 28.8842 40.9696C29.2057 40.8753 29.4641 40.6354 29.5821 40.3218C31.6661 34.7679 37.4257 31.501 43.262 32.5625C49.0983 33.624 53.3387 38.7098 53.3336 44.6418C53.3357 45.8617 53.1541 47.0749 52.7949 48.2407C52.6828 48.6035 52.7719 48.9984 53.0289 49.2778C53.2859 49.5573 53.6721 49.679 54.0429 49.5975C54.5106 49.4946 54.988 49.4424 55.4669 49.4418C59.0015 49.4418 61.8669 52.3072 61.8669 55.8418C61.8669 59.3764 59.0015 62.2418 55.4669 62.2418Z" fill="#1C252E"/>
<path d="M41.2642 17.1219C41.599 17.1232 41.9149 16.9671 42.1175 16.7006C43.4492 14.8982 43.9638 12.6198 43.5362 10.42C43.4452 10.0439 43.1576 9.74654 42.7848 9.64301C42.4119 9.53948 42.0122 9.64603 41.7403 9.92142C41.4684 10.1968 41.367 10.5979 41.4754 10.9694C41.7307 12.5325 41.3497 14.1328 40.4172 15.4131C40.1748 15.7363 40.1358 16.1688 40.3165 16.5301C40.4972 16.8915 40.8665 17.1198 41.2706 17.1198L41.2642 17.1219Z" fill="#1C252E"/>
<path d="M39.8616 49.442C39.0684 49.4444 38.2861 49.6268 37.5736 49.9753C35.6548 47.3496 32.0719 46.5805 29.2444 48.1872C26.4169 49.7939 25.244 53.2657 26.5176 56.258C26.6852 56.6513 27.0714 56.9065 27.4989 56.9065C27.6427 56.9069 27.785 56.8778 27.9171 56.8212C28.1773 56.7103 28.3829 56.5005 28.4885 56.2381C28.5942 55.9756 28.5912 55.682 28.4803 55.4217C28.2481 54.8804 28.1283 54.2976 28.1283 53.7086C28.1283 51.3522 30.0385 49.442 32.3949 49.442C34.0499 49.4337 35.5572 50.3927 36.2509 51.8953C36.274 51.93 36.2989 51.9635 36.3256 51.9956C36.3425 52.0322 36.3613 52.0678 36.3821 52.1022C36.4013 52.1257 36.4291 52.1364 36.4504 52.1588C36.5005 52.2107 36.5559 52.2572 36.6157 52.2974C36.669 52.3385 36.7262 52.3742 36.7864 52.4041C36.8484 52.4301 36.9127 52.4501 36.9784 52.4638C37.044 52.4811 37.1112 52.4914 37.1789 52.4948C37.3175 52.4937 37.455 52.4706 37.5864 52.4265C37.6148 52.4213 37.643 52.4145 37.6707 52.4062C37.7053 52.3839 37.7384 52.3593 37.7699 52.3326C37.8083 52.3156 37.8457 52.2963 37.8819 52.275C38.4422 51.8219 39.141 51.5749 39.8616 51.5753C41.1088 51.5773 42.2412 52.3038 42.7629 53.4366C43.0074 53.9727 43.6402 54.2091 44.1763 53.9646C44.7124 53.7202 44.9488 53.0874 44.7043 52.5513C43.8357 50.6582 41.9445 49.4439 39.8616 49.442Z" fill="#1C252E"/>
<path d="M18.8632 42.0295C18.7022 42.0818 14.9336 43.3853 14.9336 47.3085C14.9336 47.8976 15.4112 48.3751 16.0003 48.3751C16.5894 48.3751 17.067 47.8976 17.067 47.3085C17.154 45.8205 18.1331 44.5332 19.5438 44.0519C20.1034 43.864 20.4048 43.258 20.2168 42.6983C20.0289 42.1387 19.4229 41.8373 18.8632 42.0253V42.0295Z" fill="#1C252E"/>
<path d="M33.8744 40.8766C33.9591 40.8981 34.0462 40.9089 34.1336 40.9086C34.6225 40.9081 35.0484 40.5753 35.1672 40.1011C35.6582 38.1093 37.4215 36.6925 39.4723 36.6419C40.0614 36.6405 40.5378 36.1617 40.5363 35.5726C40.5348 34.9835 40.0561 34.5071 39.467 34.5086C36.4352 34.5489 33.8152 36.6365 33.099 39.5827C32.9558 40.1542 33.303 40.7334 33.8744 40.8766Z" fill="#1C252E"/>
</g>
<defs>
<clipPath id="clip0_3_183390">
<rect width="64" height="64" fill="white" transform="translate(0 0.375122)"/>
</clipPath>
</defs>
</svg>
