<svg width="64" height="65" viewBox="0 0 64 65" fill="none" xmlns="http://www.w3.org/2000/svg">
<g clip-path="url(#clip0_3_183333)">
<path d="M5.16119 57.1277H32V55.0627H5.16119C3.45097 55.0627 2.06442 53.6762 2.06442 51.9659V6.54656C2.06442 4.83583 3.45097 3.4498 5.16119 3.4498H50.5806C52.2916 3.4498 53.6773 4.83583 53.6773 6.54656V30.2883H55.7423V6.54656C55.7389 3.69741 53.43 1.38874 50.5806 1.38538H5.16119C2.31255 1.38874 0.00362225 3.69741 0 6.54656V51.9659C0.00362225 54.8151 2.31255 57.1238 5.16119 57.1277Z" fill="#1C252E"/>
<path d="M4.12932 5.51421H6.19349V7.57837H4.12932V5.51421Z" fill="#1C252E"/>
<path d="M8.25786 5.51421H10.3228V7.57837H8.25786V5.51421Z" fill="#1C252E"/>
<path d="M12.3872 5.51421H14.4518V7.57837H12.3872V5.51421Z" fill="#1C252E"/>
<path d="M4.12932 9.64412H51.6129V11.7091H4.12932V9.64412Z" fill="#1C252E"/>
<path d="M14.7541 14.0741L12.1321 16.6961C9.91582 15.2288 6.94791 15.679 5.26589 17.7375C3.58413 19.7957 3.73497 22.7939 5.6144 24.673C7.49357 26.553 10.492 26.7038 12.5505 25.0218C14.6087 23.34 15.0591 20.3716 13.5916 18.1558L16.2134 15.5338L14.7541 14.0741ZM9.28995 24.094C7.57999 24.094 6.19344 22.7077 6.19344 20.9975C6.19344 19.287 7.57999 17.901 9.28995 17.901C9.75049 17.9025 10.2035 18.0081 10.6167 18.2102L8.56058 20.2666L10.0198 21.7263L12.0775 19.6712C12.2796 20.0842 12.3854 20.5372 12.387 20.9975C12.387 22.7077 11.0009 24.094 9.28995 24.094Z" fill="#1C252E"/>
<path d="M17.5484 17.9016H35.0964V19.9658H17.5484V17.9016Z" fill="#1C252E"/>
<path d="M17.5484 22.0299H24.774V24.0941H17.5484V22.0299Z" fill="#1C252E"/>
<path d="M26.8387 22.0299H41.2899V24.0941H26.8387V22.0299Z" fill="#1C252E"/>
<path d="M37.1612 17.9016H47.4839V19.9658H37.1612V17.9016Z" fill="#1C252E"/>
<path d="M14.7541 26.4615L12.1321 29.0835C9.91582 27.6162 6.94791 28.0664 5.26589 30.1249C3.58413 32.1833 3.73497 35.1813 5.6144 37.0609C7.49357 38.9404 10.492 39.0912 12.5505 37.4092C14.6087 35.7272 15.0591 32.7598 13.5916 30.5432L16.2134 27.9212L14.7541 26.4615ZM9.28995 36.4816C7.57999 36.4816 6.19344 35.0951 6.19344 33.3849C6.19344 31.6744 7.57999 30.2879 9.28995 30.2879C9.75049 30.2897 10.2035 30.3955 10.6167 30.5976L8.56058 32.6545L10.0198 34.1137L12.0775 32.0584C12.2796 32.4715 12.3854 32.9246 12.387 33.3849C12.387 35.0951 11.0009 36.4816 9.28995 36.4816Z" fill="#1C252E"/>
<path d="M17.5484 30.2885H35.0964V32.3531H17.5484V30.2885Z" fill="#1C252E"/>
<path d="M17.5484 34.4173H24.774V36.4818H17.5484V34.4173Z" fill="#1C252E"/>
<path d="M26.8387 34.4173H35.0965V36.4818H26.8387V34.4173Z" fill="#1C252E"/>
<path d="M37.1612 30.2885H41.2901V32.3531H37.1612V30.2885Z" fill="#1C252E"/>
<path d="M48.5165 63.3211C57.0684 63.3211 64.0001 56.3881 64.0001 47.837C64.0001 39.2851 57.0684 32.3529 48.5165 32.3529C39.9646 32.3529 33.0324 39.2851 33.0324 47.837C33.0425 56.3842 39.9688 63.3107 48.5165 63.3211ZM48.5165 34.4176C55.9274 34.4176 61.9359 40.4256 61.9359 47.837C61.9359 55.2484 55.9274 61.2562 48.5165 61.2562C41.1049 61.2562 35.0966 55.2484 35.0966 47.837C35.1054 40.4292 41.1082 34.4259 48.5165 34.4176Z" fill="#1C252E"/>
<path d="M42.2196 48.4073L40.3717 49.3299L42.4364 53.459C42.5844 53.7561 42.8669 53.9638 43.1947 54.0169C43.248 54.0252 43.3013 54.0296 43.3549 54.0303C43.6284 54.0303 43.891 53.9214 44.085 53.7279L56.4716 41.3408L55.0123 39.8811L43.6374 51.2554L42.2196 48.4073Z" fill="#1C252E"/>
</g>
<defs>
<clipPath id="clip0_3_183333">
<rect width="64" height="64" fill="white" transform="translate(0 0.375122)"/>
</clipPath>
</defs>
</svg>
