<svg width="64" height="65" viewBox="0 0 64 65" fill="none" xmlns="http://www.w3.org/2000/svg">
<path fill-rule="evenodd" clip-rule="evenodd" d="M24 8.37512C22.3431 8.37512 21 9.71827 21 11.3751C21 13.032 22.3431 14.3751 24 14.3751C25.6569 14.3751 27 13.032 27 11.3751C27 9.71827 25.6569 8.37512 24 8.37512ZM19 11.3751C19 8.6137 21.2386 6.37512 24 6.37512C26.7614 6.37512 29 8.6137 29 11.3751C29 12.3942 28.6951 13.342 28.1716 14.1325L37.2426 23.2035C38.0331 22.68 38.9809 22.3751 40 22.3751C41.0191 22.3751 41.967 22.68 42.7574 23.2035L51.8284 14.1326C51.3049 13.3421 51 12.3942 51 11.3751C51 8.6137 53.2386 6.37512 56 6.37512C58.7614 6.37512 61 8.6137 61 11.3751C61 14.1365 58.7614 16.3751 56 16.3751C54.9809 16.3751 54.0331 16.0703 53.2426 15.5468L44.1716 24.6178C44.6951 25.4082 45 26.3561 45 27.3751C45 30.1365 42.7614 32.3751 40 32.3751C37.2386 32.3751 35 30.1365 35 27.3751C35 26.356 35.3049 25.4081 35.8284 24.6177L26.7574 15.5467C25.967 16.0702 25.0191 16.3751 24 16.3751C22.9809 16.3751 22.0331 16.0703 21.2426 15.5468L12.1716 24.6178C12.6951 25.4082 13 26.3561 13 27.3751C13 30.1365 10.7614 32.3751 8 32.3751C5.23858 32.3751 3 30.1365 3 27.3751C3 24.6137 5.23858 22.3751 8 22.3751C9.0191 22.3751 9.96699 22.68 10.7574 23.2035L19.8284 14.1325C19.3049 13.3421 19 12.3942 19 11.3751ZM56 8.37512C54.3431 8.37512 53 9.71827 53 11.3751C53 13.032 54.3431 14.3751 56 14.3751C57.6569 14.3751 59 13.032 59 11.3751C59 9.71827 57.6569 8.37512 56 8.37512ZM8 24.3751C6.34315 24.3751 5 25.7183 5 27.3751C5 29.032 6.34315 30.3751 8 30.3751C9.65685 30.3751 11 29.032 11 27.3751C11 25.7183 9.65685 24.3751 8 24.3751ZM40 24.3751C38.3431 24.3751 37 25.7183 37 27.3751C37 29.032 38.3431 30.3751 40 30.3751C41.6569 30.3751 43 29.032 43 27.3751C43 25.7183 41.6569 24.3751 40 24.3751ZM19 26.3751H29V58.3751H19V26.3751ZM21 28.3751V56.3751H27V28.3751H21ZM51 26.3751H61V58.3751H51V26.3751ZM53 28.3751V56.3751H59V28.3751H53ZM35 42.3751H45V58.3751H35V42.3751ZM37 44.3751V56.3751H43V44.3751H37ZM3 43.3751H13V58.3751H3V43.3751ZM5 45.3751V56.3751H11V45.3751H5Z" fill="#1C252E"/>
</svg>
