<svg width="64" height="65" viewBox="0 0 64 65" fill="none" xmlns="http://www.w3.org/2000/svg">
<g clip-path="url(#clip0_368_4545317)">
<path d="M45.75 17.3751H37.6409C36.9506 17.3751 36.3909 17.9347 36.3909 18.6251C36.3909 19.3155 36.9506 19.8751 37.6409 19.8751H44.5V44.8751H19.5V19.8751H26.3909C27.0811 19.8751 27.6409 19.3155 27.6409 18.6251C27.6409 17.9347 27.0811 17.3751 26.3909 17.3751H18.25C17.5597 17.3751 17 17.9347 17 18.6251V46.1251C17 46.8154 17.5597 47.3751 18.25 47.3751H45.75C46.4403 47.3751 47 46.8154 47 46.1251V18.6251C47 17.9347 46.4403 17.3751 45.75 17.3751Z" fill="#1C252E"/>
<path d="M22.5 24.1251V29.6251C22.5 30.3155 23.0597 30.8751 23.75 30.8751H29.25C29.9403 30.8751 30.5 30.3155 30.5 29.6251V24.1251C30.5 23.4347 29.9403 22.8751 29.25 22.8751H23.75C23.0597 22.8751 22.5 23.4347 22.5 24.1251ZM25 25.3751H28V28.3751H25V25.3751Z" fill="#1C252E"/>
<path d="M34.75 25.3751H40.25C40.9403 25.3751 41.5 24.8155 41.5 24.1251C41.5 23.4347 40.9403 22.8751 40.25 22.8751H34.75C34.0597 22.8751 33.5 23.4347 33.5 24.1251C33.5 24.8155 34.0597 25.3751 34.75 25.3751Z" fill="#1C252E"/>
<path d="M34.75 30.8751H40.25C40.9403 30.8751 41.5 30.3155 41.5 29.6251C41.5 28.9347 40.9403 28.3751 40.25 28.3751H34.75C34.0597 28.3751 33.5 28.9347 33.5 29.6251C33.5 30.3155 34.0597 30.8751 34.75 30.8751Z" fill="#1C252E"/>
<path d="M34.75 41.8751H40.25C40.9403 41.8751 41.5 41.3154 41.5 40.6251V35.1251C41.5 34.4349 40.9403 33.8751 40.25 33.8751C39.5597 33.8751 39 34.4349 39 35.1251V39.3751H34.75C34.0597 39.3751 33.5 39.9349 33.5 40.6251C33.5 41.3154 34.0597 41.8751 34.75 41.8751Z" fill="#1C252E"/>
<path d="M34.75 36.3751C35.0788 36.3751 35.4012 36.2414 35.6336 36.0087C35.8662 35.7764 36 35.4539 36 35.1251C36 34.7964 35.8662 34.4739 35.6336 34.2414C35.4012 34.0089 35.0788 33.8751 34.75 33.8751C34.4212 33.8751 34.0987 34.0087 33.8662 34.2414C33.6338 34.474 33.5 34.7964 33.5 35.1251C33.5 35.4539 33.6336 35.7764 33.8662 36.0087C34.0987 36.2414 34.4212 36.3751 34.75 36.3751Z" fill="#1C252E"/>
<path d="M29.25 39.3751H23.75C23.0597 39.3751 22.5 39.9349 22.5 40.6251C22.5 41.3154 23.0597 41.8751 23.75 41.8751H29.25C29.9403 41.8751 30.5 41.3154 30.5 40.6251C30.5 39.9349 29.9403 39.3751 29.25 39.3751Z" fill="#1C252E"/>
<path d="M29.25 33.8751H23.75C23.0597 33.8751 22.5 34.4349 22.5 35.1251C22.5 35.8154 23.0597 36.3751 23.75 36.3751H29.25C29.9403 36.3751 30.5 35.8154 30.5 35.1251C30.5 34.4349 29.9403 33.8751 29.25 33.8751Z" fill="#1C252E"/>
<path d="M62.75 33.6251C63.4403 33.6251 64 33.0654 64 32.3751C64 31.6847 63.4403 31.1251 62.75 31.1251H53V26.6251H57.75C58.4403 26.6251 59 26.0655 59 25.3751C59 24.6847 58.4403 24.1251 57.75 24.1251H53V19.6251H62.75C63.4403 19.6251 64 19.0655 64 18.3751C64 17.6847 63.4403 17.1251 62.75 17.1251H52.9255C52.4895 14.2021 50.173 11.8856 47.25 11.4496V1.62512C47.25 0.934747 46.6903 0.375122 46 0.375122C45.3097 0.375122 44.75 0.934747 44.75 1.62512V11.3751H40.25V6.62512C40.25 5.93475 39.6903 5.37512 39 5.37512C38.3097 5.37512 37.75 5.93475 37.75 6.62512V11.3751H33.25V1.62512C33.25 0.934747 32.6903 0.375122 32 0.375122C31.3097 0.375122 30.75 0.934747 30.75 1.62512V11.3751H26.25V6.62512C26.25 5.93475 25.6903 5.37512 25 5.37512C24.3097 5.37512 23.75 5.93475 23.75 6.62512V11.3751H19.25V1.62512C19.25 0.934747 18.6903 0.375122 18 0.375122C17.3097 0.375122 16.75 0.934747 16.75 1.62512V11.4496C13.827 11.8856 11.5105 14.2021 11.0745 17.1251H1.25C0.55975 17.1251 0 17.6847 0 18.3751C0 19.0655 0.55975 19.6251 1.25 19.6251H11V24.1251H6.25C5.55975 24.1251 5 24.6847 5 25.3751C5 26.0655 5.55975 26.6251 6.25 26.6251H11V31.1251H1.25C0.55975 31.1251 0 31.6847 0 32.3751C0 33.0654 0.55975 33.6251 1.25 33.6251H11V38.1251H6.25C5.55975 38.1251 5 38.6849 5 39.3751C5 40.0654 5.55975 40.6251 6.25 40.6251H11V45.1251H1.25C0.55975 45.1251 0 45.6849 0 46.3751C0 47.0654 0.55975 47.6251 1.25 47.6251H11.0745C11.5105 50.5481 13.827 52.8646 16.75 53.3006V63.1251C16.75 63.8154 17.3097 64.3751 18 64.3751C18.6903 64.3751 19.25 63.8154 19.25 63.1251V53.3751H23.75V58.1251C23.75 58.8154 24.3097 59.3751 25 59.3751C25.6903 59.3751 26.25 58.8154 26.25 58.1251V53.3751H30.75V63.1251C30.75 63.8154 31.3097 64.3751 32 64.3751C32.6903 64.3751 33.25 63.8154 33.25 63.1251V53.3751H37.75V58.1251C37.75 58.8154 38.3097 59.3751 39 59.3751C39.6903 59.3751 40.25 58.8154 40.25 58.1251V53.3751H44.75V63.1251C44.75 63.8154 45.3097 64.3751 46 64.3751C46.6903 64.3751 47.25 63.8154 47.25 63.1251V53.3006C50.1729 52.8646 52.4895 50.5481 52.9255 47.6251H62.75C63.4403 47.6251 64 47.0654 64 46.3751C64 45.6849 63.4403 45.1251 62.75 45.1251H53V40.6251H57.75C58.4403 40.6251 59 40.0654 59 39.3751C59 38.6849 58.4403 38.1251 57.75 38.1251H53V33.6251H62.75ZM50.5 46.6251C50.5 48.9686 48.5935 50.8751 46.25 50.8751H17.75C15.4065 50.8751 13.5 48.9686 13.5 46.6251V18.1251C13.5 15.7816 15.4065 13.8751 17.75 13.8751H46.25C48.5935 13.8751 50.5 15.7816 50.5 18.1251V46.6251Z" fill="#1C252E"/>
<path d="M32.0163 19.8751C32.345 19.8751 32.6675 19.7414 32.9 19.5089C33.1324 19.2764 33.2663 18.9539 33.2663 18.6251C33.2663 18.2964 33.1325 17.9739 32.9 17.7414C32.6675 17.5089 32.345 17.3751 32.0163 17.3751C31.6863 17.3751 31.365 17.5089 31.1325 17.7414C30.8988 17.9739 30.7663 18.2964 30.7663 18.6251C30.7663 18.9539 30.8988 19.2764 31.1325 19.5089C31.365 19.7414 31.6863 19.8751 32.0163 19.8751Z" fill="#1C252E"/>
</g>
<defs>
<clipPath id="clip0_368_4545317">
<rect width="64" height="64" fill="white" transform="translate(0 0.375122)"/>
</clipPath>
</defs>
</svg>
