<svg width="64" height="65" viewBox="0 0 64 65" fill="none" xmlns="http://www.w3.org/2000/svg">
<g clip-path="url(#clip0_3_183362)">
<path d="M62.9677 19.988H56.7742C56.2046 19.988 55.7419 20.4492 55.7419 21.0203V22.0525H43.3548V12.7622C43.3548 12.1911 42.8921 11.73 42.3226 11.73H38.1935C37.624 11.73 37.1613 12.1911 37.1613 12.7622V22.0525H36.6295C36.1074 22.0525 35.5953 22.1125 35.0968 22.2199V14.8267C35.0968 14.2557 34.6341 13.7945 34.0645 13.7945H29.9355C29.3659 13.7945 28.9032 14.2557 28.9032 14.8267V22.6574L28.6008 22.355C28.4078 22.1609 28.1447 22.0525 27.871 22.0525H26.8387V16.8913C26.8387 16.3202 26.376 15.859 25.8064 15.859H21.6774C21.1079 15.859 20.6452 16.3202 20.6452 16.8913V22.0525H8.25806V21.0203C8.25806 20.4492 7.79536 19.988 7.22581 19.988H1.03226C0.462702 19.988 0 20.4492 0 21.0203V45.7945C0 46.3655 0.462702 46.8267 1.03226 46.8267H7.22581C7.79536 46.8267 8.25806 46.3655 8.25806 45.7945V42.6977L10.7354 44.5556C10.9143 44.6901 11.1321 44.7622 11.3548 44.7622H12.9929L12.5131 45.2421C11.7656 45.9885 11.3548 46.9795 11.3548 48.0364C11.3548 50.2753 13.2707 52.0913 15.4879 51.984C15.4849 52.045 15.4839 52.1045 15.4839 52.1654C15.4839 54.4044 17.3957 56.2163 19.6169 56.113C19.6139 56.174 19.6129 56.2335 19.6129 56.2945C19.6129 58.5334 21.5207 60.3595 23.746 60.2421C23.7429 60.303 23.7419 60.3625 23.7419 60.4235C23.7419 62.6019 25.5141 64.3751 27.6946 64.3751C28.7495 64.3751 29.7414 63.9643 30.4889 63.2179L32 61.7058L33.5121 63.2179C34.2586 63.9643 35.2505 64.3751 36.3054 64.3751C38.4859 64.3751 40.2581 62.6019 40.2581 60.4235C40.2581 60.3565 40.2424 60.2935 40.2384 60.2274C40.3044 60.2305 40.3684 60.2461 40.4345 60.2461C42.6149 60.2461 44.3871 58.4729 44.3871 56.2945C44.3871 56.2274 44.3715 56.1644 44.3674 56.0984C44.4335 56.1014 44.4975 56.1171 44.5635 56.1171C46.7439 56.1171 48.5161 54.3439 48.5161 52.1654C48.5161 52.0984 48.5005 52.0354 48.4965 51.9694C48.5625 51.9724 48.6265 51.988 48.6925 51.988C50.873 51.988 52.6452 50.2148 52.6452 48.0364C52.6452 46.9805 52.2344 45.9885 51.4869 45.2421L51.0081 44.7622H52.6452C52.8679 44.7622 53.0857 44.6901 53.2646 44.5556L55.7419 42.6977V45.7945C55.7419 46.3655 56.2046 46.8267 56.7742 46.8267H62.9677C63.5373 46.8267 64 46.3655 64 45.7945V21.0203C64 20.4492 63.5373 19.988 62.9677 19.988ZM39.2258 13.7945H41.2903V22.0525H39.2258V13.7945ZM30.9677 15.859H33.0323V23.0168C32.4874 23.3303 31.9773 23.7123 31.5212 24.1685L30.9677 24.7219V15.859ZM22.7097 17.9235H24.7742V22.0525H22.7097V17.9235ZM6.19355 44.7622H2.06452V22.0525H6.19355V44.7622ZM11.6986 42.6977L8.25806 40.1171V24.1171H27.4435L36.3942 33.0687C36.8886 33.5631 37.1613 34.2209 37.1613 34.9195C37.1613 36.3615 35.9864 37.5364 34.5433 37.5364C33.8438 37.5364 33.187 37.2637 32.6925 36.7703L27.5685 31.6453C27.1815 31.2582 26.496 31.2582 26.1089 31.6453L15.0575 42.6977H11.6986ZM29.0292 61.7582C28.6719 62.1145 28.1981 62.3106 27.6946 62.3106C26.6527 62.3106 25.8064 61.4643 25.8064 60.4235C25.8064 59.927 26.0076 59.4411 26.3599 59.0888L27.8846 57.5641C27.9244 57.6085 27.9546 57.6594 27.997 57.7017L30.5403 60.2461L29.0292 61.7582ZM38.1935 60.4235C38.1935 61.4643 37.3473 62.3106 36.3054 62.3106C35.8019 62.3106 35.3271 62.1145 34.9708 61.7582L29.4556 56.2421C29.1043 55.8897 28.9032 55.4049 28.9032 54.9074C28.9032 53.8666 29.7495 53.0203 30.7913 53.0203C31.2949 53.0203 31.7697 53.2164 32.126 53.5727L37.6411 59.0888C37.9924 59.4411 38.1935 59.926 38.1935 60.4235ZM42.3226 56.2945C42.3226 57.3353 41.4763 58.1816 40.4345 58.1816C39.9309 58.1816 39.4561 57.9855 39.0998 57.6292L33.5847 52.113C33.2334 51.7607 33.0323 51.2758 33.0323 50.7783C33.0323 49.7375 33.8785 48.8913 34.9204 48.8913C35.4239 48.8913 35.8987 49.0873 36.255 49.4437L41.7702 54.9598C42.1215 55.3121 42.3226 55.797 42.3226 56.2945ZM46.4516 52.1654C46.4516 53.2063 45.6053 54.0525 44.5635 54.0525C44.06 54.0525 43.5852 53.8565 43.2288 53.5001L37.7137 47.984C37.3624 47.6317 37.1613 47.1468 37.1613 46.6493C37.1613 45.6085 38.0076 44.7622 39.0494 44.7622C39.5529 44.7622 40.0277 44.9583 40.3841 45.3146L45.8992 50.8308C46.2505 51.1831 46.4516 51.668 46.4516 52.1654ZM48.6925 49.9235C48.189 49.9235 47.7142 49.7274 47.3579 49.3711L41.8427 43.855C41.4914 43.5026 41.2903 43.0178 41.2903 42.5203C41.2903 41.4795 42.1366 40.6332 43.1784 40.6332C43.682 40.6332 44.1568 40.8293 44.5131 41.1856L50.0282 46.7017C50.3795 47.0541 50.5806 47.5389 50.5806 48.0364C50.5806 49.0772 49.7344 49.9235 48.6925 49.9235ZM52.3014 42.6977H48.9435L45.9718 39.7259C45.2253 38.9795 44.2334 38.5687 43.1784 38.5687C40.998 38.5687 39.2258 40.3419 39.2258 42.5203C39.2258 42.5873 39.2414 42.6503 39.2455 42.7164C39.1794 42.7133 39.1154 42.6977 39.0494 42.6977C36.8689 42.6977 35.0968 44.4709 35.0968 46.6493C35.0968 46.7164 35.1124 46.7794 35.1164 46.8454C35.0504 46.8424 34.9864 46.8267 34.9204 46.8267C32.7399 46.8267 30.9677 48.5999 30.9677 50.7783C30.9677 50.8454 30.9834 50.9084 30.9874 50.9744C30.9214 50.9714 30.8574 50.9558 30.7913 50.9558C28.6109 50.9558 26.8387 52.729 26.8387 54.9074C26.8387 55.1498 26.8654 55.3872 26.9078 55.6196L24.9002 57.6281C24.5428 57.9855 24.0691 58.1816 23.5655 58.1816C22.5237 58.1816 21.6774 57.3353 21.6774 56.2945C21.6774 55.798 21.8785 55.3121 22.2308 54.9598L24.4718 52.7179C24.6729 52.5168 24.7742 52.2521 24.7742 51.988C24.7742 51.7239 24.6729 51.4593 24.4718 51.2582C24.068 50.8545 23.4158 50.8545 23.0121 51.2582L20.7712 53.5001C20.4138 53.8565 19.94 54.0525 19.4365 54.0525C18.3947 54.0525 17.5484 53.2063 17.5484 52.1654C17.5484 51.669 17.7495 51.1831 18.1018 50.8308L20.3427 48.5888C20.5438 48.3877 20.6452 48.1231 20.6452 47.859C20.6452 47.5949 20.5438 47.3303 20.3427 47.1292C19.939 46.7254 19.2868 46.7254 18.8831 47.1292L16.6421 49.3711C16.2848 49.7274 15.811 49.9235 15.3075 49.9235C14.2656 49.9235 13.4194 49.0772 13.4194 48.0364C13.4194 47.5399 13.6205 47.0541 13.9728 46.7017L26.8387 33.8348L31.2329 38.23C32.1174 39.1135 33.2923 39.6009 34.5433 39.6009C37.125 39.6009 39.2258 37.5011 39.2258 34.9195C39.2258 33.6695 38.7384 32.4926 37.8538 31.609L32.4274 26.1816L32.9808 25.6281C33.9551 24.6549 35.2505 24.1171 36.6295 24.1171H55.7419V40.1171L52.3014 42.6977ZM61.9355 44.7622H57.8064V22.0525H61.9355V44.7622Z" fill="#1C252E"/>
<path d="M20.0403 13.7945H25.8065C26.0801 13.7945 26.3432 13.6861 26.5363 13.4921L30.3629 9.66544H42.3226C42.5963 9.66544 42.8594 9.55708 43.0524 9.36302L48.5161 3.89932V7.60093H50.5806V1.40738C50.5806 0.836312 50.1179 0.375122 49.5484 0.375122H43.3548V2.43964H47.0564L41.8952 7.60093H29.9355C29.6618 7.60093 29.3987 7.7093 29.2056 7.90335L25.379 11.73H19.6129C19.3392 11.73 19.0761 11.8383 18.8831 12.0324L13.7218 17.1937L15.1815 18.6533L20.0403 13.7945Z" fill="#1C252E"/>
</g>
<defs>
<clipPath id="clip0_3_183362">
<rect width="64" height="64" fill="white" transform="translate(0 0.375122)"/>
</clipPath>
</defs>
</svg>
