<svg width="64" height="65" viewBox="0 0 64 65" fill="none" xmlns="http://www.w3.org/2000/svg">
<g clip-path="url(#clip0_3_183392)">
<path d="M51.9385 56.1171L49.5488 48.947C48.7137 46.4438 46.5831 44.596 43.9859 44.1233L37.0874 42.868V42.3333C38.2879 41.6365 39.3325 40.7044 40.1645 39.6009H42.2486C43.956 39.6009 45.3454 38.2115 45.3454 36.5042V24.1171C45.3454 16.7178 39.3253 10.6977 31.9261 10.6977C24.5268 10.6977 18.5067 16.7178 18.5067 24.1171V31.3429C18.5067 33.3331 19.9219 34.9981 21.7986 35.3862C22.3777 38.3529 24.2316 40.8634 26.7648 42.3333V42.868L19.8652 44.1233C17.269 44.596 15.1374 46.4438 14.3034 48.947L13.8905 50.1867L10.3746 46.6709C9.972 46.2683 9.972 45.6128 10.3746 45.2102L14.452 41.1338L6.79884 33.4807L2.19084 38.0887C0.826197 39.4533 0.0747134 41.268 0.0747134 43.1984C0.0747134 45.1287 0.826197 46.9423 2.19084 48.307L16.1418 62.258C17.5065 63.6226 19.3212 64.3751 21.2515 64.3751C23.1818 64.3751 24.9955 63.6226 26.3281 62.2889L31.3563 57.682L29.7883 56.1171H51.9385ZM43.2809 36.5042C43.2809 37.074 42.8174 37.5364 42.2486 37.5364H41.3805C41.6799 36.8541 41.907 36.1346 42.0536 35.3862C42.4954 35.2943 42.9021 35.1189 43.2809 34.898V36.5042ZM42.2486 33.1204V29.5653C42.8628 29.9235 43.2809 30.5821 43.2809 31.3429C43.2809 32.1036 42.8628 32.7622 42.2486 33.1204ZM21.6035 33.1204C20.9893 32.7622 20.5712 32.1036 20.5712 31.3429C20.5712 30.5821 20.9893 29.9235 21.6035 29.5653V33.1204ZM21.6035 26.1816V27.3604C21.236 27.4564 20.8912 27.6009 20.5712 27.7878V24.1171C20.5712 17.8564 25.6654 12.7622 31.9261 12.7622C38.1867 12.7622 43.2809 17.8564 43.2809 24.1171V27.7878C42.9609 27.6009 42.6161 27.4554 42.2486 27.3604V26.1816H41.2164C38.164 26.1816 35.2943 24.9924 33.1348 22.834L31.9261 21.6252L30.7173 22.834C28.5578 24.9924 25.6881 26.1816 22.6357 26.1816H21.6035ZM23.668 33.4074V28.2069C26.7679 27.9736 29.6582 26.6946 31.9261 24.5382C34.1939 26.6946 37.0843 27.9746 40.1841 28.2069V33.4074C40.1841 34.9124 39.7733 36.3204 39.0672 37.5364H31.9261V39.6009H37.3702C35.9147 40.882 34.0123 41.6654 31.9261 41.6654C27.3728 41.6654 23.668 37.9607 23.668 33.4074ZM35.0228 43.2541V43.3026L31.9261 46.3994L28.8293 43.3026V43.2541C29.8079 43.5617 30.8474 43.73 31.9261 43.73C33.0048 43.73 34.0443 43.5617 35.0228 43.2541ZM16.2605 49.5994C16.8561 47.8115 18.3787 46.4913 20.2337 46.1527L27.4492 44.8417L31.9261 49.3186L36.4019 44.8427L43.6164 46.1537C45.4714 46.4923 46.9939 47.8115 47.5896 49.6004L49.075 54.0525H27.7237L23.7031 50.0319L19.2355 54.0732C18.8463 54.4644 18.1661 54.4644 17.7759 54.0732L15.5214 51.8187L16.2605 49.5994ZM6.79781 36.3999L11.5317 41.1338L10.4107 42.2549L5.67678 37.5209L6.79781 36.3999ZM24.8985 60.8004C23.924 61.7728 22.6275 62.3106 21.2494 62.3106C19.8714 62.3106 18.5748 61.7728 17.5994 60.7984L3.64839 46.8484C2.67394 45.874 2.13716 44.5774 2.13716 43.1994C2.13716 41.8203 2.67394 40.5238 3.64839 39.5493L4.21613 38.9816L8.95007 43.7155L8.91291 43.7527C7.7062 44.9604 7.7062 46.9248 8.91291 48.1325L16.3152 55.5349C16.9005 56.1191 17.6778 56.4422 18.5057 56.4422C19.3336 56.4422 20.1108 56.1202 20.6579 55.571L20.7354 55.5018L25.491 60.2575L24.8985 60.8004ZM27.0146 58.8598L22.2693 54.1145L23.6329 52.882L28.3699 57.619L27.0146 58.8598Z" fill="#1C252E"/>
<path d="M60.8294 0.375122H46.3778C44.6704 0.375122 43.281 1.76454 43.281 3.4719V11.73C43.281 13.4373 44.6704 14.8267 46.3778 14.8267H49.1349L48.0676 21.0523L58.0289 14.8267H60.8294C62.5367 14.8267 63.9262 13.4373 63.9262 11.73V3.4719C63.9262 1.76454 62.5367 0.375122 60.8294 0.375122ZM61.8616 11.73C61.8616 12.2987 61.3982 12.7622 60.8294 12.7622H57.4364L50.8805 16.8593L51.5835 12.7622H46.3778C45.809 12.7622 45.3455 12.2987 45.3455 11.73V3.4719C45.3455 2.90312 45.809 2.43964 46.3778 2.43964H60.8294C61.3982 2.43964 61.8616 2.90312 61.8616 3.4719V11.73Z" fill="#1C252E"/>
<path d="M59.7971 4.50415H47.41V6.56867H59.7971V4.50415Z" fill="#1C252E"/>
<path d="M55.6681 8.63319H47.41V10.6977H55.6681V8.63319Z" fill="#1C252E"/>
<path d="M59.7971 8.63319H57.7326V10.6977H59.7971V8.63319Z" fill="#1C252E"/>
<path d="M31.9261 3.4719C18.4386 3.4719 6.82057 12.8014 3.80018 25.8151L1.84405 22.5542L0.0737305 23.6164L3.70212 29.6623L9.74805 26.034L8.68586 24.2636L5.88844 25.9421C8.81386 14.0371 19.5194 5.53641 31.9261 5.53641C34.6379 5.53641 37.3135 5.93899 39.8786 6.73383L40.4897 4.76222C37.7264 3.90544 34.8453 3.4719 31.9261 3.4719Z" fill="#1C252E"/>
<path d="M63.4244 23.2313L57.3784 19.6029L53.7511 25.6499L55.5214 26.7121L57.3278 23.701C58.2785 26.4829 58.7647 29.3928 58.7647 32.375C58.7647 38.5139 56.6383 44.5154 52.7787 49.2731L54.3818 50.5738C58.5397 45.4496 60.8293 38.9856 60.8293 32.375C60.8293 29.2174 60.3204 26.134 59.3284 23.1817L62.3622 25.0016L63.4244 23.2313Z" fill="#1C252E"/>
</g>
<defs>
<clipPath id="clip0_3_183392">
<rect width="64" height="64" fill="white" transform="translate(0 0.375122)"/>
</clipPath>
</defs>
</svg>
