<svg width="64" height="65" viewBox="0 0 64 65" fill="none" xmlns="http://www.w3.org/2000/svg">
<path d="M53.7071 28.668C53.6143 28.5751 53.504 28.5015 53.3827 28.4512C53.2614 28.401 53.1313 28.3751 53 28.3751H39C37.6744 28.3766 36.4035 28.9039 35.4661 29.8412C34.5288 30.7786 34.0015 32.0495 34 33.3751V57.3751C34.0015 58.7007 34.5288 59.9717 35.4661 60.909C36.4035 61.8464 37.6744 62.3736 39 62.3751H57C58.3256 62.3736 59.5965 61.8464 60.5339 60.909C61.4712 59.9717 61.9985 58.7007 62 57.3751V37.3751C62 37.2438 61.9741 37.1138 61.9239 36.9924C61.8736 36.8711 61.8 36.7609 61.7071 36.668L53.7071 28.668ZM54 31.7892L58.5859 36.3751H57C56.2046 36.3742 55.4421 36.0578 54.8797 35.4954C54.3173 34.933 54.0009 34.1705 54 33.3751V31.7892ZM60 57.3751C59.9991 58.1705 59.6827 58.933 59.1203 59.4954C58.5579 60.0578 57.7954 60.3742 57 60.3751H39C38.2046 60.3742 37.4421 60.0578 36.8797 59.4954C36.3173 58.933 36.0009 58.1705 36 57.3751V33.3751C36.0009 32.5798 36.3173 31.8172 36.8797 31.2548C37.4421 30.6924 38.2046 30.376 39 30.3751H52V33.3751C52.0015 34.7007 52.5288 35.9717 53.4661 36.909C54.4035 37.8464 55.6744 38.3736 57 38.3751H60V57.3751Z" fill="#1C252E"/>
<path d="M55 42.3751H47C46.7348 42.3751 46.4804 42.4805 46.2929 42.668C46.1054 42.8556 46 43.1099 46 43.3751C46 43.6403 46.1054 43.8947 46.2929 44.0822C46.4804 44.2698 46.7348 44.3751 47 44.3751H55C55.2652 44.3751 55.5196 44.2698 55.7071 44.0822C55.8946 43.8947 56 43.6403 56 43.3751C56 43.1099 55.8946 42.8556 55.7071 42.668C55.5196 42.4805 55.2652 42.3751 55 42.3751Z" fill="#1C252E"/>
<path d="M41 50.3751H49C49.2652 50.3751 49.5196 50.2698 49.7071 50.0822C49.8946 49.8947 50 49.6403 50 49.3751C50 49.1099 49.8946 48.8556 49.7071 48.668C49.5196 48.4805 49.2652 48.3751 49 48.3751H41C40.7348 48.3751 40.4804 48.4805 40.2929 48.668C40.1054 48.8556 40 49.1099 40 49.3751C40 49.6403 40.1054 49.8947 40.2929 50.0822C40.4804 50.2698 40.7348 50.3751 41 50.3751Z" fill="#1C252E"/>
<path d="M55 54.3751H49C48.7348 54.3751 48.4804 54.4805 48.2929 54.668C48.1054 54.8556 48 55.1099 48 55.3751C48 55.6403 48.1054 55.8947 48.2929 56.0822C48.4804 56.2698 48.7348 56.3751 49 56.3751H55C55.2652 56.3751 55.5196 56.2698 55.7071 56.0822C55.8946 55.8947 56 55.6403 56 55.3751C56 55.1099 55.8946 54.8556 55.7071 54.668C55.5196 54.4805 55.2652 54.3751 55 54.3751Z" fill="#1C252E"/>
<path d="M41 44.3751H43C43.2652 44.3751 43.5196 44.2698 43.7071 44.0822C43.8946 43.8947 44 43.6403 44 43.3751C44 43.1099 43.8946 42.8556 43.7071 42.668C43.5196 42.4805 43.2652 42.3751 43 42.3751H41C40.7348 42.3751 40.4804 42.4805 40.2929 42.668C40.1054 42.8556 40 43.1099 40 43.3751C40 43.6403 40.1054 43.8947 40.2929 44.0822C40.4804 44.2698 40.7348 44.3751 41 44.3751Z" fill="#1C252E"/>
<path d="M55 48.3751H53C52.7348 48.3751 52.4804 48.4805 52.2929 48.668C52.1054 48.8556 52 49.1099 52 49.3751C52 49.6403 52.1054 49.8947 52.2929 50.0822C52.4804 50.2698 52.7348 50.3751 53 50.3751H55C55.2652 50.3751 55.5196 50.2698 55.7071 50.0822C55.8946 49.8947 56 49.6403 56 49.3751C56 49.1099 55.8946 48.8556 55.7071 48.668C55.5196 48.4805 55.2652 48.3751 55 48.3751Z" fill="#1C252E"/>
<path d="M45 54.3751H41C40.7348 54.3751 40.4804 54.4805 40.2929 54.668C40.1054 54.8556 40 55.1099 40 55.3751C40 55.6403 40.1054 55.8947 40.2929 56.0822C40.4804 56.2698 40.7348 56.3751 41 56.3751H45C45.2652 56.3751 45.5196 56.2698 45.7071 56.0822C45.8946 55.8947 46 55.6403 46 55.3751C46 55.1099 45.8946 54.8556 45.7071 54.668C45.5196 54.4805 45.2652 54.3751 45 54.3751Z" fill="#1C252E"/>
<path d="M41 38.3751H45C45.2652 38.3751 45.5196 38.2698 45.7071 38.0822C45.8946 37.8947 46 37.6403 46 37.3751C46 37.1099 45.8946 36.8556 45.7071 36.668C45.5196 36.4805 45.2652 36.3751 45 36.3751H41C40.7348 36.3751 40.4804 36.4805 40.2929 36.668C40.1054 36.8556 40 37.1099 40 37.3751C40 37.6403 40.1054 37.8947 40.2929 38.0822C40.4804 38.2698 40.7348 38.3751 41 38.3751Z" fill="#1C252E"/>
<path d="M7 36.3751H25C26.3256 36.3736 27.5965 35.8464 28.5339 34.909C29.4712 33.9717 29.9985 32.7007 30 31.3751V11.3751C30 11.2438 29.9741 11.1138 29.9239 10.9924C29.8736 10.8711 29.8 10.7609 29.7071 10.668L21.7071 2.668C21.6143 2.57514 21.504 2.50148 21.3827 2.45123C21.2614 2.40098 21.1313 2.37512 21 2.37512H7C5.67437 2.37661 4.40347 2.90387 3.46611 3.84123C2.52875 4.77859 2.00149 6.0495 2 7.37512V31.3751C2.00149 32.7007 2.52875 33.9717 3.46611 34.909C4.40347 35.8464 5.67437 36.3736 7 36.3751ZM22 5.78925L26.5859 10.3751H25C24.2046 10.3742 23.4421 10.0578 22.8797 9.49542C22.3173 8.93301 22.0009 8.17049 22 7.37512V5.78925ZM4 7.37512C4.00093 6.57976 4.31729 5.81723 4.8797 5.25482C5.44211 4.69242 6.20463 4.37605 7 4.37512H20V7.37512C20.0015 8.70075 20.5288 9.97165 21.4661 10.909C22.4035 11.8464 23.6744 12.3736 25 12.3751H28V31.3751C27.9991 32.1705 27.6827 32.933 27.1203 33.4954C26.5579 34.0578 25.7954 34.3742 25 34.3751H7C6.20463 34.3742 5.44211 34.0578 4.8797 33.4954C4.31729 32.933 4.00093 32.1705 4 31.3751V7.37512Z" fill="#1C252E"/>
<path d="M15 18.3751H23C23.2652 18.3751 23.5196 18.2698 23.7071 18.0822C23.8946 17.8947 24 17.6403 24 17.3751C24 17.1099 23.8946 16.8556 23.7071 16.668C23.5196 16.4805 23.2652 16.3751 23 16.3751H15C14.7348 16.3751 14.4804 16.4805 14.2929 16.668C14.1054 16.8556 14 17.1099 14 17.3751C14 17.6403 14.1054 17.8947 14.2929 18.0822C14.4804 18.2698 14.7348 18.3751 15 18.3751Z" fill="#1C252E"/>
<path d="M9 24.3751H17C17.2652 24.3751 17.5196 24.2698 17.7071 24.0822C17.8946 23.8947 18 23.6403 18 23.3751C18 23.1099 17.8946 22.8556 17.7071 22.668C17.5196 22.4805 17.2652 22.3751 17 22.3751H9C8.73478 22.3751 8.48043 22.4805 8.29289 22.668C8.10536 22.8556 8 23.1099 8 23.3751C8 23.6403 8.10536 23.8947 8.29289 24.0822C8.48043 24.2698 8.73478 24.3751 9 24.3751Z" fill="#1C252E"/>
<path d="M23 28.3751H17C16.7348 28.3751 16.4804 28.4805 16.2929 28.668C16.1054 28.8556 16 29.1099 16 29.3751C16 29.6403 16.1054 29.8947 16.2929 30.0822C16.4804 30.2698 16.7348 30.3751 17 30.3751H23C23.2652 30.3751 23.5196 30.2698 23.7071 30.0822C23.8946 29.8947 24 29.6403 24 29.3751C24 29.1099 23.8946 28.8556 23.7071 28.668C23.5196 28.4805 23.2652 28.3751 23 28.3751Z" fill="#1C252E"/>
<path d="M9 18.3751H11C11.2652 18.3751 11.5196 18.2698 11.7071 18.0822C11.8946 17.8947 12 17.6403 12 17.3751C12 17.1099 11.8946 16.8556 11.7071 16.668C11.5196 16.4805 11.2652 16.3751 11 16.3751H9C8.73478 16.3751 8.48043 16.4805 8.29289 16.668C8.10536 16.8556 8 17.1099 8 17.3751C8 17.6403 8.10536 17.8947 8.29289 18.0822C8.48043 18.2698 8.73478 18.3751 9 18.3751Z" fill="#1C252E"/>
<path d="M23 22.3751H21C20.7348 22.3751 20.4804 22.4805 20.2929 22.668C20.1054 22.8556 20 23.1099 20 23.3751C20 23.6403 20.1054 23.8947 20.2929 24.0822C20.4804 24.2698 20.7348 24.3751 21 24.3751H23C23.2652 24.3751 23.5196 24.2698 23.7071 24.0822C23.8946 23.8947 24 23.6403 24 23.3751C24 23.1099 23.8946 22.8556 23.7071 22.668C23.5196 22.4805 23.2652 22.3751 23 22.3751Z" fill="#1C252E"/>
<path d="M9 30.3751H13C13.2652 30.3751 13.5196 30.2698 13.7071 30.0822C13.8946 29.8947 14 29.6403 14 29.3751C14 29.1099 13.8946 28.8556 13.7071 28.668C13.5196 28.4805 13.2652 28.3751 13 28.3751H9C8.73478 28.3751 8.48043 28.4805 8.29289 28.668C8.10536 28.8556 8 29.1099 8 29.3751C8 29.6403 8.10536 29.8947 8.29289 30.0822C8.48043 30.2698 8.73478 30.3751 9 30.3751Z" fill="#1C252E"/>
<path d="M9 12.3751H13C13.2652 12.3751 13.5196 12.2698 13.7071 12.0822C13.8946 11.8947 14 11.6403 14 11.3751C14 11.1099 13.8946 10.8556 13.7071 10.668C13.5196 10.4805 13.2652 10.3751 13 10.3751H9C8.73478 10.3751 8.48043 10.4805 8.29289 10.668C8.10536 10.8556 8 11.1099 8 11.3751C8 11.6403 8.10536 11.8947 8.29289 12.0822C8.48043 12.2698 8.73478 12.3751 9 12.3751Z" fill="#1C252E"/>
<path d="M29 52.3749H17C15.1442 52.3728 13.3649 51.6346 12.0526 50.3223C10.7403 49.01 10.0021 47.2307 10 45.3749V43.7891L12.2929 46.082C12.3858 46.1748 12.496 46.2485 12.6173 46.2988C12.7387 46.349 12.8687 46.3749 13 46.3749C13.1314 46.3749 13.2614 46.349 13.3827 46.2988C13.5041 46.2485 13.6143 46.1748 13.7072 46.082C13.8 45.9891 13.8737 45.8789 13.9239 45.7575C13.9742 45.6362 14.0001 45.5062 14.0001 45.3749C14.0001 45.2435 13.9742 45.1135 13.9239 44.9922C13.8737 44.8708 13.8 44.7606 13.7072 44.6677L9.70716 40.6677C9.6143 40.5749 9.50406 40.5012 9.38273 40.4509C9.2614 40.4007 9.13136 40.3748 9.00003 40.3748C8.86871 40.3748 8.73867 40.4007 8.61734 40.4509C8.49601 40.5012 8.38577 40.5749 8.29291 40.6677L4.29291 44.6677C4.10537 44.8553 4.00001 45.1096 4.00001 45.3749C4.00001 45.6401 4.10537 45.8944 4.29291 46.082C4.48045 46.2695 4.73481 46.3749 5.00003 46.3749C5.26526 46.3749 5.51962 46.2695 5.70716 46.082L8.00003 43.7891V45.3749C8.00271 47.761 8.95179 50.0486 10.639 51.7359C12.3263 53.4231 14.6139 54.3722 17 54.3749H29C29.2653 54.3749 29.5196 54.2695 29.7071 54.082C29.8947 53.8944 30 53.6401 30 53.3749C30 53.1096 29.8947 52.8553 29.7071 52.6677C29.5196 52.4802 29.2653 52.3749 29 52.3749Z" fill="#1C252E"/>
<path d="M59.7071 18.668C59.6143 18.5751 59.504 18.5015 59.3827 18.4512C59.2614 18.401 59.1313 18.3751 59 18.3751C58.8687 18.3751 58.7386 18.401 58.6173 18.4512C58.496 18.5015 58.3857 18.5751 58.2929 18.668L56 20.9609V19.3751C55.9973 16.989 55.0482 14.7014 53.361 13.0141C51.6738 11.3269 49.3861 10.3778 47 10.3751H35C34.7348 10.3751 34.4804 10.4805 34.2929 10.668C34.1054 10.8556 34 11.1099 34 11.3751C34 11.6403 34.1054 11.8947 34.2929 12.0822C34.4804 12.2698 34.7348 12.3751 35 12.3751H47C48.8559 12.3772 50.6351 13.1154 51.9474 14.4277C53.2597 15.74 53.9979 17.5192 54 19.3751V20.9609L51.7071 18.668C51.5196 18.4805 51.2652 18.3751 51 18.3751C50.7348 18.3751 50.4804 18.4805 50.2929 18.668C50.1053 18.8555 50 19.1099 50 19.3751C50 19.6403 50.1053 19.8947 50.2929 20.0822L54.2929 24.0822C54.3857 24.1751 54.496 24.2488 54.6173 24.299C54.7386 24.3493 54.8687 24.3752 55 24.3752C55.1313 24.3752 55.2614 24.3493 55.3827 24.299C55.504 24.2488 55.6143 24.1751 55.7071 24.0822L59.7071 20.0822C59.8 19.9894 59.8737 19.8791 59.9239 19.7578C59.9742 19.6365 60 19.5064 60 19.3751C60 19.2438 59.9742 19.1138 59.9239 18.9924C59.8737 18.8711 59.8 18.7609 59.7071 18.668Z" fill="#1C252E"/>
</svg>
