<svg width="64" height="65" viewBox="0 0 64 65" fill="none" xmlns="http://www.w3.org/2000/svg">
<path d="M42.7441 41.4196C41.2277 41.4196 39.9941 40.3519 39.9941 39.0395C39.9941 37.727 41.2277 36.6593 42.7441 36.6593C44.2605 36.6593 45.4941 37.727 45.4941 39.0395C45.4941 39.7298 46.0538 40.2895 46.7441 40.2895C47.4343 40.2895 47.9941 39.7298 47.9941 39.0395C47.9941 36.7489 46.2873 34.8229 43.9941 34.3002V33.65C43.9941 32.9598 43.4343 32.4 42.7441 32.4C42.0538 32.4 41.4941 32.9598 41.4941 33.65V34.3002C39.2008 34.8229 37.4941 36.7489 37.4941 39.0395C37.4941 41.7304 39.8492 43.9196 42.7441 43.9196C44.2605 43.9196 45.4941 44.9874 45.4941 46.2999C45.4941 47.6124 44.2605 48.6801 42.7441 48.6801C41.2277 48.6801 39.9941 47.6124 39.9941 46.2999C39.9941 45.6096 39.4343 45.0499 38.7441 45.0499C38.0538 45.0499 37.4941 45.6096 37.4941 46.2999C37.4941 48.5905 39.2008 50.5165 41.4941 51.0392V51.5793C41.4941 52.2695 42.0538 52.8292 42.7441 52.8292C43.4343 52.8292 43.9941 52.2695 43.9941 51.5793V51.0392C46.2873 50.5165 47.9941 48.5905 47.9941 46.2999C47.9941 43.6089 45.639 41.4196 42.7441 41.4196Z" fill="#1C252E"/>
<path d="M56.4352 33.9847C54.8023 31.4403 52.5018 29.4043 49.7824 28.097C49.1601 27.7978 48.4132 28.0598 48.1142 28.682C47.8151 29.3043 48.0769 30.051 48.6992 30.3502C53.4381 32.6282 56.4999 37.4955 56.4999 42.7503C56.4999 44.9988 55.9457 47.2286 54.8973 49.1991C54.5731 49.8085 54.8042 50.5655 55.4137 50.8898C55.6007 50.9893 55.8017 51.0365 55.9997 51.0365C56.4469 51.0365 56.8796 50.7958 57.1043 50.3734C58.3444 48.0429 58.9999 45.4068 58.9999 42.7503C58.9999 39.6303 58.113 36.5992 56.4352 33.9847Z" fill="#1C252E"/>
<path d="M44.709 26.5004L44.6249 26.5002C43.9347 26.5002 43.3749 27.0599 43.3749 27.7502C43.3749 28.4406 43.9347 29.0002 44.6249 29.0002L44.6973 29.0003C44.6993 29.0003 44.7012 29.0003 44.7033 29.0003C45.3909 29.0003 45.9499 28.4446 45.9532 27.7562C45.9563 27.0659 45.3993 26.5036 44.709 26.5004Z" fill="#1C252E"/>
<path d="M36.8008 55.1501C32.0621 52.872 29.0002 48.0046 29.0002 42.75C29.0002 40.5015 29.5545 38.2716 30.6029 36.3011C30.9271 35.6917 30.696 34.9347 30.0865 34.6105C29.4772 34.2863 28.72 34.5174 28.3959 35.1269C27.1557 37.4575 26.5002 40.0935 26.5002 42.75C26.5002 45.87 27.3871 48.901 29.065 51.5156C30.6979 54.06 32.9983 56.096 35.7177 57.4033C35.8923 57.4873 36.0768 57.527 36.2585 57.527C36.724 57.527 37.1707 57.2658 37.386 56.8183C37.6848 56.1961 37.4231 55.4492 36.8008 55.1501Z" fill="#1C252E"/>
<path d="M40.8751 56.5001L40.8027 56.4998C40.1092 56.4986 39.5502 57.0535 39.5471 57.744C39.5439 58.4343 40.1011 58.9966 40.7914 58.9999L40.8751 59.0001C41.5654 59.0001 42.1251 58.4404 42.1251 57.7501C42.1251 57.0598 41.5654 56.5001 40.8751 56.5001Z" fill="#1C252E"/>
<path d="M48.426 22.2711C48.2739 21.9086 48.0875 21.567 47.8707 21.2501H51.1249C54.2954 21.2501 56.8749 18.6706 56.8749 15.5001C56.8749 12.3296 54.2954 9.75011 51.1249 9.75011H41.1149C41.7513 8.82486 42.1249 7.70548 42.1249 6.50011C42.1249 3.32962 39.5454 0.750122 36.3749 0.750122H5.74999C2.57949 0.750122 0 3.32962 0 6.50011C0 9.67061 2.57949 12.2501 5.74999 12.2501H15.76C15.1236 13.1754 14.75 14.2947 14.75 15.5001C14.75 16.7055 15.1235 17.8248 15.76 18.7501H12.5C9.32948 18.7501 6.74999 21.3296 6.74999 24.5001C6.74999 26.321 7.60174 27.9458 8.92686 29.0001C7.60174 30.0543 6.74999 31.6792 6.74999 33.5001C6.74999 35.3209 7.60174 36.9458 8.92686 38.0001C7.60174 39.0543 6.74999 40.6792 6.74999 42.5C6.74999 44.3209 7.60174 45.9458 8.92686 47C7.60174 48.0543 6.74999 49.6792 6.74999 51.5C6.74999 54.6705 9.32948 57.25 12.5 57.25H27.2312C31.1119 61.4009 36.6327 64.0001 42.75 64.0001C54.4673 64.0001 64 54.4674 64 42.7502C64 32.9981 57.3963 24.7605 48.426 22.2711ZM51.1249 12.2501C52.917 12.2501 54.3749 13.7081 54.3749 15.5001C54.3749 17.2921 52.917 18.7501 51.1249 18.7501H20.5C18.7078 18.7501 17.25 17.2921 17.25 15.5001C17.25 13.7081 18.7078 12.2501 20.5 12.2501H51.1249ZM5.74999 9.75011C3.95787 9.75011 2.5 8.29211 2.5 6.50011C2.5 4.70811 3.95787 3.25012 5.74999 3.25012H36.3749C38.1671 3.25012 39.6249 4.70811 39.6249 6.50011C39.6249 8.29211 38.1671 9.75011 36.3749 9.75011H5.74999ZM12.5 21.2501H43.1249C43.6284 21.2501 44.1105 21.3671 44.543 21.5766C43.9518 21.527 43.354 21.5002 42.75 21.5002C36.8819 21.5002 31.5619 23.8913 27.7127 27.7501H12.5C10.708 27.7501 9.24998 26.2921 9.24998 24.5001C9.24998 22.7081 10.708 21.2501 12.5 21.2501ZM12.5 30.2501H25.5768C24.1578 32.1942 23.0607 34.3869 22.364 36.7501H12.5C10.7079 36.7501 9.24998 35.2922 9.24998 33.5001C9.24998 31.7081 10.7079 30.2501 12.5 30.2501ZM12.5 39.2501H21.79C21.6003 40.3892 21.5001 41.558 21.5001 42.7502C21.5001 43.7684 21.5737 44.7697 21.7128 45.75H12.5C10.7079 45.75 9.24998 44.2922 9.24998 42.5C9.24998 40.7079 10.7079 39.2501 12.5 39.2501ZM12.5 54.75C10.7079 54.75 9.24998 53.2922 9.24998 51.5C9.24998 49.7079 10.7079 48.25 12.5 48.25H22.2232C22.854 50.6017 23.8786 52.7933 25.2223 54.75H12.5ZM42.75 61.5001C32.4113 61.5001 24.0001 53.0889 24.0001 42.7502C24.0001 32.4114 32.4113 24.0002 42.75 24.0002C53.0888 24.0002 61.5 32.4114 61.5 42.7502C61.5 53.0889 53.0888 61.5001 42.75 61.5001Z" fill="#1C252E"/>
</svg>
