<svg width="64" height="65" viewBox="0 0 64 65" fill="none" xmlns="http://www.w3.org/2000/svg">
<path d="M37 54.3752H35V44.5752C35 44.3099 34.8946 44.0556 34.7071 43.868C34.5196 43.6805 34.2652 43.5752 34 43.5752C33.7348 43.5752 33.4804 43.6805 33.2929 43.868C33.1054 44.0556 33 44.3099 33 44.5752V54.3752H7V34.3752H15.32C15.5852 34.3752 15.8396 34.2698 16.0271 34.0823C16.2146 33.8947 16.32 33.6404 16.32 33.3752C16.32 33.1099 16.2146 32.8556 16.0271 32.668C15.8396 32.4805 15.5852 32.3752 15.32 32.3752H6C5.73478 32.3752 5.48043 32.4805 5.29289 32.668C5.10536 32.8556 5 33.1099 5 33.3752V54.3752H3C2.73478 54.3752 2.48043 54.4805 2.29289 54.668C2.10536 54.8556 2 55.1099 2 55.3752V57.3752C2 58.7012 2.52678 59.973 3.46447 60.9107C4.40215 61.8484 5.67392 62.3752 7 62.3752H33C34.3261 62.3752 35.5979 61.8484 36.5355 60.9107C37.4732 59.973 38 58.7012 38 57.3752V55.3752C38 55.1099 37.8946 54.8556 37.7071 54.668C37.5196 54.4805 37.2652 54.3752 37 54.3752ZM36 57.3752C36 58.1708 35.6839 58.9339 35.1213 59.4965C34.5587 60.0591 33.7956 60.3752 33 60.3752H31V59.3752C31 59.1099 30.8946 58.8556 30.7071 58.668C30.5196 58.4805 30.2652 58.3752 30 58.3752C29.7348 58.3752 29.4804 58.4805 29.2929 58.668C29.1054 58.8556 29 59.1099 29 59.3752V60.3752H11V59.3752C11 59.1099 10.8946 58.8556 10.7071 58.668C10.5196 58.4805 10.2652 58.3752 10 58.3752C9.73478 58.3752 9.48043 58.4805 9.29289 58.668C9.10536 58.8556 9 59.1099 9 59.3752V60.3752H7C6.20435 60.3752 5.44129 60.0591 4.87868 59.4965C4.31607 58.9339 4 58.1708 4 57.3752V56.3752H36V57.3752Z" fill="#1C252E"/>
<path d="M54 8.37515H56C56.2652 8.37515 56.5196 8.2698 56.7071 8.08226C56.8946 7.89472 57 7.64037 57 7.37515C57 7.10994 56.8946 6.85558 56.7071 6.66805C56.5196 6.48051 56.2652 6.37515 56 6.37515H54C53.2043 6.37515 52.4413 6.69122 51.8787 7.25383C51.3161 7.81644 51 8.5795 51 9.37515V10.3752H50C49.7348 10.3752 49.4804 10.4805 49.2929 10.668C49.1054 10.8556 49 11.1099 49 11.3752C49 11.6404 49.1054 11.8947 49.2929 12.0823C49.4804 12.2698 49.7348 12.3752 50 12.3752H51V15.3752C51 15.6404 51.1054 15.8947 51.2929 16.0823C51.4804 16.2698 51.7348 16.3752 52 16.3752C52.2652 16.3752 52.5196 16.2698 52.7071 16.0823C52.8946 15.8947 53 15.6404 53 15.3752V12.3752H54C54.2652 12.3752 54.5196 12.2698 54.7071 12.0823C54.8946 11.8947 55 11.6404 55 11.3752C55 11.1099 54.8946 10.8556 54.7071 10.668C54.5196 10.4805 54.2652 10.3752 54 10.3752H53V9.37515C53 9.10994 53.1054 8.85558 53.2929 8.66805C53.4804 8.48051 53.7348 8.37515 54 8.37515Z" fill="#1C252E"/>
<path d="M59 2.37515H47C46.2043 2.37515 45.4413 2.69122 44.8787 3.25383C44.3161 3.81644 44 4.5795 44 5.37515V7.37515C44 7.64037 44.1054 7.89472 44.2929 8.08226C44.4804 8.2698 44.7348 8.37515 45 8.37515C45.2652 8.37515 45.5196 8.2698 45.7071 8.08226C45.8946 7.89472 46 7.64037 46 7.37515V5.37515C46 5.10994 46.1054 4.85558 46.2929 4.66805C46.4804 4.48051 46.7348 4.37515 47 4.37515H59C59.2652 4.37515 59.5196 4.48051 59.7071 4.66805C59.8946 4.85558 60 5.10994 60 5.37515V17.3752C60 17.6404 59.8946 17.8947 59.7071 18.0823C59.5196 18.2698 59.2652 18.3752 59 18.3752H47C46.7348 18.3752 46.4804 18.2698 46.2929 18.0823C46.1054 17.8947 46 17.6404 46 17.3752V11.3752C46 11.1099 45.8946 10.8556 45.7071 10.668C45.5196 10.4805 45.2652 10.3752 45 10.3752C44.7348 10.3752 44.4804 10.4805 44.2929 10.668C44.1054 10.8556 44 11.1099 44 11.3752V17.3752C44 18.1708 44.3161 18.9339 44.8787 19.4965C45.4413 20.0591 46.2043 20.3752 47 20.3752H59C59.7957 20.3752 60.5587 20.0591 61.1213 19.4965C61.6839 18.9339 62 18.1708 62 17.3752V5.37515C62 4.5795 61.6839 3.81644 61.1213 3.25383C60.5587 2.69122 59.7957 2.37515 59 2.37515Z" fill="#1C252E"/>
<path d="M49 42.3752C49 43.1663 49.2346 43.9396 49.6741 44.5974C50.1136 45.2552 50.7384 45.7679 51.4693 46.0707C52.2002 46.3734 53.0044 46.4527 53.7804 46.2983C54.5563 46.144 55.269 45.763 55.8284 45.2036C56.3878 44.6442 56.7688 43.9314 56.9232 43.1555C57.0775 42.3796 56.9983 41.5753 56.6955 40.8444C56.3928 40.1135 55.8801 39.4888 55.2223 39.0493C54.5645 38.6098 53.7911 38.3752 53 38.3752C51.9391 38.3752 50.9217 38.7966 50.1716 39.5467C49.4214 40.2969 49 41.3143 49 42.3752ZM55 42.3752C55 42.7707 54.8827 43.1574 54.6629 43.4863C54.4432 43.8152 54.1308 44.0715 53.7654 44.2229C53.3999 44.3743 52.9978 44.4139 52.6098 44.3367C52.2219 44.2596 51.8655 44.0691 51.5858 43.7894C51.3061 43.5097 51.1156 43.1533 51.0384 42.7653C50.9613 42.3774 51.0009 41.9752 51.1522 41.6098C51.3036 41.2443 51.56 40.932 51.8889 40.7122C52.2178 40.4925 52.6044 40.3752 53 40.3752C53.5304 40.3752 54.0392 40.5859 54.4142 40.9609C54.7893 41.336 55 41.8447 55 42.3752Z" fill="#1C252E"/>
<path d="M59 33.3752H47C46.2043 33.3752 45.4413 33.6912 44.8787 34.2538C44.3161 34.8164 44 35.5795 44 36.3752V48.3752C44 49.1708 44.3161 49.9339 44.8787 50.4965C45.4413 51.0591 46.2043 51.3752 47 51.3752H59C59.7957 51.3752 60.5587 51.0591 61.1213 50.4965C61.6839 49.9339 62 49.1708 62 48.3752V46.3752C62 46.1099 61.8946 45.8556 61.7071 45.668C61.5196 45.4805 61.2652 45.3752 61 45.3752C60.7348 45.3752 60.4804 45.4805 60.2929 45.668C60.1054 45.8556 60 46.1099 60 46.3752V48.3752C60 48.6404 59.8946 48.8947 59.7071 49.0823C59.5196 49.2698 59.2652 49.3752 59 49.3752H47C46.7348 49.3752 46.4804 49.2698 46.2929 49.0823C46.1054 48.8947 46 48.6404 46 48.3752V36.3752C46 36.1099 46.1054 35.8556 46.2929 35.668C46.4804 35.4805 46.7348 35.3752 47 35.3752H59C59.2652 35.3752 59.5196 35.4805 59.7071 35.668C59.8946 35.8556 60 36.1099 60 36.3752V42.3752C60 42.6404 60.1054 42.8947 60.2929 43.0823C60.4804 43.2698 60.7348 43.3752 61 43.3752C61.2652 43.3752 61.5196 43.2698 61.7071 43.0823C61.8946 42.8947 62 42.6404 62 42.3752V36.3752C62 35.5795 61.6839 34.8164 61.1213 34.2538C60.5587 33.6912 59.7957 33.3752 59 33.3752Z" fill="#1C252E"/>
<path d="M24.47 14.2258C24.6291 14.3245 24.8128 14.3764 25 14.3758C25.1565 14.3749 25.3107 14.3372 25.45 14.2658L31.45 11.2658C31.6138 11.1819 31.7513 11.0544 31.8472 10.8974C31.9432 10.7404 31.994 10.5599 31.994 10.3758C31.994 10.1918 31.9432 10.0113 31.8472 9.85427C31.7513 9.69724 31.6138 9.56975 31.45 9.48583L25.45 6.48583C25.2978 6.40912 25.1284 6.3726 24.9581 6.37973C24.7878 6.38687 24.6222 6.43742 24.4769 6.52659C24.3316 6.61576 24.2115 6.74059 24.128 6.88923C24.0446 7.03786 24.0005 7.20536 24 7.37583V13.3758C23.9996 13.5458 24.0426 13.713 24.1249 13.8617C24.2071 14.0105 24.3259 14.1358 24.47 14.2258ZM26 8.99583L28.76 10.3758L26 11.7558V8.99583Z" fill="#1C252E"/>
<path d="M27 19.3751C28.78 19.3751 30.5201 18.8473 32.0001 17.8584C33.4802 16.8694 34.6337 15.4638 35.3149 13.8193C35.9961 12.1747 36.1743 10.3651 35.8271 8.61931C35.4798 6.87348 34.6226 5.26984 33.364 4.01117C32.1053 2.75249 30.5016 1.89533 28.7558 1.54806C27.01 1.20079 25.2004 1.37902 23.5558 2.06021C21.9113 2.7414 20.5057 3.89495 19.5168 5.37499C18.5278 6.85504 18 8.59509 18 10.3751C18 12.7621 18.9482 15.0513 20.636 16.7391C22.3239 18.4269 24.6131 19.3751 27 19.3751ZM27 3.37513C28.3845 3.37513 29.7378 3.78567 30.889 4.55484C32.0401 5.32401 32.9373 6.41726 33.4672 7.69634C33.997 8.97542 34.1356 10.3829 33.8655 11.7408C33.5954 13.0986 32.9287 14.3459 31.9497 15.3249C30.9708 16.3038 29.7235 16.9705 28.3656 17.2406C27.0078 17.5107 25.6003 17.3721 24.3212 16.8423C23.0421 16.3125 21.9489 15.4153 21.1797 14.2641C20.4105 13.113 20 11.7596 20 10.3751C20 8.51861 20.7375 6.73813 22.0503 5.42538C23.363 4.11262 25.1435 3.37513 27 3.37513Z" fill="#1C252E"/>
<path d="M37 23.3751C37.1552 23.3751 37.3083 23.339 37.4472 23.2696C37.586 23.2001 37.7068 23.0993 37.8 22.9751L40.8 18.9751C40.9591 18.763 41.0274 18.4963 40.9899 18.2337C40.9524 17.9712 40.8121 17.7343 40.6 17.5751C40.3878 17.416 40.1211 17.3477 39.8585 17.3852C39.596 17.4227 39.3591 17.563 39.2 17.7751L36.2 21.7751C36.0408 21.9873 35.9725 22.254 36.01 22.5166C36.0475 22.7791 36.1878 23.016 36.4 23.1751C36.5731 23.305 36.7836 23.3751 37 23.3751Z" fill="#1C252E"/>
<path d="M39.2 26.9751C39.2931 27.0993 39.4139 27.2001 39.5528 27.2696C39.6916 27.339 39.8447 27.3751 40 27.3751C40.2163 27.3751 40.4269 27.305 40.6 27.1751L44.6 24.1751C44.8121 24.016 44.9524 23.7791 44.9899 23.5166C45.0274 23.254 44.9591 22.9873 44.8 22.7751C44.6408 22.563 44.4039 22.4227 44.1414 22.3852C43.8788 22.3477 43.6121 22.416 43.4 22.5751L39.4 25.5751C39.1878 25.7343 39.0475 25.9712 39.01 26.2337C38.9725 26.4963 39.0408 26.763 39.2 26.9751Z" fill="#1C252E"/>
<path d="M48.9999 29.1744C48.9762 29.0419 48.9259 28.9155 48.8521 28.8028C48.7782 28.6902 48.6824 28.5936 48.5703 28.5189C48.4583 28.4441 48.3323 28.3928 48.1999 28.368C48.0675 28.3432 47.9315 28.3454 47.7999 28.3744L42.7999 29.3744C42.6686 29.3876 42.5412 29.4264 42.4249 29.4888C42.3086 29.5512 42.2057 29.6359 42.1221 29.738C41.9533 29.9443 41.8734 30.2092 41.8999 30.4744C41.9265 30.7397 42.0573 30.9835 42.2635 31.1523C42.4698 31.321 42.7347 31.401 42.9999 31.3744H43.1999L48.1999 30.3744C48.3325 30.3507 48.4589 30.3004 48.5716 30.2265C48.6842 30.1527 48.7808 30.0569 48.8555 29.9448C48.9302 29.8328 48.9815 29.7068 49.0064 29.5744C49.0312 29.442 49.029 29.306 48.9999 29.1744Z" fill="#1C252E"/>
<path d="M3 29.3752H15C15.2652 29.3752 15.5196 29.2698 15.7071 29.0823C15.8946 28.8947 16 28.6404 16 28.3752V12.3752C16 12.1099 15.8946 11.8556 15.7071 11.668C15.5196 11.4805 15.2652 11.3752 15 11.3752H3C2.73478 11.3752 2.48043 11.4805 2.29289 11.668C2.10536 11.8556 2 12.1099 2 12.3752V28.3752C2 28.6404 2.10536 28.8947 2.29289 29.0823C2.48043 29.2698 2.73478 29.3752 3 29.3752ZM4 13.3752H14V27.3752H4V13.3752Z" fill="#1C252E"/>
<path d="M11 15.3752H9C8.73478 15.3752 8.48043 15.4805 8.29289 15.668C8.10536 15.8556 8 16.1099 8 16.3752C8 16.6404 8.10536 16.8947 8.29289 17.0823C8.48043 17.2698 8.73478 17.3752 9 17.3752H11C11.2652 17.3752 11.5196 17.2698 11.7071 17.0823C11.8946 16.8947 12 16.6404 12 16.3752C12 16.1099 11.8946 15.8556 11.7071 15.668C11.5196 15.4805 11.2652 15.3752 11 15.3752Z" fill="#1C252E"/>
<path d="M11 19.3752H7C6.73478 19.3752 6.48043 19.4805 6.29289 19.668C6.10536 19.8556 6 20.1099 6 20.3752C6 20.6404 6.10536 20.8947 6.29289 21.0823C6.48043 21.2698 6.73478 21.3752 7 21.3752H11C11.2652 21.3752 11.5196 21.2698 11.7071 21.0823C11.8946 20.8947 12 20.6404 12 20.3752C12 20.1099 11.8946 19.8556 11.7071 19.668C11.5196 19.4805 11.2652 19.3752 11 19.3752Z" fill="#1C252E"/>
<path d="M11 23.3752H7C6.73478 23.3752 6.48043 23.4805 6.29289 23.668C6.10536 23.8556 6 24.1099 6 24.3752C6 24.6404 6.10536 24.8947 6.29289 25.0823C6.48043 25.2698 6.73478 25.3752 7 25.3752H11C11.2652 25.3752 11.5196 25.2698 11.7071 25.0823C11.8946 24.8947 12 24.6404 12 24.3752C12 24.1099 11.8946 23.8556 11.7071 23.668C11.5196 23.4805 11.2652 23.3752 11 23.3752Z" fill="#1C252E"/>
<path d="M36.1202 29.0752C36.0545 28.961 35.967 28.8608 35.8626 28.7804C35.7582 28.6999 35.639 28.6409 35.5118 28.6065C35.3846 28.5721 35.2518 28.5632 35.1211 28.5801C34.9905 28.5971 34.8644 28.6396 34.7502 28.7052C34.6359 28.7709 34.5357 28.8584 34.4553 28.9628C34.3749 29.0672 34.3158 29.1864 34.2814 29.3136C34.2471 29.4408 34.2381 29.5736 34.255 29.7042C34.272 29.8349 34.3145 29.961 34.3802 30.0752L38.7902 37.7052L22.7902 43.7052C22.7902 43.7052 22.7902 43.7052 22.7202 43.7052H22.6402L18.3102 46.2052C18.0824 46.3369 17.8309 46.4223 17.5701 46.4567C17.3093 46.491 17.0442 46.4735 16.7902 46.4052C16.2798 46.2673 15.8447 45.933 15.5802 45.4752L13.5802 42.0152C13.3449 41.5625 13.2915 41.0371 13.4309 40.5463C13.5703 40.0555 13.892 39.6366 14.3302 39.3752L17.7902 37.3752L20.2902 41.7052C20.3783 41.8578 20.5051 41.9845 20.6579 42.0723C20.8107 42.1601 20.9839 42.2059 21.1602 42.2052C21.336 42.2059 21.509 42.1602 21.6615 42.0728C21.8141 41.9853 21.9409 41.8591 22.0292 41.707C22.1174 41.5548 22.164 41.3821 22.1641 41.2062C22.1643 41.0304 22.1181 40.8575 22.0302 40.7052L19.4502 36.2452L32.0002 25.8952L32.4102 26.6052C32.4758 26.7195 32.5633 26.8197 32.6677 26.9001C32.7721 26.9805 32.8913 27.0396 33.0185 27.074C33.1457 27.1083 33.2785 27.1173 33.4092 27.1004C33.5398 27.0834 33.6659 27.0409 33.7802 26.9752C33.8944 26.9096 33.9946 26.8221 34.075 26.7177C34.1555 26.6133 34.2145 26.4941 34.2489 26.3669C34.2833 26.2396 34.2922 26.1069 34.2753 25.9762C34.2583 25.8455 34.2158 25.7195 34.1502 25.6052L33.1502 23.8752C33.0769 23.7499 32.9772 23.6421 32.858 23.5592C32.7389 23.4763 32.6031 23.4204 32.4602 23.3952C32.3164 23.3681 32.1685 23.3729 32.0268 23.4092C31.8852 23.4455 31.7532 23.5124 31.6402 23.6052L17.6402 35.1452L13.3802 37.6052C12.6157 38.0505 12.0204 38.7367 11.6874 39.5564C11.3545 40.376 11.3027 41.283 11.5402 42.1352L10.5402 42.7052C10.0249 43.0011 9.60913 43.4433 9.34552 43.9758C9.08192 44.5083 8.98237 45.1071 9.05949 45.6962C9.13662 46.2853 9.38694 46.8383 9.77872 47.285C10.1705 47.7317 10.6861 48.0519 11.2602 48.2052C11.5146 48.2726 11.7769 48.3063 12.0402 48.3052C12.5662 48.3031 13.0829 48.1653 13.5402 47.9052L14.5402 47.3352C15.0205 47.8315 15.6247 48.1905 16.2902 48.3752C16.6319 48.4708 16.9853 48.5179 17.3402 48.5152C18.0431 48.5169 18.7336 48.3304 19.3402 47.9752L20.2102 47.4752L22.2102 50.9452C22.6076 51.6324 23.2613 52.1341 24.0279 52.3402C24.7945 52.5464 25.6116 52.4403 26.3002 52.0452C26.6418 51.8484 26.9412 51.5862 27.1814 51.2736C27.4216 50.9609 27.5978 50.604 27.7 50.2232C27.8021 49.8424 27.8282 49.4453 27.7768 49.0544C27.7253 48.6635 27.5974 48.2866 27.4002 47.9452L25.5802 44.7752L40.5802 39.1452C40.7162 39.0941 40.8394 39.0139 40.9413 38.9103C41.0432 38.8067 41.1213 38.6821 41.1702 38.5452C41.2188 38.41 41.2378 38.2658 41.2257 38.1226C41.2136 37.9794 41.1708 37.8404 41.1002 37.7152L36.1202 29.0752ZM12.5002 46.1652C12.3863 46.2311 12.2605 46.2738 12.1301 46.2909C11.9997 46.3081 11.8672 46.2994 11.7402 46.2652C11.484 46.1987 11.2646 46.0333 11.1302 45.8052C11.0643 45.6914 11.0216 45.5656 11.0044 45.4352C10.9873 45.3048 10.996 45.1723 11.0302 45.0452C11.0643 44.9175 11.1234 44.7979 11.2041 44.6932C11.2848 44.5885 11.3854 44.5008 11.5002 44.4352L12.3702 43.9352L13.3702 45.6652L12.5002 46.1652ZM25.6602 48.9652C25.726 49.0791 25.7687 49.2049 25.7859 49.3353C25.803 49.4657 25.7943 49.5982 25.7602 49.7252C25.6888 49.9794 25.5199 50.1951 25.2902 50.3252C25.0617 50.4564 24.7908 50.4922 24.5361 50.4248C24.2815 50.3574 24.0637 50.1923 23.9302 49.9652L21.9302 46.4952L23.5902 45.5452H23.6702L25.6602 48.9652Z" fill="#1C252E"/>
</svg>
