<svg width="64" height="65" viewBox="0 0 64 65" fill="none" xmlns="http://www.w3.org/2000/svg">
<g clip-path="url(#clip0_3_183364)">
<path d="M24.3925 14.9641C24.5397 15.1076 24.607 15.3145 24.5722 15.5172L23.737 20.3867C23.3825 22.2539 25.4675 24.0262 27.3642 23.022L31.7372 20.7229C31.9193 20.6272 32.1367 20.627 32.3188 20.7229L36.692 23.022C38.3638 23.9751 40.6911 22.4272 40.3192 20.3867L39.484 15.5172C39.4492 15.3145 39.5163 15.1077 39.6637 14.9641L43.2016 11.5154C43.888 10.8462 44.1303 9.86437 43.8342 8.95275C43.538 8.04112 42.7647 7.38912 41.8161 7.25137L36.9266 6.54087C36.7232 6.51137 36.5473 6.3835 36.4562 6.19912L34.2698 1.76862C33.8456 0.909122 32.9866 0.375122 32.0281 0.375122C31.0696 0.375122 30.2106 0.909122 29.7863 1.76862L27.5998 6.199C27.5087 6.38362 27.3328 6.51137 27.1292 6.54087L22.2398 7.25137C20.3105 7.46725 19.3621 10.0836 20.8545 11.5155L24.3925 14.9641ZM22.0051 9.53225C22.0412 9.42112 22.1626 9.15725 22.5096 9.10687L27.3987 8.39637C28.2131 8.27825 28.9168 7.76712 29.2812 7.029L31.4677 2.59862C31.6228 2.28412 31.9112 2.25025 32.0281 2.25025C32.145 2.25025 32.4333 2.28412 32.5885 2.59862L34.7751 7.02912C35.1395 7.76712 35.8431 8.27825 36.6573 8.39637L41.5466 9.10687C41.8936 9.15725 42.0151 9.42125 42.0511 9.53225C42.0871 9.64325 42.1441 9.92812 41.893 10.1727L38.3551 13.6214C37.7658 14.1957 37.497 15.023 37.6361 15.8341L38.4713 20.7036C38.5306 21.0492 38.3172 21.2462 38.2227 21.3149C38.1282 21.3835 37.8751 21.5255 37.5646 21.3624L33.1915 19.0632C32.4631 18.6804 31.5933 18.6804 30.8648 19.0632L26.4917 21.3624C26.1813 21.5259 25.9281 21.3835 25.8336 21.3149C25.7391 21.2462 25.5257 21.0492 25.585 20.7036L26.4202 15.8341C26.5593 15.023 26.2905 14.1957 25.7012 13.6214L22.1633 10.1729C21.9122 9.92812 21.9691 9.64337 22.0051 9.53225Z" fill="#1C252E"/>
<path d="M42.7866 17.7495C42.5432 18.4982 42.7423 19.305 43.3062 19.8547L45.8335 22.3181C45.8756 22.3592 45.8948 22.4184 45.885 22.4764L45.2883 25.955C44.9785 27.4901 46.7305 28.9152 48.2681 28.1197L51.392 26.4774C51.4441 26.45 51.5063 26.45 51.5583 26.4774L54.6822 28.1197C55.922 28.8845 58.0111 27.6752 57.662 25.955L57.0653 22.4764C57.0553 22.4184 57.0747 22.3591 57.1167 22.3182L59.6442 19.8546C60.7838 18.8219 60.2172 16.5829 58.506 16.3519L55.0133 15.8444C54.9552 15.836 54.9048 15.7994 54.8788 15.7466L53.3168 12.5819C52.6462 11.1666 50.4895 11.0221 49.6337 12.5817L48.0718 15.7465C48.0458 15.7994 47.9955 15.836 47.9373 15.8444L44.4446 16.3519C43.6651 16.4651 43.0298 17.0006 42.7866 17.7495ZM44.5698 18.3289C44.5926 18.2587 44.6411 18.2179 44.714 18.2072L48.2067 17.6997C48.8756 17.6025 49.4536 17.1825 49.753 16.5764L51.315 13.4115C51.3476 13.3455 51.4015 13.3119 51.4751 13.3119C51.5487 13.3119 51.6026 13.3454 51.6352 13.4114L53.1973 16.5765C53.4966 17.1826 54.0746 17.6025 54.7436 17.6997L58.2362 18.2072C58.3091 18.2179 58.3577 18.2587 58.3805 18.3289C58.4032 18.399 58.3881 18.4606 58.3353 18.512L55.8077 20.9757C55.3237 21.4476 55.1031 22.1271 55.2172 22.7932L55.8138 26.272C55.8263 26.3445 55.8025 26.4034 55.7428 26.4465C55.6832 26.4899 55.62 26.4944 55.5547 26.46L52.4306 24.8176C51.8323 24.5031 51.118 24.5031 50.5195 24.8176L47.3955 26.46C47.3302 26.4941 47.267 26.4897 47.2073 26.4465C47.1477 26.4032 47.1238 26.3445 47.1363 26.2719L47.733 22.7932C47.8472 22.127 47.6263 21.4475 47.1423 20.9755L44.6151 18.5121C44.5622 18.4605 44.547 18.3989 44.5698 18.3289Z" fill="#1C252E"/>
<path d="M6.81432 22.3192C6.85645 22.3603 6.8757 22.4195 6.86582 22.4775L6.2692 25.9561C6.00932 27.467 7.61757 28.9468 9.24895 28.1208L12.3728 26.4785C12.4249 26.4511 12.4872 26.4511 12.5392 26.4785L15.6632 28.1208C16.9976 28.8855 18.9519 27.655 18.6429 25.9561L18.0463 22.4773C18.0363 22.4195 18.0556 22.3603 18.0977 22.3193L20.6248 19.8557C21.7645 18.823 21.1978 16.584 19.4866 16.353L15.9941 15.8455C15.9358 15.8371 15.8854 15.8005 15.8594 15.7477L14.2974 12.5828C13.6526 11.1581 11.3666 11.038 10.6143 12.5828L9.05232 15.7476C9.02632 15.8005 8.97595 15.8371 8.91782 15.8455L5.42507 16.353C3.86932 16.5327 3.0552 18.6393 4.28695 19.8558L6.81432 22.3192ZM5.55057 18.33C5.57332 18.2598 5.62182 18.219 5.6947 18.2083L9.18745 17.7008C9.85632 17.6036 10.4343 17.1836 10.7337 16.5775L12.2957 13.4125C12.3283 13.3465 12.3822 13.313 12.4558 13.313C12.5294 13.313 12.5834 13.3465 12.6159 13.4126L14.1779 16.5776C14.4772 17.1837 15.0552 17.6036 15.7242 17.7008L19.2168 18.2083C19.2897 18.219 19.3383 18.2598 19.3611 18.33C19.3838 18.4001 19.3687 18.4617 19.3159 18.5131L16.7884 20.9767C16.3043 21.4486 16.0836 22.1282 16.1979 22.7943L16.7946 26.273C16.8071 26.3456 16.7831 26.4045 16.7236 26.4476C16.6641 26.491 16.6007 26.4955 16.5354 26.4611L13.4114 24.8187C12.8131 24.5042 12.0987 24.5042 11.5002 24.8187L8.3762 26.4611C8.31107 26.4955 8.2477 26.4908 8.1882 26.4476C8.1287 26.4043 8.1047 26.3456 8.1172 26.273L8.71382 22.7945C8.8282 22.1282 8.60732 21.4486 8.1232 20.9766L5.59595 18.5132C5.54307 18.4616 5.52782 18.4 5.55057 18.33Z" fill="#1C252E"/>
<path d="M29.9525 15.5754C30.3773 15.8484 30.7212 15.9899 31.0906 16.0604V16.3522C31.0906 16.8656 31.4861 17.3132 31.9992 17.3286C32.5301 17.3446 32.9656 16.919 32.9656 16.3915V15.9279C33.7713 15.5969 34.3795 14.8721 34.5312 13.9681C34.7281 12.7957 34.0935 11.7372 32.952 11.3342C32.7622 11.2571 32.487 11.2077 31.8858 10.9821C31.7205 10.9011 31.6248 10.718 31.6651 10.5382C31.6845 10.4634 31.7376 10.3155 31.9428 10.1755C32.2242 10.0316 32.5731 10.3263 32.5883 10.339C33.0092 10.6865 33.6425 10.6047 33.9587 10.1456C34.2458 9.72885 34.1242 9.15922 33.7255 8.8476C33.5091 8.67847 33.2505 8.52835 32.9656 8.42135V8.1521C32.9656 7.63872 32.5701 7.1911 32.057 7.17572C31.5261 7.15972 31.0906 7.58535 31.0906 8.11285V8.49922C31.0858 8.5016 31.0811 8.50335 31.0763 8.50572C30.4296 8.83635 29.9735 9.44572 29.825 10.1778C29.687 10.8581 29.8443 11.55 30.2458 12.0284C30.8193 12.6779 31.4842 12.8432 32.3278 13.1022C32.4323 13.1391 32.7503 13.2514 32.6822 13.6574C32.6456 13.8756 32.4573 14.2456 31.9843 14.2487C31.4431 14.2521 31.3282 14.2345 30.9403 13.9811C30.4765 13.6782 29.8437 13.8387 29.5877 14.3492C29.37 14.7834 29.5438 15.3129 29.9525 15.5754Z" fill="#1C252E"/>
<path d="M59.7844 55.4729L55.0629 53.5274V51.7009C56.643 50.1411 57.9685 47.4811 58.198 45.2813C59.8001 41.1623 58.0654 37.6848 56.2902 36.0661C56.7884 33.2673 54.4351 30.4447 51.5414 30.5007C48.6646 30.5084 46.3275 33.1029 46.7899 36.0502C45.7381 36.9649 44.879 38.3601 44.4416 39.8924C43.8816 41.8544 44.0556 43.8652 44.9256 45.5772C45.2517 47.7256 46.4581 50.1139 48.022 51.6969V53.5276L44.286 55.0671C43.8506 54.5281 43.2972 54.0808 42.6511 53.7753C42.1831 53.5541 41.6242 53.7539 41.4029 54.2219C41.1815 54.6901 41.3815 55.2489 41.8495 55.4703C42.8285 55.9333 43.4611 56.9326 43.4611 58.0161V62.5003H32.9646V57.7763C33.9345 57.7428 34.713 56.9436 34.713 55.9658V53.4299C34.9924 53.2632 35.2561 53.0688 35.5021 52.8509L37.8492 53.8182C38.1922 53.9488 38.7891 53.8874 39.0732 53.3086C39.2706 52.8298 39.0424 52.2818 38.5636 52.0846L36.2191 51.1184V47.5637C38.4166 45.7448 39.72 42.7898 40.1267 39.6099C41.2229 37.7643 43.0309 32.9198 39.8504 29.6994C38.5392 28.3721 36.683 28.1129 35.1714 28.4257C33.9522 25.7541 29.9325 25.4332 26.5326 27.4212C26.0871 27.6849 25.9399 28.2601 26.2037 28.7056C26.4675 29.1509 27.0427 29.2983 27.4881 29.0344C30.1759 27.5637 32.9959 27.5921 33.5575 29.5038L32.3561 32.7097C31.6926 33.4466 30.8544 34.0157 29.9186 34.3562C27.5982 35.2007 26.0301 36.5483 25.1056 37.5598C24.6385 36.0259 24.39 33.7303 25.0914 31.8214C25.2699 31.3353 25.0207 30.7967 24.5346 30.6181C24.0489 30.4397 23.51 30.6888 23.3314 31.1747C22.2429 34.1374 22.953 37.8397 23.9294 39.6173C24.3597 42.7841 25.5169 45.5872 27.8374 47.5652V51.1186L21.6246 53.6784C20.8725 53.9883 20.2351 54.4768 19.7499 55.0818L15.9781 53.5276V51.4841C17.7535 49.5454 19.215 45.9843 19.1696 43.5956C19.1696 39.2402 16.6601 36.6399 12.4567 36.6399C10.792 36.6399 9.38486 37.0466 8.27486 37.8483C7.8551 38.1516 7.76061 38.7376 8.06386 39.1573C8.36711 39.5771 8.95311 39.6716 9.37273 39.3683C10.1566 38.8021 11.1942 38.5149 12.4567 38.5149C16.4552 38.5149 17.2946 41.2778 17.2946 43.5956C17.4376 45.9863 14.8792 51.3626 12.4567 51.6028C9.60785 51.0679 7.14173 45.3623 7.68511 42.5324C7.75236 42.0191 7.39073 41.5483 6.87736 41.4811C6.36411 41.4152 5.89336 41.7754 5.82598 42.2888C5.38986 45.2554 6.73086 48.9236 8.93711 51.4851V53.5273L4.21561 55.4728C2.68673 56.1027 1.69873 57.5783 1.69873 59.2319V62.1863C1.69873 63.3932 2.68061 64.3752 3.88748 64.3752H60.1125C61.3194 64.3752 62.3012 63.3933 62.3012 62.1863V59.2319C62.3011 57.5784 61.3132 56.1028 59.7844 55.4729ZM38.5162 31.0169C40.4279 32.9524 39.761 35.9054 39.0056 37.6721C38.3216 36.9822 37.2997 36.0599 36.0467 35.2579C35.1979 34.7144 34.5309 33.9759 34.1757 33.1967L35.246 30.3408C36.1481 30.0813 37.5811 30.0702 38.5162 31.0169ZM25.8245 39.6464C26.2576 39.0233 27.7487 37.1411 30.5596 36.1181C31.4167 35.8061 32.2124 35.3479 32.9109 34.7707C33.4315 35.5637 34.1566 36.2741 35.0359 36.8369C36.5775 37.8238 37.7485 39.0442 38.2371 39.5919C37.7206 43.2949 35.5841 47.1986 32.027 47.1986C28.4894 47.1986 26.3536 43.3287 25.8245 39.6464ZM32.027 49.0736C32.8365 49.0736 33.6119 48.9298 34.344 48.6516V51.3718C33.1825 52.5347 30.9966 52.6126 29.7122 51.3726V48.6524C30.4437 48.9302 31.2184 49.0736 32.027 49.0736ZM18.7204 62.5003H16.8474L18.7202 59.8376L18.7204 62.5003ZM8.93698 60.4756L6.25386 56.6611L8.93698 55.5556V60.4756ZM10.812 57.2004C11.7246 57.5844 12.9965 57.6504 14.103 57.2003V62.5003H10.812V57.2004ZM15.978 55.5554L18.6621 56.6614L15.978 60.4776V55.5554ZM14.103 53.0273V55.0244C13.285 55.7834 11.7787 55.8814 10.812 55.0238C10.812 54.5463 10.812 53.5386 10.812 53.0279C11.7997 53.5418 12.9037 53.6759 14.103 53.0273ZM3.57361 62.1864V59.2321C3.57361 58.5043 3.92886 57.8409 4.50773 57.4373L8.06886 62.5003H3.88736C3.71436 62.5003 3.57361 62.3596 3.57361 62.1864ZM20.5954 58.0159C20.5954 56.8704 21.2797 55.8482 22.3387 55.4119L28.5541 52.8509C29.6979 53.8132 31.174 54.3599 32.8379 54.1064V55.9034C31.868 55.9369 31.0895 56.7362 31.0895 57.7141V62.5003H20.5954V58.0159ZM51.5414 32.3756C53.0269 32.3756 54.2572 33.4851 54.4495 34.9187C52.6455 34.1816 50.4797 34.1893 48.6302 34.9426C48.8119 33.4974 50.0476 32.3756 51.5414 32.3756ZM48.3221 37.2276C49.1886 36.6201 50.3994 36.2457 51.6352 36.2457C52.7231 36.2457 53.8306 36.5357 54.7401 37.2122C55.6729 37.9061 57.6852 40.3694 56.699 43.8681C55.8825 43.2704 54.7565 41.7152 54.0241 40.2884C53.8816 40.0102 53.6097 39.8217 53.2994 39.7851C52.9891 39.7484 52.6806 39.8693 52.4772 40.1064C51.5426 41.1978 48.767 43.8991 46.3999 44.3004C45.2772 41.5219 46.6815 38.3779 48.3221 37.2276ZM46.9432 46.1018C49.3866 45.5804 51.7577 43.5211 53.0042 42.2803C53.6187 43.3853 55.235 45.3837 56.2235 45.7469C55.5849 48.8047 53.153 51.6028 51.5412 51.6028C50.0292 51.6028 47.6956 49.0004 46.9432 46.1018ZM51.5414 53.4778C52.0755 53.4778 52.6314 53.3388 53.1877 53.0749C53.1879 53.0683 53.1876 54.0882 53.1879 54.1681C53.2221 55.6182 52.6049 57.2442 51.5445 58.3611C50.557 57.3374 49.8767 55.7206 49.8964 54.2096C49.8971 54.1606 49.8965 53.2383 49.8966 53.0778C50.4351 53.3333 50.9881 53.4778 51.5414 53.4778ZM48.1249 55.5129C48.3587 56.9361 48.9834 58.2748 49.9421 59.3759L50.6049 60.1372V62.5003H45.336V58.0159C45.336 57.5776 45.2727 57.1477 45.1551 56.7367L48.1249 55.5129ZM60.4261 62.1864C60.4261 62.3596 60.2854 62.5003 60.1124 62.5003H52.4797V60.1376L53.1202 59.4084C54.0946 58.2991 54.727 56.9501 54.9614 55.5137L59.0701 57.2067C59.8939 57.5461 60.4262 58.3411 60.4262 59.2322L60.4261 62.1864Z" fill="#1C252E"/>
<path d="M36.5779 58.7365C36.0601 58.7365 35.6404 59.1562 35.6404 59.674C35.6404 60.1919 36.0601 60.6115 36.5779 60.6115H40.119C40.6368 60.6115 41.0565 60.1919 41.0565 59.674C41.0565 59.1562 40.6368 58.7365 40.119 58.7365H36.5779Z" fill="#1C252E"/>
</g>
<defs>
<clipPath id="clip0_3_183364">
<rect width="64" height="64" fill="white" transform="translate(0 0.375122)"/>
</clipPath>
</defs>
</svg>
