<svg width="64" height="65" viewBox="0 0 64 65" fill="none" xmlns="http://www.w3.org/2000/svg">
<g clip-path="url(#clip0_3_183350)">
<path d="M25.2512 4.12512C24.7335 4.12512 24.3137 4.54487 24.3137 5.06262C24.3137 5.58037 24.7335 6.00012 25.2512 6.00012C25.769 6.00012 26.1887 5.58037 26.1887 5.06262C26.1887 4.54487 25.769 4.12512 25.2512 4.12512ZM59.3125 5.75512H50.9362V2.81262C50.9362 1.46862 49.8428 0.375122 48.4987 0.375122H15.5013C14.1573 0.375122 13.0638 1.46862 13.0638 2.81262V5.75512H4.6875C2.10275 5.75512 0 7.85787 0 10.4426V45.7451C0 47.7125 1.18713 49.3946 2.91738 50.0905L0.691 53.9467C-0.72425 56.3599 0.13075 59.5726 2.57675 60.9849C5.00625 62.3875 8.17937 61.5851 9.61487 59.0991L14.6184 50.4327H26.6105L25.8965 55.7396H24.8519C23.9843 55.7396 23.2165 56.3235 22.9848 57.1592L21.6645 61.9199C21.5011 62.5082 21.6196 63.1245 21.9891 63.6105C22.3586 64.0965 22.9209 64.3751 23.5315 64.3751H40.4685C41.0791 64.3751 41.6414 64.0964 42.0109 63.6104C42.3804 63.1244 42.4987 62.5081 42.3356 61.9199L41.0153 57.1594C40.7835 56.3234 40.0159 55.7395 39.1481 55.7395H38.1035L37.3895 50.4326H59.3125C61.8973 50.4326 64 48.3299 64 45.7451V10.4426C64 7.85787 61.8973 5.75512 59.3125 5.75512ZM50.9362 11.3801H58.375V42.9326H50.9362V11.3801ZM14.9388 2.81262C14.9388 2.5025 15.1911 2.25012 15.5013 2.25012H48.4987C48.8089 2.25012 49.0612 2.5025 49.0612 2.81262V7.87512H14.9388V2.81262ZM22.5406 13.9495C29.4094 13.9495 34.9975 19.5377 34.9975 26.4065C34.9975 33.2752 29.4094 38.8634 22.5406 38.8634C14.5701 38.8634 8.59087 31.4042 10.4047 23.589C10.5219 23.0846 10.2079 22.5809 9.7035 22.4639C9.19913 22.3469 8.6955 22.6609 8.57837 23.1652C7.43 28.1126 9.0845 33.4005 12.6624 36.7811L10.9754 39.7025C9.86575 39.5067 8.71513 40.04 8.153 41.022L7.05 42.9326H5.625V11.3801H13.0638V15.6532C12.0389 16.5607 11.1333 17.6241 10.3816 18.8256C10.1071 19.2645 10.2402 19.843 10.6792 20.1176C11.1181 20.3921 11.6967 20.259 11.9712 19.82C14.2551 16.1676 18.1779 13.9495 22.5406 13.9495ZM16.7064 39.4961L15.2684 41.9865L12.6835 40.4941L14.1241 37.9994C14.9264 38.5832 15.791 39.0865 16.7064 39.4961ZM1.875 45.7451V10.4426C1.875 8.89175 3.13675 7.63012 4.6875 7.63012H13.0638V9.50512H5.1875C4.39488 9.50512 3.75 10.15 3.75 10.9426V43.3701C3.75 44.1627 4.39488 44.8076 5.1875 44.8076H5.9675L3.87313 48.4352C2.71688 48.082 1.875 46.9944 1.875 45.7451ZM15.4532 45.2367C15.4532 45.2367 8.00875 58.1309 7.99113 58.1615C7.08763 59.7265 5.07938 60.2645 3.51437 59.361C1.96562 58.4669 1.41612 56.4235 2.31487 54.8842L9.77687 41.9595C10.004 41.5609 10.533 41.4144 10.9285 41.6462C10.9303 41.6472 10.9319 41.6485 10.9336 41.6496C10.9364 41.6512 10.9394 41.6522 10.9423 41.6539L15.1321 44.073C15.1357 44.0751 15.1389 44.0776 15.1425 44.0796C15.1441 44.0805 15.1458 44.0811 15.1474 44.082C15.5486 44.3169 15.6859 44.8336 15.4532 45.2367ZM39.1483 57.6145C39.1763 57.6145 39.201 57.6332 39.2084 57.6601V57.6602L40.5288 62.421C40.5406 62.4511 40.501 62.5036 40.4685 62.5001H23.5315C23.4989 62.5035 23.459 62.4516 23.4714 62.4209L24.7917 57.66C24.7992 57.6331 24.824 57.6144 24.8519 57.6144H39.1483V57.6145ZM27.7882 55.7395L28.5023 50.4326H35.4976L36.2116 55.7395H27.7882ZM62.125 45.7451C62.125 47.296 60.8633 48.5576 59.3125 48.5576H15.7009L17.077 46.1741C17.3258 45.7432 17.4412 45.2722 17.4389 44.8076H40.0942C40.6121 44.8076 41.0317 44.3879 41.0317 43.8701C41.0317 43.3524 40.6121 42.9326 40.0942 42.9326H16.8873L18.4911 40.155C19.7759 40.5341 21.1348 40.7385 22.5406 40.7385C30.4432 40.7385 36.8725 34.3092 36.8725 26.4066C36.8725 18.5039 30.4431 12.0746 22.5406 12.0746C19.7937 12.0746 17.1771 12.8471 14.9388 14.2511V9.75012H49.0612V42.9326H44.4692C43.9514 42.9326 43.5317 43.3524 43.5317 43.8701C43.5317 44.3879 43.9514 44.8076 44.4692 44.8076H58.8125C59.6051 44.8076 60.25 44.1627 60.25 43.3701V10.9426C60.25 10.15 59.6051 9.50512 58.8125 9.50512H50.9362V7.63012H59.3125C60.8633 7.63012 62.125 8.89175 62.125 10.4426V45.7451ZM17.7512 4.12512C17.2335 4.12512 16.8137 4.54487 16.8137 5.06262C16.8137 5.58037 17.2335 6.00012 17.7512 6.00012C18.269 6.00012 18.6887 5.58037 18.6887 5.06262C18.6887 4.54487 18.269 4.12512 17.7512 4.12512ZM21.5012 4.12512C20.9835 4.12512 20.5637 4.54487 20.5637 5.06262C20.5637 5.58037 20.9835 6.00012 21.5012 6.00012C22.019 6.00012 22.4387 5.58037 22.4387 5.06262C22.4387 4.54487 22.019 4.12512 21.5012 4.12512ZM46.2487 19.779H39C38.4821 19.779 38.0625 20.1987 38.0625 20.7165C38.0625 21.2342 38.4821 21.654 39 21.654H46.2487C46.7666 21.654 47.1862 21.2342 47.1862 20.7165C47.1862 20.1987 46.7666 19.779 46.2487 19.779ZM46.2487 25.404H39.875C39.3571 25.404 38.9375 25.8237 38.9375 26.3415C38.9375 26.8592 39.3571 27.279 39.875 27.279H46.2487C46.7666 27.279 47.1862 26.8592 47.1862 26.3415C47.1862 25.8237 46.7666 25.404 46.2487 25.404ZM22.5406 35.6255C27.624 35.6255 31.7596 31.4899 31.7596 26.4066C31.7596 21.3232 27.624 17.1876 22.5406 17.1876C17.4571 17.1876 13.3215 21.3232 13.3215 26.4066C13.3215 31.4899 17.4571 35.6255 22.5406 35.6255ZM22.5406 19.0625C26.5901 19.0625 29.8846 22.357 29.8846 26.4065C29.8846 30.456 26.5901 33.7504 22.5406 33.7504C18.4911 33.7504 15.1965 30.4559 15.1965 26.4065C15.1965 22.357 18.4911 19.0625 22.5406 19.0625ZM46.2487 31.029H38.875C38.3571 31.029 37.9375 31.4487 37.9375 31.9665C37.9375 32.4842 38.3571 32.904 38.875 32.904H46.2487C46.7666 32.904 47.1862 32.4842 47.1862 31.9665C47.1862 31.4487 46.7666 31.029 46.2487 31.029ZM47.1862 15.0915C47.1862 14.5737 46.7666 14.154 46.2487 14.154H35.5638C35.0459 14.154 34.6263 14.5737 34.6263 15.0915C34.6263 15.6092 35.0459 16.029 35.5638 16.029H46.2487C46.7666 16.029 47.1862 15.6092 47.1862 15.0915ZM47.1862 37.5915C47.1862 37.0737 46.7666 36.654 46.2487 36.654H35.5638C35.0459 36.654 34.6263 37.0737 34.6263 37.5915C34.6263 38.1092 35.0459 38.529 35.5638 38.529H46.2487C46.7666 38.529 47.1862 38.1092 47.1862 37.5915Z" fill="#1C252E"/>
</g>
<defs>
<clipPath id="clip0_3_183350">
<rect width="64" height="64" fill="white" transform="translate(0 0.375122)"/>
</clipPath>
</defs>
</svg>
