<svg width="64" height="65" viewBox="0 0 64 65" fill="none" xmlns="http://www.w3.org/2000/svg">
<g clip-path="url(#clip0_450_1336799)">
<path d="M63.6338 12.1146L52.2588 0.741247C52.0244 0.506872 51.7065 0.375122 51.375 0.375122H14.25C12.1823 0.375122 10.5 2.05737 10.5 4.12512V6.50812C4.35938 8.91687 0 14.902 0 21.8865C0 22.5767 0.55975 23.1365 1.25 23.1365H16.5114C17.2016 23.1365 17.7614 22.5767 17.7614 21.8865V6.62512C17.7614 5.93487 17.2016 5.37512 16.5114 5.37512C15.3066 5.37512 14.1321 5.50599 13 5.75224V4.12512C13 3.43587 13.5608 2.87512 14.25 2.87512H50.125V10.5001C50.125 12.5678 51.8073 14.2501 53.875 14.2501H61.5V60.6251C61.5 61.3144 60.9393 61.8751 60.25 61.8751H14.25C13.5608 61.8751 13 61.3144 13 60.6251V49.9167C13 49.2265 12.4403 48.6667 11.75 48.6667C11.0597 48.6667 10.5 49.2265 10.5 49.9167V60.6251C10.5 62.6928 12.1823 64.3751 14.25 64.3751H60.25C62.3177 64.3751 64 62.6928 64 60.6251V12.9985C64 12.667 63.8683 12.349 63.6338 12.1146ZM15.2612 7.9305V20.6365H2.55525C3.15287 13.9055 8.53037 8.52812 15.2612 7.9305ZM53.875 11.7501C53.1857 11.7501 52.625 11.1893 52.625 10.5001V4.64262L59.7335 11.7501H53.875Z" fill="#1C252E"/>
<path d="M12.6336 44.4913C12.4012 44.2587 12.0787 44.1251 11.75 44.1251C11.4213 44.1251 11.0988 44.2587 10.8663 44.4913C10.6337 44.7238 10.5 45.0463 10.5 45.3751C10.5 45.7039 10.6336 46.0263 10.8663 46.2587C11.0988 46.4913 11.4213 46.6251 11.75 46.6251C12.0787 46.6251 12.4012 46.4913 12.6336 46.2587C12.8663 46.0263 13 45.7039 13 45.3751C13 45.0463 12.8663 44.7238 12.6336 44.4913Z" fill="#1C252E"/>
<path d="M20.9883 9.85306C20.2981 9.85306 19.7383 10.4128 19.7383 11.103V25.1143H5.72708C5.03683 25.1143 4.47708 25.674 4.47708 26.3643C4.47708 35.4687 11.884 42.8757 20.9883 42.8757C30.0927 42.8757 37.4997 35.4687 37.4997 26.3643C37.4997 17.2599 30.0927 9.85306 20.9883 9.85306ZM22.2383 12.4084C25.1646 12.6682 27.8347 13.8319 29.9678 15.6172L22.2383 23.3465V12.4084ZM20.9883 40.3757C13.6837 40.3757 7.66658 34.757 7.03246 27.6143H20.9883C21.3333 27.6143 21.6456 27.4745 21.8718 27.2485L31.736 17.3847C33.7723 19.818 34.9997 22.9505 34.9997 26.3643C34.9997 34.0902 28.7142 40.3757 20.9883 40.3757Z" fill="#1C252E"/>
<path d="M54.7589 39.8253C52.6911 39.8253 51.0089 41.5076 51.0089 43.5753C51.0089 44.0936 51.1146 44.5874 51.3055 45.0368L44.1039 52.2384C43.609 51.9973 43.0535 51.8617 42.467 51.8617C41.8944 51.8617 41.3516 51.9912 40.8658 52.2216L36.0835 47.4393C36.2493 47.0163 36.3413 46.5565 36.3413 46.0752C36.3413 44.0075 34.659 42.3252 32.5913 42.3252C30.5235 42.3252 28.8413 44.0075 28.8413 46.0752C28.8413 46.6354 28.9656 47.167 29.1869 47.6448L24.6 52.2317C24.1114 51.9979 23.5646 51.8668 22.9879 51.8668C20.9201 51.8668 19.2379 53.5491 19.2379 55.6168C19.2379 57.6846 20.9201 59.3668 22.9879 59.3668C25.0556 59.3668 26.7379 57.6846 26.7379 55.6168C26.7379 55.0372 26.6056 54.488 26.3699 53.9976L30.9311 49.4363C31.432 49.6848 31.9955 49.8252 32.5915 49.8252C33.2646 49.8252 33.8963 49.6461 34.4429 49.3343L39.0903 53.9817C38.8513 54.4748 38.717 55.0278 38.717 55.6117C38.717 57.6794 40.3993 59.3617 42.467 59.3617C44.5348 59.3617 46.217 57.6794 46.217 55.6117C46.217 55.0419 46.0888 54.5017 45.8604 54.0177L52.9948 46.8833C53.5209 47.1651 54.1215 47.3253 54.7589 47.3253C56.8266 47.3253 58.5089 45.6431 58.5089 43.5753C58.5089 41.5076 56.8266 39.8253 54.7589 39.8253ZM22.9878 56.8669C22.2985 56.8669 21.7378 56.3062 21.7378 55.6169C21.7378 54.9277 22.2985 54.3669 22.9878 54.3669C23.3234 54.3669 23.6278 54.5006 23.8525 54.7166C23.8575 54.7218 23.8619 54.7275 23.867 54.7326C23.873 54.7386 23.8795 54.7436 23.8856 54.7493C24.1031 54.9743 24.2378 55.2801 24.2378 55.6169C24.2378 56.3061 23.677 56.8669 22.9878 56.8669ZM32.5913 47.3252C31.902 47.3252 31.3413 46.7645 31.3413 46.0752C31.3413 45.3859 31.902 44.8252 32.5913 44.8252C33.2805 44.8252 33.8413 45.3859 33.8413 46.0752C33.8413 46.7645 33.2805 47.3252 32.5913 47.3252ZM42.4668 56.8617C41.7775 56.8617 41.2168 56.3009 41.2168 55.6117C41.2168 54.9224 41.7775 54.3617 42.4668 54.3617C43.156 54.3617 43.7168 54.9224 43.7168 55.6117C43.7168 56.3009 43.156 56.8617 42.4668 56.8617ZM54.7586 44.8252C54.0694 44.8252 53.5086 44.2645 53.5086 43.5752C53.5086 42.8859 54.0695 42.3252 54.7586 42.3252C55.4479 42.3252 56.0086 42.8859 56.0086 43.5752C56.0086 44.2645 55.4479 44.8252 54.7586 44.8252Z" fill="#1C252E"/>
<path d="M48.5117 29.7501H41.9143C41.224 29.7501 40.6643 30.3098 40.6643 31.0001C40.6643 31.6904 41.2239 32.2501 41.9143 32.2501H48.5117C49.2019 32.2501 49.7617 31.6904 49.7617 31.0001C49.7617 30.3098 49.2019 29.7501 48.5117 29.7501Z" fill="#1C252E"/>
<path d="M55.086 30.1163C54.8536 29.8838 54.5311 29.7501 54.2024 29.7501C53.8736 29.7501 53.5511 29.8837 53.3186 30.1163C53.0861 30.3488 52.9524 30.6713 52.9524 31.0001C52.9524 31.3289 53.086 31.6514 53.3186 31.8837C53.5511 32.1162 53.8724 32.2501 54.2024 32.2501C54.5311 32.2501 54.8536 32.1163 55.086 31.8837C55.3185 31.6514 55.4524 31.3289 55.4524 31.0001C55.4524 30.6713 55.3186 30.3488 55.086 30.1163Z" fill="#1C252E"/>
<path d="M57.1835 17.7501H41.9143C41.224 17.7501 40.6643 18.3098 40.6643 19.0001C40.6643 19.6904 41.2239 20.2501 41.9143 20.2501H57.1835C57.8738 20.2501 58.4335 19.6904 58.4335 19.0001C58.4335 18.3098 57.8738 17.7501 57.1835 17.7501Z" fill="#1C252E"/>
<path d="M57.1835 23.7501H41.9143C41.224 23.7501 40.6643 24.3098 40.6643 25.0001C40.6643 25.6904 41.2239 26.2501 41.9143 26.2501H57.1835C57.8738 26.2501 58.4335 25.6904 58.4335 25.0001C58.4335 24.3098 57.8738 23.7501 57.1835 23.7501Z" fill="#1C252E"/>
</g>
<defs>
<clipPath id="clip0_450_1336799">
<rect width="64" height="64" fill="white" transform="translate(0 0.375122)"/>
</clipPath>
</defs>
</svg>
