<svg width="64" height="65" viewBox="0 0 64 65" fill="none" xmlns="http://www.w3.org/2000/svg">
<path d="M58.7072 12.668L48.7072 2.66797C48.5196 2.48046 48.2653 2.37513 48 2.37512H23C21.9395 2.37634 20.9228 2.79815 20.173 3.54803C19.4231 4.29792 19.0013 5.31463 19 6.37512V35.3751H21V6.37512C21.0006 5.84488 21.2116 5.33652 21.5865 4.96158C21.9614 4.58664 22.4698 4.37573 23 4.37512H47V10.3751C47.0013 11.4356 47.4231 12.4523 48.173 13.2022C48.9228 13.9521 49.9395 14.3739 51 14.3751H57V58.3751C56.9994 58.9054 56.7885 59.4137 56.4136 59.7887C56.0386 60.1636 55.5303 60.3745 55 60.3751H23C22.5082 60.3755 22.0335 60.1942 21.667 59.8661L20.333 61.3563C21.0661 62.013 22.0159 62.3758 23 62.3751H55C56.0605 62.3739 57.0772 61.9521 57.8271 61.2022C58.577 60.4523 58.9988 59.4356 59 58.3751V13.3751C59 13.1099 58.8947 12.8555 58.7072 12.668ZM49 10.3751V5.78931L55.5859 12.3751H51C50.4698 12.3745 49.9614 12.1636 49.5865 11.7887C49.2116 11.4137 49.0006 10.9054 49 10.3751Z" fill="#1C252E"/>
<path d="M23 6.37512H27V8.37512H23V6.37512Z" fill="#1C252E"/>
<path d="M29 6.37512H36V8.37512H29V6.37512Z" fill="#1C252E"/>
<path d="M23 10.3751H29V12.3751H23V10.3751Z" fill="#1C252E"/>
<path d="M23 16.3751H30V18.3751H23V16.3751Z" fill="#1C252E"/>
<path d="M32 16.3751H40V18.3751H32V16.3751Z" fill="#1C252E"/>
<path d="M23 20.3751H32V22.3751H23V20.3751Z" fill="#1C252E"/>
<path d="M28 24.3751H38V26.3751H28V24.3751Z" fill="#1C252E"/>
<path d="M40 24.3751H49V26.3751H40V24.3751Z" fill="#1C252E"/>
<path d="M51 24.3751H55V26.3751H51V24.3751Z" fill="#1C252E"/>
<path d="M23 28.3751H33V30.3751H23V28.3751Z" fill="#1C252E"/>
<path d="M35 28.3751H44V30.3751H35V28.3751Z" fill="#1C252E"/>
<path d="M46 28.3751H55V30.3751H46V28.3751Z" fill="#1C252E"/>
<path d="M29 51.3751C28.7348 51.3751 28.4805 51.4805 28.2929 51.668C28.1054 51.8556 28.0001 52.1099 28 52.3751V58.3751C28.0001 58.6403 28.1054 58.8947 28.2929 59.0822C28.4805 59.2697 28.7348 59.3751 29 59.3751H35C35.2653 59.3751 35.5196 59.2697 35.7071 59.0822C35.8947 58.8947 36 58.6403 36 58.3751V52.3751C36 52.1099 35.8947 51.8556 35.7071 51.668C35.5196 51.4805 35.2653 51.3751 35 51.3751H29ZM34 57.3751H30V53.3751H34V57.3751Z" fill="#1C252E"/>
<path d="M38 58.3751C38 58.6403 38.1054 58.8947 38.2929 59.0822C38.4805 59.2697 38.7348 59.3751 39 59.3751H45C45.2653 59.3751 45.5196 59.2697 45.7071 59.0822C45.8947 58.8947 46 58.6403 46 58.3751V47.3751C46 47.1099 45.8947 46.8556 45.7071 46.668C45.5196 46.4805 45.2653 46.3751 45 46.3751H39C38.7348 46.3751 38.4805 46.4805 38.2929 46.668C38.1054 46.8556 38 47.1099 38 47.3751V58.3751ZM40 48.3751H44V57.3751H40V48.3751Z" fill="#1C252E"/>
<path d="M49 59.3751H55C55.2653 59.3751 55.5196 59.2697 55.7071 59.0822C55.8947 58.8947 56 58.6403 56 58.3751V43.3751C56 43.1099 55.8947 42.8556 55.7071 42.668C55.5196 42.4805 55.2653 42.3751 55 42.3751H49C48.7348 42.3751 48.4805 42.4805 48.2929 42.668C48.1054 42.8556 48 43.1099 48 43.3751V58.3751C48 58.6403 48.1054 58.8947 48.2929 59.0822C48.4805 59.2697 48.7348 59.3751 49 59.3751ZM50 44.3751H54V57.3751H50V44.3751Z" fill="#1C252E"/>
<path d="M7.00001 48.3743C7.00278 46.0618 7.89453 43.8389 9.49068 42.1657C11.0868 40.4924 13.2652 39.4969 15.575 39.3851L14.2929 40.6671L15.7072 42.0814L18.7072 39.0814C18.8947 38.8939 19 38.6395 19 38.3743C19 38.109 18.8947 37.8547 18.7072 37.6671L15.7072 34.6671L14.2929 36.0814L15.594 37.3826C13.2089 37.4708 10.9173 38.3324 9.06472 39.8372C7.21218 41.342 5.89931 43.4085 5.32417 45.7249C4.74904 48.0413 4.94285 50.4819 5.87637 52.6785C6.80988 54.8751 8.43245 56.7085 10.4993 57.9021L11.5007 56.1709C10.1345 55.3781 8.99992 54.2411 8.2102 52.873C7.42049 51.505 7.00322 49.9539 7.00001 48.3743Z" fill="#1C252E"/>
<path d="M27 48.3751C26.9962 46.4449 26.4865 44.5493 25.5215 42.8775C24.5566 41.2057 23.1703 39.8161 21.5008 38.8473L20.4993 40.5785C22.1837 41.5509 23.5079 43.0428 24.2734 44.8307C25.039 46.6187 25.2048 48.6065 24.7461 50.4966C24.2873 52.3867 23.2286 54.0774 21.7286 55.3154C20.2286 56.5535 18.3678 57.2723 16.425 57.3643L17.7072 56.0823L16.2929 54.668L13.2929 57.668C13.1053 57.8555 13 58.1099 13 58.3751C13 58.6404 13.1053 58.8947 13.2929 59.0823L16.2929 62.0823L17.7072 60.668L16.406 59.3668C19.2499 59.2586 21.9416 58.0536 23.9166 56.0045C25.8916 53.9553 26.9966 51.2211 27 48.3751Z" fill="#1C252E"/>
<path d="M16.7072 49.0823C16.8947 48.8947 17 48.6403 17 48.3751V43.3751H15V47.9609L12.2929 50.668L13.7072 52.0823L16.7072 49.0823Z" fill="#1C252E"/>
</svg>
