<svg width="64" height="65" viewBox="0 0 64 65" fill="none" xmlns="http://www.w3.org/2000/svg">
<path d="M61.7098 13.6651L50.7098 2.66512C50.5191 2.48093 50.2649 2.3771 49.9998 2.37512H24.9998C24.2049 2.3775 23.4432 2.69433 22.8811 3.25642C22.319 3.81852 22.0022 4.5802 21.9998 5.37512V11.4251C16.6134 11.6776 11.5311 13.9951 7.80844 17.8963C4.08578 21.7975 2.00879 26.9827 2.00879 32.3751C2.00879 37.7675 4.08578 42.9527 7.80844 46.8539C11.5311 50.7552 16.6134 53.0727 21.9998 53.3251V59.3751C22.0022 60.17 22.319 60.9317 22.8811 61.4938C23.4432 62.0559 24.2049 62.3727 24.9998 62.3751H58.9998C59.7948 62.3727 60.5564 62.0559 61.1185 61.4938C61.6806 60.9317 61.9975 60.17 61.9998 59.3751V14.3751C61.9979 14.11 61.894 13.8558 61.7098 13.6651ZM50.9998 5.78512L58.5898 13.3751H51.9998C51.7346 13.3751 51.4803 13.2698 51.2927 13.0822C51.1052 12.8947 50.9998 12.6403 50.9998 12.3751V5.78512ZM3.99984 32.3751C4.00635 27.5114 5.87557 22.8349 9.22335 19.3067C12.5711 15.7785 17.1432 13.6667 21.9998 13.4051V31.9651L8.89984 45.0651C5.74635 41.591 3.99953 37.067 3.99984 32.3751ZM10.3098 46.4751L23.4098 33.3751H41.9698C41.7877 36.9583 40.5927 40.4164 38.5238 43.3476C36.4548 46.2788 33.5968 48.5629 30.2815 49.9347C26.9662 51.3064 23.3299 51.7095 19.7947 51.0971C16.2595 50.4848 12.9705 48.882 10.3098 46.4751ZM59.9998 59.3751C59.9998 59.6403 59.8945 59.8947 59.7069 60.0822C59.5194 60.2698 59.2651 60.3751 58.9998 60.3751H24.9998C24.7346 60.3751 24.4803 60.2698 24.2927 60.0822C24.1052 59.8947 23.9998 59.6403 23.9998 59.3751V53.3251C29.3844 53.065 34.4631 50.7454 38.1856 46.8461C41.9081 42.9468 43.9897 37.766 43.9998 32.3751C43.9998 32.1099 43.8945 31.8556 43.7069 31.668C43.5194 31.4805 43.2651 31.3751 42.9998 31.3751H23.9998V5.37512C23.9998 5.10991 24.1052 4.85555 24.2927 4.66802C24.4803 4.48048 24.7346 4.37512 24.9998 4.37512H48.9998V12.3751C49.0022 13.17 49.319 13.9317 49.8811 14.4938C50.4432 15.0559 51.2049 15.3727 51.9998 15.3751H59.9998V59.3751Z" fill="#1C252E"/>
<path d="M26.9998 7.37512C26.7346 7.37512 26.4802 7.48048 26.2927 7.66802C26.1051 7.85555 25.9998 8.10991 25.9998 8.37512V28.3751C25.9998 28.6403 26.1051 28.8947 26.2927 29.0822C26.4802 29.2698 26.7346 29.3751 26.9998 29.3751H46.9998C47.265 29.3751 47.5193 29.2698 47.7069 29.0822C47.8944 28.8947 47.9998 28.6403 47.9998 28.3751C47.9937 22.8074 45.7792 17.4695 41.8423 13.5326C37.9053 9.59566 32.5674 7.38121 26.9998 7.37512ZM27.9998 27.3751V9.40512C32.6841 9.65664 37.1101 11.6306 40.4272 14.9477C43.7442 18.2648 45.7183 22.6908 45.9698 27.3751H27.9998Z" fill="#1C252E"/>
<path d="M48.9997 40.3751C47.2197 40.3751 45.4796 40.903 43.9996 41.8919C42.5196 42.8808 41.366 44.2864 40.6848 45.931C40.0036 47.5755 39.8254 49.3851 40.1727 51.1309C40.5199 52.8768 41.3771 54.4804 42.6358 55.7391C43.8944 56.9978 45.4981 57.8549 47.2439 58.2022C48.9897 58.5495 50.7993 58.3712 52.4439 57.69C54.0884 57.0088 55.494 55.8553 56.483 54.3753C57.4719 52.8952 57.9997 51.1552 57.9997 49.3751C57.996 46.9893 57.0466 44.7023 55.3596 43.0153C53.6726 41.3282 51.3855 40.3788 48.9997 40.3751ZM48.9997 56.3751C47.6153 56.3751 46.2619 55.9646 45.1107 55.1954C43.9596 54.4262 43.0624 53.333 42.5326 52.0539C42.0028 50.7748 41.8641 49.3674 42.1342 48.0095C42.4043 46.6516 43.071 45.4043 44.05 44.4254C45.0289 43.4464 46.2762 42.7797 47.6341 42.5096C48.992 42.2395 50.3994 42.3782 51.6785 42.908C52.9576 43.4378 54.0508 44.335 54.82 45.4861C55.5892 46.6373 55.9997 47.9907 55.9997 49.3751C55.9976 51.231 55.2594 53.0102 53.9471 54.3225C52.6348 55.6348 50.8556 56.373 48.9997 56.3751Z" fill="#1C252E"/>
<path d="M46.9998 50.9613L44.7068 48.6683L43.2928 50.0823L46.2928 53.0823C46.4803 53.2698 46.7346 53.3751 46.9998 53.3751C47.2649 53.3751 47.5192 53.2698 47.7068 53.0823L53.7068 47.0823L52.2928 45.6683L46.9998 50.9613Z" fill="#1C252E"/>
<path d="M49.9998 19.3751H57.9998V21.3751H49.9998V19.3751Z" fill="#1C252E"/>
<path d="M49.9998 25.3751H57.9998V27.3751H49.9998V25.3751Z" fill="#1C252E"/>
</svg>
