<svg width="64" height="65" viewBox="0 0 64 65" fill="none" xmlns="http://www.w3.org/2000/svg">
<g clip-path="url(#clip0_3_183366)">
<path d="M5.46936 30.2426H21.9436C23.0926 30.2426 24.0273 31.1773 24.0273 32.3263V36.4917C24.0273 37.002 24.441 37.4157 24.9512 37.4157C25.4615 37.4157 25.8752 37.002 25.8752 36.4917V33.5925L27.3058 30.5808C27.9255 29.2761 28.9989 28.2466 30.3283 27.6816L31.4455 27.2069C31.4811 27.1917 31.5156 27.1745 31.549 27.155L38.3636 23.1873C38.5356 23.0871 38.6706 22.9341 38.7487 22.7511L40.5584 18.5051C40.8803 17.75 41.6186 17.262 42.4485 17.262C43.8277 17.262 45.0581 18.0864 45.5826 19.3621C45.7947 19.8778 45.9021 20.422 45.9021 20.9794V22.2263C45.9021 22.7365 46.3157 23.1502 46.826 23.1502C47.3364 23.1502 47.75 22.7365 47.75 22.2263V20.9794C47.75 20.1798 47.5959 19.3992 47.2917 18.6594C46.4811 16.688 44.58 15.414 42.4395 15.414C40.8769 15.414 39.4712 16.3429 38.8585 17.7803L37.1689 21.7444L30.6693 25.5287L29.6055 25.9807C27.86 26.7225 26.4504 28.0745 25.6367 29.7876L25.3563 30.3777C24.678 29.1941 23.4028 28.3944 21.9435 28.3944H5.46936C4.9591 28.3944 4.54541 28.8081 4.54541 29.3184C4.54541 29.8287 4.9591 30.2426 5.46936 30.2426Z" fill="#1C252E"/>
<path d="M58.7621 44.4144C58.7621 43.2937 58.3688 42.2174 57.6745 41.3644C58.7944 40.4047 59.4548 39.0009 59.4548 37.4775C59.4548 34.65 57.1545 32.3498 54.3272 32.3498H45.7839L46.7606 30.2119C47.3384 28.9469 47.6666 27.6005 47.736 26.2102C47.7615 25.7005 47.369 25.2667 46.8593 25.2412C46.3478 25.2168 45.9159 25.6084 45.8905 26.118C45.8327 27.2738 45.56 28.3929 45.0798 29.4441L44.0507 31.6968C43.7998 32.2464 43.8449 32.8779 44.1715 33.3861C44.498 33.8942 45.0538 34.1977 45.6578 34.1977H54.3271C56.1356 34.1977 57.6067 35.669 57.6067 37.4775C57.6067 38.7276 56.9109 39.8523 55.7907 40.4123C55.5011 40.5571 55.3084 40.843 55.2829 41.1658C55.2574 41.4887 55.4028 41.8012 55.6659 41.9898C56.4475 42.5496 56.914 43.4559 56.914 44.4143C56.914 45.6373 56.1469 46.7551 55.0054 47.1955C54.7066 47.3108 54.4889 47.5723 54.4298 47.887C54.3708 48.2016 54.4786 48.5244 54.7151 48.7401C55.2763 49.252 55.5981 49.9807 55.5981 50.7394C55.5981 52.0001 54.7059 53.111 53.4768 53.3809C52.9443 53.4978 52.5578 53.9794 52.5578 54.5333C52.5578 54.9606 52.7919 55.3554 53.1694 55.5637C54.0167 56.0308 54.5536 56.9199 54.5706 57.884C54.5833 58.5976 54.3093 59.2764 53.7993 59.7956C53.273 60.3314 52.5398 60.6387 51.7879 60.6387H47.3484C46.838 60.6387 46.4244 61.0523 46.4244 61.5626C46.4244 62.0729 46.838 62.4866 47.3484 62.4866H51.7879C53.0324 62.4866 54.246 61.9778 55.1175 61.0906C55.9777 60.215 56.4397 59.0645 56.4183 57.8514C56.3973 56.665 55.9095 55.5464 55.0926 54.7235C56.5077 53.9354 57.446 52.4161 57.446 50.7394C57.446 49.8814 57.2017 49.0464 56.7549 48.3295C57.989 47.434 58.7621 45.9772 58.7621 44.4144Z" fill="#1C252E"/>
<path d="M43.411 60.6394H30.0971C29.2604 60.6394 28.4375 60.4147 27.7173 59.9895L25.8752 58.9022V40.4301C25.8752 39.9198 25.4615 39.5061 24.9512 39.5061C24.441 39.5061 24.0273 39.9198 24.0273 40.4301V59.9435C24.0273 61.0925 23.0926 62.0272 21.9436 62.0272H5.46936C4.9591 62.0272 4.54541 62.4409 4.54541 62.9512C4.54541 63.4614 4.9591 63.8751 5.46936 63.8751H21.9436C23.7572 63.8751 25.2872 62.6403 25.7391 60.9676L26.778 61.5808C27.7826 62.1738 28.9304 62.4872 30.0971 62.4872H43.411C43.9214 62.4872 44.3349 62.0735 44.3349 61.5633C44.3349 61.053 43.9214 60.6394 43.411 60.6394Z" fill="#1C252E"/>
<path d="M36.6309 8.39808C36.6557 8.4375 36.6634 8.48629 36.6521 8.5315L36.2749 10.0401C36.0779 10.8277 36.3538 11.6264 36.9946 12.1248C37.6355 12.6231 38.4777 12.6936 39.1923 12.3087L41.0061 11.3321C41.057 11.3046 41.1182 11.3045 41.1694 11.3321L42.9833 12.3087C43.2893 12.4735 43.6186 12.5549 43.9455 12.5549C44.3823 12.5549 44.8147 12.4098 45.181 12.1248C45.8218 11.6265 46.0976 10.8277 45.9007 10.0403L45.5235 8.5315C45.5122 8.48629 45.5199 8.43775 45.5447 8.3982L46.6743 6.60019C47.0653 5.97794 47.0873 5.19171 46.7318 4.54839C46.3761 3.90507 45.6987 3.50556 44.9637 3.50556H43.8239C43.7609 3.50556 43.703 3.47119 43.6727 3.41575L42.8611 1.92806C42.507 1.27858 41.8276 0.875122 41.0879 0.875122C40.3483 0.875122 39.6686 1.27846 39.3143 1.92781L38.5028 3.4155C38.4726 3.47094 38.4146 3.50531 38.3515 3.50531H37.2118C36.4768 3.50531 35.7992 3.90495 35.4437 4.54815C35.0881 5.19134 35.1102 5.97757 35.5012 6.59994L36.6309 8.39808ZM37.0611 5.44216C37.0937 5.38316 37.1445 5.35334 37.2119 5.35334H38.3517C39.0913 5.35334 39.7709 4.95001 40.1252 4.30053L40.9366 2.81284C40.9692 2.75334 41.02 2.72303 41.0879 2.72303C41.1557 2.72303 41.2066 2.75321 41.2391 2.81284L42.0507 4.30065C42.405 4.95001 43.0845 5.35334 43.8242 5.35334H44.964C45.0314 5.35334 45.082 5.38328 45.1148 5.44229C45.1473 5.5013 45.1457 5.56006 45.1098 5.6171L43.9803 7.41511C43.6892 7.87857 43.5982 8.44883 43.731 8.97968L44.1083 10.4883C44.115 10.5152 44.1356 10.5971 44.047 10.666C43.9581 10.7349 43.8841 10.6948 43.8597 10.6816L42.0459 9.70504C41.4462 9.38203 40.73 9.38191 40.1303 9.70504L38.3166 10.6817C38.2922 10.6948 38.2179 10.7349 38.1292 10.6661C38.0406 10.5972 38.0612 10.5153 38.068 10.4884L38.4452 8.97955C38.5777 8.44859 38.4869 7.87845 38.196 7.41524L37.0664 5.61722C37.0302 5.55994 37.0284 5.50117 37.0611 5.44216Z" fill="#1C252E"/>
<path d="M50.3627 7.24274C50.3627 7.75301 50.7762 8.1667 51.2866 8.1667H52.68C53.1903 8.1667 53.6039 7.75301 53.6039 7.24274C53.6039 6.73247 53.1903 6.31879 52.68 6.31879H51.2866C50.7762 6.31879 50.3627 6.73247 50.3627 7.24274Z" fill="#1C252E"/>
<path d="M49.8717 3.97836C50.088 3.97836 50.3053 3.90284 50.4806 3.74897L51.5279 2.83019C51.9114 2.49363 51.9496 1.90994 51.613 1.52631C51.2764 1.14268 50.6926 1.10462 50.3091 1.44118L49.2619 2.35996C48.8784 2.69653 48.8402 3.28022 49.1767 3.66385C49.3594 3.87204 49.6149 3.97836 49.8717 3.97836Z" fill="#1C252E"/>
<path d="M49.2619 12.1247L50.3092 13.0435C50.4846 13.1974 50.7019 13.2729 50.9181 13.2729C51.1749 13.2729 51.4304 13.1665 51.6131 12.9583C51.9495 12.5746 51.9115 11.991 51.528 11.6544L50.4807 10.7356C50.0972 10.3992 49.5132 10.4372 49.1768 10.8207C48.8404 11.2042 48.8784 11.7882 49.2619 12.1247Z" fill="#1C252E"/>
<path d="M29.112 8.1667H30.5052C31.0155 8.1667 31.4292 7.75301 31.4292 7.24274C31.4292 6.73247 31.0155 6.31879 30.5052 6.31879H29.112C28.6017 6.31879 28.188 6.73247 28.188 7.24274C28.188 7.75301 28.6017 8.1667 29.112 8.1667Z" fill="#1C252E"/>
<path d="M30.2638 2.83032L31.3111 3.7491C31.4865 3.90297 31.7037 3.97849 31.9201 3.97849C32.1768 3.97849 32.4323 3.87205 32.6149 3.66385C32.9514 3.28023 32.9134 2.69653 32.5299 2.35997L31.4826 1.44119C31.0991 1.10487 30.5153 1.14281 30.1787 1.52631C29.8422 1.90994 29.8802 2.49376 30.2638 2.83032Z" fill="#1C252E"/>
<path d="M31.3111 10.7364L30.2638 11.6553C29.8802 11.9919 29.8421 12.5756 30.1787 12.9592C30.3614 13.1674 30.6168 13.2738 30.8737 13.2738C31.09 13.2738 31.3073 13.1983 31.4826 13.0444L32.5299 12.1257C32.9134 11.7891 32.9516 11.2054 32.6149 10.8218C32.2784 10.438 31.6946 10.3998 31.3111 10.7364Z" fill="#1C252E"/>
</g>
<defs>
<clipPath id="clip0_3_183366">
<rect width="64" height="64" fill="white" transform="translate(0 0.375122)"/>
</clipPath>
</defs>
</svg>
