<svg width="64" height="65" viewBox="0 0 64 65" fill="none" xmlns="http://www.w3.org/2000/svg">
<g clip-path="url(#clip0_3_183352)">
<path d="M56.629 45.5397C56.278 45.3942 55.874 45.4745 55.6052 45.7432L45.3395 56.0089C45.0708 56.2777 44.9905 56.6817 45.136 57.0327C45.2812 57.3838 45.624 57.6126 46.0038 57.6126H56.2696C56.7885 57.6126 57.209 57.1921 57.209 56.6732V46.4074C57.2089 46.0275 56.98 45.685 56.629 45.5397ZM48.2713 55.7339L55.33 48.6753V55.7339H48.2713Z" fill="#1C252E"/>
<path d="M63.4203 30.4832C63.0693 30.3377 62.6652 30.4181 62.3965 30.6867L59.5831 33.5001V14.3712C59.5831 13.8523 59.1625 13.4318 58.6437 13.4318H51.4261L54.0461 10.8118C54.0465 10.8114 54.0469 10.8109 54.0472 10.8106L56.5717 8.28606C57.1126 7.74518 57.4105 7.02568 57.4105 6.26068C57.4105 5.49568 57.1126 4.77643 56.5717 4.2353L53.6525 1.31605C53.1116 0.775171 52.3921 0.477295 51.6271 0.477295C50.8621 0.477295 50.1427 0.775171 49.6017 1.31605L37.4861 13.4317H8.32752V4.13855C8.32752 3.61968 7.90689 3.19918 7.38814 3.19918C3.31438 3.19943 0 6.51356 0 10.5876V50.4859C0 50.5553 0.00800002 50.6228 0.02225 50.6878C0.152 52.4164 0.899877 54.0225 2.14975 55.2418C3.48576 56.5448 5.24939 57.2624 7.11589 57.2624H35.8207L30.4146 62.6685C30.1459 62.9373 30.0656 63.3412 30.2109 63.6923C30.3563 64.0433 30.6989 64.2722 31.0788 64.2722H63.0608C63.5795 64.2722 64.0001 63.8517 64.0001 63.3328V31.3511C64.0001 30.9712 63.7711 30.6286 63.4203 30.4832ZM50.9305 2.64467C51.3145 2.26042 51.9401 2.26042 52.3241 2.64467L55.2435 5.56406C55.6277 5.94818 55.6277 6.57356 55.2435 6.95781L53.3821 8.81931L49.0688 4.50618L50.9305 2.64467ZM47.7403 5.83468L52.0535 10.1477L50.3299 11.8713L46.017 7.55831L47.7403 5.83468ZM62.1216 41.9064H60.3885C59.8696 41.9064 59.4491 42.3269 59.4491 42.8458C59.4491 43.3646 59.8696 43.7851 60.3885 43.7851H62.1216V46.6159H60.3885C59.8696 46.6159 59.4491 47.0364 59.4491 47.5553C59.4491 48.0741 59.8696 48.4946 60.3885 48.4946H62.1216V51.3253H60.3885C59.8696 51.3253 59.4491 51.7458 59.4491 52.2647C59.4491 52.7835 59.8696 53.204 60.3885 53.204H62.1216V56.0348H60.3885C59.8696 56.0348 59.4491 56.4554 59.4491 56.9742C59.4491 57.493 59.8696 57.9135 60.3885 57.9135H62.1216V62.3938H33.3466L42.8351 52.9054C43.202 52.5384 43.202 51.9438 42.8351 51.5769C42.793 51.5348 42.7477 51.4983 42.7003 51.4658C42.3346 51.2153 41.8313 51.2521 41.5065 51.5769L37.6995 55.3839H7.11601C4.26701 55.3839 1.9735 53.1596 1.88325 50.3158C1.88863 50.1373 1.9025 49.9603 1.92475 49.7853C1.92488 49.7843 1.925 49.7833 1.92513 49.7823C1.93563 49.6991 1.94825 49.6164 1.96263 49.5341C1.96425 49.5248 1.966 49.5154 1.96763 49.506C1.98075 49.4326 1.9955 49.3596 2.01163 49.2869C2.01613 49.2666 2.02088 49.2464 2.02563 49.2263C2.03988 49.1648 2.05525 49.1036 2.07175 49.0428C2.08075 49.0098 2.09013 48.9771 2.09975 48.9443C2.1135 48.8965 2.12775 48.8489 2.14288 48.8018C2.158 48.7546 2.17413 48.708 2.1905 48.6614C2.20188 48.6288 2.21313 48.5961 2.22538 48.5638C2.24825 48.5023 2.2725 48.4414 2.2975 48.381C2.30463 48.3636 2.31163 48.346 2.319 48.3286C2.35113 48.2536 2.3845 48.1795 2.41975 48.1063C2.42125 48.1031 2.42263 48.1 2.42413 48.0969C3.15888 46.5764 4.57201 45.4428 6.26789 45.091C6.27264 45.09 6.27739 45.0889 6.28214 45.0879C6.35989 45.072 6.43839 45.0584 6.51739 45.0458C6.53051 45.0436 6.54364 45.041 6.55701 45.039C6.62839 45.0281 6.70051 45.0196 6.77264 45.0115C6.79289 45.0093 6.81301 45.0061 6.83339 45.0041C6.90301 44.9971 6.97326 44.9925 7.04351 44.9881C7.06576 44.9868 7.08801 44.9844 7.11026 44.9833C7.20226 44.9786 7.29501 44.9763 7.38814 44.9763C7.90689 44.9763 8.32752 44.5558 8.32752 44.0369V37.2257C8.32752 36.7069 7.90689 36.2864 7.38814 36.2864C6.86939 36.2864 6.44876 36.7069 6.44876 37.2257V43.1566C4.86251 43.3573 3.39013 44.0648 2.22913 45.1985C2.107 45.3178 1.99125 45.4418 1.8785 45.5678V10.5876C1.8785 7.86994 3.85676 5.60531 6.44864 5.15805V33.4684C6.44864 33.9871 6.86926 34.4079 7.38801 34.4079C7.90677 34.4079 8.32739 33.9872 8.32739 33.4685V15.3106H35.6074L30.4144 20.5036C30.0476 20.8706 30.0476 21.4652 30.4144 21.8321C30.7813 22.1988 31.3761 22.1988 31.7428 21.8321L38.5395 15.0354C38.5392 15.0356 38.5397 15.0352 38.5395 15.0354L44.6882 8.88669L49.0011 13.1998L48.4951 13.7058C48.4947 13.7062 48.4942 13.7066 48.4939 13.7069L29.5528 32.6482L25.2398 28.3352L28.9733 24.6017C29.3402 24.2347 29.3402 23.6401 28.9733 23.2732C28.6064 22.9065 28.0117 22.9065 27.6449 23.2732L23.247 27.671C23.2235 27.6945 23.2015 27.7194 23.1809 27.7449C23.174 27.7533 23.1679 27.7625 23.1614 27.7713C23.1482 27.789 23.1352 27.8067 23.123 27.8252C23.1162 27.836 23.1099 27.847 23.1034 27.8581C23.093 27.8756 23.083 27.8933 23.0739 27.9115C23.0679 27.9232 23.0625 27.9351 23.057 27.9473C23.0487 27.9657 23.0409 27.9845 23.0338 28.0032C23.0313 28.0098 23.028 28.0161 23.0257 28.0227L19.9478 36.742C19.9313 36.789 19.9194 36.8367 19.9105 36.8849H16.7865C16.2678 36.8849 15.8472 37.3054 15.8472 37.8242C15.8472 38.3431 16.2678 38.7636 16.7865 38.7636H42.8008C43.3197 38.7636 43.7402 38.3431 43.7402 37.8242C43.7402 37.3054 43.3197 36.8849 42.8008 36.8849H24.1367L29.8654 34.8626C29.8702 34.8609 29.8747 34.8585 29.8794 34.8567C29.9017 34.8485 29.9236 34.8392 29.9452 34.8294C29.9538 34.8254 29.9624 34.8216 29.9708 34.8175C29.9933 34.8062 30.0154 34.7939 30.0372 34.7806C30.0442 34.7764 30.0514 34.7725 30.0583 34.7681C30.0809 34.7536 30.1029 34.7377 30.1246 34.721C30.1299 34.7169 30.1356 34.7132 30.1408 34.709C30.1669 34.688 30.1926 34.6654 30.2168 34.6411L49.5473 15.3107H57.7042V35.379L44.2672 48.8161C43.9003 49.1831 43.9003 49.7778 44.2672 50.1446C44.2901 50.1675 44.314 50.189 44.3386 50.2091C44.5108 50.3495 44.7212 50.4198 44.9315 50.4198C45.1417 50.4198 45.3522 50.3495 45.5243 50.2091C45.549 50.1891 45.5728 50.1675 45.5957 50.1446C45.5953 50.145 45.5961 50.1443 45.5957 50.1446L62.1216 33.6186V41.9064ZM27.8347 33.5869L25.1439 34.5367L23.3512 32.744L24.3011 30.0532L27.8347 33.5869Z" fill="#1C252E"/>
</g>
<defs>
<clipPath id="clip0_3_183352">
<rect width="64" height="64" fill="white" transform="translate(0 0.375122)"/>
</clipPath>
</defs>
</svg>
