<svg width="64" height="65" viewBox="0 0 64 65" fill="none" xmlns="http://www.w3.org/2000/svg">
<path d="M63.9225 36.0521C63.4496 32.7756 60.8756 30.2017 57.5991 29.7287V27.7896C57.5991 22.4392 53.532 18.083 48.5326 18.083C43.6772 18.083 39.6122 22.307 39.4661 27.4994H39.5279L39.4661 27.5101V48.5306C39.4661 55.2505 34.4421 60.7075 28.2662 60.7075C22.0903 60.7075 17.0664 55.243 17.0664 48.5306V46.7098C18.6131 46.7098 20.2664 45.5888 20.2664 42.4432V39.7606C27.1121 38.0102 31.9995 32.1319 31.9995 25.4675V23.2435H29.8662L29.8214 9.36103C29.806 6.79133 27.962 4.59723 25.4332 4.13977C24.8878 2.46873 23.0909 1.55621 21.4197 2.1018C19.7486 2.64726 18.8361 4.44417 19.3817 6.11534C19.9272 7.78639 21.7241 8.69891 23.3952 8.15331C24.29 7.86119 25.0096 7.188 25.3607 6.31467C26.7272 6.70347 27.6739 7.94665 27.6849 9.36743L27.7329 23.2435H25.5996V25.4984C25.5145 29.2086 23.0271 32.4328 19.46 33.4567C17.5513 34.0623 15.502 34.0623 13.5934 33.4567C10.0304 32.4294 7.54855 29.2057 7.46655 25.4984V23.2435H4.2666V9.37703C4.27274 7.93532 5.24232 6.6756 6.63457 6.30081C7.28376 7.95345 9.14973 8.76677 10.8024 8.11758C12.455 7.46839 13.2683 5.60229 12.6191 3.94978C11.97 2.29727 10.1038 1.48381 8.45134 2.133C7.55589 2.48486 6.86496 3.21912 6.56843 4.13444C4.01207 4.57123 2.14037 6.7836 2.1333 9.37703V23.2435H0V25.4621C0 32.134 4.89059 38.0145 11.7332 39.7606V42.4432C11.7332 45.5888 13.3865 46.7098 14.9331 46.7098V48.5306C14.9331 56.4238 20.9138 62.8408 28.2662 62.8408C35.6187 62.8408 41.5994 56.4163 41.5994 48.5306V27.5613C41.706 23.5134 44.8185 20.2195 48.5326 20.2195C52.3555 20.2195 55.4658 23.6158 55.4658 27.7928V29.7287C51.3844 30.3178 48.5534 34.104 49.1425 38.1854C49.7315 42.2668 53.5177 45.0978 57.5991 44.5088C61.6805 43.9197 64.5116 40.1334 63.9225 36.0521ZM22.3997 6.17708C21.8106 6.17708 21.333 5.69948 21.333 5.11043C21.333 4.52137 21.8106 4.04377 22.3997 4.04377C22.9887 4.04377 23.4663 4.52137 23.4663 5.11043C23.4663 5.69948 22.9887 6.17708 22.3997 6.17708ZM9.59986 4.04377C10.1889 4.04377 10.6665 4.52137 10.6665 5.11043C10.6665 5.69948 10.1889 6.17708 9.59986 6.17708C9.0108 6.17708 8.53321 5.69948 8.53321 5.11043C8.53321 4.52137 9.0108 4.04377 9.59986 4.04377ZM2.1333 25.4621V25.3768H5.33325V25.4984C5.41325 30.1345 8.49761 34.1804 12.947 35.4854C15.2786 36.2237 17.7812 36.2237 20.1128 35.4854C24.5643 34.1821 27.6515 30.1361 27.7329 25.4984V25.3768H29.8662V25.4621C29.8662 31.3959 25.2924 36.6172 18.9864 37.8801C17.5056 38.1766 15.9888 38.251 14.4862 38.1009C13.9915 38.0529 13.4998 37.9785 13.0131 37.8779C6.7071 36.6172 2.1333 31.3959 2.1333 25.4621ZM14.9331 44.5765C13.9731 44.5765 13.8665 43.0832 13.8665 42.4432V40.1798C13.9518 40.1904 14.0393 40.1947 14.1257 40.2032C14.2323 40.215 14.339 40.2235 14.4457 40.2331C14.9502 40.2779 15.459 40.3078 15.972 40.3088H16.0254C16.5374 40.3088 17.0451 40.2779 17.5464 40.2331C17.6531 40.2235 17.7661 40.215 17.876 40.2032C17.9603 40.1936 18.0477 40.1904 18.132 40.1798V42.4432C18.132 43.0832 18.0253 44.5765 17.0653 44.5765H14.9331ZM56.5325 42.4432C53.5871 42.4432 51.1992 40.0554 51.1992 37.11C51.1992 34.1645 53.5871 31.7767 56.5325 31.7767C59.4779 31.7767 61.8657 34.1645 61.8657 37.11C61.8623 40.054 59.4764 42.4397 56.5325 42.4432Z" fill="#1C252E"/>
<path d="M56.5325 33.9099C54.7652 33.9099 53.3326 35.3425 53.3326 37.1098C53.3326 38.8771 54.7652 40.3098 56.5325 40.3098C58.2998 40.3098 59.7325 38.8771 59.7325 37.1098C59.7325 35.3425 58.2998 33.9099 56.5325 33.9099ZM56.5325 38.1765C55.9435 38.1765 55.4659 37.6989 55.4659 37.1098C55.4659 36.5208 55.9435 36.0432 56.5325 36.0432C57.1216 36.0432 57.5992 36.5208 57.5992 37.1098C57.5992 37.6989 57.1216 38.1765 56.5325 38.1765Z" fill="#1C252E"/>
</svg>
