<svg width="64" height="65" viewBox="0 0 64 65" fill="none" xmlns="http://www.w3.org/2000/svg">
<g clip-path="url(#clip0_3_183370)">
<path d="M23.449 58.0954H19.1733C18.62 58.0954 18.1712 58.544 18.1712 59.0975C18.1712 59.6509 18.6198 60.0996 19.1733 60.0996H23.449C24.0023 60.0996 24.4511 59.651 24.4511 59.0975C24.4511 58.544 24.0023 58.0954 23.449 58.0954Z" fill="#1C252E"/>
<path d="M17.0359 43.1308H11.6914C11.1381 43.1308 10.6893 43.5795 10.6893 44.133C10.6893 44.6865 11.1379 45.1351 11.6914 45.1351H17.0359C17.5893 45.1351 18.038 44.6865 18.038 44.133C18.038 43.5795 17.5893 43.1308 17.0359 43.1308Z" fill="#1C252E"/>
<path d="M20.2425 46.3375H11.6914C11.1381 46.3375 10.6893 46.7861 10.6893 47.3396C10.6893 47.893 11.1379 48.3418 11.6914 48.3418H20.2425C20.7959 48.3418 21.2447 47.8932 21.2447 47.3396C21.2447 46.7863 20.796 46.3375 20.2425 46.3375Z" fill="#1C252E"/>
<path d="M21.3112 23.8907C19.5798 23.8907 18.1713 25.2992 18.1713 27.0306C18.1713 28.762 19.5798 30.1705 21.3112 30.1705C23.0426 30.1705 24.4511 28.762 24.4511 27.0306C24.4511 25.2992 23.0425 23.8907 21.3112 23.8907ZM21.3112 28.1664C20.685 28.1664 20.1755 27.6569 20.1755 27.0306C20.1755 26.4044 20.685 25.8949 21.3112 25.8949C21.9375 25.8949 22.447 26.4044 22.447 27.0306C22.447 27.6569 21.9373 28.1664 21.3112 28.1664Z" fill="#1C252E"/>
<path d="M27.7297 14.7796C25.7632 13.7474 23.5439 13.2017 21.3115 13.2017C19.0791 13.2017 16.8598 13.7472 14.8933 14.7796C14.4033 15.0369 14.2145 15.6426 14.4718 16.1326C14.7291 16.6227 15.3348 16.8114 15.8248 16.5541C17.5051 15.6721 19.4024 15.206 21.3116 15.206C23.2209 15.206 25.1181 15.6721 26.7984 16.5541C26.9471 16.6321 27.1064 16.6691 27.2632 16.6691C27.7379 16.6691 28.1581 16.3227 28.2484 15.8566C28.331 15.4276 28.1162 14.9826 27.7297 14.7796Z" fill="#1C252E"/>
<path d="M24.7525 20.4626C23.6966 19.9084 22.5065 19.6154 21.3111 19.6154C20.1157 19.6154 18.9256 19.9084 17.8697 20.4626C17.3797 20.7199 17.191 21.3256 17.4482 21.8156C17.7055 22.3056 18.3112 22.4945 18.8012 22.2371C19.5821 21.8274 20.4265 21.6195 21.3113 21.6195C22.196 21.6195 23.0405 21.8272 23.8213 22.2371C24.3053 22.4911 24.9206 22.2989 25.1743 21.8156C25.4313 21.3256 25.2426 20.7196 24.7525 20.4626Z" fill="#1C252E"/>
<path d="M26.2407 17.622C24.7282 16.8283 23.0236 16.4085 21.3112 16.4085C19.5989 16.4085 17.8942 16.8281 16.3819 17.622C15.8919 17.8793 15.7031 18.4849 15.9604 18.975C16.2175 19.465 16.8232 19.6539 17.3134 19.3965C18.5571 18.7436 19.9021 18.4128 21.3111 18.4128C22.7202 18.4128 24.0652 18.7439 25.3089 19.3965C25.4577 19.4745 25.617 19.5115 25.774 19.5115C26.2486 19.5115 26.6689 19.1651 26.7591 18.699C26.842 18.27 26.6274 17.825 26.2407 17.622Z" fill="#1C252E"/>
<path d="M59.8423 13.7414L56.7993 13.5859C55.3553 13.5121 50.2335 12.5805 46.7088 10.8181L45.2748 10.101C44.9928 9.95987 44.6605 9.95987 44.3785 10.101L42.9445 10.8181C41.8673 11.3567 40.6405 11.8174 39.4154 12.2001V5.65275C39.4154 2.74275 37.0478 0.375122 34.1377 0.375122H8.48429C5.57417 0.375122 3.20654 2.74275 3.20654 5.65275V19.5929C3.20654 20.1462 3.65517 20.595 4.20867 20.595C4.76204 20.595 5.21079 20.1464 5.21079 19.5929V10.9304H37.4112V12.7626C35.3869 13.2711 33.6125 13.547 32.8539 13.5857L29.8109 13.7412C29.278 13.7685 28.86 14.2085 28.86 14.742V31.3729H10.622C8.89067 31.3729 7.48217 32.7814 7.48217 34.5127V48.4084C7.48217 50.1397 8.89067 51.5482 10.622 51.5482H31.9999C33.7313 51.5482 35.1398 50.1397 35.1398 48.4084V43.0402C35.886 43.7429 36.6647 44.4056 37.4628 45.0196C37.4298 45.119 37.4112 45.2249 37.4112 45.3354V53.8197H5.21079V23.7795C5.21079 23.2261 4.76217 22.7774 4.20867 22.7774C3.65529 22.7774 3.20654 23.226 3.20654 23.7795V59.0975C3.20654 62.0076 5.57417 64.3751 8.48417 64.3751H34.1377C37.0478 64.3751 39.4153 62.0075 39.4153 59.0975V46.3985C40.6984 47.2254 41.9992 47.9135 43.2634 48.4192L44.4544 48.8956C44.6917 48.9906 44.9615 48.9906 45.1988 48.8956L46.3897 48.4192C49.5748 47.1452 52.9935 44.7289 55.7694 41.7897C58.0612 39.3632 60.793 35.6404 60.793 31.6849V14.7421C60.7933 14.2086 60.3752 13.7686 59.8423 13.7414ZM37.4112 59.0975C37.4112 60.9025 35.9427 62.371 34.1377 62.371H8.48429C6.67929 62.371 5.21079 60.9025 5.21079 59.0975V55.824H37.4112V59.0975ZM5.21079 8.92625V5.65275C5.21079 3.84775 6.67929 2.37925 8.48429 2.37925H34.1378C35.9428 2.37925 37.4113 3.84775 37.4113 5.65275V8.92625H5.21079ZM9.48629 34.5129C9.48629 33.8866 9.99579 33.3771 10.622 33.3771H29.0224C29.2384 34.5347 29.6575 35.6576 30.1962 36.7174H9.48629V34.5129ZM9.48629 38.7216H31.3913C31.6759 39.1386 31.9719 39.5401 32.2732 39.9241H9.48629V38.7216ZM33.1357 48.4085C33.1357 49.0347 32.6262 49.5442 31.9999 49.5442H10.622C9.99579 49.5442 9.48629 49.0347 9.48629 48.4085V41.9284H33.1355L33.1357 48.4085ZM54.3125 40.4135C51.7293 43.1487 48.5702 45.3885 45.6454 46.5584L44.8267 46.8859L44.0079 46.5584C41.0832 45.3885 37.9242 43.1487 35.3409 40.4135C33.2987 38.2512 30.8643 34.9816 30.8643 31.6847V15.6944L32.9564 15.5875C34.3642 15.5155 39.776 14.643 43.8408 12.6106L44.8267 12.1177L45.8125 12.6106C49.8773 14.643 55.2893 15.5155 56.6969 15.5875L58.789 15.6944V31.6847C58.789 34.9816 56.3547 38.2512 54.3125 40.4135Z" fill="#1C252E"/>
<path d="M47.0986 26.0062H43.6914V24.5365H49.2363C50.8941 24.5365 52.2426 23.188 52.2426 21.5302C52.2426 19.8725 50.8941 18.524 49.2363 18.524H47.9671V18.3236C47.9671 16.6659 46.6186 15.3174 44.9608 15.3174C43.3031 15.3174 41.9546 16.6659 41.9546 18.3236V18.5974C39.5301 19.0112 37.6789 21.1276 37.6789 23.6681V26.8749C37.6789 29.7114 39.9866 32.0189 42.8229 32.0189H46.2301V33.4886H40.6852C39.0274 33.4886 37.6789 34.8371 37.6789 36.4949C37.6789 38.1526 39.0274 39.5011 40.6852 39.5011H41.9544V39.7015C41.9544 41.3592 43.3029 42.7077 44.9607 42.7077C46.6184 42.7077 47.9669 41.3592 47.9669 39.7015V39.4277C50.3914 39.0139 52.2426 36.8975 52.2426 34.357V31.1504C52.2426 28.3139 49.9351 26.0062 47.0986 26.0062ZM50.2384 34.357C50.2384 36.0884 48.8299 37.4969 47.0986 37.4969H46.9649C46.4116 37.4969 45.9628 37.9455 45.9628 38.499V39.7015C45.9628 40.2541 45.5133 40.7036 44.9607 40.7036C44.4081 40.7036 43.9586 40.2541 43.9586 39.7015V38.499C43.9586 37.9456 43.5099 37.4969 42.9564 37.4969H40.6851C40.1324 37.4969 39.6829 37.0474 39.6829 36.4947C39.6829 35.9421 40.1324 35.4926 40.6851 35.4926H47.0984C47.7247 35.4926 48.2342 34.9831 48.2342 34.3569V31.1502C48.2342 30.524 47.7247 30.0145 47.0984 30.0145H42.8229C41.0916 30.0145 39.6831 28.606 39.6831 26.8746V23.668C39.6831 21.9366 41.0916 20.5281 42.8229 20.5281H42.9566C43.5099 20.5281 43.9587 20.0795 43.9587 19.526V18.3235C43.9587 17.7709 44.4082 17.3214 44.9608 17.3214C45.5134 17.3214 45.9629 17.7709 45.9629 18.3235V19.526C45.9629 20.0794 46.4116 20.5281 46.9651 20.5281H49.2364C49.7891 20.5281 50.2386 20.9776 50.2386 21.5302C50.2386 22.0829 49.7891 22.5324 49.2364 22.5324H42.8229C42.1967 22.5324 41.6872 23.0419 41.6872 23.6681V26.8747C41.6872 27.501 42.1967 28.0105 42.8229 28.0105H47.0986C48.8299 28.0105 50.2384 29.419 50.2384 31.1504V34.357Z" fill="#1C252E"/>
</g>
<defs>
<clipPath id="clip0_3_183370">
<rect width="64" height="64" fill="white" transform="translate(0 0.375122)"/>
</clipPath>
</defs>
</svg>
