<svg width="64" height="65" viewBox="0 0 64 65" fill="none" xmlns="http://www.w3.org/2000/svg">
<path d="M48.5161 54.0525C51.3621 54.0525 53.6774 51.7372 53.6774 48.8913C53.6774 46.0453 51.3621 43.73 48.5161 43.73C45.6702 43.73 43.3548 46.0453 43.3548 48.8913C43.3548 51.7372 45.6702 54.0525 48.5161 54.0525ZM48.5161 45.7945C50.2235 45.7945 51.6129 47.1839 51.6129 48.8913C51.6129 50.5986 50.2235 51.988 48.5161 51.988C46.8088 51.988 45.4194 50.5986 45.4194 48.8913C45.4194 47.1839 46.8088 45.7945 48.5161 45.7945Z" fill="#1C252E"/>
<path d="M64 52.7901V44.9914L61.1076 44.2554C60.9848 43.9271 60.8475 43.5958 60.6947 43.2685L62.2225 40.6992L57.8064 36.2843V18.9558H49.5484V33.4074H44.6173L43.8813 36.2998C43.552 36.4226 43.2217 36.5609 42.8945 36.7127L42.3226 36.3731V30.3106H34.0645V39.6009C31.1339 39.6009 28.3427 41.01 26.5982 43.3707C26.369 43.6804 26.0955 43.9251 25.8064 44.1356V22.0525H17.5484V44.7622H11.3548V36.5042H3.09677V44.9088C1.32129 45.3702 0 46.9723 0 48.8913C0 51.1684 1.85187 53.0203 4.12903 53.0203H24.0165C25.0023 53.0203 25.9437 53.5271 26.5972 54.4118C28.3427 56.7725 31.1339 58.1816 34.0645 58.1816C34.6333 58.1816 35.1907 58.1124 35.7399 58.0133L40.3241 62.5976L42.8934 61.0709C43.2206 61.2226 43.551 61.3609 43.8803 61.4838L44.6173 64.3751H52.416L53.152 61.4827C53.4813 61.3599 53.8116 61.2216 54.1388 61.0698L56.7081 62.5965L62.2225 57.0822L60.6947 54.5129C60.8465 54.1857 60.9848 53.8543 61.1076 53.5261L64 52.7901ZM51.6129 21.0203H55.7419V35.7599L54.1378 36.7127C53.8106 36.5609 53.4803 36.4226 53.151 36.2998L52.415 33.4074H51.6129V21.0203ZM40.2581 32.3751V35.252L36.129 39.3811V32.3751H40.2581ZM19.6129 24.1171H23.7419V44.7622H19.6129V24.1171ZM9.29032 38.5687V44.7622H5.16129V38.5687H9.29032ZM28.257 53.1834C27.2093 51.7671 25.664 50.9558 24.0165 50.9558H4.12903C2.99045 50.9558 2.06452 50.0298 2.06452 48.8913C2.06452 47.7527 2.99045 46.8267 4.12903 46.8267H24.0165C25.664 46.8267 27.2093 46.0154 28.257 44.5991C29.6351 42.7349 31.7523 41.6654 34.0645 41.6654C36.4707 41.6654 38.7169 42.8381 40.0661 44.7622H36.2292C34.4671 44.7622 33.0323 46.1971 33.0323 47.9602V49.8234C33.0323 51.5854 34.4671 53.0203 36.2302 53.0203H40.0671C38.7179 54.9444 36.4707 56.1171 34.0655 56.1171C31.7523 56.1171 29.6351 55.0476 28.257 53.1834ZM39.4653 50.9558H36.2292C35.6046 50.9558 35.0968 50.4479 35.0968 49.8223V47.9591C35.0968 47.3346 35.6046 46.8267 36.2302 46.8267H39.4663C39.3125 47.5008 39.2258 48.1893 39.2258 48.8913C39.2258 49.5932 39.3125 50.2817 39.4653 50.9558ZM41.6124 51.0208C41.4008 50.3343 41.2903 49.6211 41.2903 48.8913C41.2903 48.1614 41.4008 47.4482 41.6124 46.7617C42.0222 46.6254 42.3226 46.2507 42.3226 45.7945V45.1906C43.6263 43.0146 45.9716 41.6654 48.5161 41.6654C52.5006 41.6654 55.7419 44.9078 55.7419 48.8913C55.7419 52.8747 52.5006 56.1171 48.5161 56.1171C45.9716 56.1171 43.6263 54.7679 42.3226 52.5919V51.988C42.3226 51.5318 42.0222 51.1571 41.6124 51.0208ZM59.6274 56.7581L56.383 60.0025L54.2194 58.7163L53.7105 58.9805C53.1345 59.2778 52.5502 59.5225 51.9732 59.7072L51.4281 59.8807L50.8108 62.3106H46.2225L45.6041 59.8807L45.0591 59.7072C44.4821 59.5225 43.8978 59.2778 43.3218 58.9805L42.8129 58.7163L40.6493 60.0025L37.9675 57.3207C39.265 56.7312 40.4181 55.8569 41.3275 54.7483C43.0751 56.8902 45.6991 58.1816 48.5161 58.1816C53.6382 58.1816 57.8064 54.0143 57.8064 48.8913C57.8064 43.7682 53.6382 39.6009 48.5161 39.6009C45.6991 39.6009 43.0751 40.8923 41.3275 43.0342C40.417 41.9256 39.265 41.0513 37.9675 40.4618L40.6493 37.78L42.8129 39.0662L43.3218 38.802C43.8978 38.5047 44.4821 38.26 45.0591 38.0752L45.6041 37.9018L46.2214 35.4719H50.8098L51.4281 37.9018L51.9732 38.0752C52.5502 38.26 53.1345 38.5047 53.7105 38.802L54.2194 39.0662L56.383 37.78L59.6274 41.0244L58.3412 43.187L58.6034 43.6949C58.9017 44.2729 59.1453 44.8572 59.3301 45.4352L59.5045 45.9803L61.9355 46.5965V51.1849L59.5055 51.8022L59.3311 52.3472C59.1463 52.9253 58.9027 53.5096 58.6044 54.0876L58.3422 54.5955L59.6274 56.7581Z" fill="#1C252E"/>
<path d="M53.6774 12.7622C55.9546 12.7622 57.8064 10.9103 57.8064 8.63319C57.8064 6.35602 55.9546 4.50415 53.6774 4.50415C51.4003 4.50415 49.5484 6.35602 49.5484 8.63319C49.5484 10.9103 51.4003 12.7622 53.6774 12.7622ZM53.6774 6.56867C54.816 6.56867 55.7419 7.49461 55.7419 8.63319C55.7419 9.77177 54.816 10.6977 53.6774 10.6977C52.5388 10.6977 51.6129 9.77177 51.6129 8.63319C51.6129 7.49461 52.5388 6.56867 53.6774 6.56867Z" fill="#1C252E"/>
<path d="M21.6774 15.859C23.9546 15.859 25.8065 14.0071 25.8065 11.73C25.8065 9.4528 23.9546 7.60093 21.6774 7.60093C19.4003 7.60093 17.5484 9.4528 17.5484 11.73C17.5484 14.0071 19.4003 15.859 21.6774 15.859ZM21.6774 9.66544C22.816 9.66544 23.7419 10.5914 23.7419 11.73C23.7419 12.8685 22.816 13.7945 21.6774 13.7945C20.5388 13.7945 19.6129 12.8685 19.6129 11.73C19.6129 10.5914 20.5388 9.66544 21.6774 9.66544Z" fill="#1C252E"/>
<path d="M38.1936 24.1171C39.9009 24.1171 41.2903 22.7276 41.2903 21.0203C41.2903 19.3129 39.9009 17.9235 38.1936 17.9235C36.4862 17.9235 35.0968 19.3129 35.0968 21.0203C35.0968 22.7276 36.4862 24.1171 38.1936 24.1171ZM38.1936 19.988C38.7623 19.988 39.2258 20.4505 39.2258 21.0203C39.2258 21.5901 38.7623 22.0525 38.1936 22.0525C37.6248 22.0525 37.1613 21.5901 37.1613 21.0203C37.1613 20.4505 37.6248 19.988 38.1936 19.988Z" fill="#1C252E"/>
<path d="M7.22581 30.3106C8.93316 30.3106 10.3226 28.9212 10.3226 27.2138C10.3226 25.5065 8.93316 24.1171 7.22581 24.1171C5.51845 24.1171 4.12903 25.5065 4.12903 27.2138C4.12903 28.9212 5.51845 30.3106 7.22581 30.3106ZM7.22581 26.1816C7.79458 26.1816 8.25806 26.644 8.25806 27.2138C8.25806 27.7836 7.79458 28.2461 7.22581 28.2461C6.65703 28.2461 6.19355 27.7836 6.19355 27.2138C6.19355 26.644 6.65703 26.1816 7.22581 26.1816Z" fill="#1C252E"/>
<path d="M7.22581 34.4396C11.2103 34.4396 14.4516 31.1973 14.4516 27.2138C14.4516 25.5044 13.8519 23.9343 12.8557 22.6946L16.8506 18.4149C18.209 19.4007 19.8741 19.988 21.6774 19.988C24.3912 19.988 26.7954 18.6667 28.3014 16.6394L31.4601 18.4169C31.1463 19.2262 30.9677 20.1016 30.9677 21.0203C30.9677 25.0038 34.209 28.2461 38.1935 28.2461C42.1781 28.2461 45.4194 25.0038 45.4194 21.0203C45.4194 19.6856 45.0488 18.4386 44.416 17.3651L47.9319 14.5522C49.4193 15.9973 51.4446 16.8913 53.6774 16.8913C58.2307 16.8913 61.9355 13.1865 61.9355 8.63319C61.9355 4.0799 58.2307 0.375122 53.6774 0.375122C49.1241 0.375122 45.4194 4.0799 45.4194 8.63319C45.4194 10.2115 45.8725 11.6825 46.6436 12.9377L43.1246 15.7527C41.8323 14.5429 40.1001 13.7945 38.1935 13.7945C35.8658 13.7945 33.7972 14.9052 32.4748 16.6198L29.3203 14.8453C29.7146 13.8833 29.9355 12.8324 29.9355 11.73C29.9355 7.17667 26.2307 3.4719 21.6774 3.4719C17.1241 3.4719 13.4194 7.17667 13.4194 11.73C13.4194 13.7377 14.1409 15.5782 15.3363 17.011L11.3466 21.2856C10.176 20.4701 8.75665 19.988 7.22581 19.988C3.24129 19.988 0 23.2304 0 27.2138C0 31.1973 3.24129 34.4396 7.22581 34.4396ZM53.6774 2.43964C57.0932 2.43964 59.871 5.21745 59.871 8.63319C59.871 12.0489 57.0932 14.8267 53.6774 14.8267C50.2617 14.8267 47.4839 12.0489 47.4839 8.63319C47.4839 5.21745 50.2617 2.43964 53.6774 2.43964ZM38.1935 15.859C41.0395 15.859 43.3548 18.1743 43.3548 21.0203C43.3548 23.8662 41.0395 26.1816 38.1935 26.1816C35.3476 26.1816 33.0323 23.8662 33.0323 21.0203C33.0323 18.1743 35.3476 15.859 38.1935 15.859ZM21.6774 5.53641C25.0932 5.53641 27.871 8.31422 27.871 11.73C27.871 15.1457 25.0932 17.9235 21.6774 17.9235C18.2617 17.9235 15.4839 15.1457 15.4839 11.73C15.4839 8.31422 18.2617 5.53641 21.6774 5.53641ZM7.22581 22.0525C10.0717 22.0525 12.3871 24.3679 12.3871 27.2138C12.3871 30.0598 10.0717 32.3751 7.22581 32.3751C4.37987 32.3751 2.06452 30.0598 2.06452 27.2138C2.06452 24.3679 4.37987 22.0525 7.22581 22.0525Z" fill="#1C252E"/>
</svg>
