<svg width="64" height="65" viewBox="0 0 64 65" fill="none" xmlns="http://www.w3.org/2000/svg">
<g clip-path="url(#clip0_3_183335)">
<path d="M55.0047 0.375122H52.2531C51.0435 0.375122 51.0435 2.25039 52.2531 2.25039H55.0047C57.8464 2.25039 60.1583 4.55398 60.1583 7.38539V29.085C60.1583 31.9166 57.8465 34.2201 55.0047 34.2201H51.8839C51.678 34.2201 51.4778 34.2879 51.3142 34.413L45.5876 38.7934V35.1578C45.5876 34.64 45.1679 34.2201 44.65 34.2201H33.2383C32.3038 34.2201 31.4057 33.9735 30.6136 33.5045V22.979C30.6136 21.0075 29.6094 19.2656 28.0846 18.2351V7.38539C28.0846 4.55398 30.3965 2.25039 33.2383 2.25039H46.3772C47.5866 2.25039 47.5866 0.375122 46.3772 0.375122H33.2383C29.3625 0.375122 26.2093 3.51995 26.2093 7.38539V17.411C25.78 17.3084 25.3327 17.2526 24.8724 17.2526H7.70788C4.54229 17.2526 1.9668 19.8214 1.9668 22.979V25.0037C1.9668 26.2131 3.84207 26.2131 3.84207 25.0037V22.979C3.84207 20.8555 5.57619 19.1278 7.70788 19.1278H24.8725C27.0042 19.1278 28.7384 20.8555 28.7384 22.979V33.8778C28.7272 33.9606 28.7277 34.044 28.7384 34.1261V40.091C28.7384 40.2089 28.7313 40.3263 28.7207 40.443H26.787C24.6563 40.443 22.8801 41.9809 22.5118 44.0021C22.4265 44.0342 22.3446 44.0791 22.2687 44.1376L18.075 47.3757V44.8798C18.075 44.362 17.6553 43.9422 17.1374 43.9422H7.70788C5.57619 43.9422 3.84207 42.2145 3.84207 40.091V30.6295C3.84207 29.4201 1.9668 29.4201 1.9668 30.6295V40.0911C1.9668 43.2487 4.54229 45.8176 7.70788 45.8176H16.1999V49.2843C16.1999 50.0364 17.1131 50.4876 17.7106 50.0266L22.4406 46.3744V56.9228C22.4406 59.3138 24.3905 61.2588 26.7871 61.2588H32.5411V63.4467C32.5411 64.1986 33.4543 64.6503 34.0517 64.189L37.8467 61.2588H38.9679C41.3645 61.2588 43.3144 59.3136 43.3144 56.9228V55.2581C43.3144 54.0486 41.4391 54.0486 41.4391 55.2581V56.9228C41.4391 58.2797 40.3306 59.3835 38.9679 59.3835H37.5268C37.3194 59.3835 37.1179 59.4523 36.9539 59.5789L34.4162 61.5381V60.321C34.4162 59.8032 33.9966 59.3834 33.4786 59.3834H26.787C25.4244 59.3834 24.3158 58.2795 24.3158 56.9227V44.7792C24.3158 43.4222 25.4243 42.3184 26.787 42.3184H38.9679C40.3305 42.3184 41.4391 43.4223 41.4391 44.7792V49.3822C41.4391 50.5916 43.3144 50.5916 43.3144 49.3822V44.7793C43.3144 42.3883 41.3645 40.4433 38.9679 40.4433H30.6029C30.6101 40.3261 30.6137 35.5903 30.6137 35.5903C31.4404 35.9228 32.3268 36.0955 33.2384 36.0955H43.7125V40.6912C43.7125 41.4414 44.6218 41.8931 45.2198 41.4359L52.2016 36.0955H55.0048C58.8805 36.0955 62.0337 32.9507 62.0337 29.0851V7.38539C62.0336 3.51995 58.8804 0.375122 55.0047 0.375122V0.375122Z" fill="#1C252E"/>
<path d="M46.4645 7.30275C45.274 6.99883 44.0608 7.93947 44.0608 9.16965C44.0608 10.5137 43.571 11.809 42.6822 12.8163L40.0989 15.7396C39.9316 15.4829 39.6426 15.313 39.3134 15.313H34.2702C33.7522 15.313 33.3325 15.7328 33.3325 16.2507V27.5979C33.3325 28.1158 33.7522 28.5356 34.2702 28.5356H39.3134C39.6923 28.5356 40.0179 28.3104 40.1658 27.9871C41.1868 28.611 42.37 28.9483 43.5738 28.9483H52.4865C53.8485 28.9483 54.972 27.7665 54.9081 26.408C54.8798 25.8064 54.9108 17.7286 54.9108 17.5492C54.9108 16.2125 53.8232 15.1249 52.4893 15.1249L47.8545 15.111L48.0464 14.6566C48.9234 12.5796 48.779 10.1713 47.6606 8.21388C47.3996 7.75657 46.9746 7.43315 46.4645 7.30275C46.9746 7.43315 45.9542 7.17248 46.4645 7.30275C46.9746 7.43315 45.2741 6.99883 46.4645 7.30275ZM38.3758 26.6603H35.2078V17.1883H38.3758V26.6603ZM52.4865 17C52.7893 17 53.0356 17.2463 53.0356 17.5491C53.0356 17.7275 53.0337 18.2117 53.0312 18.8682C53.0174 22.4927 53.0081 25.9254 53.0349 26.496C53.0446 26.7019 52.9445 26.8392 52.884 26.9027C52.7792 27.0125 52.6381 27.0729 52.4865 27.0729H43.5738C42.5113 27.0729 41.4716 26.7047 40.6457 26.0362L40.251 25.7167V18.3992L44.088 14.0575C45.2797 12.7068 45.9361 10.9709 45.9361 9.16952C45.9361 9.11651 46.0085 9.10276 46.0325 9.14402C46.8629 10.5971 46.9699 12.385 46.3189 13.9268L45.5789 15.6795C45.4568 15.9686 45.4875 16.2996 45.6604 16.5613C45.8336 16.8231 46.1261 16.9809 46.4398 16.9819L52.4865 17Z" fill="#1C252E"/>
<path d="M9.99525 32.9414C9.4773 32.9414 9.05762 33.3612 9.05762 33.879C9.05762 34.3969 9.4773 34.8167 9.99525 34.8167H12.7592L12.2428 37.9395C12.1583 38.4503 12.5041 38.933 13.0149 39.0175C13.0668 39.0262 13.1182 39.0303 13.169 39.0303C13.6195 39.0303 14.017 38.7046 14.093 38.2454L14.6598 34.8168H16.9218L16.4054 37.9396C16.3209 38.4505 16.6667 38.9332 17.1775 39.0177C17.2294 39.0263 17.2808 39.0304 17.3316 39.0304C17.7821 39.0304 18.1796 38.7047 18.2556 38.2455L18.8224 34.8169H22.5846C23.1025 34.8169 23.5222 34.3971 23.5222 33.8793C23.5222 33.3615 23.1025 32.9417 22.5846 32.9417H19.1324L19.5106 30.6543H22.5846C23.1025 30.6543 23.5222 30.2345 23.5222 29.7167C23.5222 29.1989 23.1025 28.7791 22.5846 28.7791H19.8207L20.337 25.6562C20.4215 25.1454 20.0757 24.6627 19.5649 24.5782C19.0534 24.4934 18.5714 24.8395 18.4869 25.3503L17.92 28.7789H15.6581L16.1744 25.6561C16.2589 25.1453 15.9131 24.6626 15.4023 24.5781C14.8902 24.4933 14.4089 24.8394 14.3243 25.3502L13.7574 28.7788H9.99525C9.4773 28.7788 9.05762 29.1986 9.05762 29.7164C9.05762 30.2343 9.4773 30.6541 9.99525 30.6541H13.4474L13.0692 32.9414H9.99525ZM15.3482 30.6541H17.6101L17.2319 32.9414H14.97L15.3482 30.6541Z" fill="#1C252E"/>
<path d="M32.8659 47.1569C32.1088 46.5335 31.1015 46.2876 30.0911 46.5333C28.7963 46.8477 27.4897 48.0581 27.4897 50.0533C27.4897 51.2951 27.9429 52.373 28.8752 53.3486C29.6367 54.1456 30.7356 54.9035 32.4381 55.8061C32.5755 55.879 32.7264 55.9154 32.8773 55.9154C33.0282 55.9154 33.1791 55.879 33.3165 55.8061C36.2867 54.2315 38.2647 52.6507 38.2647 50.0533C38.2647 48.0472 36.9118 46.8492 35.5708 46.5518C34.5634 46.3282 33.5868 46.5655 32.8659 47.1569ZM36.3893 50.0533C36.3893 51.4542 35.46 52.4903 32.8772 53.9121C30.2943 52.4901 29.3649 51.4541 29.3649 50.0533C29.3649 49.0109 29.9685 48.4928 30.5334 48.3555C30.6376 48.3303 30.7491 48.316 30.8637 48.316C31.2887 48.316 31.7559 48.5123 32.0439 49.0708C32.2081 49.3886 32.5399 49.5856 32.8958 49.5782C33.2532 49.5711 33.5756 49.3613 33.7268 49.0373C34.0302 48.3869 34.6683 48.2725 35.1644 48.3827C35.7567 48.5138 36.3893 49.0218 36.3893 50.0533Z" fill="#1C252E"/>
</g>
<defs>
<clipPath id="clip0_3_183335">
<rect width="64" height="64" fill="white" transform="translate(0 0.375122)"/>
</clipPath>
</defs>
</svg>
