<svg width="64" height="65" viewBox="0 0 64 65" fill="none" xmlns="http://www.w3.org/2000/svg">
<g clip-path="url(#clip0_3_183368)">
<path d="M13.1196 11.0644H29.8681C30.386 11.0644 30.8056 10.6447 30.8056 10.1269C30.8056 9.60916 30.386 9.18941 29.8681 9.18941H13.1196C12.6017 9.18941 12.1821 9.60916 12.1821 10.1269C12.1821 10.6447 12.6017 11.0644 13.1196 11.0644Z" fill="#1C252E"/>
<path d="M17.689 17.3163C17.689 17.834 18.1087 18.2538 18.6265 18.2538H35.3328C35.8507 18.2538 36.2703 17.834 36.2703 17.3163C36.2703 16.7985 35.8507 16.3788 35.3328 16.3788H18.6265C18.1087 16.3788 17.689 16.7985 17.689 17.3163Z" fill="#1C252E"/>
<path d="M7.65501 18.2538H15.4244C15.9423 18.2538 16.3619 17.834 16.3619 17.3163C16.3619 16.7985 15.9423 16.3788 15.4244 16.3788H7.65501C7.13714 16.3788 6.71751 16.7985 6.71751 17.3163C6.71751 17.834 7.13726 18.2538 7.65501 18.2538Z" fill="#1C252E"/>
<path d="M7.65501 22.8071H25.3089C25.8268 22.8071 26.2464 22.3873 26.2464 21.8696C26.2464 21.3518 25.8268 20.9321 25.3089 20.9321H7.65501C7.13714 20.9321 6.71751 21.3518 6.71751 21.8696C6.71751 22.3873 7.13726 22.8071 7.65501 22.8071Z" fill="#1C252E"/>
<path d="M7.65501 47.072H18.9049C19.4228 47.072 19.8424 46.6522 19.8424 46.1345C19.8424 45.6167 19.4228 45.197 18.9049 45.197H7.65501C7.13714 45.197 6.71751 45.6167 6.71751 46.1345C6.71751 46.6522 7.13726 47.072 7.65501 47.072Z" fill="#1C252E"/>
<path d="M63.5223 57.3744L61.1372 54.9895C60.7712 54.6232 60.1776 54.6234 59.8115 54.9895C59.4454 55.3556 59.4454 55.9492 59.8116 56.3152L62.0259 58.5295L59.0961 61.4592L50.8224 53.1852L53.7521 50.2555L56.7183 53.2216C57.0845 53.5877 57.678 53.5877 58.0441 53.2216C58.4102 52.8555 58.4102 52.2619 58.0441 51.8959L54.9072 48.7591C54.4159 48.2677 53.6874 48.1571 53.0874 48.4239L50.4819 45.8182C53.8591 40.875 54.0821 34.4102 51.1525 29.2652C51.349 29.1927 51.5574 29.1211 51.7801 29.0491C52.32 28.8747 52.6828 28.3759 52.6828 27.8076C52.6826 27.2395 52.3199 26.7407 51.78 26.5664C49.2806 25.7592 48.5205 24.9991 47.7135 22.4996C47.55 21.9935 47.1012 21.6432 46.5778 21.6014V6.54198C46.5778 5.64123 45.845 4.90836 44.9442 4.90836H42.988V2.95211C42.988 2.05136 42.2552 1.31848 41.3545 1.31848H1.6335C0.73275 1.31848 0 2.05136 0 2.95211V56.6957C0 57.5965 0.73275 58.3294 1.6335 58.3294H3.58975V60.2856C3.58975 61.1864 4.3225 61.9191 5.22325 61.9191H13.875C14.3929 61.9191 14.8125 61.4994 14.8125 60.9816C14.8125 60.4639 14.3929 60.0441 13.875 60.0441H5.46488V58.3294H41.3543C42.255 58.3294 42.9878 57.5965 42.9878 56.6957V51.6646C43.5709 51.45 44.1436 51.2001 44.7026 50.914V60.0441H18.25C17.7321 60.0441 17.3125 60.4639 17.3125 60.9816C17.3125 61.4994 17.7321 61.9191 18.25 61.9191H44.9441C45.8449 61.9191 46.5776 61.1864 46.5776 60.2856V50.108L48.9904 52.5207C48.7238 53.1207 48.8344 53.8491 49.3256 54.3405L57.9409 62.9557C58.2594 63.2742 58.6778 63.4335 59.0961 63.4335C59.5145 63.4335 59.9328 63.2742 60.2513 62.9557L63.5224 59.6846C64.1592 59.0477 64.1592 58.0112 63.5223 57.3744ZM49.7721 27.8077C48.1565 28.5394 47.2035 29.4925 46.4721 31.1079C45.7405 29.4924 44.7875 28.5394 43.1721 27.8077C44.7876 27.0762 45.7406 26.1232 46.4721 24.5076C47.2035 26.1232 48.1565 27.0761 49.7721 27.8077ZM41.1641 29.0491C43.6634 29.8562 44.4235 30.6164 45.2306 33.1156C45.4049 33.6554 45.9036 34.0181 46.4717 34.0182C46.727 34.0182 46.9681 33.9445 47.1724 33.8149C48.3351 37.3336 47.5228 41.3676 44.7285 44.1619C40.7819 48.1085 34.3599 48.1085 30.4134 44.1619C26.4668 40.2151 26.4668 33.7934 30.4134 29.8467C32.3251 27.9349 34.8671 26.882 37.5709 26.882C38.5334 26.882 39.4746 27.0171 40.3747 27.276C40.302 27.4395 40.2615 27.6196 40.2615 27.8076C40.2615 28.3757 40.6241 28.8747 41.1641 29.0491ZM41.1128 56.4544H1.875V3.19348H41.1128V11.7514C41.1128 12.2691 41.5324 12.6889 42.0503 12.6889C42.5681 12.6889 42.9878 12.2691 42.9878 11.7514V6.78336H44.7026V23.0874C44.1463 22.8015 43.574 22.5492 42.9878 22.333V16.1264C42.9878 15.6086 42.5681 15.1889 42.0503 15.1889C41.5324 15.1889 41.1128 15.6086 41.1128 16.1264V21.7745C39.9645 21.5095 38.7785 21.3711 37.5709 21.3711C37.0979 21.3711 36.6283 21.3931 36.1628 21.4344C36.0059 21.136 35.6934 20.9322 35.3329 20.9322H28.6504C28.1325 20.9322 27.7129 21.352 27.7129 21.8697C27.7129 22.3875 28.1325 22.8072 28.6504 22.8072H31.0085C29.5571 23.4791 28.2069 24.378 27.0018 25.486H7.655C7.13713 25.486 6.7175 25.9057 6.7175 26.4235C6.7175 26.9412 7.13713 27.361 7.655 27.361H25.2661C24.2559 28.6481 23.476 30.058 22.9269 31.5354H7.655C7.13713 31.5354 6.7175 31.9551 6.7175 32.4729C6.7175 32.9906 7.13713 33.4104 7.655 33.4104H22.3614C22.1545 34.2924 22.025 35.1887 21.9726 36.0891H7.655C7.13713 36.0891 6.7175 36.5089 6.7175 37.0266C6.7175 37.5444 7.13713 37.9641 7.655 37.9641H21.9753C22.0301 38.8646 22.162 39.7611 22.3716 40.6429H7.655C7.13713 40.6429 6.7175 41.0626 6.7175 41.5804C6.7175 42.0981 7.13713 42.5179 7.655 42.5179H22.9429C23.2896 43.442 23.7274 44.3392 24.2549 45.1966H22.107C21.5891 45.1966 21.1695 45.6164 21.1695 46.1341C21.1695 46.6519 21.5891 47.0716 22.107 47.0716H25.6111C25.8966 47.4102 26.1976 47.74 26.5165 48.0587C27.1458 48.6879 27.8161 49.2511 28.5184 49.7504H7.655C7.13713 49.7504 6.7175 50.1701 6.7175 50.6879C6.7175 51.2056 7.13713 51.6254 7.655 51.6254H32.0385C33.817 52.2954 35.694 52.6304 37.5709 52.6304C38.76 52.6304 39.9487 52.4942 41.1128 52.2252V56.4544ZM27.8424 46.7329C22.478 41.3685 22.478 32.6401 27.8424 27.2757C30.441 24.6771 33.896 23.246 37.5709 23.246C39.8836 23.246 42.1091 23.8131 44.089 24.8811C43.6863 25.3774 43.1859 25.7405 42.4985 26.0594C40.9696 25.3701 39.2981 25.007 37.5709 25.007C34.3662 25.007 31.3535 26.255 29.0875 28.521C24.4099 33.1987 24.4099 40.81 29.0875 45.4877C31.4264 47.8266 34.4986 48.996 37.5709 48.996C40.6431 48.996 43.7154 47.8266 46.0544 45.4877C49.7976 41.7442 50.541 36.1241 48.2926 31.6304C48.6123 30.9831 48.9804 30.5089 49.4821 30.1241C52.5189 35.3844 51.7937 42.2385 47.2994 46.7329C41.9351 52.0971 33.2066 52.0971 27.8424 46.7329ZM47.8784 48.7571C48.1329 48.5336 48.3824 48.3016 48.6253 48.0587C48.8683 47.8157 49.0981 47.5647 49.3219 47.31L51.6838 49.672L50.2385 51.1172L47.8784 48.7571Z" fill="#1C252E"/>
<path d="M32.1821 32.1551C32.1821 32.6728 32.6017 33.0926 33.1196 33.0926H42.0035C42.5214 33.0926 42.941 32.6728 42.941 32.1551C42.941 31.6373 42.5214 31.2176 42.0035 31.2176H33.1196C32.6018 31.2176 32.1821 31.6373 32.1821 32.1551Z" fill="#1C252E"/>
<path d="M30.9889 35.6462C30.9889 36.1639 31.4085 36.5837 31.9264 36.5837H43.197C43.7149 36.5837 44.1345 36.1639 44.1345 35.6462C44.1345 35.1284 43.7149 34.7087 43.197 34.7087H31.9264C31.4085 34.7087 30.9889 35.1284 30.9889 35.6462Z" fill="#1C252E"/>
<path d="M43.197 38.2008H31.9264C31.4085 38.2008 30.9889 38.6205 30.9889 39.1383C30.9889 39.656 31.4085 40.0758 31.9264 40.0758H43.197C43.7149 40.0758 44.1345 39.656 44.1345 39.1383C44.1345 38.6205 43.7147 38.2008 43.197 38.2008Z" fill="#1C252E"/>
<path d="M40.4124 41.6936H34.7109C34.193 41.6936 33.7734 42.1134 33.7734 42.6311C33.7734 43.1489 34.193 43.5686 34.7109 43.5686H40.4124C40.9303 43.5686 41.3499 43.1489 41.3499 42.6311C41.3499 42.1134 40.9303 41.6936 40.4124 41.6936Z" fill="#1C252E"/>
<path d="M50.9966 22.4109H51.869V23.2833C51.869 23.8011 52.2886 24.2208 52.8065 24.2208C53.3243 24.2208 53.744 23.8011 53.744 23.2833V22.4109H54.6163C55.1342 22.4109 55.5538 21.9912 55.5538 21.4734C55.5538 20.9557 55.1342 20.5359 54.6163 20.5359H53.744V19.6637C53.744 19.1459 53.3243 18.7262 52.8065 18.7262C52.2886 18.7262 51.869 19.1459 51.869 19.6637V20.5361H50.9966C50.4787 20.5361 50.0591 20.9558 50.0591 21.4736C50.0591 21.9913 50.4787 22.4109 50.9966 22.4109Z" fill="#1C252E"/>
</g>
<defs>
<clipPath id="clip0_3_183368">
<rect width="64" height="64" fill="white" transform="translate(0 0.375122)"/>
</clipPath>
</defs>
</svg>
