<svg width="64" height="65" viewBox="0 0 64 65" fill="none" xmlns="http://www.w3.org/2000/svg">
<path d="M25.2512 45.2253C25.0094 45.2253 24.7659 45.1422 24.5672 44.973L17.73 39.151C17.4941 38.95 17.3585 38.6563 17.3585 38.3462C17.3585 38.0366 17.4947 37.743 17.73 37.5419L24.5672 31.72C25.0112 31.3415 25.6781 31.3951 26.0566 31.8391C26.4346 32.2837 26.3815 32.9505 25.9369 33.3285L20.0448 38.3462L25.9369 43.3639C26.3815 43.7424 26.4346 44.4093 26.0566 44.8533C25.8473 45.0991 25.5501 45.2253 25.2512 45.2253Z" fill="#1C252E"/>
<path d="M38.7488 45.2253C38.4499 45.2253 38.1527 45.0991 37.944 44.8533C37.5654 44.4093 37.6191 43.7424 38.0631 43.3639L43.9552 38.3462L38.0631 33.3285C37.6191 32.9505 37.5654 32.2837 37.944 31.8391C38.3219 31.3951 38.9894 31.3415 39.4328 31.72L46.27 37.5419C46.5059 37.743 46.6415 38.0366 46.6415 38.3462C46.6415 38.6563 46.5059 38.95 46.27 39.151L39.4328 44.973C39.2341 45.1422 38.9905 45.2253 38.7488 45.2253Z" fill="#1C252E"/>
<path d="M29.5796 49.5922C29.5071 49.5922 29.434 49.5845 29.3602 49.5692C28.7895 49.4489 28.4239 48.8882 28.5442 48.3174L32.8054 28.0857C32.9257 27.515 33.4858 27.1494 34.0572 27.2697C34.6279 27.39 34.9935 27.9501 34.8732 28.5215L30.612 48.7532C30.5071 49.2508 30.0684 49.5922 29.5796 49.5922Z" fill="#1C252E"/>
<path d="M56.9057 60.6145H7.09434C3.18278 60.6145 0 57.4323 0 53.5201V11.243C0 7.33146 3.18278 4.14868 7.09434 4.14868H56.9057C60.8172 4.14868 64 7.33146 64 11.243V53.5201C64 57.4323 60.8172 60.6145 56.9057 60.6145ZM7.09434 6.26189C4.34788 6.26189 2.11321 8.49656 2.11321 11.243V53.5201C2.11321 56.2666 4.34788 58.5013 7.09434 58.5013H56.9057C59.6521 58.5013 61.8868 56.2666 61.8868 53.5201V11.243C61.8868 8.49656 59.6521 6.26189 56.9057 6.26189H7.09434Z" fill="#1C252E"/>
<path d="M62.9434 21.0679H1.0566C0.472877 21.0679 0 20.595 0 20.0113C0 19.4282 0.472877 18.9547 1.0566 18.9547H62.9434C63.5271 18.9547 64 19.4282 64 20.0113C64 20.595 63.5271 21.0679 62.9434 21.0679Z" fill="#1C252E"/>
<path d="M18.0531 16.0119C16.2099 16.0119 14.7093 14.5113 14.7093 12.6681C14.7093 10.8244 16.2099 9.32439 18.0531 9.32439C19.8968 9.32439 21.3968 10.8244 21.3968 12.6681C21.3968 14.5113 19.8968 16.0119 18.0531 16.0119ZM18.0531 11.4376C17.375 11.4376 16.8225 11.9895 16.8225 12.6681C16.8225 13.3468 17.375 13.8987 18.0531 13.8987C18.7317 13.8987 19.2836 13.3468 19.2836 12.6681C19.2836 11.9895 18.7317 11.4376 18.0531 11.4376Z" fill="#1C252E"/>
<path d="M7.77948 15.9795C5.93573 15.9795 4.43573 14.4795 4.43573 12.6357C4.43573 10.792 5.93573 9.29196 7.77948 9.29196C9.62323 9.29196 11.1232 10.792 11.1232 12.6357C11.1232 14.4795 9.62323 15.9795 7.77948 15.9795ZM7.77948 11.4052C7.10142 11.4052 6.54894 11.9576 6.54894 12.6357C6.54894 13.3144 7.10142 13.8663 7.77948 13.8663C8.45814 13.8663 9.01002 13.3144 9.01002 12.6357C9.01002 11.9576 8.45814 11.4052 7.77948 11.4052Z" fill="#1C252E"/>
<path d="M28.3267 16.0437C26.4835 16.0437 24.9835 14.5437 24.9835 12.7C24.9835 10.8568 26.4835 9.35682 28.3267 9.35682C30.1704 9.35682 31.6704 10.8568 31.6704 12.7C31.6704 14.5437 30.1704 16.0437 28.3267 16.0437ZM28.3267 11.4694C27.6486 11.4694 27.0967 12.0213 27.0967 12.7C27.0967 13.3786 27.6486 13.9305 28.3267 13.9305C29.0053 13.9305 29.5572 13.3786 29.5572 12.7C29.5572 12.0213 29.0053 11.4694 28.3267 11.4694Z" fill="#1C252E"/>
</svg>
