<svg width="654" height="597" viewBox="0 0 654 597" fill="none" xmlns="http://www.w3.org/2000/svg">
<path d="M323.982 596.764C488.872 596.764 622.541 588.96 622.541 579.333C622.541 569.707 488.872 561.902 323.982 561.902C159.092 561.902 25.4229 569.707 25.4229 579.333C25.4229 588.96 159.092 596.764 323.982 596.764Z" fill="#919EAB" fill-opacity="0.08"/>
<path d="M247.605 215.722C254.319 217.85 258.852 224.117 258.771 231.16L256.814 400.358C250.471 451.61 172.194 493.874 149.015 505.327C144.927 507.347 140.25 507.347 136.163 505.326C112.986 493.869 34.7214 451.597 28.3787 400.358L26.3193 231.024C26.2344 224.047 30.6816 217.819 37.309 215.634L135.336 183.32C138.529 182.267 141.973 182.248 145.178 183.263L247.605 215.722Z" fill="url(#paint0_linear_3_184686)"/>
<path opacity="0.4" d="M232.728 227.182C239.443 229.307 243.978 235.574 243.899 242.617L242.2 393.274C236.744 437.378 170.217 473.849 149.027 484.409C144.947 486.443 140.23 486.443 136.15 484.409C114.959 473.849 48.4325 437.378 42.9761 393.274L41.1616 242.485C41.0776 235.505 45.5282 229.276 52.1587 227.094L135.635 199.622C138.824 198.572 142.263 198.553 145.464 199.566L232.728 227.182Z" fill="#5119B7"/>
<path d="M605.045 158.218H423.661C417.034 158.218 411.661 163.591 411.661 170.218V506.602C411.661 513.229 417.034 518.602 423.661 518.602H605.045C611.672 518.602 617.045 513.229 617.045 506.602V170.218C617.045 163.591 611.672 158.218 605.045 158.218Z" fill="#F4F6F8"/>
<path opacity="0.72" d="M590.849 173H439C432.373 173 427 178.373 427 185V492.94C427 499.567 432.373 504.94 439 504.94H590.849C597.476 504.94 602.849 499.567 602.849 492.94V185C602.849 178.373 597.476 173 590.849 173Z" fill="#DFE3E8"/>
<path fill-rule="evenodd" clip-rule="evenodd" d="M535.07 316.743V302.125C535.07 291.087 526.039 282.055 515 282.055C503.962 282.055 494.93 291.087 494.93 302.125V316.743H478.874V302.126C478.874 282.257 495.131 266 515 266C534.869 266 551.126 282.257 551.126 302.126V316.743H535.07ZM571 336.844V398.456C571 405.358 565.353 411.005 558.451 411.005H471.549C464.647 411.005 459 405.358 459 398.456V336.844C459 329.942 464.647 324.295 471.549 324.295H558.451C565.353 324.295 571 329.942 571 336.844ZM525.553 358.018C525.553 352.19 520.829 347.465 515 347.465C509.171 347.465 504.447 352.19 504.447 358.018C504.447 361.604 506.236 364.772 508.97 366.679V381.805C508.97 385.122 511.683 387.836 515 387.836C518.317 387.836 521.03 385.122 521.03 381.805V366.679C523.764 364.772 525.553 361.604 525.553 358.018Z" fill="url(#paint1_linear_3_184686)"/>
<path d="M435.726 452.41C435.726 451.797 435.969 451.21 436.402 450.776C436.835 450.343 437.423 450.1 438.035 450.1C438.648 450.1 439.235 450.343 439.669 450.776C440.102 451.21 440.345 451.797 440.345 452.41C440.345 453.022 440.102 453.61 439.669 454.043C439.235 454.476 438.648 454.719 438.035 454.719C437.423 454.719 436.835 454.476 436.402 454.043C435.969 453.61 435.726 453.022 435.726 452.41ZM435.726 395.697C435.726 395.085 435.969 394.497 436.402 394.064C436.835 393.631 437.423 393.388 438.035 393.388C438.648 393.388 439.235 393.631 439.669 394.064C440.102 394.497 440.345 395.085 440.345 395.697C440.345 396.31 440.102 396.897 439.669 397.331C439.235 397.764 438.648 398.007 438.035 398.007C437.423 398.007 436.835 397.764 436.402 397.331C435.969 396.897 435.726 396.31 435.726 395.697ZM435.726 338.97C435.726 338.357 435.969 337.77 436.402 337.337C436.835 336.903 437.423 336.66 438.035 336.66C438.648 336.66 439.235 336.903 439.669 337.337C440.102 337.77 440.345 338.357 440.345 338.97C440.345 339.582 440.102 340.17 439.669 340.603C439.235 341.036 438.648 341.28 438.035 341.28C437.423 341.28 436.835 341.036 436.402 340.603C435.969 340.17 435.726 339.582 435.726 338.97ZM435.726 282.242C435.726 281.63 435.969 281.042 436.402 280.609C436.835 280.176 437.423 279.932 438.035 279.932C438.648 279.932 439.235 280.176 439.669 280.609C440.102 281.042 440.345 281.63 440.345 282.242C440.345 282.855 440.102 283.442 439.669 283.875C439.235 284.309 438.648 284.552 438.035 284.552C437.423 284.552 436.835 284.309 436.402 283.875C435.969 283.442 435.726 282.855 435.726 282.242ZM435.726 225.53C435.726 224.917 435.969 224.33 436.402 223.897C436.835 223.464 437.423 223.22 438.035 223.22C438.648 223.22 439.235 223.464 439.669 223.897C440.102 224.33 440.345 224.917 440.345 225.53C440.345 226.142 440.102 226.73 439.669 227.163C439.235 227.596 438.648 227.84 438.035 227.84C437.423 227.84 436.835 227.596 436.402 227.163C435.969 226.73 435.726 226.142 435.726 225.53Z" fill="#C4CDD5"/>
<path d="M589.503 452.41C589.503 451.797 589.747 451.21 590.18 450.776C590.613 450.343 591.2 450.1 591.813 450.1C592.426 450.1 593.013 450.343 593.446 450.776C593.879 451.21 594.123 451.797 594.123 452.41C594.123 453.022 593.879 453.61 593.446 454.043C593.013 454.476 592.426 454.719 591.813 454.719C591.2 454.719 590.613 454.476 590.18 454.043C589.747 453.61 589.503 453.022 589.503 452.41ZM589.503 395.697C589.503 395.085 589.747 394.497 590.18 394.064C590.613 393.631 591.2 393.388 591.813 393.388C592.426 393.388 593.013 393.631 593.446 394.064C593.879 394.497 594.123 395.085 594.123 395.697C594.123 396.31 593.879 396.897 593.446 397.331C593.013 397.764 592.426 398.007 591.813 398.007C591.2 398.007 590.613 397.764 590.18 397.331C589.747 396.897 589.503 396.31 589.503 395.697ZM589.503 338.97C589.503 338.357 589.747 337.77 590.18 337.337C590.613 336.903 591.2 336.66 591.813 336.66C592.426 336.66 593.013 336.903 593.446 337.337C593.879 337.77 594.123 338.357 594.123 338.97C594.123 339.582 593.879 340.17 593.446 340.603C593.013 341.036 592.426 341.28 591.813 341.28C591.2 341.28 590.613 341.036 590.18 340.603C589.747 340.17 589.503 339.582 589.503 338.97ZM589.503 282.242C589.503 281.63 589.747 281.042 590.18 280.609C590.613 280.176 591.2 279.932 591.813 279.932C592.426 279.932 593.013 280.176 593.446 280.609C593.879 281.042 594.123 281.63 594.123 282.242C594.123 282.855 593.879 283.442 593.446 283.875C593.013 284.309 592.426 284.552 591.813 284.552C591.2 284.552 590.613 284.309 590.18 283.875C589.747 283.442 589.503 282.855 589.503 282.242ZM589.503 225.53C589.503 224.917 589.747 224.33 590.18 223.897C590.613 223.464 591.2 223.22 591.813 223.22C592.426 223.22 593.013 223.464 593.446 223.897C593.879 224.33 594.123 224.917 594.123 225.53C594.123 226.142 593.879 226.73 593.446 227.163C593.013 227.596 592.426 227.84 591.813 227.84C591.2 227.84 590.613 227.596 590.18 227.163C589.747 226.73 589.503 226.142 589.503 225.53Z" fill="#C4CDD5"/>
<path d="M408.38 60.0837H332.897V135.567H408.38V60.0837Z" fill="#F4F6F8"/>
<path d="M410.29 60.0837H408.365V135.567H410.29V60.0837Z" fill="#C4CDD5"/>
<path d="M397.389 67.0732H343.857C341.648 67.0732 339.857 68.864 339.857 71.0732V124.605C339.857 126.814 341.648 128.605 343.857 128.605H397.389C399.598 128.605 401.389 126.814 401.389 124.605V71.0732C401.389 68.864 399.598 67.0732 397.389 67.0732Z" fill="#DFE3E8"/>
<path d="M340.443 67.0732H339.873V128.605H340.443V67.0732Z" fill="#C4CDD5"/>
<g opacity="0.72">
<path d="M371.208 106.724C377.833 106.724 383.203 99.8854 383.203 91.4491C383.203 83.0129 377.833 76.174 371.208 76.174C364.583 76.174 359.213 83.0129 359.213 91.4491C359.213 99.8854 364.583 106.724 371.208 106.724Z" fill="#919EAB"/>
<path d="M393.998 128.607H347.68V124.295C347.68 122.346 348.063 120.415 348.809 118.615C349.555 116.814 350.649 115.177 352.027 113.799C353.406 112.42 355.042 111.327 356.843 110.581C358.644 109.835 360.574 109.451 362.524 109.451H379.154C381.103 109.451 383.033 109.835 384.834 110.581C386.635 111.327 388.272 112.42 389.65 113.799C391.029 115.177 392.122 116.814 392.868 118.615C393.614 120.415 393.998 122.346 393.998 124.295V128.607Z" fill="#919EAB"/>
<path d="M346.463 102.923C346.463 105.432 351.082 107.542 351.082 107.542C351.082 107.542 355.702 105.494 355.702 102.923C355.702 101.721 354.024 101.044 352.946 101.383C352.531 101.54 352.152 101.779 351.832 102.086C351.512 102.393 351.257 102.761 351.082 103.169C350.493 102.375 349.715 101.74 348.819 101.321C348.558 101.222 348.276 101.188 347.999 101.22C347.721 101.253 347.456 101.352 347.225 101.509C346.993 101.666 346.804 101.877 346.671 102.123C346.538 102.369 346.467 102.643 346.463 102.923Z" fill="#919EAB"/>
<path d="M387.5 91.6966C387.5 95.0073 393.49 97.6866 393.49 97.6866C393.49 97.6866 399.48 95.0073 399.48 91.6966C399.48 90.1568 397.278 89.2483 395.861 89.6486C394.804 90.0708 393.953 90.8883 393.49 91.9276C392.712 90.8862 391.692 90.0509 390.518 89.4946C390.171 89.3718 389.799 89.3354 389.435 89.3886C389.071 89.4418 388.725 89.5829 388.428 89.7998C388.131 90.0167 387.891 90.3028 387.729 90.6333C387.567 90.9638 387.489 91.3288 387.5 91.6966Z" fill="#919EAB"/>
</g>
<path d="M180.361 136.352C176.817 136.85 173.205 136.286 169.982 134.732C166.759 133.177 164.069 130.702 162.253 127.618C160.436 124.535 159.575 120.982 159.778 117.409C159.981 113.837 161.239 110.404 163.393 107.546C165.546 104.688 168.499 102.533 171.878 101.354C175.256 100.174 178.909 100.022 182.373 100.919C185.838 101.815 188.959 103.718 191.341 106.388C193.724 109.058 195.262 112.375 195.759 115.918C196.414 120.668 195.162 125.484 192.277 129.313C189.391 133.142 185.107 135.673 180.361 136.352ZM176.681 110.036C175.028 110.283 173.485 111.013 172.246 112.134C171.008 113.255 170.128 114.718 169.719 116.338C169.31 117.958 169.389 119.663 169.946 121.238C170.504 122.814 171.515 124.189 172.852 125.191C174.189 126.192 175.793 126.776 177.462 126.869C179.13 126.961 180.788 126.558 182.228 125.71C183.668 124.862 184.825 123.607 185.553 122.103C186.281 120.599 186.548 118.913 186.32 117.258C186.167 116.148 185.796 115.08 185.228 114.115C184.659 113.149 183.905 112.307 183.008 111.635C182.112 110.963 181.091 110.476 180.005 110.202C178.918 109.927 177.789 109.871 176.681 110.036Z" fill="#DFE3E8"/>
<path d="M173.949 64.4148L167.147 65.3647L173.258 109.118L180.059 108.168L173.949 64.4148Z" fill="#DFE3E8"/>
<path d="M179.474 60.5003C179.32 59.4066 178.308 58.6453 177.214 58.8L169.405 59.9043C167.765 60.1363 166.623 61.6543 166.855 63.2948L167.396 67.1233L178.175 65.599C179.269 65.4443 180.03 64.4324 179.876 63.3387L179.474 60.5003Z" fill="#DFE3E8"/>
<path d="M180.667 69.5875C180.515 68.4935 179.504 67.7303 178.41 67.8829L168.389 69.2807L169.337 76.0825L179.359 74.6848C180.453 74.5322 181.216 73.5217 181.064 72.4277L180.667 69.5875Z" fill="#DFE3E8"/>
<path d="M182.417 81.9324C182.264 80.8385 181.254 80.0753 180.16 80.2279L171.663 81.4129L172.612 88.2147L181.108 87.0297C182.202 86.8771 182.965 85.8666 182.813 84.7726L182.417 81.9324Z" fill="#DFE3E8"/>
<path d="M166.088 289.855C180.284 275.025 178.675 250.446 162.494 234.956C146.313 219.466 121.687 218.93 107.491 233.76C93.2945 248.59 94.9036 273.169 111.085 288.659C127.266 304.149 151.892 304.684 166.088 289.855Z" fill="#FA541C"/>
<path d="M166.088 289.855C180.284 275.025 178.675 250.446 162.494 234.956C146.313 219.466 121.687 218.93 107.491 233.76C93.2945 248.59 94.9036 273.169 111.085 288.659C127.266 304.149 151.892 304.684 166.088 289.855Z" fill="#8E33FF"/>
<path d="M148.147 261.126C147.821 261.125 147.503 261.02 147.24 260.826C146.977 260.633 146.782 260.36 146.684 260.049C146.065 258.119 144.861 256.43 143.238 255.216C141.616 254.002 139.656 253.323 137.63 253.273C137.222 253.273 136.83 253.111 136.541 252.822C136.253 252.533 136.09 252.142 136.09 251.733C136.09 251.325 136.253 250.933 136.541 250.645C136.83 250.356 137.222 250.194 137.63 250.194C140.31 250.252 142.904 251.144 145.054 252.744C147.203 254.345 148.801 256.575 149.626 259.125C149.687 259.319 149.71 259.523 149.693 259.726C149.675 259.929 149.617 260.126 149.523 260.307C149.428 260.487 149.299 260.647 149.142 260.777C148.985 260.908 148.804 261.005 148.609 261.065C148.459 261.109 148.304 261.129 148.147 261.126Z" fill="#EFD6FF"/>
<path d="M141.388 294.435C137.946 294.42 134.528 293.869 131.255 292.802C131.062 292.741 130.883 292.642 130.728 292.511C130.574 292.38 130.446 292.22 130.353 292.04C130.26 291.859 130.204 291.663 130.187 291.461C130.17 291.259 130.193 291.055 130.255 290.862C130.316 290.669 130.415 290.49 130.546 290.335C130.677 290.18 130.837 290.053 131.017 289.96C131.198 289.867 131.394 289.81 131.596 289.794C131.798 289.777 132.002 289.8 132.195 289.861C141.665 292.941 151.119 291.216 158.141 285.242C161.698 282.107 164.384 278.106 165.941 273.628C167.497 269.15 167.871 264.346 167.026 259.68C166.994 259.478 167.001 259.272 167.049 259.072C167.096 258.873 167.183 258.685 167.303 258.52C167.423 258.354 167.574 258.213 167.749 258.106C167.923 257.999 168.117 257.927 168.319 257.894C168.522 257.862 168.728 257.87 168.927 257.917C169.127 257.965 169.315 258.051 169.48 258.171C169.646 258.291 169.787 258.443 169.894 258.617C170.001 258.792 170.073 258.986 170.106 259.188C171.027 264.371 170.594 269.704 168.848 274.671C167.103 279.637 164.104 284.069 160.143 287.536C154.933 292.031 148.268 294.482 141.388 294.435Z" fill="#EFD6FF"/>
<path d="M125.989 290.413C125.736 290.42 125.485 290.356 125.266 290.228C120.546 287.703 116.451 284.156 113.278 279.845C110.105 275.535 107.935 270.57 106.926 265.314C105.949 260.767 105.995 256.059 107.06 251.532C108.125 247.005 110.183 242.771 113.086 239.137C113.345 238.832 113.713 238.641 114.112 238.603C114.51 238.566 114.907 238.685 115.219 238.935C115.532 239.185 115.734 239.547 115.784 239.944C115.834 240.341 115.728 240.742 115.488 241.061C112.863 244.346 111.005 248.176 110.049 252.27C109.093 256.365 109.062 260.621 109.96 264.729C110.876 269.536 112.856 274.078 115.755 278.021C118.654 281.965 122.398 285.209 126.713 287.518C127.014 287.681 127.253 287.939 127.391 288.252C127.529 288.565 127.559 288.915 127.476 289.247C127.393 289.579 127.202 289.873 126.932 290.085C126.663 290.296 126.331 290.411 125.989 290.413Z" fill="#EFD6FF"/>
<path d="M167.303 255.739C166.964 255.754 166.628 255.657 166.35 255.462C166.071 255.267 165.865 254.985 165.763 254.661C164.347 250.29 162.03 246.266 158.961 242.847C155.892 239.428 152.14 236.691 147.947 234.812C147.572 234.651 147.276 234.347 147.124 233.967C146.972 233.587 146.978 233.163 147.139 232.787C147.3 232.412 147.604 232.115 147.984 231.964C148.364 231.812 148.788 231.818 149.164 231.979C153.76 234.036 157.874 237.033 161.239 240.779C164.605 244.524 167.148 248.933 168.704 253.721C168.824 254.088 168.801 254.485 168.642 254.836C168.482 255.187 168.197 255.465 167.842 255.615C167.671 255.689 167.489 255.73 167.303 255.739Z" fill="#EFD6FF"/>
<path d="M118.706 237.444C118.464 237.446 118.225 237.392 118.009 237.285C117.792 237.178 117.603 237.021 117.458 236.828C117.338 236.665 117.251 236.48 117.202 236.284C117.153 236.087 117.143 235.883 117.173 235.683C117.203 235.483 117.272 235.29 117.377 235.117C117.481 234.944 117.619 234.792 117.782 234.672C122.96 230.948 129.205 229.003 135.582 229.129C135.991 229.129 136.382 229.291 136.671 229.58C136.96 229.869 137.122 230.26 137.122 230.669C137.122 231.077 136.96 231.469 136.671 231.757C136.382 232.046 135.991 232.208 135.582 232.208C129.867 232.085 124.266 233.813 119.614 237.136C119.352 237.333 119.034 237.441 118.706 237.444Z" fill="#EFD6FF"/>
<path d="M143.02 233.067H142.666C140.349 232.526 137.977 232.253 135.598 232.251C135.19 232.251 134.798 232.089 134.509 231.8C134.22 231.511 134.058 231.119 134.058 230.711C134.058 230.303 134.22 229.911 134.509 229.622C134.798 229.333 135.19 229.171 135.598 229.171C138.191 229.178 140.774 229.483 143.297 230.08C143.706 230.127 144.079 230.334 144.334 230.656C144.59 230.978 144.707 231.388 144.66 231.797C144.613 232.205 144.406 232.578 144.084 232.834C143.762 233.089 143.351 233.206 142.943 233.159L143.02 233.067Z" fill="#EFD6FF"/>
<path d="M115.872 269.857C115.558 269.858 115.25 269.763 114.992 269.584C114.733 269.405 114.535 269.151 114.425 268.857C112.982 265.131 112.473 261.109 112.943 257.142C113.413 253.175 114.847 249.383 117.12 246.098C119.273 242.988 122.157 240.454 125.519 238.72C128.88 236.985 132.616 236.103 136.398 236.15C136.807 236.15 137.199 236.313 137.487 236.601C137.776 236.89 137.938 237.282 137.938 237.69C137.938 238.099 137.776 238.49 137.487 238.779C137.199 239.068 136.807 239.23 136.398 239.23C133.109 239.198 129.861 239.973 126.941 241.487C124.02 243.001 121.515 245.208 119.645 247.915C117.666 250.799 116.419 254.122 116.012 257.596C115.604 261.07 116.048 264.591 117.304 267.856C117.444 268.238 117.427 268.659 117.256 269.028C117.086 269.398 116.777 269.685 116.396 269.827C116.225 269.867 116.047 269.877 115.872 269.857Z" fill="#EFD6FF"/>
<path d="M140.294 287.439C135.679 287.283 131.17 286.015 127.15 283.745C123.129 281.474 119.715 278.268 117.197 274.397C117.087 274.227 117.011 274.037 116.974 273.838C116.937 273.639 116.94 273.435 116.982 273.237C117.024 273.039 117.105 272.851 117.22 272.684C117.335 272.517 117.481 272.375 117.651 272.264C117.821 272.154 118.011 272.078 118.21 272.042C118.409 272.005 118.613 272.008 118.811 272.05C119.01 272.092 119.197 272.173 119.364 272.287C119.531 272.402 119.674 272.549 119.784 272.719C122.017 276.166 125.049 279.025 128.622 281.051C132.195 283.078 136.205 284.213 140.31 284.36C140.718 284.36 141.11 284.522 141.399 284.811C141.687 285.1 141.85 285.491 141.85 285.9C141.85 286.308 141.687 286.7 141.399 286.988C141.11 287.277 140.718 287.439 140.31 287.439H140.294Z" fill="#EFD6FF"/>
<path d="M146.038 286.777C145.63 286.826 145.219 286.71 144.895 286.456C144.572 286.202 144.362 285.83 144.313 285.421C144.264 285.013 144.38 284.602 144.634 284.279C144.888 283.955 145.26 283.746 145.668 283.697C158.157 280.617 161.39 269.669 160.374 261.261C159.034 250.298 150.365 239.196 136.399 239.18C135.99 239.18 135.599 239.018 135.31 238.729C135.021 238.44 134.859 238.049 134.859 237.64C134.859 237.232 135.021 236.84 135.31 236.551C135.599 236.263 135.99 236.1 136.399 236.1C152.151 236.1 161.914 248.573 163.407 260.892C164.947 273.595 158.28 283.728 146.469 286.684L146.038 286.777Z" fill="#EFD6FF"/>
<path d="M130.116 247.732C129.764 247.734 129.421 247.615 129.146 247.395C128.871 247.175 128.68 246.867 128.604 246.523C128.528 246.179 128.573 245.819 128.73 245.504C128.888 245.189 129.149 244.937 129.469 244.791C131.818 243.719 134.371 243.167 136.953 243.174C137.361 243.174 137.753 243.336 138.042 243.625C138.331 243.914 138.493 244.306 138.493 244.714C138.493 245.122 138.331 245.514 138.042 245.803C137.753 246.092 137.361 246.254 136.953 246.254C134.828 246.253 132.727 246.71 130.794 247.593C130.58 247.688 130.349 247.735 130.116 247.732Z" fill="#EFD6FF"/>
<path d="M140.002 280.249C136.104 280.187 132.305 279.008 129.057 276.852C125.809 274.696 123.248 271.653 121.678 268.084C118.475 261.139 119.414 253.887 124.172 248.651C124.448 248.349 124.832 248.169 125.241 248.15C125.649 248.131 126.049 248.276 126.351 248.551C126.653 248.827 126.834 249.211 126.852 249.62C126.871 250.029 126.727 250.428 126.451 250.73C124.539 252.895 123.326 255.587 122.972 258.453C122.617 261.319 123.138 264.226 124.465 266.791C125.827 269.9 128.072 272.541 130.922 274.386C133.772 276.231 137.1 277.198 140.494 277.169C143.064 277.148 145.573 276.385 147.72 274.973C149.867 273.561 151.56 271.559 152.598 269.208C153.764 266.423 154.116 263.365 153.612 260.388C153.107 257.411 151.768 254.638 149.749 252.393C149.618 252.239 149.52 252.06 149.458 251.867C149.397 251.674 149.374 251.471 149.391 251.269C149.408 251.068 149.465 250.871 149.558 250.692C149.651 250.512 149.779 250.352 149.934 250.222C150.245 249.963 150.646 249.837 151.049 249.872C151.453 249.907 151.827 250.099 152.089 250.407C154.485 253.084 156.071 256.388 156.659 259.933C157.248 263.477 156.817 267.116 155.415 270.425C154.152 273.316 152.081 275.782 149.45 277.524C146.82 279.267 143.742 280.213 140.587 280.249H140.002Z" fill="#EFD6FF"/>
<path d="M146.5 249.087C146.205 249.086 145.916 249.001 145.668 248.841C143.07 247.163 140.046 246.266 136.953 246.254C136.545 246.254 136.153 246.092 135.864 245.803C135.575 245.514 135.413 245.122 135.413 244.714C135.413 244.306 135.575 243.914 135.864 243.625C136.153 243.336 136.545 243.174 136.953 243.174C140.636 243.187 144.237 244.256 147.331 246.254C147.674 246.475 147.915 246.822 148.001 247.221C148.088 247.619 148.013 248.036 147.793 248.379C147.654 248.596 147.463 248.774 147.237 248.898C147.011 249.022 146.757 249.087 146.5 249.087Z" fill="#EFD6FF"/>
<path d="M139.232 273.321C137.433 273.309 135.658 272.903 134.032 272.132C132.407 271.36 130.97 270.242 129.823 268.856C128.341 267.163 127.379 265.078 127.054 262.851C126.729 260.625 127.054 258.352 127.991 256.306C128.817 254.448 130.172 252.873 131.885 251.778C133.599 250.683 135.597 250.116 137.63 250.147C138.039 250.147 138.43 250.309 138.719 250.598C139.008 250.886 139.17 251.278 139.17 251.686C139.17 252.095 139.008 252.487 138.719 252.775C138.43 253.064 138.039 253.226 137.63 253.226C136.191 253.202 134.776 253.598 133.558 254.367C132.341 255.136 131.375 256.243 130.778 257.553C130.105 259.066 129.879 260.74 130.127 262.378C130.376 264.015 131.088 265.547 132.179 266.792C133.272 268.125 134.719 269.122 136.354 269.667C137.989 270.212 139.745 270.283 141.418 269.872C142.779 269.564 144.023 268.872 145.003 267.879C145.983 266.885 146.657 265.632 146.946 264.267C147.035 263.872 147.275 263.528 147.615 263.309C147.955 263.091 148.368 263.014 148.763 263.097C148.962 263.139 149.15 263.22 149.317 263.334C149.484 263.449 149.627 263.596 149.737 263.767C149.847 263.937 149.923 264.127 149.959 264.327C149.995 264.526 149.992 264.731 149.949 264.929C149.543 266.857 148.594 268.628 147.213 270.033C145.832 271.439 144.078 272.419 142.157 272.859C141.204 273.13 140.222 273.285 139.232 273.321Z" fill="#EFD6FF"/>
<path d="M139.601 266.915C139.193 266.915 138.801 266.753 138.512 266.464C138.224 266.175 138.061 265.783 138.061 265.375C138.061 264.967 138.224 264.575 138.512 264.286C138.801 263.997 139.193 263.835 139.601 263.835C139.811 263.835 140.02 263.793 140.213 263.71C140.406 263.627 140.58 263.505 140.724 263.352C140.868 263.199 140.98 263.018 141.051 262.821C141.123 262.623 141.154 262.413 141.141 262.203C141.151 261.904 141.102 261.606 140.995 261.326C140.889 261.046 140.728 260.791 140.521 260.574C140.315 260.358 140.067 260.184 139.793 260.065C139.518 259.945 139.223 259.882 138.924 259.878C138.698 259.884 138.475 259.934 138.269 260.027C138.063 260.119 137.877 260.252 137.723 260.417C137.562 260.601 137.441 260.816 137.366 261.049C137.292 261.282 137.267 261.528 137.291 261.772C137.304 261.974 137.276 262.177 137.21 262.368C137.143 262.559 137.04 262.736 136.906 262.888C136.771 263.039 136.608 263.163 136.426 263.251C136.244 263.34 136.046 263.392 135.844 263.404C135.436 263.428 135.034 263.29 134.728 263.018C134.422 262.747 134.236 262.365 134.212 261.956C134.157 261.303 134.237 260.645 134.449 260.023C134.66 259.402 134.997 258.831 135.44 258.347C135.882 257.863 136.42 257.475 137.02 257.208C137.619 256.942 138.268 256.802 138.924 256.798C139.628 256.8 140.325 256.942 140.974 257.216C141.622 257.489 142.21 257.889 142.703 258.392C143.196 258.895 143.584 259.491 143.845 260.145C144.105 260.799 144.233 261.499 144.221 262.203C144.233 262.817 144.123 263.428 143.896 263.999C143.669 264.57 143.331 265.09 142.901 265.529C142.471 265.968 141.957 266.317 141.391 266.554C140.824 266.792 140.216 266.915 139.601 266.915Z" fill="#EFD6FF"/>
<path d="M179.283 261.775C181.162 283.225 165.301 300.61 143.867 300.61C143.312 300.61 142.758 300.61 142.204 300.61C162.622 299.563 177.435 282.594 175.618 261.821C174.572 251.652 169.962 242.182 162.603 235.085C155.245 227.989 145.613 223.725 135.413 223.048C135.967 223.048 136.522 223.048 137.076 223.048C158.511 222.971 177.42 240.356 179.283 261.775Z" fill="#FA541C"/>
<path d="M179.283 261.775C181.162 283.225 165.301 300.61 143.867 300.61C143.312 300.61 142.758 300.61 142.204 300.61C162.622 299.563 177.435 282.594 175.618 261.821C174.572 251.652 169.962 242.182 162.603 235.085C155.245 227.989 145.613 223.725 135.413 223.048C135.967 223.048 136.522 223.048 137.076 223.048C158.511 222.971 177.42 240.356 179.283 261.775Z" fill="#27097A"/>
<path d="M210.666 72.5248C210.709 72.9847 210.775 73.4422 210.866 73.8952C211.448 76.8583 212.964 79.5567 215.193 81.5944C217.733 83.9729 221.075 85.3086 224.555 85.3362H354.656C356.174 85.3648 357.683 85.0917 359.094 84.5328C360.506 83.9739 361.793 83.1403 362.88 82.0804C363.967 81.0205 364.833 79.7552 365.428 78.3581C366.022 76.961 366.333 75.4597 366.343 73.9414C366.343 73.4949 366.343 73.0329 366.343 72.571C365.987 69.1208 364.381 65.9199 361.829 63.5715C359.276 61.2231 355.953 59.8892 352.485 59.8211H222.322C220.692 59.7903 219.074 60.1064 217.576 60.7484C216.077 61.3904 214.732 62.3436 213.63 63.5449C212.528 64.7461 211.693 66.168 211.182 67.7161C210.671 69.2643 210.495 70.9034 210.666 72.5248Z" fill="#FDAB76"/>
<path d="M366.342 73.9121C366.343 74.3245 366.312 74.7363 366.25 75.144C365.791 71.7744 364.142 68.6801 361.6 66.4208C359.058 64.1615 355.792 62.8861 352.392 62.8253L214.037 63.1333C216.243 60.9852 219.212 59.8001 222.291 59.838H352.376C355.842 59.9127 359.162 61.2488 361.713 63.596C364.264 65.9431 365.872 69.1402 366.235 72.5879C366.292 73.0273 366.328 73.4692 366.342 73.9121Z" fill="#FA541C"/>
<path d="M343.939 65.9351L344.478 72.0945L350.268 69.9387L351.653 73.0184L345.725 74.9894L349.975 80.2094L347.326 82.1804L343.184 76.7448L340.105 82.1804L337.194 80.2094L340.474 74.9894L334.315 73.0184L335.162 69.9387L341.321 72.0175L340.782 65.8582L343.939 65.9351Z" fill="#B3200E"/>
<path d="M308.353 65.9371L308.892 72.0964L314.697 69.9406L316.068 73.0203L310.139 74.9913L314.405 80.2114L311.741 82.1824L307.598 76.7467L304.519 82.1824L301.608 80.2114L304.888 75.0375L298.729 73.0665L299.56 69.9868L305.72 72.0656L305.181 65.9063L308.353 65.9371Z" fill="#B3200E"/>
<path d="M272.767 65.9351L273.321 72.0945L279.111 69.9387L280.482 73.0184L274.569 74.9894L278.819 80.2094L276.155 82.1804L272.013 76.7448L268.933 82.1804L266.023 80.2094L269.303 74.9894L263.143 73.0184L263.975 69.9387L270.134 72.0175L269.595 65.8582L272.767 65.9351Z" fill="#B3200E"/>
<path d="M237.136 65.9371L237.675 72.0964L243.464 69.9406L244.85 73.0203L238.922 74.9913L243.295 80.2576L240.646 82.2286L236.504 76.7929L233.425 82.2286L230.499 80.2576L233.794 75.0375L227.635 73.0665L228.482 69.9868L234.641 72.0656L234.102 65.9063L237.136 65.9371Z" fill="#B3200E"/>
<path d="M551.555 111.178L545.241 183.242C545.054 185.368 544.122 187.359 542.608 188.863C541.756 189.761 540.732 190.478 539.597 190.973C538.463 191.468 537.24 191.729 536.002 191.742H486.004C484.922 191.748 483.85 191.526 482.86 191.09C481.869 190.654 480.982 190.014 480.256 189.212C479.529 188.41 478.98 187.463 478.644 186.435C478.307 185.406 478.192 184.318 478.304 183.242L484.618 111.224C484.851 108.922 485.92 106.786 487.623 105.219C489.326 103.653 491.544 102.765 493.857 102.724H543.855C544.933 102.719 546 102.94 546.987 103.373C547.974 103.806 548.859 104.442 549.585 105.239C550.31 106.036 550.861 106.976 551.2 107.999C551.539 109.022 551.66 110.105 551.555 111.178Z" fill="#FEE9D1"/>
<path d="M489.161 122.785H489.038C488.631 122.75 488.256 122.555 487.993 122.243C487.731 121.931 487.602 121.528 487.636 121.122L488.206 114.531C488.241 114.147 488.418 113.79 488.703 113.531C488.988 113.272 489.36 113.129 489.746 113.13H496.691C497.099 113.13 497.491 113.292 497.779 113.581C498.068 113.87 498.23 114.262 498.23 114.67C498.23 115.078 498.068 115.47 497.779 115.759C497.491 116.048 497.099 116.21 496.691 116.21H491.209L490.762 121.384C490.727 121.778 490.541 122.144 490.242 122.405C489.944 122.666 489.557 122.802 489.161 122.785Z" fill="#FA541C"/>
<path d="M545.103 122.785C544.697 122.75 544.321 122.555 544.059 122.243C543.796 121.931 543.668 121.528 543.702 121.122L544.133 116.21H538.851C538.443 116.21 538.051 116.048 537.763 115.759C537.474 115.47 537.312 115.078 537.312 114.67C537.312 114.262 537.474 113.87 537.763 113.581C538.051 113.292 538.443 113.13 538.851 113.13H545.811C546.026 113.129 546.238 113.173 546.435 113.259C546.631 113.345 546.807 113.471 546.952 113.629C547.097 113.787 547.208 113.973 547.276 114.177C547.345 114.38 547.371 114.595 547.351 114.808L546.643 121.368C546.612 121.755 546.436 122.116 546.151 122.378C545.865 122.641 545.491 122.786 545.103 122.785Z" fill="#FA541C"/>
<path d="M491.763 172.464H484.819C484.605 172.465 484.393 172.422 484.197 172.337C484.001 172.252 483.824 172.128 483.679 171.971C483.535 171.814 483.425 171.629 483.356 171.428C483.287 171.226 483.261 171.013 483.279 170.801L483.864 164.21C483.881 164.008 483.938 163.811 484.031 163.631C484.125 163.451 484.252 163.291 484.408 163.16C484.563 163.029 484.742 162.93 484.935 162.868C485.129 162.807 485.332 162.784 485.535 162.801C485.737 162.818 485.934 162.875 486.114 162.969C486.294 163.062 486.454 163.19 486.585 163.345C486.716 163.5 486.815 163.679 486.876 163.873C486.938 164.066 486.961 164.27 486.944 164.472L486.512 169.384H491.779C492.187 169.384 492.579 169.546 492.868 169.835C493.156 170.124 493.319 170.516 493.319 170.924C493.319 171.332 493.156 171.724 492.868 172.013C492.579 172.302 492.187 172.464 491.779 172.464H491.763Z" fill="#FA541C"/>
<path d="M540.807 172.462H533.846C533.438 172.462 533.046 172.3 532.758 172.011C532.469 171.722 532.307 171.331 532.307 170.922C532.307 170.514 532.469 170.122 532.758 169.833C533.046 169.545 533.438 169.382 533.846 169.382H539.39L539.852 164.208C539.887 163.802 540.082 163.427 540.394 163.164C540.705 162.901 541.109 162.773 541.515 162.807C541.921 162.842 542.297 163.037 542.559 163.349C542.822 163.661 542.95 164.064 542.916 164.47L542.331 171.061C542.297 171.442 542.121 171.797 541.839 172.056C541.558 172.315 541.189 172.46 540.807 172.462Z" fill="#FA541C"/>
<path d="M535.496 147.653C538.972 134.172 533.005 120.979 522.168 118.184C511.33 115.39 499.727 124.052 496.251 137.533C492.775 151.013 498.742 164.207 509.579 167.002C520.416 169.796 532.019 161.134 535.496 147.653Z" fill="#FDAB76"/>
<path d="M545.241 183.243C545.054 185.368 544.122 187.359 542.608 188.863C541.756 189.761 540.732 190.479 539.597 190.973C538.463 191.468 537.24 191.729 536.002 191.742H486.004C484.922 191.748 483.85 191.526 482.86 191.09C481.869 190.654 480.982 190.014 480.256 189.212C479.529 188.41 478.98 187.464 478.644 186.435C478.307 185.407 478.192 184.319 478.304 183.243C478.304 183.243 501.294 175.974 504.128 175.974H521.882L545.241 183.243Z" fill="#FDAB76"/>
<path d="M126.806 179.036H71.1558C68.5808 178.986 66.1131 177.995 64.2183 176.25C62.3235 174.506 61.1324 172.128 60.8697 169.566L56.0038 113.947C55.8649 112.737 55.9871 111.51 56.362 110.351C56.7369 109.191 57.3559 108.125 58.1774 107.225C58.9988 106.325 60.0036 105.611 61.1241 105.132C62.2446 104.652 63.4548 104.419 64.6731 104.447H120.292C122.872 104.498 125.343 105.493 127.239 107.244C129.135 108.995 130.323 111.38 130.578 113.947L135.506 169.566C135.64 170.777 135.514 172.003 135.135 173.161C134.756 174.319 134.134 175.383 133.309 176.28C132.485 177.177 131.478 177.887 130.356 178.363C129.234 178.838 128.024 179.068 126.806 179.036Z" fill="#FEE9D1"/>
<path d="M60.9004 147.345C60.9004 147.345 80.6719 119.797 95.2542 120.506C109.836 121.214 133.966 146.698 133.966 146.698C133.966 146.698 98.3338 165.423 60.9004 147.345Z" fill="#FDAB76"/>
<path d="M61.5934 147.824L60.3461 146.931C61.1468 145.807 80.0252 119.753 94.7769 119.753H95.362C110.083 120.461 133.658 145.129 134.659 146.176L133.535 147.239C133.227 146.977 109.328 121.954 95.208 121.277H94.6845C80.7336 121.262 61.7166 147.531 61.5934 147.824Z" fill="#770508"/>
<path d="M58.837 148.314C55.8497 148.314 51.9847 147.206 50.6143 142.987C50.5829 142.885 50.5718 142.779 50.5815 142.674C50.5913 142.568 50.6217 142.466 50.671 142.372C50.7203 142.279 50.7876 142.196 50.8691 142.128C50.9505 142.06 51.0444 142.009 51.1455 141.978C51.2466 141.947 51.3529 141.936 51.4583 141.945C51.5637 141.955 51.6662 141.985 51.7598 142.035C51.8535 142.084 51.9365 142.151 52.0042 142.233C52.0718 142.314 52.1228 142.408 52.1541 142.509C53.9249 147.96 60.5308 146.651 60.808 146.59C61.0096 146.553 61.2178 146.594 61.3897 146.706C61.5616 146.818 61.6841 146.991 61.7319 147.19C61.7687 147.39 61.7267 147.596 61.6147 147.766C61.5027 147.935 61.3295 148.054 61.1314 148.099C60.3757 148.247 59.6071 148.32 58.837 148.314Z" fill="#770508"/>
<path d="M70.5862 136.49C70.419 136.493 70.2558 136.439 70.1242 136.336C69.8932 136.151 64.4268 131.932 63.0256 127.636C62.9665 127.442 62.9849 127.232 63.0767 127.051C63.1686 126.871 63.3268 126.732 63.5183 126.665C63.7123 126.602 63.9234 126.619 64.1053 126.711C64.2872 126.804 64.425 126.964 64.4884 127.158C65.7357 130.992 71.0019 135.073 71.0635 135.104C71.218 135.233 71.318 135.416 71.3437 135.616C71.3694 135.815 71.3188 136.018 71.2021 136.182C71.1296 136.276 71.0364 136.353 70.9297 136.407C70.823 136.46 70.7055 136.488 70.5862 136.49Z" fill="#770508"/>
<path d="M81.9039 126.006C81.8028 126.004 81.703 125.982 81.6104 125.941C81.5177 125.9 81.434 125.842 81.3639 125.769C81.2939 125.696 81.2388 125.61 81.202 125.516C81.1652 125.422 81.1473 125.321 81.1494 125.22C80.236 121.871 79.1201 118.58 77.8079 115.365C77.4075 114.349 77.1458 113.61 77.0842 113.425C77.0259 113.229 77.0464 113.018 77.1413 112.837C77.2362 112.656 77.398 112.519 77.5923 112.455C77.6894 112.424 77.7915 112.414 77.8928 112.424C77.994 112.434 78.0921 112.464 78.1813 112.513C78.2705 112.562 78.3488 112.629 78.4117 112.708C78.4745 112.788 78.5206 112.88 78.547 112.978C78.547 113.163 78.8704 113.841 79.24 114.811C81.3803 120.462 82.7046 124.173 82.6892 125.251C82.6812 125.454 82.595 125.646 82.4486 125.786C82.3021 125.927 82.1069 126.006 81.9039 126.006Z" fill="#770508"/>
<path d="M95.2542 121.28C95.0602 121.281 94.8732 121.208 94.7304 121.077C94.5877 120.946 94.4998 120.765 94.4843 120.572L93.391 108.253C93.3826 108.152 93.3942 108.05 93.4253 107.954C93.4564 107.857 93.5063 107.767 93.5721 107.69C93.638 107.613 93.7184 107.549 93.8089 107.503C93.8994 107.457 93.9981 107.429 94.0993 107.422C94.2001 107.409 94.3024 107.417 94.3999 107.445C94.4974 107.474 94.5879 107.522 94.666 107.587C94.744 107.652 94.8078 107.733 94.8533 107.823C94.8989 107.914 94.9253 108.013 94.9308 108.115L96.0087 120.526C96.0193 120.626 96.0096 120.728 95.9803 120.824C95.951 120.921 95.9026 121.01 95.838 121.088C95.7734 121.165 95.6939 121.229 95.6042 121.276C95.5145 121.322 95.4164 121.35 95.3158 121.357L95.2542 121.28Z" fill="#770508"/>
<path d="M136.322 147.469C135.569 147.472 134.816 147.41 134.074 147.284C133.876 147.24 133.702 147.12 133.59 146.951C133.478 146.781 133.436 146.575 133.473 146.376C133.491 146.275 133.53 146.18 133.586 146.095C133.642 146.01 133.715 145.938 133.799 145.882C133.884 145.825 133.98 145.787 134.08 145.769C134.18 145.75 134.282 145.753 134.382 145.775C134.382 145.775 138.139 146.499 140.449 144.867C140.945 144.508 141.359 144.048 141.665 143.517C141.97 142.986 142.159 142.396 142.219 141.787C142.235 141.686 142.27 141.589 142.322 141.501C142.375 141.413 142.444 141.337 142.527 141.276C142.609 141.215 142.702 141.171 142.801 141.147C142.901 141.122 143.004 141.117 143.105 141.132C143.206 141.148 143.303 141.183 143.391 141.235C143.478 141.288 143.555 141.357 143.615 141.44C143.676 141.522 143.72 141.615 143.745 141.714C143.77 141.814 143.774 141.917 143.759 142.018C143.669 142.829 143.408 143.612 142.994 144.315C142.58 145.018 142.023 145.626 141.357 146.098C139.856 147.055 138.1 147.533 136.322 147.469Z" fill="#770508"/>
<path d="M122.509 135.675C122.35 135.68 122.193 135.635 122.06 135.547C121.927 135.459 121.825 135.332 121.768 135.183C121.71 135.034 121.7 134.871 121.739 134.717C121.779 134.562 121.865 134.423 121.986 134.32C121.986 134.32 126.605 130.255 127.114 126.467C127.144 126.262 127.255 126.079 127.421 125.956C127.587 125.833 127.795 125.782 127.999 125.812C128.203 125.843 128.387 125.953 128.51 126.119C128.632 126.285 128.684 126.493 128.653 126.698C127.991 131.04 123.187 135.305 123.018 135.505C122.874 135.621 122.694 135.681 122.509 135.675Z" fill="#770508"/>
<path d="M109.483 126.727H109.329C109.228 126.71 109.132 126.674 109.046 126.62C108.96 126.566 108.885 126.495 108.827 126.412C108.768 126.329 108.726 126.235 108.704 126.136C108.682 126.037 108.68 125.934 108.697 125.834C108.697 125.741 110.391 115.84 110.684 113.808C110.718 113.607 110.828 113.428 110.992 113.307C111.156 113.187 111.36 113.134 111.561 113.161C111.662 113.176 111.758 113.211 111.844 113.263C111.931 113.315 112.007 113.384 112.067 113.466C112.127 113.547 112.17 113.64 112.195 113.738C112.219 113.836 112.223 113.939 112.208 114.039C111.9 116.087 110.237 126.003 110.222 126.096C110.185 126.267 110.092 126.422 109.959 126.536C109.825 126.65 109.658 126.717 109.483 126.727Z" fill="#770508"/>
<path d="M109.946 150.564C116.321 143.905 115.592 132.862 108.319 125.899C101.045 118.936 89.9809 118.69 83.6061 125.349C77.2313 132.008 77.9598 143.051 85.2334 150.014C92.5069 156.977 103.571 157.223 109.946 150.564Z" fill="#FA541C"/>
<path opacity="0.24" d="M103.986 137.953C104.024 137.564 104.024 137.172 103.986 136.783C103.786 134.767 102.851 132.896 101.361 131.524C99.87 130.153 97.927 129.377 95.9017 129.346C94.9533 129.329 94.0122 129.515 93.141 129.89C92.2699 130.265 91.4886 130.822 90.8492 131.522C90.2097 132.223 89.7267 133.052 89.4324 133.954C89.138 134.855 89.0389 135.809 89.1418 136.752C89.1824 137.148 89.2545 137.539 89.3574 137.923H79.333C79.0921 135.703 79.3266 133.458 80.0209 131.337C80.7152 129.215 81.8533 127.265 83.3596 125.618C84.8658 123.97 86.7057 122.662 88.7567 121.781C90.8078 120.9 93.023 120.466 95.2549 120.507C100.003 120.595 104.554 122.418 108.049 125.633C111.544 128.847 113.741 133.23 114.226 137.953H103.986Z" fill="black"/>
<path opacity="0.24" d="M103.97 136.785C104.008 137.174 104.008 137.566 103.97 137.956C103.844 139.655 103.071 141.24 101.811 142.386C100.55 143.532 98.8979 144.151 97.1946 144.115C95.3927 144.086 93.6496 143.469 92.2316 142.357C90.8136 141.245 89.7985 139.699 89.3415 137.956C89.2386 137.572 89.1665 137.18 89.1259 136.785C89.0181 135.839 89.114 134.88 89.4072 133.973C89.7003 133.067 90.1839 132.233 90.8256 131.529C91.4672 130.825 92.2521 130.266 93.1275 129.889C94.0029 129.513 94.9486 129.329 95.9012 129.348C97.9239 129.383 99.8631 130.16 101.351 131.531C102.838 132.903 103.77 134.772 103.97 136.785Z" fill="black"/>
<path d="M363.971 210.356L364.51 210.987L365.219 211.803C365.727 212.342 366.219 212.912 366.758 213.435C367.805 214.544 368.96 215.622 370.131 216.715C372.474 218.872 374.931 220.902 377.491 222.798C380.093 224.738 382.819 226.509 385.575 228.264C387.115 229.096 388.378 229.973 389.825 230.774L393.167 232.622C393.652 232.837 394.199 232.87 394.706 232.714C395.769 232.391 401.974 226.262 403.945 223.983C408.303 218.979 414.94 212.388 418.497 206.783L422.562 212.281C420.072 219.147 416.752 225.683 412.676 231.744C410.469 235.017 407.827 237.975 404.823 240.537C403.012 242.058 400.969 243.28 398.772 244.155C395.998 245.264 392.95 245.495 390.041 244.817C389.283 244.631 388.541 244.384 387.823 244.078L386.453 243.478L383.958 242.338C382.265 241.599 380.648 240.706 379.015 239.89C375.754 238.145 372.588 236.228 369.53 234.146C366.451 232.033 363.5 229.74 360.691 227.279C359.152 226.001 357.904 224.707 356.58 223.306C355.903 222.608 355.24 221.884 354.594 221.135L353.624 219.964C353.285 219.533 353.023 219.21 352.53 218.548L363.971 210.356Z" fill="#FDBAB9"/>
<path d="M417.958 207.635L425.103 192.359L431.924 204.586C431.924 204.586 427.459 212.285 422.578 212.285L417.958 207.635Z" fill="#FDBAB9"/>
<path d="M433.156 186.014L440.362 195.283L431.924 204.569L425.103 192.358L433.156 186.014Z" fill="#FDBAB9"/>
<path d="M430.646 208.789H441.933C442.255 208.794 442.567 208.676 442.805 208.458C443.042 208.24 443.188 207.94 443.211 207.619L445.598 180.41C445.613 180.233 445.591 180.056 445.533 179.888C445.476 179.72 445.384 179.566 445.264 179.436C445.144 179.305 444.998 179.202 444.835 179.131C444.673 179.06 444.497 179.024 444.32 179.024H432.971C432.651 179.027 432.343 179.147 432.107 179.364C431.871 179.58 431.724 179.876 431.693 180.194L429.322 207.388C429.307 207.569 429.33 207.752 429.39 207.924C429.45 208.095 429.546 208.252 429.671 208.385C429.796 208.517 429.947 208.621 430.115 208.691C430.283 208.761 430.464 208.794 430.646 208.789Z" fill="#FA541C"/>
<path d="M430.03 202.611L432.048 201.58C433.069 201.056 434.012 200.393 434.85 199.609L435.235 198.269C435.019 197.909 434.692 197.629 434.303 197.471C433.915 197.313 433.485 197.285 433.079 197.391L431.401 197.853L423.086 198.485L422.87 201.995L425.303 205.768H426.15C427.069 205.8 427.969 205.498 428.682 204.917C429.396 204.337 429.875 203.518 430.03 202.611Z" fill="#FDBAB9"/>
<path d="M349.544 195.438C355.318 194.391 396.047 229.699 396.047 229.699L383.974 247.407C383.974 247.407 339.427 216.395 340.859 208.911C342.152 201.104 341.059 196.962 349.544 195.438Z" fill="#8E33FF"/>
<path opacity="0.24" d="M354.609 206.783L354.178 225.261C358.797 228.849 375.489 241.645 375.489 241.645L354.609 206.783Z" fill="#27097A"/>
<path d="M322.319 562.455L335.993 563.795L340.32 532.121L326.662 530.781L322.319 562.455Z" fill="#FDBAB9"/>
<path d="M187.86 376.599L184.35 389.903L213.914 402.637L220.028 389.133L187.86 376.599Z" fill="#FDBAB9"/>
<path d="M358.197 211.741C366.004 225.015 356.457 236.225 348.496 275.876L297.019 276.014C297.866 254.641 297.774 237.364 288.643 195.311C288.441 194.401 288.421 193.46 288.583 192.542C288.746 191.625 289.088 190.748 289.59 189.962C290.092 189.177 290.744 188.498 291.509 187.966C292.274 187.433 293.137 187.056 294.047 186.858C294.552 186.737 295.069 186.68 295.587 186.688C299.853 186.688 305.196 186.842 310.616 187.381C319.19 188.082 327.705 189.374 336.1 191.246C340.659 192.345 345.139 193.744 349.512 195.434C352.115 196.328 355.318 203.534 358.197 211.741Z" fill="#8E33FF"/>
<path d="M350.405 278.555C350.405 278.555 379.292 362.122 378.6 402.312C378.199 425.41 376.475 468.233 369.53 498.398C363.863 523.036 340.766 538.742 340.766 538.742L322.288 537.649C322.288 537.649 312.294 500.077 314.034 485.125C317.483 455.36 327.754 433.001 326.522 405.669C324.551 360.921 311.309 277.863 311.309 277.863L350.405 278.555Z" fill="#FA541C"/>
<path opacity="0.24" d="M321.826 447.383C321.826 447.383 321.826 447.229 321.965 447.244C338.364 448.784 349.682 425.178 347.003 392.857L338.287 310.476L321.826 447.383Z" fill="#770508"/>
<path d="M337.44 277.864C337.44 277.864 360.399 424.811 312.587 441.349C287.395 450.896 266.176 440.548 241.077 429.43C226.556 423.009 208.417 405.624 208.417 405.624L215.392 386.638C227.938 383.245 241.065 382.584 253.888 384.698C278.387 388.486 279.404 395.477 288.119 390.211C306.397 344.985 274.923 309.246 296.311 277.802L337.44 277.864Z" fill="#FA541C"/>
<path d="M212.945 250.254C210.62 253.688 198.824 251.363 198.824 251.363L196.33 236.75L210.804 242.555L212.945 250.254Z" fill="#FDBAB9"/>
<path d="M199.225 235.998L201.488 251.181L192.773 252.474C192.302 252.514 191.833 252.379 191.455 252.095C191.078 251.811 190.818 251.398 190.725 250.935L187.399 240.063C187.343 239.81 187.387 239.546 187.522 239.325C187.657 239.103 187.872 238.943 188.123 238.878L199.225 235.998Z" fill="#FDBAB9"/>
<path d="M195.344 242.88L200.318 243.758L204.938 240.232L203.121 238.938C201.895 238.059 201.035 236.76 200.703 235.289C200.346 233.746 200.135 232.174 200.072 230.592V230.069C200.013 229.604 199.803 229.172 199.475 228.838C199.146 228.505 198.718 228.288 198.255 228.221L197.023 229.129C196.238 230.808 196.792 232.763 196.699 234.072L196.499 236.613L194.513 237.475L195.344 242.88Z" fill="#FDBAB9"/>
<path d="M291.137 192.48L262.004 232.516L208.464 243.033V251.81C208.464 251.81 258.755 255.536 270.057 248.961C281.359 242.386 300.269 202.489 300.269 202.489L291.137 192.48Z" fill="#FDBAB9"/>
<path d="M290.798 115.485C278.571 111.389 264.389 118.98 258.784 130.591C253.179 142.201 255.15 156.445 261.448 167.685C263.342 171.088 265.621 174.291 267.161 177.848C268.898 181.372 269.276 185.412 268.224 189.197C266.976 192.877 265.668 195.233 261.11 194.648C261.11 194.648 261.11 192.123 262.85 192.431C262.85 192.431 259.169 194.479 257.722 193.139C259.385 195.726 263.881 194.787 265.298 192.046C267.454 187.965 263.496 182.437 258.877 182.483C254.257 182.529 250.516 187.211 250.654 191.815C250.848 194.117 251.668 196.322 253.025 198.192C254.382 200.062 256.225 201.526 258.353 202.424C257.106 202.625 255.827 202.409 254.714 201.811C253.601 201.212 252.715 200.265 252.194 199.114C254.288 204.595 261.14 207.013 266.899 205.935C272.658 204.857 277.57 201.162 282.082 197.42C288.242 192.369 294.54 185.979 294.401 178.079C294.262 172.182 290.474 167.116 287.287 162.142C284.099 157.168 281.312 151.101 283.329 145.573C285.054 140.954 289.689 138.044 293.8 135.179C296.757 133.131 302.747 128.558 302.039 124.231C301.33 120.104 294.247 116.578 290.798 115.485Z" fill="#27097A"/>
<path d="M263.313 252.536L255.244 231.179L257.092 231.333C258.586 231.454 260.084 231.145 261.408 230.44C262.732 229.736 263.826 228.667 264.56 227.36C270.72 216.396 286.626 188.571 291.107 187.186C297.497 185.292 304.072 190.404 306.505 197.964C308.322 203.523 289.567 227.36 280.898 240.911C273.183 252.86 263.313 252.536 263.313 252.536Z" fill="#8E33FF"/>
<path d="M345.755 566.535C346.931 566.69 348.124 566.428 349.127 565.796C349.35 565.61 349.523 565.372 349.633 565.104C349.743 564.836 349.786 564.545 349.759 564.256C349.751 564.078 349.699 563.904 349.608 563.751C349.516 563.598 349.388 563.47 349.235 563.378C347.572 562.393 341.998 565.041 341.367 565.334C341.312 565.369 341.267 565.416 341.234 565.473C341.202 565.529 341.184 565.592 341.182 565.657C341.194 565.724 341.226 565.785 341.272 565.834C341.319 565.883 341.378 565.918 341.444 565.934C342.86 566.264 344.303 566.465 345.755 566.535ZM348.25 563.779C348.459 563.764 348.668 563.812 348.85 563.917C348.917 563.948 348.974 563.998 349.012 564.061C349.051 564.124 349.069 564.198 349.066 564.271C349.088 564.465 349.063 564.662 348.993 564.844C348.924 565.026 348.811 565.189 348.665 565.318C347.803 566.027 345.586 566.088 342.506 565.503C344.322 564.596 346.281 564.008 348.296 563.763L348.25 563.779Z" fill="#FA541C"/>
<path d="M341.521 565.936H341.629C343.307 565.243 346.633 562.379 346.418 560.808C346.361 560.537 346.211 560.293 345.995 560.119C345.779 559.945 345.509 559.851 345.232 559.854C344.909 559.794 344.577 559.804 344.258 559.884C343.939 559.964 343.641 560.111 343.384 560.316C341.629 561.686 341.197 565.397 341.167 565.536C341.151 565.649 341.179 565.765 341.244 565.859C341.282 565.89 341.327 565.912 341.374 565.926C341.422 565.939 341.472 565.942 341.521 565.936ZM344.924 560.5H345.124C345.709 560.593 345.74 560.824 345.74 560.901C345.879 561.84 343.615 564.119 341.906 565.027C342.064 563.468 342.717 562.001 343.769 560.839C344.097 560.585 344.51 560.464 344.924 560.5Z" fill="#FA541C"/>
<path d="M184.534 398.663V398.817C184.648 399.114 184.834 399.376 185.076 399.581C185.319 399.785 185.609 399.925 185.92 399.988C186.107 400.048 186.306 400.058 186.497 400.018C186.689 399.977 186.867 399.887 187.013 399.757C188.322 398.571 187.491 393.597 187.414 393.105C187.403 393.041 187.374 392.983 187.33 392.936C187.286 392.89 187.23 392.857 187.167 392.843C187.105 392.834 187.042 392.841 186.983 392.862C186.924 392.884 186.871 392.919 186.828 392.966C185.781 394.46 184.118 397.093 184.534 398.663ZM186.905 394.044C187.198 396.015 187.306 398.663 186.597 399.31C186.529 399.364 186.448 399.4 186.361 399.413C186.275 399.427 186.187 399.418 186.105 399.387C185.896 399.348 185.701 399.257 185.536 399.122C185.372 398.988 185.245 398.814 185.165 398.617C184.904 397.786 185.473 396.092 186.905 394.09V394.044Z" fill="#FA541C"/>
<path d="M186.875 393.768C187.29 395.432 188.846 398.28 190.231 398.604C190.486 398.653 190.75 398.616 190.981 398.499C191.212 398.382 191.398 398.191 191.509 397.957C191.615 397.73 191.67 397.483 191.67 397.233C191.67 396.983 191.615 396.736 191.509 396.509C190.878 394.6 187.244 393.029 187.09 392.952C187.041 392.925 186.985 392.911 186.928 392.911C186.872 392.911 186.816 392.925 186.767 392.952C186.727 392.993 186.696 393.041 186.674 393.094C186.653 393.147 186.643 393.203 186.644 393.26C186.711 393.434 186.789 393.603 186.875 393.768ZM191.063 396.848C191.101 396.983 191.11 397.124 191.089 397.262C191.068 397.4 191.017 397.532 190.94 397.649C190.74 398.018 190.539 398.018 190.385 397.988C189.431 397.803 187.999 395.478 187.537 393.861C188.722 394.461 190.616 395.586 191.017 396.756V396.848H191.063Z" fill="#FA541C"/>
<path d="M296.834 273.413L295.417 278.418C295.217 278.803 295.679 279.203 296.326 279.187H349.435C349.637 279.218 349.844 279.178 350.021 279.075C350.197 278.971 350.333 278.81 350.405 278.618L350.898 273.613C350.898 273.274 350.482 272.967 349.928 272.982H297.742C297.566 272.967 297.39 272.999 297.23 273.075C297.071 273.151 296.934 273.267 296.834 273.413Z" fill="#FDAB76"/>
<path d="M306.982 279.664H305.442C305.149 279.664 304.918 279.51 304.949 279.325L305.642 272.812C305.642 272.627 305.919 272.473 306.227 272.473H307.767C308.06 272.473 308.306 272.627 308.275 272.827L307.582 279.325C307.536 279.495 307.274 279.664 306.982 279.664Z" fill="#FA541C"/>
<path d="M345.324 279.652H343.784C343.492 279.652 343.261 279.498 343.276 279.313L343.969 272.815C343.969 272.615 344.262 272.461 344.554 272.461H346.094C346.387 272.461 346.618 272.615 346.602 272.8L345.909 279.298C345.894 279.498 345.632 279.652 345.324 279.652Z" fill="#FA541C"/>
<path d="M327.77 279.622H326.23C325.937 279.622 325.706 279.468 325.737 279.283L326.43 272.785C326.43 272.585 326.707 272.431 327 272.431H328.54C328.832 272.431 329.079 272.585 329.048 272.77L328.355 279.268C328.324 279.468 328.078 279.622 327.77 279.622Z" fill="#FA541C"/>
<path d="M312.987 159.355C314.62 167.747 316.221 182.899 310.539 187.457C310.539 187.457 312.803 196.065 328.032 198.359C344.847 200.9 336.023 191.322 336.023 191.322C326.877 187.688 327.092 181.067 328.678 174.969L312.987 159.355Z" fill="#FDBAB9"/>
<path d="M310.585 187.382C318.701 187.897 326.767 189.019 334.715 190.739L346.248 194.173C348.296 198.3 344.939 206.784 335.284 208.401C335.284 208.401 311.001 211.742 303.841 186.735L310.585 187.382Z" fill="#FDBAB9"/>
<path opacity="0.24" d="M319.378 165.749L328.617 174.988C328.23 176.42 327.972 177.883 327.847 179.361C324.352 178.33 318.716 174.465 318.331 170.769C318.336 169.042 318.692 167.334 319.378 165.749Z" fill="black"/>
<path d="M302.717 148.762C306.828 161.789 308.291 167.394 316.729 172.522C329.34 180.221 344.446 172.337 344.308 158.356C344.184 145.76 337.486 126.573 323.166 124.479C320.022 124.011 316.812 124.354 313.838 125.477C310.865 126.599 308.229 128.464 306.18 130.893C304.13 133.322 302.736 136.234 302.13 139.354C301.524 142.474 301.726 145.697 302.717 148.716V148.762Z" fill="#FDBAB9"/>
<path d="M333.791 146.73C335.257 149.013 337.029 151.086 339.057 152.889C338.582 153.402 338.002 153.805 337.356 154.071C336.71 154.337 336.013 154.459 335.315 154.429L333.791 146.73Z" fill="#FDBAB9"/>
<path d="M332.327 161.392C332.847 161.333 333.361 161.235 333.867 161.1C333.948 161.078 334.017 161.026 334.06 160.954C334.103 160.882 334.117 160.796 334.098 160.715C334.076 160.634 334.024 160.565 333.952 160.522C333.88 160.479 333.794 160.465 333.713 160.484C332.385 160.864 330.986 160.923 329.631 160.655C328.276 160.387 327.004 159.801 325.921 158.944C325.858 158.885 325.774 158.853 325.687 158.856C325.6 158.859 325.518 158.896 325.459 158.959C325.4 159.023 325.368 159.107 325.371 159.194C325.374 159.28 325.411 159.362 325.475 159.421C326.429 160.187 327.527 160.756 328.703 161.095C329.879 161.433 331.111 161.534 332.327 161.392Z" fill="#27097A"/>
<path d="M298.236 122.755C296.539 123.855 295.13 125.344 294.126 127.098C293.121 128.852 292.551 130.821 292.461 132.841C292.399 133.613 292.52 134.389 292.816 135.104C292.972 135.457 293.218 135.763 293.528 135.992C293.839 136.222 294.203 136.367 294.586 136.413C295.757 136.413 296.619 135.366 297.266 134.381L300.238 129.761C301.462 128.256 302.496 126.607 303.317 124.849C304.318 121.816 300.053 121.646 298.236 122.755Z" fill="#FA541C"/>
<path d="M299.699 125.822C291.507 135.276 287.857 161.438 311.802 168.737C315.805 165.565 309.338 159.79 306.597 152.492C304.811 147.718 313.927 138.802 317.484 135.138C321.041 131.473 324.321 126.191 329.356 127.038C330.63 127.464 332.002 127.502 333.298 127.146C337.271 125.344 335.346 122.958 333.298 121.294C330.156 118.972 326.417 117.594 322.519 117.322C318.313 116.822 314.049 117.333 310.081 118.811C306.112 120.29 302.553 122.693 299.699 125.822Z" fill="#27097A"/>
<path d="M326.292 122.647C335.9 130.67 323.212 130.87 316.483 135.951C309.754 141.033 314.543 148.824 303.641 152.535C294.725 155.138 292.662 153.583 290.183 151.843C293.243 151.323 296.044 149.803 298.148 147.521C300.251 145.239 301.539 142.323 301.808 139.231C302.548 133.38 315.282 113.347 326.292 122.647Z" fill="#27097A"/>
<path d="M301.254 159.714C302.762 161.886 305.062 163.379 307.66 163.872C311.109 164.473 312.434 161.316 311.248 158.236C310.139 155.464 306.998 151.815 303.672 152.6C303.102 152.746 302.566 153.002 302.094 153.355C301.623 153.708 301.226 154.15 300.926 154.656C300.626 155.162 300.428 155.723 300.344 156.305C300.261 156.888 300.293 157.481 300.438 158.051C300.595 158.655 300.873 159.221 301.254 159.714Z" fill="#FDBAB9"/>
<path d="M324.628 123.463C326.491 128.206 331.865 127.575 335.854 132.533C338.287 135.613 343.091 126.112 336.562 122.37C330.033 118.628 321.703 116.041 324.628 123.463Z" fill="#27097A"/>
<path d="M318.977 143.479C319.113 143.495 319.249 143.467 319.366 143.397C319.483 143.327 319.574 143.221 319.624 143.094C320.902 140.292 324.69 139.583 324.721 139.583C324.889 139.55 325.037 139.452 325.135 139.312C325.233 139.171 325.272 138.998 325.245 138.829C325.207 138.66 325.107 138.511 324.964 138.414C324.821 138.316 324.646 138.278 324.475 138.305C324.29 138.305 319.963 139.214 318.439 142.601C318.402 142.678 318.381 142.762 318.377 142.846C318.373 142.931 318.385 143.016 318.414 143.096C318.442 143.177 318.486 143.25 318.543 143.313C318.601 143.376 318.67 143.427 318.747 143.464H318.977V143.479Z" fill="#27097A"/>
<path d="M338.995 137.819C339.108 137.827 339.221 137.804 339.321 137.752C339.422 137.7 339.506 137.622 339.565 137.526C339.66 137.385 339.695 137.212 339.664 137.045C339.632 136.877 339.536 136.729 339.396 136.633C338.543 136.042 337.56 135.665 336.531 135.534C335.502 135.402 334.457 135.521 333.483 135.878C333.391 135.903 333.306 135.948 333.233 136.008C333.159 136.069 333.1 136.145 333.059 136.231C333.018 136.317 332.996 136.41 332.994 136.505C332.993 136.6 333.011 136.695 333.049 136.782C333.087 136.869 333.144 136.947 333.214 137.01C333.285 137.074 333.369 137.121 333.46 137.15C333.55 137.178 333.646 137.186 333.741 137.174C333.835 137.162 333.925 137.13 334.006 137.079C334.772 136.812 335.591 136.731 336.394 136.843C337.198 136.956 337.963 137.258 338.626 137.726C338.74 137.785 338.867 137.816 338.995 137.819Z" fill="#27097A"/>
<path d="M338.364 143.033C339.103 142.895 339.904 143.726 340.073 144.866C340.243 146.005 339.827 147.052 339.088 147.176C338.349 147.299 337.548 146.483 337.378 145.343C337.209 144.204 337.625 143.203 338.364 143.033Z" fill="#27097A"/>
<path d="M340.643 141.912L338.041 143.19C339.612 144.298 340.643 141.912 340.643 141.912Z" fill="#27097A"/>
<path d="M325.475 145.686C326.214 145.547 327.015 146.379 327.184 147.518C327.354 148.658 326.938 149.705 326.199 149.828C325.46 149.951 324.659 149.135 324.49 147.996C324.32 146.856 324.736 145.825 325.475 145.686Z" fill="#27097A"/>
<path d="M327.755 144.558L325.152 145.836C326.723 146.945 327.755 144.558 327.755 144.558Z" fill="#27097A"/>
<path d="M260.325 204.597C258.87 204.605 257.427 204.333 256.075 203.796C251.317 201.841 249.084 196.882 249.916 190.169C249.927 190.068 249.959 189.97 250.008 189.882C250.058 189.793 250.126 189.716 250.206 189.654C250.287 189.592 250.379 189.547 250.477 189.522C250.575 189.497 250.678 189.491 250.778 189.507C250.98 189.533 251.163 189.639 251.287 189.801C251.411 189.963 251.466 190.167 251.44 190.369C250.639 196.328 252.518 200.701 256.583 202.364C258.953 203.173 261.517 203.214 263.911 202.481C266.305 201.749 268.407 200.28 269.918 198.284C273.768 193.125 272.521 185.826 266.484 178.266C250.716 158.479 251.779 147.962 253.996 139.647C257.23 127.574 266.715 113.747 293.493 116.41C293.594 116.418 293.692 116.446 293.782 116.492C293.871 116.538 293.951 116.602 294.015 116.68C294.08 116.757 294.128 116.847 294.158 116.944C294.187 117.04 294.197 117.142 294.186 117.242C294.178 117.343 294.151 117.441 294.104 117.53C294.058 117.62 293.994 117.7 293.917 117.764C293.839 117.829 293.75 117.877 293.653 117.906C293.556 117.936 293.455 117.945 293.355 117.935C267.732 115.363 258.693 128.544 255.613 140.032C253.38 148.347 252.533 158.063 267.809 177.296C277.048 188.891 273.306 196.482 271.273 199.192C269.982 200.869 268.324 202.228 266.426 203.165C264.529 204.102 262.441 204.592 260.325 204.597Z" fill="#27097A"/>
<path d="M335.315 558.282L322.997 558.806C322.729 558.809 322.471 558.911 322.275 559.093C322.079 559.276 321.957 559.525 321.934 559.791L318.978 576.976C318.961 577.269 319.002 577.561 319.1 577.838C319.197 578.114 319.348 578.369 319.544 578.586C319.74 578.804 319.978 578.98 320.243 579.106C320.507 579.231 320.794 579.303 321.087 579.317H321.349C326.723 579.039 329.31 578.639 336.116 578.408C340.273 578.27 353.054 579.779 358.752 578.485C364.449 577.192 363.371 571.54 360.923 571.587C353.008 571.741 343.877 566.582 339.365 560.546C338.549 560.038 336.162 558.236 335.315 558.282Z" fill="#27097A"/>
<path d="M190.631 391.642L196.914 380.971C197.054 380.746 197.107 380.477 197.062 380.216C197.016 379.954 196.876 379.719 196.668 379.554L183.825 367.744C183.351 367.404 182.761 367.265 182.184 367.357C181.608 367.45 181.091 367.766 180.746 368.237C180.686 368.299 180.638 368.372 180.607 368.452C177.928 373.072 176.85 375.505 173.354 381.356C171.214 384.928 162.976 394.891 161.036 400.327C159.096 405.763 164.346 408.026 165.655 405.901C169.828 399.157 179.098 394.291 186.659 393.721C187.413 393.428 190.216 392.397 190.631 391.642Z" fill="#27097A"/>
<path opacity="0.72" d="M292.152 19.1032C291.825 18.5125 291.345 18.0204 290.763 17.6782C290.181 17.336 289.517 17.1564 288.842 17.1579H252.933C251.722 17.1582 250.545 17.551 249.576 18.2776C248.608 19.0041 247.901 20.0251 247.562 21.1874L240.454 45.5537C240.08 46.8363 239.3 47.9631 238.231 48.7648C237.163 49.5665 235.862 49.9999 234.526 50H279.682C281.018 50 282.318 49.5666 283.387 48.7649C284.456 47.9632 285.237 46.8364 285.611 45.5537L292.435 22.16C292.593 21.6573 292.65 21.1281 292.601 20.6032C292.553 20.0784 292.399 19.5684 292.152 19.1032Z" fill="#919EAB"/>
<path d="M238.025 44.8463L245.137 20.48C245.632 18.7955 246.659 17.3161 248.063 16.2623C249.467 15.2084 251.175 14.6365 252.931 14.6316H285.053V13.3684C285.053 12.0284 284.52 10.7432 283.573 9.79567C282.625 8.84812 281.34 8.31579 280 8.31579H260.744C260.368 8.31587 259.996 8.23201 259.656 8.07031C259.316 7.90862 259.016 7.67315 258.779 7.38105L256.296 4.328C255.704 3.60076 254.958 3.01447 254.112 2.61177C253.265 2.20907 252.339 2.00008 251.402 2H237.053C235.713 2 234.427 2.53233 233.48 3.47988C232.532 4.42743 232 5.71259 232 7.05263V44.9474C232 45.6174 232.266 46.26 232.74 46.7337C233.214 47.2075 233.856 47.4737 234.526 47.4737C235.315 47.4715 236.082 47.2145 236.712 46.7411C237.343 46.2676 237.803 45.6029 238.025 44.8463Z" fill="#DFE3E8"/>
<defs>
<linearGradient id="paint0_linear_3_184686" x1="26.1768" y1="181.701" x2="334.942" y2="401.661" gradientUnits="userSpaceOnUse">
<stop stop-color="#C684FF"/>
<stop offset="1" stop-color="#8E33FF"/>
</linearGradient>
<linearGradient id="paint1_linear_3_184686" x1="459" y1="266" x2="599.3" y2="374.366" gradientUnits="userSpaceOnUse">
<stop stop-color="#FDAB76"/>
<stop offset="1" stop-color="#FA541C"/>
</linearGradient>
</defs>
</svg>
