<svg width="500" height="500" viewBox="0 0 500 500" fill="none" xmlns="http://www.w3.org/2000/svg">
  <path opacity="0.32" d="M48 370C48 260.371 69 98 246.5 98C417 98 445 260.371 445 370H48Z" fill="#69ADF7" />
  <path
    d="M152.931 267.42L158.611 263.407L153.184 252.15L146.507 254.095L138.982 245.359L141.894 239.044L131.565 232.009L126.755 237.032L115.871 233.229L115.235 226.303L102.773 225.375L101.119 232.13L89.7911 234.279L85.7781 228.599L74.5211 234.026L76.4651 240.703L67.7291 248.228L61.4141 245.316L54.3791 255.645L59.4021 260.455L55.5991 271.34L48.6741 271.975L47.7461 284.438L54.5011 286.092L56.6501 297.42L50.9701 301.433L56.3971 312.69L63.0741 310.745L70.5991 319.481L67.6861 325.796L78.0151 332.831L82.8251 327.808L93.7101 331.611L94.3451 338.537L106.808 339.465L108.463 332.71L119.791 330.561L123.804 336.241L135.061 330.814L133.116 324.137L141.852 316.612L148.167 319.524L155.202 309.195L150.179 304.385L153.982 293.5L160.907 292.865L161.835 280.402L155.08 278.748L152.931 267.42ZM110.729 310.418C95.2661 313.699 80.0711 303.823 76.7901 288.36C73.5091 272.897 83.3851 257.702 98.8481 254.421C114.311 251.14 129.506 261.016 132.787 276.479C136.068 291.941 126.193 307.137 110.729 310.418Z"
    fill="#A4BBF9" />
  <path
    d="M246.367 162.639L255.462 158.729L251.23 141.45L241.358 142.185L233.461 127.797L239.382 119.864L227.078 107.016L218.896 112.589L204.863 104.077L206.024 94.246L188.945 89.272L184.646 98.189L168.237 97.834L164.327 88.739L147.048 92.97L147.783 102.842L133.396 110.739L125.463 104.818L112.615 117.122L118.188 125.304L109.676 139.337L99.8449 138.176L94.8699 155.256L103.787 159.555L103.432 175.963L94.3369 179.873L98.5679 197.152L108.44 196.417L116.337 210.805L110.415 218.738L122.719 231.586L130.901 226.013L144.934 234.525L143.772 244.356L160.852 249.331L165.152 240.414L181.56 240.769L185.47 249.864L202.749 245.633L202.014 235.761L216.402 227.864L224.336 233.785L237.184 221.481L231.611 213.299L240.123 199.266L249.954 200.427L254.929 183.347L246.011 179.048L246.367 162.639ZM174.899 210.044C152.398 210.044 134.157 191.803 134.157 169.301C134.157 146.799 152.398 128.559 174.899 128.559C197.4 128.559 215.642 146.8 215.642 169.301C215.642 191.802 197.401 210.044 174.899 210.044Z"
    fill="#A4BBF9" />
  <path
    d="M265.814 365.169C333.625 365.169 388.597 310.197 388.597 242.386C388.597 174.575 333.625 119.603 265.814 119.603C198.003 119.603 143.031 174.575 143.031 242.386C143.031 310.197 198.003 365.169 265.814 365.169Z"
    stroke="white" stroke-width="3.4444" stroke-miterlimit="10" stroke-dasharray="13.78 13.78" />
  <path
    d="M454.991 260.742C455.539 271.435 431.205 274.378 397.263 278.52C363.321 282.661 329.426 304.466 329.426 304.466C329.426 304.466 347.018 261.309 388.978 248.599C430.938 235.89 454.456 250.316 454.991 260.742Z"
    fill="#82AD85" />
  <path d="M441.361 258.875C441.361 258.875 372.498 245.771 329.426 304.466" stroke="white" stroke-width="0.9219"
    stroke-miterlimit="10" stroke-linecap="round" />
  <path d="M437.886 250.857L429.697 257.735L437.886 265.672" stroke="white" stroke-width="0.9219" stroke-miterlimit="10"
    stroke-linecap="round" />
  <path d="M419.445 246.406L407.699 258.709L423.454 269.832" stroke="white" stroke-width="0.9219" stroke-miterlimit="10"
    stroke-linecap="round" />
  <path d="M395.468 250.857L387.855 262.937L399.667 274.044" stroke="white" stroke-width="0.9219" stroke-miterlimit="10"
    stroke-linecap="round" />
  <path d="M355.569 274.044L353.195 280.317L357.345 283.638" stroke="white" stroke-width="0.9219" stroke-miterlimit="10"
    stroke-linecap="round" />
  <path
    d="M388.443 181.636C387.876 179.681 367.864 186.981 367.864 186.981C367.864 186.981 368.468 203.864 366.562 204.108C364.657 204.353 353.196 195.565 353.196 195.565C353.196 195.565 336.688 207.381 329.425 223.639C329.425 223.639 339.267 234.543 338.732 237.488C338.198 240.433 319.757 243.503 319.757 243.503C319.757 243.503 316.673 258.751 317.547 272.041C317.547 272.041 326.706 274.909 326.706 276.245C326.706 277.581 317.391 284.53 317.391 284.53C317.391 284.53 316.004 300.298 318.014 302.704C320.024 305.109 337.396 296.022 337.396 296.022C337.396 296.022 338.134 284.797 340.304 282.659C342.474 280.521 351.977 288.806 351.977 288.806C351.977 288.806 367.725 274.071 373.807 265.67C379.89 257.269 380.544 253.622 380.544 253.622C380.544 253.622 366.061 246.306 366.561 243.503C367.061 240.7 388.442 237.488 388.442 237.488C388.442 237.488 391.649 221.03 391.649 211.489C391.649 211.489 378.019 212.583 377.217 210.072C376.415 207.561 391.649 197.258 391.649 197.258C391.649 197.258 390.848 189.921 388.443 181.636Z"
    fill="#8BBB90" />
  <path d="M383.632 186.982C383.632 186.982 346.997 255.56 318.014 302.706" stroke="white" stroke-width="0.9219"
    stroke-miterlimit="10" stroke-linecap="round" />
  <path
    d="M446.511 290.26C446.82 291.952 421.614 330.181 380.058 332.988C338.501 335.796 320.751 313.916 320.751 313.916C320.751 313.916 340.829 286.141 374.526 280.308C408.223 274.477 446.05 287.737 446.511 290.26Z"
    fill="#8BBB90" />
  <path d="M320.751 313.917C320.751 313.917 382.838 297.513 430.078 294.683" stroke="white" stroke-width="0.9219"
    stroke-miterlimit="10" stroke-linecap="round" />
  <path d="M418.448 286.381L410.894 296.43L422.402 304.622" stroke="white" stroke-width="0.9219" stroke-miterlimit="10"
    stroke-linecap="round" />
  <path d="M402.145 285.263L393.224 298.859L408.493 313.797" stroke="white" stroke-width="0.9219" stroke-miterlimit="10"
    stroke-linecap="round" />
  <path d="M357.154 293.858L349.915 307.018L357.937 320.803" stroke="white" stroke-width="0.9219" stroke-miterlimit="10"
    stroke-linecap="round" />
  <path d="M380.078 328.484C380.078 328.484 379.852 336.783 381.409 342.348" stroke="#BA5454" stroke-width="0.9219"
    stroke-miterlimit="10" stroke-linecap="round" />
  <path
    d="M168.593 212.341C168.011 210.706 167.554 202.135 167.554 202.135V168.025C167.554 162.718 163.252 158.417 157.946 158.417H74.1441C68.8381 158.417 64.5361 162.719 64.5361 168.025V216.191C64.5361 221.497 68.8381 225.799 74.1441 225.799H149.278H157.946H181.194C181.194 225.799 170.403 217.423 168.593 212.341Z"
    fill="#69ADF7" />
  <path
    d="M97.3126 189.86C100.311 186.862 100.311 182.001 97.3126 179.003C94.3145 176.005 89.4538 176.005 86.4558 179.003C83.4577 182.001 83.4577 186.862 86.4558 189.86C89.4538 192.858 94.3145 192.858 97.3126 189.86Z"
    fill="#1F3E56" />
  <path
    d="M78.9834 208.587C78.9834 201.461 84.7604 195.684 91.8864 195.684C99.0124 195.684 104.789 201.461 104.789 208.587H78.9834Z"
    fill="#1F3E56" />
  <path
    d="M155.347 184.432H111.438C110.075 184.432 108.97 183.327 108.97 181.964C108.97 180.601 110.075 179.496 111.438 179.496H155.347C156.71 179.496 157.815 180.601 157.815 181.964C157.815 183.327 156.71 184.432 155.347 184.432Z"
    fill="#1F3E56" />
  <path
    d="M155.347 193.625H111.438C110.075 193.625 108.97 192.52 108.97 191.157C108.97 189.794 110.075 188.689 111.438 188.689H155.347C156.71 188.689 157.815 189.794 157.815 191.157C157.815 192.52 156.71 193.625 155.347 193.625Z"
    fill="#1F3E56" />
  <path
    d="M132.855 203.82H111.438C110.075 203.82 108.97 202.715 108.97 201.352C108.97 199.989 110.075 198.884 111.438 198.884H132.855C134.218 198.884 135.323 199.989 135.323 201.352C135.322 202.715 134.217 203.82 132.855 203.82Z"
    fill="#1F3E56" />
  <path
    d="M167.554 169.301H64.5361V167.931C64.5361 162.677 68.7951 158.418 74.0491 158.418H158.04C163.294 158.418 167.554 162.677 167.554 167.931V169.301Z"
    fill="#1F3E56" />
  <path
    d="M145.676 166.879C147.138 166.879 148.322 165.694 148.322 164.233C148.322 162.772 147.138 161.587 145.676 161.587C144.215 161.587 143.03 162.772 143.03 164.233C143.03 165.694 144.215 166.879 145.676 166.879Z"
    fill="white" />
  <path
    d="M156.995 164.233C156.995 165.694 155.811 166.879 154.349 166.879C152.888 166.879 151.703 165.694 151.703 164.233C151.703 162.772 152.887 161.587 154.349 161.587C155.811 161.587 156.995 162.771 156.995 164.233Z"
    fill="white" />
  <path
    d="M137.003 166.879C138.465 166.879 139.649 165.694 139.649 164.233C139.649 162.772 138.465 161.587 137.003 161.587C135.542 161.587 134.357 162.772 134.357 164.233C134.357 165.694 135.542 166.879 137.003 166.879Z"
    fill="white" />
  <path
    d="M283.694 164.979H213.608C210.328 164.979 207.668 162.32 207.668 159.039V135.863C207.668 132.582 210.327 129.923 213.608 129.923H283.694C286.975 129.923 289.634 132.582 289.634 135.863V159.039C289.634 162.319 286.974 164.979 283.694 164.979Z"
    fill="#CC8C40" />
  <path
    d="M283.816 164.979H216.823C213.61 164.979 211.005 162.374 211.005 159.161V135.741C211.005 132.528 213.61 129.923 216.823 129.923H283.816C287.029 129.923 289.634 132.528 289.634 135.741V159.161C289.634 162.374 287.029 164.979 283.816 164.979Z"
    fill="#F4B247" />
  <path
    d="M211.006 135.741C211.006 135.741 229.176 164.979 276.425 164.979H216.555C213.491 164.979 211.007 162.495 211.007 159.431V135.741H211.006Z"
    fill="#E5A345" />
  <path
    d="M269.989 129.923L283.368 132.633C283.368 132.633 287.432 133.598 287.432 138.111C287.432 142.624 287.432 163.713 287.432 163.713C287.432 163.713 289.634 162.149 289.634 159.161C289.634 156.172 289.634 135.741 289.634 135.741C289.634 135.741 289.345 129.923 283.816 129.923C278.287 129.923 269.989 129.923 269.989 129.923Z"
    fill="#F2CD70" />
  <path
    d="M223.299 154.877V139.34H226.436V145.455H232.583V139.34H235.72V154.877H232.583V148.083H226.436V154.877H223.299Z"
    fill="white" />
  <path d="M238.963 154.877V139.34H250.483V141.968H242.1V145.413H249.9V148.031H242.1V152.259H250.78V154.877H238.963Z"
    fill="white" />
  <path d="M253.524 154.877V139.467H256.661V152.259H264.462V154.877H253.524Z" fill="white" />
  <path
    d="M266.699 154.877V139.34H271.732C273.64 139.34 274.883 139.418 275.462 139.573C276.353 139.806 277.099 140.313 277.698 141.094C278.299 141.875 278.599 142.884 278.599 144.12C278.599 145.074 278.426 145.875 278.079 146.526C277.732 147.176 277.293 147.686 276.76 148.057C276.227 148.428 275.684 148.674 275.133 148.793C274.384 148.941 273.299 149.016 271.879 149.016H269.834V154.877H266.699ZM269.836 141.968V146.377H271.553C272.789 146.377 273.616 146.296 274.033 146.133C274.449 145.971 274.776 145.716 275.013 145.37C275.249 145.024 275.367 144.621 275.367 144.161C275.367 143.596 275.2 143.13 274.869 142.762C274.536 142.395 274.116 142.165 273.608 142.073C273.233 142.003 272.48 141.967 271.35 141.967H269.836V141.968Z"
    fill="white" />
  <path
    d="M309.368 141.322C316.417 141.322 322.131 135.608 322.131 128.559C322.131 121.51 316.417 115.796 309.368 115.796C302.32 115.796 296.605 121.51 296.605 128.559C296.605 135.608 302.32 141.322 309.368 141.322Z"
    fill="#A4BBF9" />
  <path d="M301.484 112.247L293.763 96.8011L302.198 94.1321L304.768 111.208L301.484 112.247Z" fill="#A4BBF9" />
  <path d="M326.143 120.702L342.68 115.73L343.871 124.496L326.607 124.115L326.143 120.702Z" fill="#A4BBF9" />
  <path d="M316.31 111.628L322.664 95.572L330.28 100.074L319.275 113.381L316.31 111.628Z" fill="#A4BBF9" />
  <path d="M474 407.711H24L52.671 370.558H445.329L474 407.711Z" fill="#1B4B52" />
  <path d="M463.815 417.896H34.185C28.56 417.896 24 413.336 24 407.711H474C474 413.336 469.44 417.896 463.815 417.896Z"
    fill="#153C3F" />
  <path
    d="M212.098 302.22L200.984 309.716C200.984 309.716 200.457 277.633 201.312 258.898C202.167 240.163 203.386 231.474 204.268 227.298C205.15 223.122 206.614 220.256 234.201 218.161L212.098 302.22Z"
    fill="#151230" />
  <path
    d="M212.098 302.22C212.709 281 215.293 243.621 215.945 234.767C216.596 225.913 212.494 215.572 272.616 216.022C332.738 216.472 331.698 215.447 332.151 239.624C332.604 263.801 334.357 303.996 334.357 303.996C334.357 303.996 307.248 309.068 278.088 311.485C248.928 313.901 212.098 302.22 212.098 302.22Z"
    fill="#211944" />
  <path d="M226.115 262.38C226.115 262.38 281.575 258.412 321.862 260.221" stroke="white" stroke-width="0.9219"
    stroke-miterlimit="10" stroke-linecap="round" />
  <path
    d="M258.188 273.216C258.188 273.216 249.716 274.852 244.111 276.46C238.505 278.068 224.726 284.606 218.678 300.766C212.63 316.926 199.236 373.633 199.236 373.633C199.236 373.633 241.815 380.623 278.763 380.46C315.71 380.297 351.352 370.418 351.352 370.418C351.352 370.418 331.942 306.744 328.211 296.298C324.48 285.852 315.856 276.61 305.097 274.154C294.338 271.699 288.273 271.152 288.273 271.152L258.188 273.216Z"
    fill="#FBD995" />
  <path
    d="M267.523 185.207C255.547 186.816 244.814 197.646 246.846 221.18C248.878 244.715 257.389 254.676 273.724 255.063C290.059 255.45 298.125 236.001 296.368 215.935C294.612 195.871 286.947 182.598 267.523 185.207Z"
    fill="#EC6B65" />
  <path
    d="M246.705 219.185C246.705 219.185 243.444 220.815 242.899 217.859C242.354 214.903 240.975 200.313 243.204 193.222C245.433 186.131 250.445 182.722 257.504 181.245C264.562 179.768 291.455 176.699 295.989 185.419C300.523 194.139 299.9 214.207 299.9 214.207C299.9 214.207 298.827 216.868 296.37 215.937C296.37 215.937 294.974 184.337 271.795 184.889C247.971 185.455 246.392 208.827 246.705 219.185Z"
    fill="#1F3E56" />
  <path
    d="M272.234 214.162C272.234 214.162 274.678 225.885 274.682 227.805C274.687 229.725 272.552 231.257 272.552 231.257"
    stroke="#BA5454" stroke-width="0.9219" stroke-miterlimit="10" stroke-linecap="round" />
  <path
    d="M262.356 236.495L281.287 238.007C281.287 238.007 278.559 245.108 271.274 244.054C264.027 243.005 262.356 236.495 262.356 236.495Z"
    fill="white" />
  <path
    d="M263.151 219.966C262.999 221.045 262.001 221.798 260.922 221.646C259.843 221.495 259.09 220.497 259.242 219.417C259.394 218.337 260.392 217.585 261.471 217.737C262.55 217.889 263.303 218.887 263.151 219.966Z"
    fill="#1F3E56" />
  <path d="M258.395 213.734C258.395 213.734 260.08 211.642 264.163 212.763" stroke="#1F3E56" stroke-width="2.2963"
    stroke-miterlimit="10" stroke-linecap="round" />
  <path d="M252.387 223.638C252.387 223.638 256.154 224.107 258.448 225.801" stroke="#BA5454" stroke-width="0.9219"
    stroke-miterlimit="10" stroke-linecap="round" />
  <path
    d="M244.802 212.499C244.802 212.499 243.204 193.222 247.437 188.469C253.313 181.869 257.505 181.245 257.505 181.245C257.505 181.245 258.28 178.642 258.825 177.788C258.825 177.788 246.323 180.72 243.412 189.549C240.501 198.378 242.389 213.58 242.389 213.58L244.802 212.499Z"
    fill="#69ADF7" />
  <path
    d="M298.077 209.69C298.077 209.69 297.519 190.355 292.785 186.103C286.211 180.198 281.976 180.044 281.976 180.044C281.976 180.044 280.916 177.543 280.28 176.756C280.28 176.756 293.03 178.279 296.906 186.729C300.782 195.179 300.597 210.496 300.597 210.496L298.077 209.69Z"
    fill="#69ADF7" />
  <path
    d="M246.852 212.379C246.852 212.379 240.939 211.443 239.337 218.882C237.735 226.32 241.332 234.544 248.651 232.878C248.651 232.878 246.2 224.077 246.852 212.379Z"
    fill="#69ADF7" />
  <path opacity="0.27"
    d="M239.012 221.194C239.012 221.194 245.448 223.785 248.65 232.877C248.65 232.877 238.741 234.909 239.012 221.194Z"
    fill="#69ADF7" />
  <path
    d="M295.556 209.221C295.556 209.221 301.334 207.655 303.726 214.879C306.118 222.102 303.425 230.665 295.97 229.794C295.97 229.794 297.461 220.781 295.556 209.221Z"
    fill="#69ADF7" />
  <path opacity="0.27"
    d="M304.298 217.143C304.298 217.143 298.178 220.411 295.971 229.794C295.971 229.794 306.04 230.749 304.298 217.143Z"
    fill="#69ADF7" />
  <path
    d="M244.742 232.585C244.742 232.585 244.371 230.609 241.745 230.708C241.745 230.708 238.355 242.519 244.191 245.727C250.027 248.935 265.335 247.061 265.335 247.061L265.733 244.225C265.733 244.225 252.267 244.849 247.211 243.134C242.156 241.419 244.742 232.585 244.742 232.585Z"
    fill="#69ADF7" />
  <path
    d="M265.457 241.368C263.447 242.089 262.22 243.133 262.273 244.32C262.326 245.507 262.092 249.253 265.005 249.407C267.918 249.561 274.152 249.933 275.894 249.172C277.635 248.411 278.042 241.93 275.542 241.83C273.041 241.731 267.022 240.807 265.457 241.368Z"
    fill="#69ADF7" />
  <path
    d="M261.159 252.05L258.188 273.216C258.188 273.216 265.875 278.444 274.447 277.384C283.02 276.324 288.272 271.152 288.272 271.152L284.544 251.83L261.159 252.05Z"
    fill="#EC6B65" />
  <path
    d="M261.159 252.05C261.159 252.05 265.943 255.264 273.724 255.064C281.506 254.864 284.544 251.831 284.544 251.831L285.654 257.583C285.654 257.583 281.082 261.468 273.388 261.646C265.694 261.823 260.317 258.051 260.317 258.051L261.159 252.05Z"
    fill="#B25252" />
  <path
    d="M367.414 222.766C365.15 224.046 365.227 227.258 366.289 230.78C367.351 234.302 370.843 251.005 370.843 251.005C370.843 251.005 372.159 261.956 374.545 264.366C374.545 264.366 380.435 327.514 380.077 328.484C379.719 329.454 363.619 317.65 363.619 317.65L346.235 352.943C346.235 352.943 371.075 379.958 396.478 369.762C421.881 359.567 410.08 309.236 405.707 289.788C401.334 270.34 398.682 265.516 398.682 265.516C398.682 265.516 401.285 262.786 400.525 257.131C399.765 251.475 395.091 239.055 394.49 238.527C393.889 237.999 374.96 236.864 374.96 236.864C374.96 236.864 372.51 229.019 371.961 226.604C371.412 224.189 368.554 222.121 367.414 222.766Z"
    fill="#EC6B65" />
  <path
    d="M188.62 323.997L214.724 343.526C214.724 343.526 196.699 375.61 185.917 375.358C175.135 375.107 166.457 367.578 167.667 356.39C168.877 345.203 188.62 323.997 188.62 323.997Z"
    fill="#EC6B65" />
  <path
    d="M199.774 342.148C199.774 342.148 247.981 355.766 262.835 359.113C277.689 362.46 288.142 362.485 298.157 369.48C308.172 376.475 309.928 381.949 307.056 384.431C307.056 384.431 303.883 387.771 300.694 384.8C300.694 384.8 299.134 386.925 296.228 385.796C293.322 384.667 291.293 381.137 287.304 381.298C283.315 381.459 283.161 385.404 272.297 384.96C261.432 384.517 185.756 378.925 178.551 373.937C171.345 368.949 173.061 342.365 199.774 342.148Z"
    fill="#EC6B65" />
  <path d="M293.376 375.647C293.376 375.647 299.415 379.811 300.694 384.8" stroke="#BA5454" stroke-width="0.9219"
    stroke-miterlimit="10" stroke-linecap="round" />
  <path d="M298.767 373.328C298.767 373.328 305.387 379.482 307.056 384.431" stroke="#BA5454" stroke-width="0.9219"
    stroke-miterlimit="10" stroke-linecap="round" />
  <path
    d="M186.631 322.506L215.86 344.407C215.86 344.407 244.771 295.688 244.112 276.46C244.112 276.46 231.817 278.278 217.808 291.194C203.799 304.11 186.631 322.506 186.631 322.506Z"
    fill="#FBD995" />
  <path
    d="M312.297 276.944C312.297 276.944 335.399 290.098 365.047 315.285L346.236 352.942C346.236 352.942 308.335 303.902 305.2 291.413C302.065 278.926 312.297 276.944 312.297 276.944Z"
    fill="#FBD995" />
  <path
    d="M257.32 182.52C257.695 177.707 261.073 174.342 265.156 171.625C269.239 168.908 274.059 168.762 274.677 170.219C275.295 171.677 274.205 173.58 274.205 173.58C274.205 173.58 284.639 168.601 289.373 172.967C294.107 177.334 294.586 184.667 293.534 186.302C292.482 187.937 287.061 185.531 287.061 185.531C287.061 185.531 290.536 193.011 286.221 195.422C281.906 197.833 273.124 194.955 269.402 188.262C269.402 188.262 256.548 192.436 257.32 182.52Z"
    fill="#1F3E56" />
  <path
    d="M281.724 219.966C281.876 221.045 282.874 221.798 283.953 221.646C285.032 221.495 285.785 220.497 285.633 219.417C285.481 218.337 284.483 217.585 283.404 217.737C282.325 217.889 281.573 218.887 281.724 219.966Z"
    fill="#1F3E56" />
  <path d="M286.481 213.734C286.481 213.734 284.796 211.642 280.713 212.763" stroke="#1F3E56" stroke-width="2.2963"
    stroke-miterlimit="10" stroke-linecap="round" />
  <path d="M290.596 223.638C290.596 223.638 286.829 224.107 284.535 225.801" stroke="#BA5454" stroke-width="0.9219"
    stroke-miterlimit="10" stroke-linecap="round" />
  <path
    d="M370.844 251.005C368.3 250.012 367.164 262.189 373.204 261.939C379.244 261.689 387.875 257.13 388.429 254.766C388.983 252.402 381.11 251.561 378.005 251.548C374.899 251.536 373.663 252.105 370.844 251.005Z"
    fill="#EC6B65" />
  <path
    d="M370.844 251.005C370.844 251.005 372.421 251.782 374.961 251.667C377.501 251.552 385.258 251.317 388.142 253.794C391.026 256.271 379.258 260.656 379.258 260.656"
    stroke="#BA5454" stroke-width="0.9219" stroke-miterlimit="10" stroke-linecap="round" />
  <path
    d="M325.444 309.815H320.871C316.116 309.815 312.01 313.142 311.024 317.793L294.964 393.529H307.385L325.444 309.815Z"
    fill="#151230" />
  <path
    d="M429.164 393.53H300.688L315.974 317.568C316.882 313.059 320.843 309.815 325.443 309.815H434.215C440.315 309.815 444.887 315.399 443.684 321.379L429.164 393.53Z"
    fill="#211944" />
  <path d="M300.689 393.53H243.149C239.002 393.53 235.64 390.168 235.64 386.021V384.979H302.41L300.689 393.53Z"
    fill="#151230" />
  <path
    d="M376.697 367.779C382.995 367.779 388.1 362.674 388.1 356.376C388.1 350.078 382.995 344.973 376.697 344.973C370.399 344.973 365.294 350.078 365.294 356.376C365.294 362.674 370.399 367.779 376.697 367.779Z"
    fill="#6B94F7" />
  <path
    d="M374.961 236.863C374.961 236.863 377.606 252.803 379.94 253.575C382.273 254.346 390.424 253.955 393.549 253.761C396.674 253.568 399.555 252.16 399.176 248.234C398.794 244.273 396.236 236.74 393.021 235.92C389.807 235.1 375.202 231.982 374.961 236.863Z"
    fill="#EC6B65" />
  <path d="M380.784 234.184L385.962 254.033" stroke="#BA5454" stroke-width="0.9219" stroke-miterlimit="10"
    stroke-linecap="round" />
  <path d="M388.229 234.921L393.011 253.793" stroke="#BA5454" stroke-width="0.9219" stroke-miterlimit="10"
    stroke-linecap="round" />
  <path
    d="M375.349 239.036C375.349 239.036 377.479 251.051 379.258 252.953C381.037 254.855 393.548 253.761 393.548 253.761"
    stroke="#BA5454" stroke-width="0.9219" stroke-miterlimit="10" stroke-linecap="round" />
  <path
    d="M169.25 308.808H84.0639C84.0639 308.808 80.2939 309.145 80.2939 328.717V389.559H157.18C157.18 389.559 162.813 387.994 162.813 371.943C162.813 371.943 162.813 329.279 162.813 325.478C162.813 321.675 163.054 308.808 169.25 308.808Z"
    fill="#6B94F7" />
  <path
    d="M169.249 308.808C171.279 308.808 171.73 317.129 171.73 321.864C171.73 326.6 171.73 332.914 171.73 332.914H162.813V325.477C162.813 325.477 162.258 308.808 169.249 308.808Z"
    fill="#5A80CC" />
  <path
    d="M148.726 330.813H92.3529C91.3549 330.813 90.5469 330.004 90.5469 329.007V328.632C90.5469 327.634 91.3559 326.826 92.3529 326.826H148.726C149.724 326.826 150.532 327.635 150.532 328.632V329.007C150.532 330.004 149.724 330.813 148.726 330.813Z"
    fill="#1F3E56" />
  <path
    d="M148.726 344.099H92.3529C91.3549 344.099 90.5469 343.29 90.5469 342.293V341.918C90.5469 340.92 91.3559 340.112 92.3529 340.112H148.726C149.724 340.112 150.532 340.921 150.532 341.918V342.293C150.532 343.291 149.724 344.099 148.726 344.099Z"
    fill="#1F3E56" />
  <path
    d="M148.726 357.386H92.3529C91.3549 357.386 90.5469 356.577 90.5469 355.58V355.205C90.5469 354.207 91.3559 353.399 92.3529 353.399H148.726C149.724 353.399 150.532 354.208 150.532 355.205V355.58C150.532 356.577 149.724 357.386 148.726 357.386Z"
    fill="#1F3E56" />
  <path
    d="M148.726 370.672H92.3529C91.3549 370.672 90.5469 369.863 90.5469 368.866V368.491C90.5469 367.493 91.3559 366.685 92.3529 366.685H148.726C149.724 366.685 150.532 367.494 150.532 368.491V368.866C150.532 369.863 149.724 370.672 148.726 370.672Z"
    fill="#1F3E56" />
  <path
    d="M69.3477 367.417H148.954C148.954 367.417 147.141 389.558 157.181 389.558H80.2947C80.2947 389.558 69.3477 387.488 69.3477 367.417Z"
    fill="#80AAFF" />
  <path
    d="M378.541 165.035H328.294C324.727 165.035 321.835 167.927 321.835 171.494V192.739C320.24 201.287 308.966 210.905 308.966 210.905C322.019 210.363 329.693 207.255 329.693 207.255H378.542C382.109 207.255 385.001 204.363 385.001 200.796V171.494C385 167.926 382.108 165.035 378.541 165.035Z"
    fill="white" />
  <path
    d="M356.766 186.324C356.766 188.658 354.874 190.55 352.54 190.55C350.206 190.55 348.314 188.658 348.314 186.324C348.314 183.99 350.206 182.098 352.54 182.098C354.874 182.098 356.766 183.99 356.766 186.324Z"
    fill="#1F3E56" />
  <path
    d="M370.62 186.324C370.62 188.658 368.728 190.55 366.394 190.55C364.06 190.55 362.168 188.658 362.168 186.324C362.168 183.99 364.06 182.098 366.394 182.098C368.728 182.098 370.62 183.99 370.62 186.324Z"
    fill="#1F3E56" />
  <path
    d="M338.686 190.55C341.02 190.55 342.912 188.658 342.912 186.324C342.912 183.99 341.02 182.098 338.686 182.098C336.352 182.098 334.46 183.99 334.46 186.324C334.46 188.658 336.352 190.55 338.686 190.55Z"
    fill="#1F3E56" />
</svg>