<?xml version="1.0" encoding="UTF-8"?>
<svg xmlns="http://www.w3.org/2000/svg" id="Layer_1" data-name="Layer 1" viewBox="0 0 24 24">
  <path
    d="m3,5.5c0-.828.672-1.5,1.5-1.5s1.5.672,1.5,1.5-.672,1.5-1.5,1.5-1.5-.672-1.5-1.5Zm5.5,1.5c.828,0,1.5-.672,1.5-1.5s-.672-1.5-1.5-1.5-1.5.672-1.5,1.5.672,1.5,1.5,1.5Zm15.5-1v12c0,2.757-2.243,5-5,5H5c-2.757,0-5-2.243-5-5V6C0,3.243,2.243,1,5,1h14c2.757,0,5,2.243,5,5Zm-22,0v2h20v-2c0-1.654-1.346-3-3-3H5c-1.654,0-3,1.346-3,3Zm20,12v-8H2v8c0,1.654,1.346,3,3,3h14c1.654,0,3-1.346,3-3Zm-6-6c-.552,0-1,.448-1,1v5c0,.552.448,1,1,1s1-.448,1-1v-5c0-.552-.448-1-1-1Zm-4,0c-.552,0-1,.448-1,1v3c0,.551-.449,1-1,1s-1-.449-1-1v-3c0-.552-.448-1-1-1s-1,.448-1,1v3c0,1.654,1.346,3,3,3s3-1.346,3-3v-3c0-.552-.448-1-1-1Z" />
</svg>