<?xml version="1.0" encoding="UTF-8"?>
<svg xmlns="http://www.w3.org/2000/svg" id="Layer_1" data-name="Layer 1" viewBox="0 0 24 24">
  <path d="m19.18,7.494c-.529-.203-.941-.555-1.191-1.018-1.775-3.298-5.461-5.035-9.175-4.313-3.29.636-5.954,3.267-6.629,6.545-.177.86-.227,1.729-.148,2.584.062.674-.335,1.215-.577,1.478-.941,1.018-1.459,2.343-1.459,3.73,0,3.032,2.243,5.5,5,5.5h11.278c3.959,0,7.336-2.981,7.689-6.787.311-3.348-1.658-6.521-4.787-7.719Zm2.796,7.534c-.259,2.788-2.761,4.972-5.698,4.972H5c-1.654,0-3-1.57-3-3.5,0-.883.33-1.726.929-2.374.808-.876,1.199-1.948,1.099-3.02-.061-.656-.022-1.328.116-1.994.515-2.498,2.544-4.501,5.05-4.986.43-.083.859-.123,1.283-.123,2.386,0,4.598,1.279,5.751,3.421h0c.474.88,1.268,1.567,2.237,1.938,2.295.879,3.738,3.209,3.511,5.667Zm-11.389,1.72c.391.391.391,1.023,0,1.414-.195.195-.451.293-.707.293s-.512-.098-.707-.293l-2.44-2.44c-.472-.473-.732-1.1-.732-1.768s.26-1.297.733-1.769l2.394-2.394c.391-.391,1.023-.391,1.414,0s.391,1.023,0,1.414l-2.394,2.395c-.127.128-.146.276-.146.354s.019.226.146.354l2.44,2.44Zm6.681-4.562c.472.471.732,1.099.732,1.768s-.26,1.295-.732,1.768l-2.44,2.44c-.195.195-.451.293-.707.293s-.512-.098-.707-.293c-.391-.391-.391-1.023,0-1.414l2.44-2.44c.127-.128.146-.276.146-.354s-.019-.226-.146-.353l-2.395-2.396c-.391-.391-.391-1.023,0-1.414s1.023-.391,1.414,0l2.394,2.395Z"/>
</svg>
