<svg width="106" height="32" viewBox="0 0 106 32" fill="none" xmlns="http://www.w3.org/2000/svg">
<g clip-path="url(#clip0_3_183433)">
<mask id="mask0_3_183433" style="mask-type:alpha" maskUnits="userSpaceOnUse" x="0" y="0" width="106" height="33">
<rect y="0.000244141" width="106" height="32" fill="#919EAB"/>
</mask>
<g mask="url(#mask0_3_183433)">
<path fill-rule="evenodd" clip-rule="evenodd" d="M33.0533 22.1184C33.1014 22.2363 33.1495 22.3541 33.1976 22.4689C33.5748 23.5359 33.6908 24.5444 33.4603 25.5533C33.1408 27.6867 31.7189 29.5311 29.6871 30.3389C28.9616 30.6562 28.1492 30.8002 27.3365 30.8002C27.1043 30.8002 26.8138 30.7717 26.5815 30.7424C25.6239 30.6272 24.6375 30.3104 23.6793 29.7626C22.5184 29.0993 21.3574 28.1484 20.0806 26.7646C18.8037 28.1484 17.6718 29.0993 16.4819 29.7626C15.5239 30.3104 14.5373 30.6272 13.5793 30.7424C13.3468 30.7714 13.0568 30.8002 12.8246 30.8002C12.0122 30.8002 11.2285 30.6562 10.4738 30.3389C8.4709 29.5311 7.02006 27.7155 6.70083 25.5533C6.55529 24.5151 6.67155 23.5059 7.04905 22.4395C7.19402 22.0648 7.33899 21.7189 7.48395 21.4016C7.58717 21.1712 7.69045 20.9464 7.79116 20.7272C7.91705 20.4532 8.03893 20.188 8.15168 19.9313L8.18096 19.874C10.1836 15.5498 12.3601 11.168 14.595 6.84402L14.6822 6.67065C14.9198 6.22179 15.1519 5.77009 15.3784 5.31563C15.6683 4.79638 15.9878 4.24862 16.4233 3.72994C17.3807 2.6347 18.6865 2.00024 20.138 2.00024C21.5598 2.00024 22.895 2.6347 23.8237 3.78782C24.2518 4.26643 24.5316 4.76877 24.8003 5.25109L24.8686 5.37352C25.0945 5.82826 25.3266 6.27997 25.5647 6.72853L25.6517 6.90191C27.9158 11.2259 30.0631 15.6074 32.066 19.9319L32.095 19.9607C32.2084 20.2187 32.331 20.4859 32.4578 20.762C32.5576 20.9794 32.66 21.2024 32.7624 21.4309C32.8593 21.643 32.9563 21.8808 33.0533 22.1184ZM55.6021 9.23674C55.6021 10.2747 54.7601 11.1104 53.7152 11.1104C52.6702 11.1104 51.8288 10.2747 51.8288 9.23674C51.8288 8.19881 52.6415 7.36305 53.7152 7.36305C54.7897 7.39185 55.6021 8.22789 55.6021 9.23674ZM47.8232 13.0133V13.4747C47.8232 13.4747 46.9238 12.321 45.0082 12.321C41.845 12.321 39.3776 14.7139 39.3776 18.029C39.3776 21.3156 41.816 23.7371 45.0082 23.7371C46.9528 23.7371 47.8232 22.5551 47.8232 22.5551V23.045C47.8232 23.2757 47.9978 23.4482 48.2297 23.4482H50.5802V12.6084H48.2297C47.9978 12.6093 47.8232 12.8114 47.8232 13.0133ZM45.4741 21.1429C46.5188 21.1429 47.3897 20.5952 47.8246 19.9607V16.0976C47.4187 15.4922 46.4901 14.9156 45.4741 14.9156C43.6168 14.9156 42.1944 16.0688 42.1944 18.0291C42.1944 19.9898 43.6168 21.1429 45.4741 21.1429ZM52.3233 12.6094H55.1093V23.4492H52.3233V12.6094ZM91.1268 13.4745C91.1268 13.4745 92.0267 12.3208 93.9423 12.3208C97.0766 12.3208 99.5434 14.7434 99.5434 18.03C99.5434 21.3166 97.0766 23.7375 93.9128 23.7375C91.9977 23.7375 91.0978 22.5555 91.0978 22.5555V23.0454C91.0978 23.2473 90.9241 23.4492 90.6919 23.4492H88.3408V7.39178H91.1268V13.4745ZM93.4779 21.1138C92.4036 21.1138 91.5623 20.5667 91.1268 19.9319V16.0688C91.5623 15.4922 92.4909 14.8868 93.4779 14.8868C95.3352 14.8868 96.7573 16.04 96.7573 18.0003C96.7573 19.9607 95.3355 21.1138 93.4779 21.1138ZM86.8889 23.4779V17.0205C86.8889 15.2041 86.5111 14.1665 85.5247 13.3592C84.712 12.6674 83.6961 12.321 82.4769 12.321C81.4032 12.321 80.3296 12.6384 79.5169 13.4747V13.0133C79.5169 12.8114 79.3427 12.6096 79.1104 12.6096H76.9054V23.4494H79.6909V15.8961C80.2432 15.2617 81.1142 14.8291 81.9556 14.8291C83.5218 14.8291 84.1023 15.5503 84.1023 17.3373V23.4779H86.8889ZM70.1431 12.3208C68.2281 12.3208 67.3281 13.4745 67.3281 13.4745V7.39178H64.5421V23.4492H66.8927C67.1249 23.4492 67.2991 23.2473 67.2991 23.0454V22.5555C67.2991 22.5555 68.1991 23.7375 70.1142 23.7375C73.2779 23.7375 75.7447 21.3166 75.7447 18.03C75.7737 14.7431 73.3069 12.3208 70.1431 12.3208ZM67.3281 19.9319C67.7636 20.5667 68.605 21.1138 69.6787 21.1138C71.5366 21.1138 72.9584 19.9607 72.9584 18.0003C72.9584 16.04 71.5366 14.8868 69.6787 14.8868C68.6923 14.8868 67.7636 15.4922 67.3281 16.0688V19.9319ZM62.133 12.3208C62.9744 12.3208 63.4099 12.4654 63.4099 12.4654V15.0308C63.4099 15.0308 61.0881 14.2524 59.6373 15.896V23.4777H56.8507V12.6094H59.2018C59.434 12.6094 59.6077 12.8113 59.6077 13.0131V13.4745C60.1307 12.8689 61.2627 12.3208 62.133 12.3208ZM20.1087 23.9679C18.5413 22.0075 17.5253 20.1626 17.1774 18.6063C17.0325 17.943 17.0032 17.3665 17.0904 16.8475C17.1481 16.3861 17.3227 15.9824 17.5549 15.6365C18.1064 14.8586 19.0351 14.3682 20.109 14.3682C21.1832 14.3682 22.1409 14.8295 22.6633 15.6365C22.8956 15.9824 23.0695 16.3864 23.1281 16.8475C23.2148 17.3668 23.1858 17.9718 23.0408 18.6063C22.6914 20.1338 21.6755 21.979 20.1087 23.9679ZM29.0475 28.6962C30.4693 28.1196 31.4852 26.8219 31.6882 25.3229C31.8045 24.5735 31.7175 23.8524 31.4858 23.1036C31.4253 22.903 31.3367 22.7026 31.2395 22.483C31.197 22.3868 31.1528 22.2869 31.1086 22.1817C30.9928 21.9514 30.8843 21.707 30.7757 21.4625C30.6666 21.2168 30.5575 20.971 30.4409 20.7395V20.7107C28.4047 16.347 26.2856 12.022 24.0849 7.73795L23.9976 7.56458C23.884 7.35269 23.7702 7.13373 23.6563 6.91457C23.5381 6.68692 23.4197 6.45905 23.3012 6.23866C23.0689 5.77815 22.808 5.34559 22.4885 4.96975C21.879 4.27857 21.0666 3.90331 20.1667 3.90331C19.2667 3.90331 18.4543 4.27857 17.8449 4.96975C17.5253 5.34472 17.2644 5.77729 17.0322 6.23866C16.9196 6.44865 16.8069 6.66543 16.6942 6.88234C16.5747 7.11224 16.4551 7.3423 16.3354 7.56458L16.2485 7.73795C14.0136 12.0043 11.8661 16.3861 9.86376 20.6819L9.83448 20.7392C9.60195 21.229 9.37029 21.7195 9.16704 22.1809C9.12253 22.2871 9.07797 22.3878 9.03508 22.4847C8.93825 22.7036 8.84991 22.9033 8.78983 23.1033C8.49931 23.9106 8.44162 24.6311 8.5286 25.3517C8.73155 26.8507 9.74749 28.1484 11.1693 28.725C11.8368 28.9841 12.5918 29.0996 13.3752 29.0129C14.1006 28.9268 14.8257 28.6962 15.5805 28.2636C16.6254 27.687 17.6993 26.7931 18.8892 25.4669C17.0029 23.1318 15.813 20.9696 15.3778 19.0674C15.1455 18.2022 15.1168 17.3665 15.2328 16.6165C15.3488 15.896 15.6103 15.2327 16.0165 14.6562C16.9162 13.3878 18.4256 12.6094 20.1084 12.6094C21.7912 12.6094 23.3006 13.3584 24.2009 14.6562C24.6071 15.2327 24.8686 15.896 24.9843 16.6165C25.0718 17.3665 25.0425 18.1734 24.8393 19.0674C24.4038 20.9696 23.2429 23.1033 21.3276 25.4381C22.5468 26.7646 23.5914 27.6576 24.6363 28.2348C25.3905 28.6668 26.1165 28.8975 26.8419 28.9842C27.596 29.0708 28.351 28.9842 29.0475 28.6962Z" fill="black"/>
</g>
</g>
<defs>
<clipPath id="clip0_3_183433">
<rect width="106" height="32" fill="white" transform="translate(0 0.000244141)"/>
</clipPath>
</defs>
</svg>
