<svg width="106" height="32" viewBox="0 0 106 32" fill="none" xmlns="http://www.w3.org/2000/svg">
<g clip-path="url(#clip0_3_183417)">
<mask id="mask0_3_183417" style="mask-type:alpha" maskUnits="userSpaceOnUse" x="0" y="0" width="106" height="33">
<rect y="0.000244141" width="106" height="32" fill="#919EAB"/>
</mask>
<g mask="url(#mask0_3_183417)">
<path d="M13.1047 9.87185L7.03915 13.7435L13.1047 17.6151L7.03915 21.4867L0.973633 17.5828L7.03915 13.7112L0.973633 9.87185L7.03915 6.00024L13.1047 9.87185ZM7.00688 22.7127L13.0724 18.8411L19.1379 22.7127L13.0724 26.5843L7.00688 22.7127ZM13.1047 17.5828L19.1702 13.7112L13.1047 9.87185L19.1379 6.00024L25.2034 9.87185L19.1379 13.7435L25.2034 17.6151L19.1379 21.4867L13.1047 17.5828Z" fill="black"/>
<path d="M29.946 9.87245H34.8501C37.9796 9.87245 40.5607 11.6792 40.5607 15.8089V16.68C40.5607 20.842 38.141 22.7133 34.9469 22.7133H29.946V9.87245ZM32.6884 12.1954V20.3581H34.7856C36.56 20.3581 37.7538 19.1966 37.7538 16.6155V15.938C37.7538 13.3569 36.4955 12.1954 34.6888 12.1954H32.6884ZM42.0126 12.3245H44.2065L44.5614 14.7442C44.9808 13.0988 46.0455 12.2277 47.9813 12.2277H48.6588V15.0023H47.5296C45.3034 15.0023 44.755 15.7767 44.755 17.9706V22.7455H42.0448V12.3245H42.0126ZM49.2073 17.7447V17.4543C49.2073 13.9699 51.4335 12.0664 54.4662 12.0664C57.5635 12.0664 59.7252 13.9699 59.7252 17.4543V17.7447C59.7252 21.1646 57.6281 23.0036 54.4662 23.0036C51.1108 22.9714 49.2073 21.1646 49.2073 17.7447ZM56.9505 17.7125V17.4543C56.9505 15.5185 55.9826 14.3571 54.434 14.3571C52.9176 14.3571 51.9174 15.4218 51.9174 17.4543V17.7125C51.9174 19.5837 52.8853 20.6484 54.434 20.6484C55.9826 20.6162 56.9505 19.5837 56.9505 17.7125ZM61.1448 12.3245H63.4032L63.6613 14.2925C64.2098 12.9697 65.3713 12.0664 67.0812 12.0664C69.7268 12.0664 71.4691 13.9699 71.4691 17.4866V17.777C71.4691 21.1969 69.5333 23.0036 67.0812 23.0036C65.4358 23.0036 64.3066 22.2616 63.7581 21.0678V26.3268H61.1125L61.1448 12.3245ZM68.7267 17.7125V17.4866C68.7267 15.4218 67.662 14.3893 66.2424 14.3893C64.726 14.3893 63.7258 15.5508 63.7258 17.4866V17.6802C63.7258 19.5192 64.6937 20.6807 66.2101 20.6807C67.7588 20.6484 68.7267 19.6483 68.7267 17.7125ZM75.4697 20.8097L75.2439 22.7133H72.9209V8.84003H75.5665V14.1635C76.1473 12.8084 77.3087 12.0664 78.9542 12.0664C81.4385 12.0986 83.2775 13.8086 83.2775 17.2608V17.5834C83.2775 21.0356 81.5352 23.0036 78.8896 23.0036C77.1474 22.9714 76.0182 22.1648 75.4697 20.8097ZM80.5028 17.5834V17.3253C80.5028 15.4218 79.4704 14.3571 78.0185 14.3571C76.5344 14.3571 75.502 15.5508 75.502 17.3576V17.5834C75.502 19.5192 76.5022 20.6484 77.9863 20.6484C79.5672 20.6484 80.5028 19.6483 80.5028 17.5834ZM84.439 17.7447V17.4543C84.439 13.9699 86.6651 12.0664 89.6979 12.0664C92.7952 12.0664 94.9568 13.9699 94.9568 17.4543V17.7447C94.9568 21.1646 92.8275 23.0036 89.6979 23.0036C86.3425 22.9714 84.439 21.1646 84.439 17.7447ZM92.2144 17.7125V17.4543C92.2144 15.5185 91.2465 14.3571 89.6979 14.3571C88.1815 14.3571 87.1814 15.4218 87.1814 17.4543V17.7125C87.1814 19.5837 88.1493 20.6484 89.6979 20.6484C91.2465 20.6162 92.2144 19.5837 92.2144 17.7125ZM98.5058 17.3253L94.86 12.3245H97.9896L100.087 15.454L102.216 12.3245H105.313L101.603 17.293L105.507 22.7133H102.442L100.054 19.2611L97.7315 22.7133H94.5374L98.5058 17.3253Z" fill="black"/>
</g>
</g>
<defs>
<clipPath id="clip0_3_183417">
<rect width="106" height="32" fill="white" transform="translate(0 0.000244141)"/>
</clipPath>
</defs>
</svg>
