<svg width="106" height="32" viewBox="0 0 106 32" fill="none" xmlns="http://www.w3.org/2000/svg">
<g clip-path="url(#clip0_3_183402)">
<mask id="mask0_3_183402" style="mask-type:alpha" maskUnits="userSpaceOnUse" x="0" y="0" width="106" height="33">
<rect y="0.000244141" width="106" height="32" fill="#919EAB"/>
</mask>
<g mask="url(#mask0_3_183402)">
<path fill-rule="evenodd" clip-rule="evenodd" d="M54.8326 15.3254C54.0383 15.3254 53.4658 15.5881 52.8852 15.8557V21.9108C53.4413 21.9643 53.7601 21.9643 54.2877 21.9643C56.1942 21.9643 56.4555 21.0838 56.4555 19.8545V16.9625C56.4555 16.0546 56.1568 15.3254 54.8326 15.3254ZM42.1692 14.9949C40.8464 14.9949 40.5446 15.7273 40.5446 16.6342V17.1438H43.7921V16.6342C43.7921 15.7273 43.4902 14.9949 42.1692 14.9949ZM17.6411 21.2975C17.6411 22.015 17.9768 22.3876 18.7177 22.3876C19.5124 22.3876 19.983 22.1263 20.5632 21.8578V20.4215H18.8254C18.0026 20.4215 17.6411 20.5759 17.6411 21.2975ZM67.1458 15.3254C65.8208 15.3254 65.3617 16.0546 65.3617 16.9625V20.2756C65.3617 21.1857 65.8208 21.9171 67.1458 21.9171C68.4672 21.9171 68.9298 21.1857 68.9298 20.2756V16.9625C68.9294 16.0546 68.4668 15.3254 67.1458 15.3254ZM11.1477 25.0125H7.25278V15.5055H5.30664V12.2296H7.25322V10.2621C7.25322 7.58924 8.35162 6.00024 11.4736 6.00024H14.0729V9.277H12.4483C11.2328 9.277 11.1526 9.73498 11.1526 10.5894L11.1477 12.2291H14.0907L13.7466 15.505H11.1477V25.0125ZM24.4604 25.0371H21.2142L21.0739 24.2092C19.5917 25.0371 18.2689 25.1714 17.3963 25.1714C15.0156 25.1714 13.7484 23.5676 13.7484 21.3496C13.7484 18.7328 15.2271 17.7989 17.8722 17.7989H20.5646V17.2332C20.5646 15.8974 20.4127 15.5054 18.3758 15.5054H15.0454L15.3709 12.2296H19.0111C23.4804 12.2296 24.4604 13.6533 24.4604 17.2597V25.0371ZM35.4978 15.7457C33.4777 15.3963 32.8976 15.3196 31.9256 15.3196C30.1799 15.3196 29.6523 15.7079 29.6523 17.2031V20.0313C29.6523 21.5265 30.1799 21.9166 31.9256 21.9166C32.8976 21.9166 33.4777 21.8385 35.4978 21.4879V24.6833C33.7284 25.0834 32.5757 25.1885 31.6015 25.1885C27.4198 25.1885 25.7578 22.9709 25.7578 19.7673V17.4725C25.7578 14.2662 27.4198 12.0446 31.6015 12.0446C32.5757 12.0446 33.7284 12.1501 35.4978 12.552V15.7457ZM47.6854 19.7673H40.5429V20.0313C40.5429 21.5265 41.0709 21.9167 42.8163 21.9167C44.3853 21.9167 45.343 21.8385 47.3595 21.4879V24.6834C45.4147 25.0834 44.4013 25.1885 42.4935 25.1885C38.3113 25.1885 36.6484 22.9709 36.6484 19.7673V17.1434C36.6484 14.3403 37.8821 12.0446 42.1676 12.0446C46.453 12.0446 47.6854 14.3138 47.6854 17.1434V19.7673ZM60.3479 19.8279C60.3479 22.9242 59.4703 25.1826 54.1541 25.1826C52.2343 25.1826 51.1083 25.0125 48.9894 24.6838V6.98444L52.883 6.32936V12.5205C53.7245 12.2053 54.8135 12.0451 55.8046 12.0451C59.6987 12.0451 60.3474 13.8056 60.3474 16.6347L60.3479 19.8279ZM72.8292 19.8953C72.8292 22.5663 71.7357 25.157 67.1604 25.157C62.5829 25.157 61.469 22.5663 61.469 19.8953V17.3162C61.469 14.6438 62.5829 12.0527 67.1604 12.0527C71.7357 12.0527 72.8292 14.6438 72.8292 17.3162V19.8953ZM85.3033 19.8952C85.3033 22.5663 84.2085 25.157 79.6341 25.157C75.0566 25.157 73.9426 22.5663 73.9426 19.8952V17.3162C73.9426 14.6438 75.0566 12.0526 79.6341 12.0526C84.2085 12.0526 85.3033 14.6438 85.3033 17.3162V19.8952ZM98.104 25.0123H93.8836L90.3141 19.0035V25.0123H86.4192V6.98388L90.3141 6.3288V17.9348L93.8836 12.2295H98.104L94.2073 18.4557L98.104 25.0123ZM79.6195 15.3254C78.2967 15.3254 77.8377 16.0546 77.8377 16.9624V20.2756C77.8377 21.1857 78.2967 21.9171 79.6195 21.9171C80.9406 21.9171 81.4081 21.1857 81.4081 20.2756V16.9624C81.4081 16.0546 80.9406 15.3254 79.6195 15.3254ZM100.324 22.7703C100.98 22.7703 101.502 23.3095 101.502 23.983C101.502 24.6668 100.979 25.2002 100.319 25.2002C99.6618 25.2002 99.1288 24.6668 99.1288 23.983C99.1288 23.3095 99.6618 22.7703 100.319 22.7703H100.324ZM100.319 22.9588C99.7905 22.9588 99.3582 23.4172 99.3582 23.9829C99.3582 24.559 99.791 25.0116 100.324 25.0116C100.857 25.017 101.283 24.559 101.283 23.9883C101.283 23.4176 100.857 22.9588 100.324 22.9588H100.319ZM100.098 24.6887H99.8846V23.3354C99.9968 23.3197 100.104 23.304 100.264 23.304C100.467 23.304 100.6 23.3471 100.681 23.4059C100.76 23.4656 100.802 23.5568 100.802 23.6857C100.802 23.8644 100.686 23.9717 100.542 24.0152V24.0255C100.659 24.0475 100.739 24.1544 100.766 24.3533C100.797 24.5639 100.829 24.6443 100.85 24.6883H100.626C100.595 24.6443 100.562 24.5208 100.536 24.3425C100.504 24.1706 100.418 24.1059 100.247 24.1059H100.099L100.098 24.6887ZM100.095 23.9398H100.25C100.426 23.9398 100.575 23.8747 100.575 23.7073C100.575 23.5887 100.49 23.4706 100.25 23.4706C100.18 23.4706 100.132 23.476 100.095 23.481V23.9398Z" fill="black"/>
</g>
</g>
<defs>
<clipPath id="clip0_3_183402">
<rect width="106" height="32" fill="white" transform="translate(0 0.000244141)"/>
</clipPath>
</defs>
</svg>
