<svg width="106" height="32" viewBox="0 0 106 32" fill="none" xmlns="http://www.w3.org/2000/svg">
<g clip-path="url(#clip0_3_183414)">
<mask id="mask0_3_183414" style="mask-type:alpha" maskUnits="userSpaceOnUse" x="0" y="0" width="106" height="33">
<rect y="0.000244141" width="106" height="32" fill="#919EAB"/>
</mask>
<g mask="url(#mask0_3_183414)">
<path d="M23.2992 3.00024H23.9967C26.418 3.05288 28.7999 4.02669 30.5107 5.7506C29.879 6.39542 29.2342 7.01392 28.6157 7.65874C27.655 6.79021 26.497 6.11907 25.2337 5.8822C23.365 5.48741 21.3516 5.84272 19.7856 6.90865C18.0748 8.02721 16.9168 9.9222 16.6667 11.9488C16.3904 13.949 16.9563 16.0546 18.2591 17.6074C19.5092 19.1208 21.4174 20.0683 23.3913 20.134C25.2337 20.2393 27.155 19.6735 28.4973 18.3838C29.55 17.4758 30.0369 16.0941 30.1948 14.7518C28.0103 14.7518 25.8258 14.7649 23.6413 14.7518V12.0409H32.8399C33.3137 14.9492 32.6294 18.2259 30.4186 20.3051C28.9447 21.779 26.9049 22.6475 24.8257 22.8186C22.8123 23.016 20.7331 22.6344 18.9434 21.6606C16.7983 20.5157 15.0876 18.5812 14.2454 16.3046C13.4558 14.2122 13.4426 11.8435 14.1796 9.73796C14.8507 7.81666 16.1404 6.11907 17.7985 4.93471C19.3908 3.7635 21.3253 3.11868 23.2992 3.00024Z" fill="black"/>
<path d="M76.0691 3.68449H78.8852V22.4764C77.9509 22.4764 77.0034 22.4896 76.0691 22.4633C76.0822 16.2125 76.0691 9.94847 76.0691 3.68449Z" fill="black"/>
<path d="M39.1038 10.1986C40.8409 9.86957 42.7227 10.238 44.1571 11.2776C45.4599 12.1988 46.3679 13.6464 46.6443 15.2255C46.9996 17.0547 46.5522 19.055 45.3678 20.5025C44.0913 22.1211 41.9989 22.9897 39.9592 22.8581C38.0905 22.7528 36.2745 21.8185 35.1691 20.292C33.9189 18.6075 33.6162 16.2914 34.3005 14.3175C34.9848 12.1988 36.9193 10.5802 39.1038 10.1986ZM39.4986 12.6989C38.788 12.8831 38.13 13.2911 37.6562 13.8701C36.3798 15.3966 36.4587 17.8838 37.8668 19.305C38.6695 20.1209 39.8802 20.5025 40.9988 20.2788C42.0384 20.0946 42.9464 19.3971 43.4465 18.4759C44.315 16.9099 44.065 14.7518 42.7359 13.5279C41.8805 12.7384 40.6303 12.4094 39.4986 12.6989Z" fill="black"/>
<path d="M53.053 10.1985C55.0401 9.81692 57.2115 10.3696 58.6985 11.7645C61.1199 13.9359 61.3831 18.0022 59.317 20.5025C58.0668 22.0817 56.0403 22.9502 54.04 22.8581C52.1319 22.8055 50.25 21.858 49.1183 20.292C47.8418 18.5681 47.5655 16.1993 48.2893 14.1859C49.013 12.133 50.908 10.567 53.053 10.1985ZM53.4478 12.6989C52.7372 12.8831 52.0792 13.2911 51.6055 13.8569C50.3422 15.3571 50.3948 17.8048 51.7502 19.2392C52.553 20.0946 53.8031 20.5157 54.9612 20.2788C55.9876 20.0814 56.9088 19.3971 57.4089 18.476C58.2642 16.8968 58.0142 14.7386 56.6719 13.5148C55.8165 12.7252 54.5664 12.4094 53.4478 12.6989Z" fill="black"/>
<path d="M64.8835 10.9618C66.3968 10.0143 68.4103 9.75107 70.042 10.567C70.5553 10.7907 70.9764 11.1723 71.3843 11.5539C71.3975 11.1986 71.3843 10.8302 71.3975 10.4617C72.2792 10.4749 73.1609 10.4617 74.0557 10.4749V22.0816C74.0426 23.8319 73.5951 25.6874 72.3318 26.9639C70.9501 28.3719 68.8314 28.8062 66.9232 28.5167C64.8835 28.214 63.1069 26.727 62.3173 24.8452C63.1069 24.4635 63.936 24.1609 64.7519 23.8056C65.2125 24.8846 66.1468 25.8058 67.318 26.0164C68.4892 26.2269 69.8447 25.9374 70.6079 24.9636C71.4238 23.9635 71.4238 22.5949 71.3843 21.371C70.779 21.9632 70.0815 22.4896 69.2393 22.687C67.4101 23.2002 65.3967 22.5686 63.9886 21.3315C62.5674 20.0945 61.7252 18.1864 61.8041 16.2914C61.8436 14.1464 63.0543 12.0803 64.8835 10.9618ZM67.6075 12.6462C66.8048 12.7778 66.0547 13.2252 65.5415 13.8437C64.3045 15.3176 64.3045 17.6732 65.5546 19.1207C66.2652 19.9761 67.4101 20.4499 68.5155 20.3314C69.5551 20.2261 70.5158 19.5682 71.029 18.6601C71.8976 17.1205 71.7528 15.0281 70.5816 13.6858C69.8578 12.8567 68.6998 12.4488 67.6075 12.6462Z" fill="black"/>
<path d="M82.2675 11.633C83.8467 10.1591 86.2812 9.65903 88.3078 10.4355C90.2291 11.1592 91.453 12.9884 92.0715 14.8703C89.2158 16.0546 86.3733 17.2258 83.5177 18.4102C83.9125 19.1603 84.5178 19.8446 85.3337 20.121C86.4786 20.5289 87.8472 20.3842 88.8079 19.6209C89.1895 19.3314 89.4922 18.9498 89.7817 18.5813C90.5055 19.0682 91.2293 19.5419 91.953 20.0288C90.9266 21.5685 89.2027 22.6476 87.3471 22.8187C85.2942 23.0687 83.1097 22.2791 81.7806 20.6737C79.5961 18.147 79.8066 13.9096 82.2675 11.633ZM83.6756 14.0675C83.2281 14.7123 83.0439 15.5019 83.0571 16.2783C84.9652 15.4888 86.8734 14.6992 88.7815 13.8964C88.4657 13.1595 87.7025 12.7121 86.926 12.5936C85.6759 12.3699 84.373 13.0411 83.6756 14.0675Z" fill="black"/>
</g>
</g>
<defs>
<clipPath id="clip0_3_183414">
<rect width="106" height="32" fill="white" transform="translate(0 0.000244141)"/>
</clipPath>
</defs>
</svg>
