<svg width="106" height="32" viewBox="0 0 106 32" fill="none" xmlns="http://www.w3.org/2000/svg">
<g clip-path="url(#clip0_3_183408)">
<mask id="mask0_3_183408" style="mask-type:alpha" maskUnits="userSpaceOnUse" x="0" y="0" width="106" height="33">
<rect y="0.000244141" width="106" height="32" fill="#919EAB"/>
</mask>
<g mask="url(#mask0_3_183408)">
<path d="M28.6452 3.00024H10.2771C8.99715 3.00024 7.97314 4.02424 7.97314 5.30424V26.2962C7.97314 27.5762 8.99715 28.6002 10.2771 28.6002H28.6452C29.9252 28.6002 30.9492 27.5762 30.9492 26.2962V5.30424C30.9492 4.02424 29.9252 3.00024 28.6452 3.00024ZM29.6692 26.2962C29.6692 26.8722 29.2212 27.3202 28.6452 27.3202H10.2771C9.70115 27.3202 9.25315 26.8722 9.25315 26.2962V5.30424C9.25315 4.72824 9.70115 4.28024 10.2771 4.28024H28.6452C29.2212 4.28024 29.6692 4.72824 29.6692 5.30424V26.2962ZM13.7332 24.7602L16.6132 22.2002L13.7332 19.6402V24.7602ZM24.1012 14.3922C23.5892 13.8802 22.6292 13.2402 21.0292 13.2402C19.3012 13.2402 17.5092 13.6882 16.2292 14.1362V6.84024H13.7332V17.9122L15.5252 17.0802C15.5252 17.0802 18.4692 15.7362 21.0292 15.7362C22.3092 15.7362 22.6292 16.4402 22.6292 17.0802V24.7602H25.1892V17.0802C25.1892 16.8882 25.1892 15.4802 24.1012 14.3922ZM20.7092 11.0002H23.2692C24.4212 9.65624 24.9972 8.31224 25.1892 6.84024H22.6292C22.3732 8.31224 21.7332 9.65624 20.7092 11.0002ZM91.4293 17.0162V11.3202H93.9893V16.9522C93.9893 18.2322 94.4373 18.8722 95.4613 18.8722C96.4853 18.8722 96.8693 18.2962 96.8693 16.9522V11.3202H99.3653V17.0162C99.3653 19.5122 98.1493 20.9842 95.3973 20.9842C92.6453 20.9842 91.4293 19.5122 91.4293 17.0162ZM80.6772 11.3842H83.2372V14.8402L85.8613 11.3842H88.8053L85.6053 15.0962L89.0613 20.8562H86.1813L83.9412 17.0802L83.2372 17.9122V20.8562H80.6772V11.3842ZM68.5172 16.0562C68.5172 12.6002 70.8852 11.1282 73.1892 11.1282C75.4932 11.1282 77.8612 12.6002 77.8612 16.0562C77.8612 19.5122 75.4932 20.9842 73.1892 20.9842C70.8852 20.9842 68.5172 19.5762 68.5172 16.0562ZM75.2372 16.0562C75.2372 14.3282 74.4692 13.2402 73.1252 13.2402C71.7812 13.2402 71.0132 14.3282 71.0132 16.0562C71.0132 17.7842 71.7812 18.9362 73.1252 18.9362C74.4692 18.9362 75.2372 17.8482 75.2372 16.0562ZM58.2132 11.3842H61.9252C64.3572 11.3842 65.8292 12.2162 65.8292 14.4562C65.8292 15.9282 65.1892 16.8242 63.9732 17.2082L65.9572 20.8562H63.2692L61.4132 17.5922H60.7092V20.8562H58.2132V11.3842ZM61.8612 15.6082C62.8852 15.6082 63.3972 15.2882 63.3972 14.5202C63.3972 13.7522 62.9492 13.4322 61.8612 13.4322H60.7732V15.6082H61.8612ZM48.4212 11.3842H55.2052V13.4962H50.9812V15.0322H53.9892V17.0162H50.9812V18.7442H55.3972V20.7922H48.4212V11.3842ZM36.8372 11.3842H39.3972V14.9042H42.5332V11.3842H45.0932V20.8562H42.5332V17.0162H39.3972V20.8562H36.8372V11.3842Z" fill="black"/>
</g>
</g>
<defs>
<clipPath id="clip0_3_183408">
<rect width="106" height="32" fill="white" transform="translate(0 0.000244141)"/>
</clipPath>
</defs>
</svg>
