<svg width="106" height="32" viewBox="0 0 106 32" fill="none" xmlns="http://www.w3.org/2000/svg">
<g clip-path="url(#clip0_3_183427)">
<mask id="mask0_3_183427" style="mask-type:alpha" maskUnits="userSpaceOnUse" x="0" y="0" width="106" height="33">
<rect y="0.000244141" width="106" height="32" fill="#919EAB"/>
</mask>
<g mask="url(#mask0_3_183427)">
<path fill-rule="evenodd" clip-rule="evenodd" d="M14.9736 21.3192H23.1956V24.7677H11.3066V7.00024H14.9736V21.3192ZM34.7506 20.5627C33.2281 21.7325 32.3582 22.0116 30.9698 22.0116C29.7203 22.0116 28.742 21.6088 28.0523 20.9025L37.3008 16.9194C37.0989 15.4351 36.5562 14.109 35.7213 13.1007C34.5061 11.6356 32.7075 10.8605 30.5175 10.8605C26.5398 10.8605 23.5404 13.9069 23.5404 17.9308C23.5404 22.059 26.547 25.0002 30.9163 25.0002C33.3644 25.0002 35.8674 23.7957 37.0383 22.3884L34.7506 20.5627ZM46.5132 10.8612C44.9964 10.8612 43.2714 11.5911 42.2175 13.0525L42.2181 13.0496L42.2175 13.0503L42.2181 11.0905H38.6005V24.7677H42.2175V16.9853C42.2175 15.5846 43.2635 14.0956 45.2004 14.0956C46.6971 14.0956 48.2461 15.1766 48.2461 16.9853V24.7677H51.8637V16.2894C51.8637 13.1435 49.6958 10.8612 46.5132 10.8612ZM77.5736 11.0913L74.3033 20.4078L71.0329 11.0913H66.9004L72.3209 24.7641H76.285L81.7054 11.0913H77.5736ZM30.5842 13.8484C29.399 13.8484 28.4176 14.3526 27.8016 15.2115C27.2396 15.9948 26.8953 17.0874 27.0679 18.4845L33.3881 15.7622C32.8768 14.6213 31.8878 13.8484 30.5842 13.8484ZM88.2035 14.0788C86.1833 14.0788 84.7162 15.6683 84.7162 17.9293C84.7162 20.0882 86.2702 21.7798 88.252 21.7798C90.273 21.7798 91.7391 20.1467 91.7391 17.9293C91.7391 15.7704 90.1859 14.0788 88.2035 14.0788ZM81.1463 17.9294C81.1463 21.9383 84.2463 24.9983 88.2026 24.9983C92.1859 24.9983 95.3066 21.8925 95.3066 17.9294C95.3066 13.9203 92.2075 10.8605 88.2512 10.8605C84.2677 10.8605 81.1463 13.9654 81.1463 17.9294ZM60.3489 14.0788C58.3286 14.0788 56.8624 15.6683 56.8624 17.9293C56.8624 20.0882 58.4157 21.7798 60.3981 21.7798C62.4183 21.7798 63.8845 20.1467 63.8845 17.9293C63.8845 15.7704 62.3313 14.0788 60.3489 14.0788ZM53.2966 17.9295C53.2966 21.9384 56.3958 24.9984 60.3521 24.9984C64.3356 24.9984 67.4568 21.8926 67.4568 17.9295C67.4568 13.9204 64.3569 10.8605 60.4013 10.8605C56.4172 10.8605 53.2966 13.9655 53.2966 17.9295Z" fill="black"/>
</g>
</g>
<defs>
<clipPath id="clip0_3_183427">
<rect width="106" height="32" fill="white" transform="translate(0 0.000244141)"/>
</clipPath>
</defs>
</svg>
