<svg width="106" height="32" viewBox="0 0 106 32" fill="none" xmlns="http://www.w3.org/2000/svg">
<g clip-path="url(#clip0_3_183405)">
<mask id="mask0_3_183405" style="mask-type:alpha" maskUnits="userSpaceOnUse" x="0" y="0" width="106" height="33">
<rect y="0.000244141" width="106" height="32" fill="#919EAB"/>
</mask>
<g mask="url(#mask0_3_183405)">
<path d="M103.515 14.6464V12.89H101.333V10.1593L101.26 10.1819L99.2112 10.8088L99.1708 10.821V12.89H95.9372V11.7374C95.9372 11.2007 96.0572 10.79 96.2937 10.5161C96.5286 10.2455 96.8646 10.1079 97.293 10.1079C97.601 10.1079 97.92 10.1805 98.2409 10.3236L98.3214 10.3595V8.50973L98.2835 8.49581C97.9841 8.38819 97.5769 8.33398 97.0721 8.33398C96.4359 8.33398 95.8578 8.47243 95.3537 8.74682C94.8493 9.02159 94.4525 9.41385 94.1745 9.91257C93.8975 10.4107 93.7569 10.9861 93.7569 11.6228V12.89H92.2382V14.6464H93.7569V22.046H95.9372V14.6464H99.1708V19.3487C99.1708 21.2854 100.084 22.2668 101.886 22.2668C102.182 22.2668 102.493 22.2321 102.812 22.1642C103.136 22.0944 103.356 22.0248 103.486 21.9504L103.515 21.9334V20.1607L103.426 20.2193C103.308 20.2982 103.16 20.3626 102.988 20.4105C102.814 20.4593 102.669 20.4838 102.557 20.4838C102.135 20.4838 101.823 20.3701 101.629 20.1456C101.433 19.9192 101.333 19.5231 101.333 18.9691V14.6464H103.515ZM87.3692 20.4841C86.5778 20.4841 85.9539 20.2217 85.5142 19.7048C85.0718 19.1853 84.8476 18.4446 84.8476 17.5036C84.8476 16.5327 85.0718 15.7728 85.5144 15.2442C85.9543 14.719 86.5723 14.4524 87.3514 14.4524C88.1074 14.4524 88.7092 14.707 89.1403 15.2095C89.5735 15.7146 89.7934 16.4684 89.7934 17.4506C89.7934 18.4448 89.5867 19.2086 89.179 19.7195C88.774 20.2265 88.1652 20.4841 87.3692 20.4841ZM87.4661 12.6694C85.9563 12.6694 84.7571 13.1118 83.9021 13.9843C83.0476 14.8569 82.6144 16.0645 82.6144 17.5738C82.6144 19.0074 83.0373 20.1605 83.8714 21.0006C84.7056 21.8409 85.8408 22.2666 87.2453 22.2666C88.7088 22.2666 89.8841 21.818 90.7388 20.9334C91.5934 20.0498 92.0263 18.8536 92.0263 17.3795C92.0263 15.9236 91.62 14.7619 90.8184 13.9274C90.0164 13.0926 88.8883 12.6694 87.4661 12.6694ZM79.0991 12.6694C78.072 12.6694 77.2225 12.9321 76.5735 13.45C75.9206 13.9711 75.5894 14.6544 75.5894 15.4814C75.5894 15.9112 75.6609 16.293 75.8016 16.6169C75.9431 16.9418 76.1622 17.2279 76.4532 17.4679C76.742 17.7061 77.1877 17.9556 77.7784 18.2094C78.275 18.4137 78.6454 18.5866 78.8806 18.7228C79.1106 18.8563 79.2737 18.9905 79.3659 19.1212C79.4555 19.2491 79.5009 19.4242 79.5009 19.6402C79.5009 20.2554 79.0402 20.5547 78.0923 20.5547C77.7408 20.5547 77.3397 20.4813 76.9004 20.3365C76.4642 20.194 76.0525 19.9853 75.6798 19.7176L75.5892 19.6527V21.7518L75.6225 21.7673C75.931 21.9097 76.3199 22.0298 76.7784 22.1243C77.2359 22.2189 77.6517 22.267 78.0128 22.267C79.1273 22.267 80.0247 22.003 80.6796 21.482C81.3386 20.9574 81.6726 20.2579 81.6726 19.4024C81.6726 18.7852 81.4928 18.2559 81.1384 17.8291C80.7864 17.4057 80.1755 17.017 79.3235 16.6735C78.6447 16.401 78.2098 16.1749 78.0304 16.0012C77.8575 15.8335 77.7696 15.5963 77.7696 15.2959C77.7696 15.0297 77.878 14.8164 78.1005 14.6436C78.3248 14.47 78.6369 14.3817 79.0284 14.3817C79.3917 14.3817 79.7634 14.4391 80.133 14.5515C80.5024 14.664 80.8268 14.8146 81.0976 14.9989L81.1867 15.0597V13.0685L81.1525 13.0538C80.9027 12.9467 80.5732 12.855 80.173 12.7806C79.7747 12.7067 79.4133 12.6694 79.0991 12.6694ZM69.9055 20.4841C69.1143 20.4841 68.4902 20.2217 68.0506 19.7048C67.6081 19.1853 67.3843 18.4448 67.3843 17.5036C67.3843 16.5327 67.6084 15.7728 68.0511 15.2442C68.4907 14.719 69.1085 14.4524 69.888 14.4524C70.6437 14.4524 71.2455 14.707 71.6767 15.2095C72.1101 15.7146 72.3298 16.4684 72.3298 17.4506C72.3298 18.4448 72.123 19.2086 71.7153 19.7195C71.3104 20.2265 70.7018 20.4841 69.9055 20.4841ZM70.0027 12.6694C68.4925 12.6694 67.2932 13.1118 66.4387 13.9843C65.5842 14.8569 65.1507 16.0645 65.1507 17.5738C65.1507 19.008 65.5739 20.1605 66.4081 21.0006C67.2422 21.8409 68.3773 22.2666 69.7818 22.2666C71.2452 22.2666 72.4208 21.818 73.2754 20.9334C74.1298 20.0498 74.5629 18.8536 74.5629 17.3795C74.5629 15.9236 74.1565 14.7619 73.3547 13.9274C72.5526 13.0926 71.4247 12.6694 70.0027 12.6694ZM61.8411 14.4756V12.89H59.6873V22.0458H61.8411V17.3623C61.8411 16.5659 62.0217 15.9116 62.378 15.4174C62.7297 14.9291 63.1985 14.6817 63.7709 14.6817C63.9649 14.6817 64.1826 14.7137 64.4185 14.7769C64.6519 14.8398 64.821 14.9081 64.9207 14.98L65.0112 15.0456V12.8743L64.9763 12.8593C64.7757 12.7741 64.492 12.7311 64.133 12.7311C63.5917 12.7311 63.1074 12.905 62.6925 13.2474C62.3284 13.5484 62.0652 13.961 61.864 14.4756H61.8411ZM55.8304 12.6694C54.8423 12.6694 53.961 12.8813 53.2114 13.2989C52.4602 13.7176 51.8792 14.3152 51.484 15.0752C51.0905 15.8333 50.8907 16.7189 50.8907 17.7065C50.8907 18.5716 51.0844 19.3655 51.4673 20.0651C51.8504 20.766 52.3926 21.3143 53.0789 21.6946C53.7643 22.0743 54.5564 22.2669 55.4335 22.2669C56.457 22.2669 57.3309 22.0623 58.0316 21.6587L58.0599 21.6425V19.6693L57.9693 19.7354C57.652 19.9666 57.2973 20.1511 56.9157 20.2841C56.535 20.4169 56.188 20.4841 55.8836 20.4841C55.0385 20.4841 54.3601 20.2196 53.8677 19.6983C53.3742 19.1763 53.1239 18.4433 53.1239 17.5209C53.1239 16.5927 53.3849 15.8409 53.8992 15.2861C54.4119 14.733 55.0916 14.4524 55.9192 14.4524C56.6271 14.4524 57.3169 14.6921 57.9695 15.1655L58.0599 15.2311V13.1521L58.0307 13.1356C57.7851 12.9982 57.4501 12.8846 57.0343 12.7986C56.6202 12.7127 56.2152 12.6694 55.8304 12.6694ZM49.4074 12.89H47.2536V22.0458H49.4074V12.89ZM48.3525 8.98961C47.998 8.98961 47.6889 9.11028 47.4349 9.34941C47.1798 9.5892 47.0504 9.89112 47.0504 10.2474C47.0504 10.5982 47.1783 10.8946 47.4309 11.128C47.6819 11.3607 47.9921 11.4787 48.3526 11.4787C48.7131 11.4787 49.0244 11.3607 49.2784 11.1284C49.534 10.8946 49.6637 10.5982 49.6637 10.2474C49.6637 9.90359 49.5375 9.60476 49.2889 9.35907C49.0405 9.11386 48.7254 8.98961 48.3525 8.98961ZM42.9788 12.2145V22.0458H45.1768V9.26989H42.1347L38.268 18.7595L34.5156 9.26989H31.3496V22.0457H33.4151V12.2136H33.486L37.4485 22.0458H39.0073L42.9079 12.2145H42.9788Z" fill="black"/>
<path d="M13.7714 15.132H3.63965V5.00024H13.7714V15.132Z" fill="black"/>
<path d="M24.958 15.1327H14.8264V5.00085H24.958V15.1327Z" fill="black"/>
<path d="M13.7712 26.3232H3.63965V16.1915H13.7712V26.3232Z" fill="black"/>
<path d="M24.958 26.3232H14.8264V16.1915H24.958V26.3232Z" fill="black"/>
</g>
</g>
<defs>
<clipPath id="clip0_3_183405">
<rect width="106" height="32" fill="white" transform="translate(0 0.000244141)"/>
</clipPath>
</defs>
</svg>
