<svg width="106" height="32" viewBox="0 0 106 32" fill="none" xmlns="http://www.w3.org/2000/svg">
<g clip-path="url(#clip0_3_183424)">
<mask id="mask0_3_183424" style="mask-type:alpha" maskUnits="userSpaceOnUse" x="0" y="0" width="106" height="33">
<rect y="0.000244141" width="106" height="32" fill="#919EAB"/>
</mask>
<g mask="url(#mask0_3_183424)">
<path fill-rule="evenodd" clip-rule="evenodd" d="M26.3247 24.7111C25.6699 24.8279 25.0082 24.8958 24.3355 24.9649C23.8823 25.0114 23.4241 25.0585 22.9598 25.1213L19.4408 14.6526V25.5706C18.4521 25.6763 17.5415 25.8138 16.6103 25.9544L16.3066 26.0002V6.00024H19.2295L23.2289 17.3481V6.00024H26.3247V24.7111ZM32.3827 13.3245C32.9914 13.3245 33.7654 13.3092 34.5232 13.2942C35.2497 13.2799 35.9612 13.2659 36.4977 13.2659V16.3908C35.1324 16.3908 33.5365 16.3908 32.3827 16.4494V21.0979C32.8954 21.0647 33.408 21.0283 33.921 20.9919C35.217 20.8999 36.5158 20.8078 37.8244 20.7658V23.7734L29.3061 24.4571V6.00024H37.8244V9.12525H32.3827V13.3245ZM46.0739 9.12532H49.2658L49.2659 6.00024H39.8055V9.12532H42.9974V23.5393C43.9972 23.5003 45.0355 23.5003 46.0739 23.5003V9.12532ZM54.2638 13.1097H58.4749V16.2346H54.2638V23.3245H51.2447V6.00024H59.8401V9.12525H54.2638V13.1097ZM68.672 20.7785C67.4046 20.6991 66.1176 20.6185 64.8407 20.5901V6.00024H61.7642V23.5393C64.5716 23.598 67.3213 23.7736 70.0709 23.9495V20.8635C69.6085 20.8371 69.1413 20.8079 68.672 20.7785ZM72.6656 24.1643L72.8271 24.174C73.7597 24.2296 74.7393 24.288 75.6844 24.3986V6.00024H72.6656V24.1643ZM85.2592 15.512L89.1626 6.00024H85.7976L83.6439 11.2542L81.6249 6.00024H78.3177L81.8943 15.3947L77.9333 24.5549C78.3943 24.6195 78.8488 24.6674 79.3021 24.7152C79.9453 24.783 80.5863 24.8505 81.2406 24.9652L83.4902 19.6527L85.7013 25.4338C85.9896 25.4826 86.2778 25.5326 86.566 25.5826C87.4315 25.7328 88.2971 25.883 89.1626 26.0002L85.2592 15.512Z" fill="black"/>
</g>
</g>
<defs>
<clipPath id="clip0_3_183424">
<rect width="106" height="32" fill="white" transform="translate(0 0.000244141)"/>
</clipPath>
</defs>
</svg>
