<svg width="106" height="32" viewBox="0 0 106 32" fill="none" xmlns="http://www.w3.org/2000/svg">
<g clip-path="url(#clip0_3_183421)">
<mask id="mask0_3_183421" style="mask-type:alpha" maskUnits="userSpaceOnUse" x="0" y="0" width="106" height="33">
<rect y="0.000244141" width="106" height="32" fill="#919EAB"/>
</mask>
<g mask="url(#mask0_3_183421)">
<path d="M40.3605 13.0421C40.3605 10.5004 42.2137 8.72556 45.5815 8.72556C47.6364 8.72556 49.3179 9.38166 50.2289 10.0244C50.3593 10.1161 50.5919 10.3388 50.4524 10.7529C50.2737 11.1988 49.9459 11.8695 49.7107 12.3052C49.5738 12.5591 49.2243 12.5256 49.0452 12.4349C48.3963 12.106 47.332 11.5498 46.3542 11.4472C46.1067 11.4203 45.8576 11.4095 45.6086 11.415C44.7475 11.4342 44.0281 11.7331 43.7748 12.3901C43.7251 12.5144 43.6974 12.6464 43.693 12.7802C43.6693 13.6459 44.8741 13.9589 46.3337 14.2097C49.0471 14.6745 51.0999 15.4701 51.0999 18.2629C51.0999 20.6346 49.215 22.778 45.5218 22.7123C43.0871 22.6631 41.3598 21.8405 40.4342 21.0422C40.4027 21.0151 40.0504 20.6562 40.2392 20.2247C40.4553 19.6691 40.8202 19.0324 41.1065 18.6943C41.2656 18.4771 41.6857 18.4427 41.9041 18.578C42.667 19.0521 43.9226 19.8123 45.37 19.8627C45.4842 19.8667 45.5974 19.8674 45.7086 19.8645C47.0105 19.8329 47.7982 19.3392 47.7817 18.5077C47.7676 17.7751 46.7354 17.3471 45.0916 17.0373C42.47 16.5435 40.3605 15.6793 40.3605 13.0421ZM64.1778 16.6612C62.3291 16.6853 60.634 17.1907 60.5852 18.6354C60.5846 19.7819 61.5147 20.3451 62.82 20.2713C64.0722 20.1507 65.0271 19.6077 65.4478 18.8871C65.6034 18.62 65.6271 17.6207 65.6177 17.1936C65.6153 17.1027 65.4355 16.9306 65.3568 16.8975C64.964 16.732 64.6734 16.6812 64.1778 16.6612ZM58.0263 10.8395C58.8908 10.0659 60.6049 8.86176 63.3367 8.92522C66.9417 9.00018 68.8462 10.6903 69.0235 14.7332C69.0966 16.4004 68.9755 21.0509 68.9467 22.2096C68.9424 22.3758 68.8862 22.4907 68.6621 22.495C68.0685 22.5189 66.6969 22.5094 66.0667 22.5012C65.7487 22.4857 65.7118 22.3279 65.7077 22.1628C65.705 22.0547 65.6957 21.7343 65.689 21.473C65.6854 21.3344 65.5552 21.3384 65.5219 21.3739C64.6763 22.2768 63.2914 22.7129 61.8186 22.7129C59.5802 22.7129 57.3486 21.396 57.3554 18.7883C57.3623 16.1176 59.256 14.8002 61.3363 14.4896C62.6684 14.2913 64.17 14.4677 65.307 14.9195C65.3797 14.9486 65.5283 14.9064 65.5295 14.8033C65.5341 14.463 65.5177 13.8145 65.4523 13.5071C65.2854 12.7239 64.6321 12.0937 63.2595 11.9239C62.9768 11.8891 62.6922 11.8776 62.4073 11.9002C61.3162 11.986 60.0032 12.8368 59.4594 13.1553C59.3315 13.2301 59.1311 13.1754 59.0663 13.0918C58.7489 12.6819 57.9513 11.4829 57.8885 11.2913C57.8258 11.1002 57.9146 10.94 58.0263 10.8395ZM70.2122 15.8111C70.1908 12.0863 72.786 8.94409 77.0002 8.91648C79.6297 8.89932 81.54 10.0914 81.8769 10.6537C81.9454 10.7858 81.9102 10.8961 81.8629 11.029C81.6402 11.499 81.0779 12.4071 80.6772 12.9217C80.5066 13.1409 80.3213 12.9531 80.106 12.8098C79.5086 12.4119 78.3734 11.9253 77.2563 11.9253C75.2295 11.9256 73.7202 13.3153 73.737 15.8721C73.7528 18.3257 75.1984 19.6741 77.2633 19.7229C78.3427 19.75 79.3885 19.1296 79.9512 18.6214C80.1278 18.4672 80.3107 18.5444 80.5126 18.7022C80.9088 19.1072 81.4771 19.7324 81.7922 20.1627C81.9985 20.4018 81.8442 20.6358 81.7699 20.7298C80.915 21.8116 79.2638 22.7221 77.0787 22.7345C72.5034 22.7665 70.2333 19.549 70.2122 15.8111ZM92.0526 22.5665C92.2673 22.5504 94.5591 22.2341 95.2626 22.073C95.4372 22.0333 95.4993 21.8864 95.4017 21.741C95.0089 21.1519 93.9761 19.4792 92.8944 17.9818C91.8995 16.6049 90.851 15.3939 90.5119 14.928C90.4292 14.8148 90.4337 14.7033 90.5237 14.6155C91.1688 13.9843 93.8673 11.3385 94.8819 10.2458C95.2747 9.82077 95.0389 9.63792 94.7053 9.53861C94.0608 9.3465 93.0184 9.10704 92.4256 8.982C92.1757 8.92917 91.8747 8.94769 91.6562 9.1724C90.6417 10.1184 87.5458 13.2256 86.6216 14.1544C86.4552 14.322 86.3583 14.2848 86.3574 14.0453C86.3499 12.2546 86.3146 4.58761 86.2506 3.32653C86.2461 3.15981 86.0456 3.03322 85.9326 3.02722C85.3514 2.99686 83.8833 2.98811 83.3047 3.02207C83.1426 3.04042 82.9877 3.20561 82.9737 3.34523C82.8402 5.36172 83.0303 20.1643 83.1095 22.235C83.1152 22.3847 83.2267 22.5008 83.3689 22.5092C83.9461 22.5427 85.3737 22.5405 86.0403 22.5279C86.3682 22.5279 86.4084 22.2974 86.4084 22.2974L86.4578 18.3253C86.4578 18.3253 86.4916 18.1487 86.5463 18.0903C86.7813 17.8373 87.4314 17.1406 87.7086 16.8713C87.7751 16.8066 87.8801 16.8112 87.948 16.9027C88.2774 17.3469 89.2165 18.7912 90.087 20.0811C90.8868 21.266 91.6335 22.3177 91.6856 22.3919C91.8061 22.5635 91.9465 22.5698 92.0526 22.5665ZM53.0754 22.5528C53.277 22.5595 54.8062 22.5578 55.4837 22.5569C55.7118 22.5614 55.8304 22.3887 55.8379 22.2362C55.9818 19.3329 55.9202 5.51009 55.8293 3.32739C55.8218 3.13871 55.741 3.06787 55.6122 3.05072C55.0307 2.97284 53.3782 2.99102 52.8485 3.12962C52.7449 3.15655 52.6838 3.23528 52.6806 3.33648C52.5509 8.96262 52.6384 21.9336 52.6658 22.1792C52.6931 22.4252 52.8214 22.5442 53.0754 22.5528Z" fill="black"/>
<path d="M12.1498 16.7802C11.2074 16.7874 10.4091 16.2258 10.1147 15.3493C10.1038 15.3162 10.0936 15.2829 10.0842 15.2493C9.76346 14.1268 10.3854 12.9525 11.5002 12.5766L29.3803 6.58625C29.5926 6.52483 29.8123 6.49274 30.0333 6.49088C31.0007 6.48333 31.821 7.05727 32.1225 7.9523L32.1493 8.03876C32.4838 9.2079 31.6527 10.2515 30.657 10.586C30.6563 10.5865 30.4752 10.6477 12.876 16.6565C12.6421 16.7363 12.3969 16.778 12.1498 16.7802Z" fill="black"/>
<path d="M15.1299 25.5736C14.1802 25.5805 13.3791 25.0268 13.0882 24.1628C13.0772 24.1299 13.0669 24.0968 13.0573 24.0635C12.7321 22.9276 13.3534 21.741 14.4719 21.3645L32.3528 15.3193C32.5838 15.2421 32.8224 15.2027 33.0624 15.2004C34.0147 15.1932 34.8514 15.7751 35.1466 16.6488L35.1741 16.7397C35.3468 17.3437 35.2447 18.0224 34.9013 18.5581C34.6454 18.9564 33.8382 19.307 33.8382 19.307L15.8894 25.4441C15.6446 25.527 15.3883 25.5705 15.1299 25.5736Z" fill="black"/>
<path d="M30.0147 25.6119C29.5513 25.6163 29.0983 25.474 28.7207 25.2052C28.3431 24.9364 28.0602 24.555 27.9126 24.1156L21.9452 6.38989L21.9153 6.2904C21.592 5.16003 22.2138 3.98095 23.3282 3.6053C23.5512 3.53034 23.7817 3.49123 24.0138 3.48917C24.3586 3.4866 24.6922 3.5643 25.0064 3.71954C25.2653 3.84754 25.4963 4.02547 25.6861 4.24307C25.876 4.46067 26.0209 4.71365 26.1126 4.98747L32.0796 22.7117L32.0969 22.7686C32.4321 23.9422 31.8117 25.122 30.6972 25.4977C30.4771 25.5712 30.2468 25.6097 30.0147 25.6119Z" fill="black"/>
<path d="M21.1444 28.5975C20.6806 28.6019 20.2274 28.4594 19.8496 28.1904C19.4719 27.9214 19.1889 27.5397 19.0414 27.1L13.0755 9.37495C12.9831 9.10149 12.9455 8.81249 12.9649 8.52449C12.9843 8.23649 13.0603 7.95514 13.1885 7.69655C13.3168 7.43796 13.4948 7.20721 13.7124 7.01751C13.93 6.82781 14.1828 6.68289 14.4565 6.59104C14.6769 6.51734 14.9076 6.47868 15.14 6.47646C15.6036 6.47188 16.0567 6.61419 16.4343 6.88298C16.812 7.15177 17.0949 7.53324 17.2424 7.9727L23.2085 25.6985C23.301 25.972 23.3386 26.2612 23.3192 26.5493C23.2997 26.8375 23.2236 27.1189 23.0951 27.3776C22.9667 27.6363 22.7885 27.867 22.5707 28.0567C22.3529 28.2464 22.0999 28.3912 21.826 28.4829C21.606 28.5566 21.3764 28.5954 21.1444 28.5975Z" fill="black"/>
<path d="M27.0728 21.62L31.2338 20.1974L29.8736 16.1579L25.7078 17.5657L27.0728 21.62Z" fill="black"/>
<path d="M18.2163 24.6483L22.3769 23.2258L21.0064 19.1554L16.8417 20.5636L18.2163 24.6483Z" fill="black"/>
<path d="M24.1103 12.8213L28.2716 11.4005L26.9273 7.40819L22.7583 8.80494L24.1103 12.8213Z" fill="black"/>
<path d="M15.2528 15.8454L19.4141 14.4246L18.0534 10.3814L13.8844 11.7779L15.2528 15.8454Z" fill="black"/>
</g>
</g>
<defs>
<clipPath id="clip0_3_183421">
<rect width="106" height="32" fill="white" transform="translate(0 0.000244141)"/>
</clipPath>
</defs>
</svg>
