<svg width="106" height="32" viewBox="0 0 106 32" fill="none" xmlns="http://www.w3.org/2000/svg">
<g clip-path="url(#clip0_3_183411)">
<mask id="mask0_3_183411" style="mask-type:alpha" maskUnits="userSpaceOnUse" x="0" y="0" width="106" height="33">
<rect y="0.000244141" width="106" height="32" fill="#919EAB"/>
</mask>
<g mask="url(#mask0_3_183411)">
<path d="M23.1069 3.00024C16.0376 3.00024 10.3066 8.7311 10.3066 15.8003C10.3066 22.8698 16.0376 28.6002 23.1069 28.6002C30.1769 28.6002 35.9073 22.8698 35.9073 15.8003C35.9073 8.73156 30.1769 3.00086 23.1067 3.00086L23.1069 3.00024ZM28.977 21.4616C28.9224 21.5511 28.8506 21.629 28.7659 21.6907C28.6811 21.7525 28.585 21.7969 28.4831 21.8215C28.3811 21.846 28.2754 21.8502 28.1718 21.8339C28.0682 21.8175 27.9689 21.7809 27.8795 21.7261C24.8741 19.8903 21.0908 19.4746 16.6351 20.4925C16.4288 20.5395 16.2123 20.5025 16.0332 20.3899C15.8541 20.2773 15.7271 20.0981 15.68 19.8918C15.6565 19.7897 15.6535 19.6839 15.6709 19.5806C15.6884 19.4773 15.7261 19.3784 15.7818 19.2897C15.8376 19.201 15.9103 19.1241 15.9958 19.0635C16.0813 19.0029 16.1779 18.9597 16.2801 18.9365C21.156 17.8225 25.3385 18.3022 28.7125 20.3642C29.0886 20.595 29.2078 21.0856 28.977 21.4616ZM30.5437 17.9763C30.2548 18.4459 29.6403 18.5941 29.1711 18.3052C25.7304 16.1904 20.4856 15.5779 16.416 16.8133C15.8882 16.9727 15.3307 16.6752 15.1705 16.1484C15.0941 15.8951 15.1212 15.6218 15.246 15.3885C15.3707 15.1551 15.5829 14.9808 15.836 14.9037C20.4847 13.4932 26.2639 14.1764 30.2151 16.6045C30.6843 16.8934 30.8326 17.5078 30.5437 17.9765V17.9763ZM30.6782 14.347C26.5527 11.8967 19.7463 11.6713 15.8075 12.8668C15.175 13.0586 14.5061 12.7016 14.3144 12.0691C14.2222 11.7652 14.2545 11.4371 14.4042 11.1571C14.5538 10.877 14.8086 10.6678 15.1124 10.5756C19.6339 9.20295 27.1504 9.46815 31.9001 12.2878C32.0355 12.3679 32.1537 12.4739 32.2481 12.5997C32.3424 12.7256 32.411 12.8688 32.4499 13.0212C32.4888 13.1736 32.4972 13.3321 32.4748 13.4878C32.4523 13.6435 32.3993 13.7932 32.3189 13.9284C31.9826 14.4973 31.2459 14.6848 30.6788 14.347H30.6782ZM45.1318 14.8166C42.9216 14.2895 42.5288 13.9196 42.5288 13.1424C42.5288 12.4081 43.2197 11.9139 44.2483 11.9139C45.2449 11.9139 46.2324 12.2892 47.2687 13.0617C47.2993 13.0851 47.339 13.0944 47.3772 13.0883C47.3964 13.0855 47.4149 13.0789 47.4315 13.0687C47.448 13.0586 47.4623 13.0452 47.4735 13.0293L48.5526 11.5081C48.574 11.4779 48.583 11.4408 48.5779 11.4042C48.5727 11.3676 48.5539 11.3344 48.5251 11.3112C47.2916 10.3218 45.9037 9.8408 44.2804 9.8408C41.8944 9.8408 40.2268 11.2729 40.2268 13.3218C40.2268 15.5191 41.6652 16.2971 44.1505 16.8976C46.2645 17.3848 46.6221 17.7929 46.6221 18.5223C46.6221 19.3309 45.9007 19.8338 44.739 19.8338C43.4489 19.8338 42.3958 19.3981 41.2188 18.3801C41.1895 18.3553 41.1517 18.3427 41.1134 18.345C41.0736 18.348 41.0385 18.3664 41.014 18.3954L39.8034 19.8353C39.753 19.8964 39.7591 19.9851 39.8172 20.0371C41.1867 21.2599 42.8712 21.9049 44.6901 21.9049C47.2611 21.9049 48.9225 20.5002 48.9225 18.3251C48.9271 16.4898 47.8281 15.4734 45.1364 14.8186L45.1318 14.8166ZM54.7401 12.6369C53.6258 12.6369 52.7117 13.0759 51.9566 13.9754V12.9629C51.9568 12.9247 51.9418 12.8879 51.9148 12.8607C51.8879 12.8335 51.8512 12.8181 51.813 12.8179H49.8335C49.7541 12.8179 49.6899 12.883 49.6899 12.9629V24.213C49.6899 24.2924 49.7541 24.3582 49.8335 24.3582H51.813C51.8924 24.3582 51.9566 24.2924 51.9566 24.213V20.6622C52.7117 21.5075 53.6258 21.9217 54.7401 21.9217C56.8112 21.9217 58.9083 20.3275 58.9083 17.2798C58.9114 14.2315 56.8143 12.6368 54.7416 12.6368L54.7401 12.6369ZM56.6064 17.2798C56.6064 18.8311 55.6511 19.9148 54.2815 19.9148C52.9288 19.9148 51.9077 18.7821 51.9077 17.2798C51.9077 15.7772 52.9288 14.6449 54.2815 14.6449C55.6281 14.6448 56.6064 15.7526 56.6064 17.2796V17.2798ZM64.281 12.6369C61.6138 12.6369 59.5243 14.6906 59.5243 17.3129C59.5243 19.9071 61.6 21.9385 64.249 21.9385C66.9254 21.9385 69.021 19.8918 69.021 17.2798C69.021 14.6766 66.9391 12.6372 64.281 12.6372V12.6369ZM64.281 19.9301C62.8626 19.9301 61.7926 18.7898 61.7926 17.279C61.7926 15.7613 62.8259 14.66 64.249 14.66C65.6766 14.66 66.7527 15.7999 66.7527 17.3122C66.7527 18.8295 65.7133 19.9301 64.281 19.9301ZM74.7162 12.8179H72.5381V10.5915C72.5382 10.5725 72.5345 10.5537 72.5273 10.5362C72.5202 10.5187 72.5096 10.5027 72.4963 10.4892C72.4829 10.4758 72.467 10.4651 72.4496 10.4578C72.4321 10.4504 72.4133 10.4466 72.3944 10.4465H70.415C70.3355 10.4465 70.2698 10.5117 70.2698 10.5915V12.8179H69.319C69.2395 12.8179 69.1754 12.883 69.1754 12.9629V14.6637C69.1754 14.7435 69.2395 14.8088 69.319 14.8088H70.2698V19.2101C70.2698 20.9878 71.1548 21.8896 72.9019 21.8896C73.6111 21.8896 74.1996 21.7429 74.7544 21.428C74.8003 21.4035 74.8278 21.3546 74.8278 21.3027V19.6824C74.8278 19.6335 74.8018 19.5861 74.759 19.5602C74.7382 19.5468 74.7142 19.5393 74.6895 19.5382C74.6648 19.5371 74.6403 19.5426 74.6184 19.554C74.2378 19.7451 73.8694 19.8338 73.4567 19.8338C72.8224 19.8338 72.5381 19.5449 72.5381 18.8998V14.8095H74.7162C74.7957 14.8095 74.8599 14.7444 74.8599 14.6645V12.9639C74.8605 12.9449 74.8573 12.926 74.8504 12.9083C74.8436 12.8906 74.8332 12.8745 74.8199 12.8609C74.8066 12.8473 74.7907 12.8366 74.7731 12.8294C74.7556 12.8221 74.7367 12.8185 74.7177 12.8188L74.7162 12.8179ZM82.3037 12.8266V12.5531C82.3037 11.7487 82.6125 11.3899 83.3034 11.3899C83.7161 11.3899 84.0478 11.4719 84.4192 11.5957C84.4651 11.6101 84.5125 11.6029 84.5491 11.5755C84.5678 11.5621 84.5829 11.5444 84.5933 11.5239C84.6036 11.5034 84.6089 11.4808 84.6087 11.4578V9.79021C84.6091 9.75906 84.5993 9.72865 84.5808 9.70357C84.5623 9.6785 84.5362 9.66014 84.5063 9.65126C84.115 9.53464 83.6137 9.41496 82.8617 9.41496C81.0351 9.41496 80.0675 10.4443 80.0675 12.3905V12.8093H79.1168C79.0373 12.8093 78.9716 12.8744 78.9716 12.9542V14.6637C78.9716 14.7435 79.0373 14.8088 79.1168 14.8088H80.0675V21.5961C80.0675 21.6771 80.1333 21.7413 80.2127 21.7413H82.1906C82.2717 21.7413 82.3358 21.6771 82.3358 21.5961V14.8092H84.1838L87.0146 21.5961C86.6936 22.3084 86.3772 22.4506 85.9462 22.4506C85.5977 22.4506 85.2293 22.3466 84.8548 22.1403C84.8194 22.1224 84.7784 22.1186 84.7402 22.1296C84.702 22.1433 84.6699 22.1709 84.6546 22.2075L83.9836 23.6795C83.9515 23.7498 83.979 23.8308 84.0463 23.8675C84.7463 24.2466 85.3776 24.4086 86.1587 24.4086C87.6199 24.4086 88.4285 23.7269 89.1393 21.8957L92.5723 13.0247C92.5812 13.0028 92.5845 12.9789 92.5819 12.9554C92.5792 12.9319 92.5706 12.9094 92.557 12.89C92.5441 12.8706 92.5266 12.8547 92.5061 12.8438C92.4855 12.8328 92.4626 12.827 92.4393 12.8271H90.3789C90.3162 12.8271 90.2612 12.8663 90.2413 12.9243L88.1304 18.9518L85.8193 12.9203C85.809 12.893 85.7906 12.8694 85.7666 12.8528C85.7426 12.8361 85.7141 12.8271 85.6848 12.8271H82.3037V12.8266ZM77.9047 12.8179H75.9253C75.8458 12.8179 75.7801 12.883 75.7801 12.9629V21.5961C75.7801 21.6771 75.8458 21.7413 75.9253 21.7413H77.9047C77.9842 21.7413 78.0499 21.6771 78.0499 21.5961V12.9636C78.0499 12.9445 78.0462 12.9256 78.0389 12.908C78.0316 12.8903 78.0209 12.8743 78.0074 12.8608C77.9939 12.8474 77.9779 12.8367 77.9603 12.8294C77.9427 12.8221 77.9238 12.8184 77.9047 12.8185V12.8179ZM76.9264 8.8867C76.1423 8.8867 75.5065 9.52134 75.5065 10.3053C75.5065 11.0897 76.1423 11.7252 76.9264 11.7252C77.7106 11.7252 78.3449 11.0897 78.3449 10.3053C78.3449 9.52149 77.709 8.8867 76.9264 8.8867ZM94.2628 15.5938C93.4802 15.5938 92.8704 14.9648 92.8704 14.201C92.8704 13.4372 93.4879 12.8011 94.2705 12.8011C95.0531 12.8011 95.663 13.4299 95.663 14.1931C95.663 14.9569 95.0454 15.5938 94.2628 15.5938ZM94.2705 12.9396C93.5567 12.9396 93.0171 13.5066 93.0171 14.201C93.0171 14.8951 93.5536 15.4546 94.2628 15.4546C94.9767 15.4546 95.5162 14.8879 95.5162 14.1931C95.5162 13.499 94.9797 12.9396 94.2705 12.9396ZM94.5792 14.3363L94.9736 14.8878H94.6404L94.2858 14.3819H93.9816V14.8878H93.7034V13.4259H94.3546C94.6954 13.4259 94.9186 13.5997 94.9186 13.8923C94.9201 14.1319 94.781 14.2784 94.5808 14.3363H94.5792ZM94.3438 13.6768H93.9816V14.1391H94.3438C94.5242 14.1391 94.6327 14.0506 94.6327 13.9077C94.6327 13.7573 94.5242 13.6768 94.3438 13.6768Z" fill="black"/>
</g>
</g>
<defs>
<clipPath id="clip0_3_183411">
<rect width="106" height="32" fill="white" transform="translate(0 0.000244141)"/>
</clipPath>
</defs>
</svg>
