<svg width="106" height="32" viewBox="0 0 106 32" fill="none" xmlns="http://www.w3.org/2000/svg">
<g clip-path="url(#clip0_3_183430)">
<mask id="mask0_3_183430" style="mask-type:alpha" maskUnits="userSpaceOnUse" x="0" y="0" width="106" height="33">
<rect y="0.000244141" width="106" height="32" fill="#919EAB"/>
</mask>
<g mask="url(#mask0_3_183430)">
<path d="M103.825 19.5557C103.507 19.5557 103.249 19.8137 103.249 20.1313C103.249 20.4489 103.507 20.7069 103.825 20.7069C104.142 20.7069 104.4 20.4489 104.4 20.1313C104.4 19.8137 104.142 19.5557 103.825 19.5557ZM103.825 20.6156C103.557 20.6156 103.34 20.3977 103.34 20.1313C103.34 19.8635 103.558 19.647 103.825 19.647C104.092 19.647 104.31 19.8648 104.31 20.1313C104.31 20.3978 104.092 20.6156 103.825 20.6156ZM104.012 20.0327C104.012 19.928 103.938 19.866 103.828 19.866H103.644V20.3905H103.734V20.2007H103.833L103.928 20.3905H104.025L103.921 20.1812C103.977 20.1556 104.012 20.1045 104.012 20.0327ZM103.825 20.1191H103.736V19.9451H103.825C103.885 19.9451 103.922 19.9755 103.922 20.0315C103.922 20.0887 103.884 20.1191 103.825 20.1191ZM34.4685 13.7303V12.3381H32.3341V20.6205H34.4685V15.6543C34.4685 14.7549 35.0454 14.3132 35.9447 14.3132H37.1129V12.3382H36.115C35.3338 12.3381 34.6547 12.7458 34.4685 13.7303ZM39.1123 9.06219C38.3822 9.06219 37.8224 9.63902 37.8224 10.3692C37.8224 11.0823 38.3822 11.6591 39.1123 11.6591C39.8425 11.6591 40.4023 11.0823 40.4023 10.3692C40.4022 9.63899 39.8425 9.06219 39.1123 9.06219ZM38.0475 20.6205H40.1771V12.3381H38.0475V20.6205ZM50.3214 16.4793C50.3214 18.8438 48.4047 20.7604 46.0402 20.7604C45.0861 20.7604 44.2209 20.4477 43.5273 19.9195V23.0519H41.3977V12.3381H43.5273V13.0391C44.2209 12.5109 45.0861 12.1982 46.0402 12.1982C48.4047 12.1982 50.3214 14.1148 50.3214 16.4793ZM48.1784 16.4793C48.1784 15.1955 47.1367 14.1538 45.8528 14.1538C44.569 14.1538 43.5273 15.1955 43.5273 16.4793C43.5273 17.7632 44.569 18.8048 45.8528 18.8048C47.1367 18.8048 48.1784 17.7644 48.1784 16.4793ZM87.3352 15.7528L86.0927 15.4121C85.275 15.1991 84.9574 14.9484 84.9574 14.5164C84.9574 14.0954 85.4052 13.8009 86.0453 13.8009C86.655 13.8009 87.1332 14.2 87.1332 14.7111V14.7585H89.0961V14.7111C89.0961 13.2082 87.8707 12.1981 86.0453 12.1981C84.2382 12.1981 82.9251 13.207 82.9251 14.5979C82.9251 15.6798 83.6419 16.4951 84.8929 16.8334L86.083 17.1583C86.9872 17.409 87.3231 17.6865 87.3231 18.1842C87.3231 18.7087 86.8375 19.0616 86.1146 19.0616C85.3613 19.0616 84.8539 18.5845 84.8539 17.8763V17.8288H82.7705V17.8763C82.7705 19.5751 84.1384 20.7628 86.0976 20.7628C87.9851 20.7628 89.3553 19.6031 89.3553 18.0065C89.3553 17.2228 89.0048 16.1982 87.3352 15.7528ZM57.876 12.3381H60.0056V20.6205H57.876V19.9195C57.1824 20.4477 56.3171 20.7604 55.3631 20.7604C52.9986 20.7604 51.082 18.8438 51.082 16.4793C51.082 14.1148 52.9986 12.1981 55.3631 12.1981C56.3171 12.1981 57.1824 12.5109 57.876 13.039V12.3381ZM57.876 16.4793C57.876 15.1942 56.8343 14.1538 55.5505 14.1538C54.2666 14.1538 53.225 15.1955 53.225 16.4793C53.225 17.7632 54.2666 18.8048 55.5505 18.8048C56.8355 18.8048 57.876 17.7644 57.876 16.4793ZM67.6954 9.39076H69.825V20.6217H67.6954V19.9207C67.0017 20.4489 66.1365 20.7616 65.1824 20.7616C62.8179 20.7616 60.9013 18.845 60.9013 16.4805C60.9013 14.116 62.8179 12.1994 65.1824 12.1994C66.1365 12.1994 67.0017 12.5121 67.6954 13.0402V9.39076ZM67.6954 16.4793C67.6954 15.1955 66.6536 14.1538 65.3698 14.1538C64.086 14.1538 63.0443 15.1955 63.0443 16.4793C63.0443 17.7632 64.0847 18.8048 65.3698 18.8048C66.6536 18.8048 67.6954 17.7644 67.6954 16.4793ZM79.7124 20.6205H81.842V12.3381H79.7124V20.6205ZM80.7772 9.06219C80.0471 9.06219 79.4873 9.63902 79.4873 10.3692C79.4873 11.0823 80.0471 11.6591 80.7772 11.6591C81.5074 11.6591 82.0672 11.0823 82.0672 10.3692C82.0672 9.63899 81.5074 9.06219 80.7772 9.06219ZM98.5601 16.4793C98.5601 18.8438 96.6435 20.7604 94.2789 20.7604C91.9145 20.7604 89.9978 18.8438 89.9978 16.4793C89.9978 14.1148 91.9145 12.1982 94.2789 12.1982C96.6435 12.1982 98.5601 14.1148 98.5601 16.4793ZM96.6045 16.4793C96.6045 15.1955 95.5628 14.1538 94.279 14.1538C92.9951 14.1538 91.9534 15.1955 91.9534 16.4793C91.9534 17.7632 92.9939 18.8048 94.279 18.8048C95.5628 18.8048 96.6045 17.7644 96.6045 16.4793ZM25.209 9.39076V11.2904H28.233V20.6205H30.3554V11.2904H33.3794V9.39076H25.209ZM74.6914 18.3521L72.7967 12.3382H70.56L73.4015 20.6205H75.9643L78.8228 12.3382H76.5861L74.6914 18.3521ZM101.68 13.7303V12.3381H99.5458V20.6205H101.68V15.6543C101.68 14.7549 102.257 14.3132 103.156 14.3132H104.325V12.3382H103.327C102.545 12.3381 101.868 12.7458 101.68 13.7303Z" fill="black"/>
<path fill-rule="evenodd" clip-rule="evenodd" d="M6.15564 16.7362C6.15564 18.2379 7.37252 19.4548 8.87422 19.4548C10.3759 19.4548 11.5928 18.2379 11.5928 16.7362C11.5928 15.2345 10.3759 14.0176 8.87422 14.0176C7.37255 14.0176 6.15564 15.2345 6.15564 16.7362ZM8.87422 18.1612C9.66155 18.1612 10.2992 17.5235 10.2992 16.7362C10.2992 15.9488 9.66155 15.3099 8.87422 15.3112C8.08689 15.3112 7.44921 15.9488 7.44921 16.7362C7.44921 17.5235 8.08689 18.1612 8.87422 18.1612Z" fill="black"/>
<path d="M9.87452 12.6765C11.5916 13.3325 12.8925 14.8682 12.8925 16.6571C12.8925 14.8682 14.1934 13.3337 15.9092 12.6765C14.9807 12.2883 13.9609 12.0729 12.8913 12.0729C11.8216 12.0729 10.803 12.2883 9.87452 12.6765Z" fill="black"/>
<path fill-rule="evenodd" clip-rule="evenodd" d="M14.1909 16.7362C14.1909 18.2379 15.4078 19.4548 16.9095 19.4548C18.4112 19.4548 19.6281 18.2379 19.6281 16.7362C19.6281 15.2345 18.4112 14.0176 16.9095 14.0176C15.4078 14.0176 14.1909 15.2345 14.1909 16.7362ZM15.4845 16.735C15.4845 15.9476 16.1222 15.3099 16.9095 15.3099C17.6969 15.3099 18.3345 15.9488 18.3345 16.735C18.3345 17.5223 17.6969 18.16 16.9095 18.16C16.1222 18.16 15.4845 17.5223 15.4845 16.735Z" fill="black"/>
<path fill-rule="evenodd" clip-rule="evenodd" d="M23.7828 15.8917C23.7828 21.9068 18.9066 26.7831 12.8914 26.7831C6.87625 26.7831 2 21.9068 2 15.8917C2 9.87649 6.87625 5.00024 12.8914 5.00024C18.9066 5.00024 23.7828 9.87649 23.7828 15.8917ZM20.9327 12.337L19.6184 13.7669C20.424 14.5007 20.929 15.5594 20.9278 16.7362C20.9278 18.9546 19.1268 20.7532 16.9083 20.7532C15.8545 20.7532 14.8956 20.348 14.1788 19.6836L12.8913 21.0842L11.6038 19.6823C10.887 20.3468 9.92688 20.7532 8.87303 20.7532C6.65459 20.7532 4.85596 18.9546 4.85596 16.7362C4.85596 15.5607 5.36098 14.5019 6.16657 13.7669L4.85229 12.337H7.77411C9.23077 11.3416 10.988 10.7599 12.8913 10.7599C14.7969 10.7599 16.5591 11.3403 18.0181 12.337H20.9327Z" fill="black"/>
</g>
</g>
<defs>
<clipPath id="clip0_3_183430">
<rect width="106" height="32" fill="white" transform="translate(0 0.000244141)"/>
</clipPath>
</defs>
</svg>
