<svg width="106" height="32" viewBox="0 0 106 32" fill="none" xmlns="http://www.w3.org/2000/svg">
<g clip-path="url(#clip0_3_183436)">
<mask id="mask0_3_183436" style="mask-type:alpha" maskUnits="userSpaceOnUse" x="0" y="0" width="106" height="33">
<rect y="0.000244141" width="106" height="32" fill="#919EAB"/>
</mask>
<g mask="url(#mask0_3_183436)">
<path fill-rule="evenodd" clip-rule="evenodd" d="M32.4163 8.9383C32.6877 9.09195 33.1082 9.20905 33.5225 9.24611C33.7577 9.26695 34.2488 9.25357 34.4866 9.2196C35.2995 9.10327 35.9722 8.76432 36.6021 8.15335C37.1955 7.57763 37.5339 7.00448 37.6367 6.40019C37.6809 6.13948 37.6657 5.7712 37.6013 5.55733C37.4703 5.1211 37.1312 4.63932 36.7577 4.35931C36.3628 4.06308 35.8962 3.95679 35.2509 4.01599C34.201 4.11224 33.2377 4.59608 32.4243 5.43508C31.9883 5.8847 31.7324 6.32684 31.6363 6.79653C31.589 7.02661 31.5843 7.48781 31.6267 7.73024C31.6807 8.04217 31.7875 8.31265 31.933 8.51057C32.0345 8.64774 32.2664 8.85337 32.4163 8.9383ZM80.8494 26.4148C81.8691 27.3719 83.1624 27.8856 84.8254 27.9947C85.0753 28.0109 86.1187 27.989 86.3849 27.9613C88.4493 27.751 90.1606 26.9802 91.6586 25.5853C92.6286 24.6825 93.4989 23.4867 94.0287 22.3286C94.6211 21.0349 94.9274 19.6742 94.9695 18.1496C95.0155 16.4783 94.6227 15.0144 93.8292 13.9C93.5002 13.4375 93.0559 12.9663 92.6984 12.6994C92.105 12.2572 91.396 11.9466 90.6258 11.7914C90.0802 11.6815 89.6152 11.6452 88.9303 11.6594C87.3206 11.6921 85.9187 12.0267 84.5902 12.6948C83.4242 13.2816 82.4767 14.0256 81.4785 15.1397C81.0117 15.6606 80.7181 16.0361 80.3899 16.5326C79.5765 17.7612 79.1017 19.0552 78.9598 20.4316C78.9055 20.9538 78.9068 21.6983 78.9624 22.2213L78.973 22.3217L78.5667 22.4951C76.5711 23.347 74.873 23.8095 73.1403 23.9729C72.7265 24.0115 71.8477 24.0269 71.6063 24.0002C70.9761 23.9286 70.4711 23.7042 70.0627 23.313C69.9356 23.1913 69.7309 22.9563 69.7526 22.9563C69.7877 22.9563 70.3357 22.8477 70.6316 22.7823C72.7934 22.3047 74.6949 21.3748 76.2372 20.0425C77.5507 18.9078 78.3602 17.8351 78.7169 16.7567C78.8768 16.2731 78.9244 15.9468 78.9094 15.4372C78.8955 14.9523 78.813 14.5051 78.6639 14.1025C78.2069 12.8682 77.1808 12.1618 75.5401 11.9515C74.6755 11.8408 73.5039 11.8892 72.5083 12.0771C70.0715 12.5373 67.9038 13.8776 66.086 16.0472C65.4642 16.7897 64.9963 17.4992 64.6045 18.2934C64.0299 19.458 63.7573 20.5471 63.7263 21.8064C63.7164 22.1961 63.7387 22.8284 63.7671 22.9476C63.7735 22.9772 63.7433 23.0039 63.6081 23.0904C63.375 23.2397 63.1411 23.3591 62.9713 23.4157C62.8327 23.462 62.8157 23.4636 62.5562 23.4543C62.2491 23.4433 62.0953 23.4095 61.9186 23.3164C61.6784 23.1885 61.581 22.9864 61.5355 22.5211C61.4779 21.9338 61.5497 21.4803 62.0398 19.3267C62.4301 17.6127 62.5727 16.7477 62.6193 15.8202C62.6839 14.5269 62.4135 13.6148 61.763 12.9326C61.3406 12.4889 60.7356 12.23 59.9488 12.1553C59.6764 12.1296 59.1326 12.143 58.8121 12.1834C57.4808 12.3512 56.2593 12.9503 55.1034 14.0024C54.816 14.2639 54.3386 14.7531 54.0931 15.038C53.9654 15.186 53.7816 15.3672 53.5787 15.5448L53.2626 15.8215L53.251 15.4493C53.2262 14.6747 53.1109 14.1252 52.8662 13.6169C52.7423 13.3548 52.5743 13.1158 52.3694 12.9102C51.8251 12.3648 51.029 12.1108 49.9693 12.144C48.8315 12.1798 47.6884 12.5053 46.6579 13.087C46.4511 13.2038 45.9835 13.5132 45.7801 13.6681C45.0538 14.2209 44.402 14.897 43.9375 15.5785C43.8706 15.6768 43.8156 15.7473 43.8156 15.7355C43.8156 15.7237 43.8298 15.6351 43.8466 15.5389C43.8939 15.2692 43.889 14.6178 43.8373 14.2845C43.7421 13.672 43.5374 13.1431 43.2025 12.6438C42.8776 12.1597 42.485 11.8766 41.9843 11.7657C41.9084 11.7487 41.7649 11.7371 41.6235 11.7363C41.425 11.7351 41.3697 11.7412 41.2643 11.776C41.0236 11.8552 40.7401 12.0207 40.3744 12.2943C39.8921 12.6556 39.5455 12.9619 38.3842 14.0526C37.4344 14.9449 36.6427 15.6797 36.4863 15.8148C36.4302 15.8634 36.3834 15.9082 36.3824 15.9144C36.3814 15.9231 37.2578 16.9286 37.3646 17.0414C37.3837 17.0619 37.4315 17.0349 37.6468 16.8823C38.1679 16.513 38.5434 16.2842 38.7225 16.226C38.98 16.1426 39.1847 16.3099 39.21 16.6247C39.2211 16.7624 39.1873 17.3358 39.141 17.7988C39.0839 18.3706 38.9872 19.0375 38.799 20.1619C38.7013 20.7451 38.5956 21.4204 38.5646 21.6623C38.5333 21.9042 38.5044 22.1202 38.5 22.1423C38.4853 22.2177 37.6137 22.8843 37.2113 23.128C36.989 23.2628 36.707 23.3959 36.5714 23.4312C36.3367 23.4921 35.9908 23.4528 35.7494 23.3385C35.6476 23.2901 35.5804 23.2402 35.4781 23.1378C35.2056 22.865 35.079 22.4954 35.0531 21.8983C35.0428 21.6605 35.0456 21.635 35.1526 20.9708C35.4755 18.9749 35.7696 17.3209 36.0573 15.8873C36.2123 15.115 36.2397 14.9529 36.254 14.7135C36.3044 13.8784 36.1345 13.1498 35.7598 12.5887C35.3483 11.9734 34.7523 11.6995 33.8924 11.7309C33.6623 11.7397 33.5814 11.75 33.4486 11.7886C32.7613 11.9891 31.9425 12.5715 30.5352 13.8609C30.1933 14.1741 29.8753 14.4646 29.8288 14.5069L29.744 14.583L29.7322 14.4348C29.6089 12.8963 29.0431 12.0025 27.972 11.654C27.1842 11.3977 25.9472 11.455 25.0364 11.7901C24.6208 11.9433 24.1475 12.2127 23.7924 12.4989C23.5797 12.6703 23.2199 13.0389 23.038 13.2718C22.536 13.9144 22.1527 14.6546 21.826 15.6127C21.7718 15.7723 21.7294 15.9121 21.7322 15.9229C21.7353 15.9355 21.8054 15.9175 21.9196 15.8745C22.3264 15.7216 22.6836 15.6547 23.0907 15.6547C23.4383 15.6547 23.5851 15.6822 23.8035 15.7893C24.0736 15.9216 24.2465 16.1411 24.3391 16.4698C24.3659 16.5668 24.3716 16.6517 24.3711 16.9729C24.3703 17.3049 24.3644 17.3855 24.3292 17.5468C24.1886 18.1933 23.7924 19.0377 23.1385 20.0867C22.345 21.3589 21.7666 21.9879 21.3618 22.0187C21.2721 22.0252 21.2416 22.0187 21.1421 21.9699C20.7723 21.7884 20.4249 21.0668 20.1124 19.8299C19.8498 18.7901 19.6813 17.8899 19.2833 15.393C19.1305 14.4358 19.0853 14.2008 18.9853 13.8488C18.5666 12.3751 17.7938 11.6802 16.6301 11.7315C16.1678 11.7515 15.7733 11.9067 15.1504 12.3141C14.5676 12.695 14.0626 13.1042 13.1916 13.9013C12.5555 14.4816 11.9165 15.0587 11.2745 15.6326C10.9907 15.8853 10.9566 15.9216 10.9786 15.9471C11.1274 16.1373 11.2753 16.3282 11.4221 16.5199C11.6904 16.8682 11.8486 17.0591 11.8625 17.0514C11.8742 17.0444 11.975 16.9757 12.0861 16.8983C12.4841 16.6211 12.9486 16.3236 13.1096 16.2428C13.2637 16.1663 13.2797 16.1614 13.3789 16.1715C13.6237 16.1959 13.9127 16.4216 14.1432 16.7686C14.4433 17.2195 14.7871 18.0515 15.0486 18.9587C15.3309 19.9881 15.6105 21.0183 15.8876 22.0491C16.4071 23.9742 16.6806 24.955 16.7353 25.0953C17.3843 26.7522 18.1329 27.6601 19.0344 27.884C19.2386 27.935 19.6428 27.9378 19.9144 27.89C21.3691 27.6352 23.0183 26.3906 24.9403 24.098C25.9219 22.9262 27.0653 21.3645 27.8138 20.1711C28.4933 19.0879 29.0821 17.9133 29.3504 17.106L29.3987 16.9603L29.7275 16.7261C30.1134 16.4515 30.2711 16.3498 30.4701 16.2482C30.6045 16.1795 30.6262 16.1738 30.751 16.1753C31.1961 16.1815 31.4548 16.5516 31.46 17.1888C31.4615 17.3837 31.4556 17.4184 31.3602 17.7908C31.239 18.2638 31.0405 18.9917 30.751 20.0281C30.3481 21.4695 30.1744 22.1698 30.0043 23.0376C29.7453 24.3597 29.7125 25.2129 29.8934 25.9116C29.9873 26.2745 30.0906 26.5123 30.2767 26.7933C30.744 27.499 31.4621 27.8444 32.4633 27.8444C33.1426 27.8444 33.9105 27.7126 34.6125 27.4756C35.8825 27.0468 37.079 26.2953 38.3979 25.0981C38.4899 25.0144 38.568 24.9496 38.5716 24.9535C38.5925 25.0118 38.611 25.0711 38.6269 25.131C38.7768 25.655 39.035 26.1463 39.3343 26.477C39.7747 26.9637 40.4144 27.3204 41.2082 27.5212C41.744 27.6568 42.2232 27.7144 42.9572 27.7307C43.4478 27.7417 43.4607 27.7415 43.4478 27.708C43.355 27.4674 43.2593 27.01 43.2131 26.5867C43.1267 25.7971 43.126 24.598 43.2115 23.7562C43.3694 22.201 43.8241 20.6766 44.5568 19.2464C45.2154 17.9604 45.8422 17.1981 46.4291 16.9678C46.546 16.9219 46.5997 16.9122 46.7667 16.9057C46.9044 16.9003 47.0058 16.9065 47.0975 16.9258C47.5501 17.0215 47.8052 17.3113 47.915 17.8544C47.9489 18.0206 47.9435 18.6429 47.9057 18.9765C47.8383 19.5694 47.7362 20.0896 47.5248 20.917C47.296 21.8118 47.1908 22.4231 47.1378 23.1635C47.0608 24.2382 47.1247 24.9614 47.356 25.6311C47.7395 26.7424 48.6193 27.3629 50.1732 27.6187C50.6025 27.6895 50.9957 27.7201 51.6191 27.7314C52.1792 27.742 52.1947 27.7415 52.1838 27.708C52.1779 27.6892 52.1363 27.5685 52.0915 27.4403C51.9959 27.1655 51.9142 26.7776 51.8706 26.389C51.832 26.0454 51.8269 24.9856 51.862 24.6099C52.0305 22.8127 52.6516 21.0639 53.7837 19.2011C54.6043 17.8508 55.3329 17.09 55.9612 16.9276C56.113 16.8885 56.4187 16.8983 56.5387 16.9466C56.8767 17.082 57.0664 17.3759 57.1435 17.8847C57.1781 18.1146 57.1781 18.6087 57.1427 18.9458C57.0835 19.5144 56.9214 20.3961 56.7361 21.1558C56.389 22.5842 56.3045 23.0021 56.2063 23.7835C56.0419 25.0899 56.1246 25.9994 56.4683 26.6685C56.7674 27.2512 57.2931 27.6259 58.0173 27.7721C58.5376 27.8776 59.2817 27.8635 59.9765 27.7348C61.4174 27.4687 62.8723 26.7172 64.2742 25.515L64.5301 25.2957L64.6148 25.4424C64.7425 25.6552 64.8827 25.8601 65.0349 26.0563C65.1863 26.2488 65.6577 26.7063 65.8562 26.8541C66.6495 27.4442 67.6301 27.7875 68.8371 27.8987C69.3796 27.9486 70.2656 27.9371 71.0203 27.8701C73.3796 27.6622 75.7161 26.9436 77.9862 25.7279C78.3323 25.5428 79.1472 25.0767 79.4173 24.9094C79.5398 24.8335 79.6458 24.7718 79.6525 24.7718C79.6597 24.7718 79.7006 24.842 79.7432 24.9285C79.9965 25.4376 80.4346 26.0256 80.8494 26.4148ZM88.9719 22.151C88.152 23.5109 87.1923 24.2614 86.1055 24.3927C85.7377 24.4367 85.4097 24.4066 85.1877 24.3077C84.892 24.1765 84.6191 23.879 84.4087 23.4602C84.1078 22.8608 83.99 22.2236 84.0383 21.4567C84.1288 20.0232 84.5338 18.7492 85.3027 17.4812C85.8964 16.5027 86.5304 15.8716 87.2968 15.4982C87.7 15.3013 88.1156 15.1919 88.5881 15.1585C89.0047 15.1286 89.2034 15.1804 89.4221 15.3747C89.6281 15.5582 89.7816 15.8297 89.9321 16.2788C90.0975 16.7716 90.1714 17.2143 90.1874 17.8088C90.2267 19.2737 89.8114 20.7587 88.9719 22.151ZM69.3324 21.2383C71.0047 20.5728 72.5162 19.3946 73.4092 18.0607C73.6873 17.645 73.863 17.251 73.9183 16.9188C73.945 16.7613 73.9318 16.4632 73.8912 16.2944C73.8591 16.1598 73.7767 15.9915 73.7012 15.906C73.626 15.8211 73.489 15.7364 73.3541 15.6924C73.2192 15.6479 72.8393 15.6389 72.6638 15.676C71.9176 15.8332 71.1828 16.4017 70.4436 17.3951C69.6405 18.4738 69.2016 19.4914 69.1003 20.5103C69.074 20.7728 69.0755 21.3212 69.1027 21.3212C69.114 21.3215 69.2174 21.2839 69.3324 21.2383Z" fill="black"/>
</g>
</g>
<defs>
<clipPath id="clip0_3_183436">
<rect width="106" height="32" fill="white" transform="translate(0 0.000244141)"/>
</clipPath>
</defs>
</svg>
