<svg width="48" height="48" viewBox="0 0 48 48" fill="none" xmlns="http://www.w3.org/2000/svg">
<path d="M33.162 3.77062L33.162 18.5553H1.99902L1.99902 4.12475C1.99902 2.79235 2.79138 2 3.76964 2H31.3913C32.3696 2 33.162 2.79235 33.162 3.77062Z" fill="#FA541C"/>
<path d="M33.162 18.5553L33.162 40.511C33.162 41.4892 32.3696 42.2816 31.3913 42.2816H3.76965C2.79138 42.2816 1.99902 41.4892 1.99902 40.8651L1.99902 18.5553H33.162Z" fill="#FA541C"/>
<path d="M6.42627 13.7746L6.42627 6.78069C6.42627 6.09617 6.98118 5.54126 7.6657 5.54126L29.2673 5.54126C29.9518 5.54126 30.5067 6.09617 30.5067 6.78069L30.5067 13.7746C30.5067 14.4592 29.9518 15.0141 29.2673 15.0141L7.66571 15.0141C6.98118 15.0141 6.42627 14.4592 6.42627 13.7746Z" fill="#FEE9D1"/>
<path d="M9.43633 15.0141H7.6657C6.98136 15.0141 6.42627 14.459 6.42627 13.7746L6.42627 6.78069C6.42627 6.09635 6.98136 5.54126 7.6657 5.54126H9.43633C8.75198 5.54126 8.19689 6.09635 8.19689 6.78069L8.19689 13.7746C8.19689 14.459 8.75198 15.0141 9.43633 15.0141Z" fill="#FDAB76"/>
<path d="M30.4186 23.3361V30.4186H18.4226L18.4226 22.0966H29.1791C29.8635 22.0966 30.4186 22.6517 30.4186 23.3361Z" fill="#FDAB76"/>
<path d="M18.4226 22.0966L18.4226 30.4186L6.42627 30.4186L6.42627 23.5131C6.42627 22.6517 6.98136 22.0966 7.66571 22.0966H18.4226Z" fill="#FDAB76"/>
<path d="M18.4226 30.4186L18.4222 38.7404H7.6657C6.98136 38.7404 6.42627 38.1853 6.42627 37.678L6.42627 30.4186L18.4226 30.4186Z" fill="#FDAB76"/>
<path d="M30.4186 30.4186V37.501C30.4186 38.1853 29.8635 38.7404 29.1791 38.7404L18.4222 38.7404L18.4226 30.4186H30.4186Z" fill="#FDAB76"/>
<path d="M29.1792 21.4327H18.4226H7.66611C6.58099 21.4327 5.7627 22.3272 5.7627 23.5132L5.7627 30.4186L5.7627 37.6782C5.7627 38.5978 6.65217 39.4045 7.66612 39.4045H18.4226H29.1792C30.2287 39.4045 31.0826 38.5507 31.0826 37.5011L31.0826 30.4186L31.0826 23.3362C31.0826 22.2866 30.2287 21.4327 29.1792 21.4327ZM29.7546 23.3362L29.7546 29.7547H19.0866L19.0866 22.7607H29.1792C29.4965 22.7607 29.7546 23.0189 29.7546 23.3362ZM7.09066 23.5132C7.09066 23.0631 7.32191 22.7607 7.66611 22.7607H17.7587L17.7587 29.7547H7.09066L7.09066 23.5132ZM7.09066 37.6782L7.09066 31.0826H17.7587L17.7587 38.0766H7.66611C7.33368 38.0766 7.09066 37.797 7.09066 37.6782ZM29.7546 37.5011C29.7546 37.8184 29.4965 38.0766 29.1792 38.0766H19.0866L19.0866 31.0826H29.7546L29.7546 37.5011Z" fill="#FEE9D1"/>
<path d="M33.1624 18.5553L33.1624 16.5634H5.0981C4.60914 16.5634 4.21279 16.167 4.21279 15.678L4.21279 4.12475C4.21279 2.79235 5.00514 2 5.98341 2H3.77013C2.79186 2 1.99951 2.79235 1.99951 4.12475L1.99951 16.5634L1.99951 18.5553L1.99951 40.8651C1.99951 41.4893 2.79187 42.2816 3.77014 42.2816H5.98341C5.00514 42.2816 4.21279 41.4893 4.21279 40.8651L4.21279 19.4406C4.21279 18.9517 4.60914 18.5553 5.0981 18.5553H33.1624Z" fill="#B3200E"/>
<path d="M36.8809 29.3537C41.917 29.3537 45.9996 28.442 45.9996 27.3175C45.9996 26.1929 41.917 25.2812 36.8809 25.2812C31.8448 25.2812 27.7622 26.1929 27.7622 27.3175C27.7622 28.442 31.8448 29.3537 36.8809 29.3537Z" fill="url(#paint0_linear_332_279929)"/>
<path d="M45.9997 39.7807L45.9997 43.9638C45.9997 45.2918 41.9175 46 36.881 46C31.8444 46 27.7622 45.2918 27.7622 43.9638L27.7622 39.7807C27.7622 41.1087 31.8444 41.8169 36.881 41.8169C41.9175 41.8169 45.9997 41.1087 45.9997 39.7807Z" fill="url(#paint1_linear_332_279929)"/>
<path d="M45.9997 31.4146V35.5976C45.9997 36.9256 41.9175 37.6339 36.881 37.6339C31.8444 37.6339 27.7622 36.9256 27.7622 35.5976L27.7622 31.4146C27.7622 32.7425 31.8444 33.4508 36.881 33.4508C41.9175 33.4508 45.9997 32.7425 45.9997 31.4146Z" fill="url(#paint2_linear_332_279929)"/>
<path d="M46.0001 35.5976V39.7807C46.0001 41.1087 41.9179 41.8169 36.8814 41.8169C31.8449 41.8169 27.7627 41.1087 27.7627 39.7807L27.7627 35.5976C27.7627 36.9256 31.8449 37.6338 36.8814 37.6338C41.9179 37.6338 46.0001 36.9256 46.0001 35.5976Z" fill="#5119B7"/>
<path d="M46.0001 27.2314V31.4145C46.0001 32.7425 41.9179 33.4508 36.8814 33.4508C31.8449 33.4508 27.7627 32.7425 27.7627 31.4145L27.7627 27.2314C27.7627 28.5594 31.8449 29.2677 36.8814 29.2677C41.9179 29.2677 46.0001 28.5594 46.0001 27.2314Z" fill="#5119B7"/>
<path d="M27.0539 13.1106H25.8145C24.9603 13.1106 24.2652 12.4155 24.2652 11.5613V8.99387C24.2652 8.13964 24.9603 7.44458 25.8145 7.44458H27.0539C27.9082 7.44458 28.6032 8.13964 28.6032 8.99387V11.5613C28.6032 12.4155 27.9082 13.1106 27.0539 13.1106ZM25.8145 8.77255C25.6924 8.77255 25.5932 8.87179 25.5932 8.99387V11.5613C25.5932 11.6834 25.6924 11.7826 25.8145 11.7826H27.0539C27.176 11.7826 27.2753 11.6834 27.2753 11.5613V8.99387C27.2753 8.87179 27.176 8.77255 27.0539 8.77255H25.8145Z" fill="#770508"/>
<path d="M15.2786 35.2433H10.498C10.1312 35.2433 9.83398 34.9461 9.83398 34.5793C9.83398 34.2125 10.1312 33.9153 10.498 33.9153H15.2786C15.6454 33.9153 15.9426 34.2125 15.9426 34.5793C15.9426 34.9461 15.6454 35.2433 15.2786 35.2433Z" fill="#770508"/>
<path d="M14.836 25.5934H13.5523V24.3097C13.5523 23.9429 13.2551 23.6457 12.8883 23.6457C12.5215 23.6457 12.2243 23.9429 12.2243 24.3097V25.5934H10.9406C10.5738 25.5934 10.2766 25.8906 10.2766 26.2574C10.2766 26.6241 10.5738 26.9213 10.9406 26.9213H12.2243V28.205C12.2243 28.5718 12.5215 28.869 12.8883 28.869C13.2551 28.869 13.5523 28.5718 13.5523 28.205V26.9213H14.836C15.2028 26.9213 15.5 26.6241 15.5 26.2574C15.5 25.8906 15.2028 25.5934 14.836 25.5934Z" fill="#770508"/>
<path d="M24.938 26.2574L25.8457 25.3496C26.105 25.0903 26.105 24.6699 25.8457 24.4106C25.5863 24.1514 25.166 24.1514 24.9067 24.4106L23.999 25.3183L23.0912 24.4106C22.8318 24.1514 22.4115 24.1514 22.1522 24.4106C21.8929 24.67 21.8929 25.0903 22.1522 25.3496L23.0599 26.2574L22.1522 27.1651C21.8929 27.4245 21.8929 27.8448 22.1522 28.1041C22.2819 28.2337 22.4519 28.2985 22.6218 28.2985C22.7917 28.2985 22.9616 28.2337 23.0913 28.1041L23.999 27.1964L24.9068 28.1041C25.0364 28.2337 25.2064 28.2985 25.3763 28.2985C25.5462 28.2985 25.7162 28.2337 25.8459 28.1041C26.1052 27.8447 26.1052 27.4244 25.8459 27.1651L24.938 26.2574Z" fill="#770508"/>
<path d="M22.5068 36.7613C22.337 36.7613 22.167 36.6965 22.0373 36.5669C21.778 36.3075 21.778 35.8871 22.0373 35.6278L25.0473 32.6178C25.3067 32.3586 25.7271 32.3586 25.9864 32.6178C26.2457 32.8772 26.2457 33.2975 25.9864 33.5568L22.9763 36.5669C22.8467 36.6965 22.6767 36.7613 22.5068 36.7613Z" fill="#770508"/>
<path d="M22.7152 33.5612C23.082 33.5612 23.3792 33.2639 23.3792 32.8972C23.3792 32.5305 23.082 32.2332 22.7152 32.2332C22.3485 32.2332 22.0513 32.5305 22.0513 32.8972C22.0513 33.2639 22.3485 33.5612 22.7152 33.5612Z" fill="#770508"/>
<path d="M25.3712 36.9253C25.7379 36.9253 26.0351 36.628 26.0351 36.2613C26.0351 35.8946 25.7379 35.5973 25.3712 35.5973C25.0045 35.5973 24.7072 35.8946 24.7072 36.2613C24.7072 36.628 25.0045 36.9253 25.3712 36.9253Z" fill="#770508"/>
<defs>
<linearGradient id="paint0_linear_332_279929" x1="27.7622" y1="25.2812" x2="48.3136" y2="43.3713" gradientUnits="userSpaceOnUse">
<stop stop-color="#EFD6FF"/>
<stop offset="1" stop-color="#C684FF"/>
</linearGradient>
<linearGradient id="paint1_linear_332_279929" x1="27.7622" y1="25.2812" x2="48.3136" y2="43.3713" gradientUnits="userSpaceOnUse">
<stop stop-color="#EFD6FF"/>
<stop offset="1" stop-color="#C684FF"/>
</linearGradient>
<linearGradient id="paint2_linear_332_279929" x1="27.7622" y1="25.2812" x2="48.3136" y2="43.3713" gradientUnits="userSpaceOnUse">
<stop stop-color="#EFD6FF"/>
<stop offset="1" stop-color="#C684FF"/>
</linearGradient>
</defs>
</svg>
