<svg width="48" height="48" viewBox="0 0 48 48" fill="none" xmlns="http://www.w3.org/2000/svg">
<path d="M2.00098 13.821L22.713 2.33322C23.5141 1.88893 24.4874 1.88893 25.2884 2.33322L46.0005 13.821L2.00098 13.821Z" fill="#FA541C"/>
<path d="M43.3448 42.0153H32.6989L35.3547 38.2751H40.6888L43.3448 42.0153Z" fill="#FA541C"/>
<path d="M43.3448 17.8075H32.6989L35.3547 21.5477H40.6888L43.3448 17.8075Z" fill="#FA541C"/>
<path d="M15.3025 42.0153H4.65662L7.31258 38.2751H12.6467L15.3025 42.0153Z" fill="#FA541C"/>
<path d="M15.3025 17.8075H4.65662L7.31258 21.5477H12.6467L15.3025 17.8075Z" fill="#FA541C"/>
<path d="M23.9446 36.8577C27.7797 36.8577 30.8887 33.7472 30.8887 29.9102C30.8887 26.0733 27.7797 22.9628 23.9446 22.9628C20.1095 22.9628 17.0005 26.0733 17.0005 29.9102C17.0005 33.7472 20.1095 36.8577 23.9446 36.8577Z" fill="url(#paint0_linear_332_279931)"/>
<path opacity="0.4" d="M24.0003 22.9628C23.546 22.9628 23.1024 23.0078 22.6724 23.0912C25.872 23.7113 28.2886 26.5278 28.2886 29.9102C28.2886 33.2927 25.872 36.1092 22.6724 36.7293C23.1023 36.8127 23.546 36.8577 24.0003 36.8577C27.8355 36.8577 30.9445 33.7472 30.9445 29.9102C30.9445 26.0732 27.8355 22.9628 24.0003 22.9628Z" fill="white"/>
<path d="M24.0011 10.7909C25.3213 10.7909 26.3914 9.72026 26.3914 8.3995C26.3914 7.07874 25.3213 6.00806 24.0011 6.00806C22.681 6.00806 21.6108 7.07874 21.6108 8.3995C21.6108 9.72026 22.681 10.7909 24.0011 10.7909Z" fill="url(#paint1_linear_332_279931)"/>
<path d="M2.00098 13.8209L46.0005 13.8209L46.0005 15.8138C46.0005 16.9144 45.1087 17.8067 44.0086 17.8067H3.9929C2.89283 17.8067 2.00098 16.9145 2.00098 15.8138L2.00098 13.8209Z" fill="url(#paint2_linear_332_279931)"/>
<path d="M2.88629 42.0142H45.1152C45.6042 42.0142 46.0005 42.4107 46.0005 42.8999L46.0005 45.1143C46.0005 45.6034 45.6042 46 45.1152 46H2.88629C2.39731 45.9999 2.00097 45.6034 2.00097 45.1142L2.00097 42.8998C2.00097 42.4107 2.39731 42.0142 2.88629 42.0142Z" fill="url(#paint3_linear_332_279931)"/>
<path d="M24.4883 29.2456H24.3452L24.3452 26.9404H24.4884C24.7847 26.9404 25.035 27.2603 25.035 27.6389C25.035 28.0057 25.3323 28.3031 25.699 28.3031C26.0656 28.3031 26.3629 28.0057 26.3629 27.6389C26.3629 26.5212 25.5219 25.6119 24.4883 25.6119H24.3451L24.3451 25.2445C24.3451 24.8776 24.0479 24.5802 23.6812 24.5802C23.3145 24.5802 23.0172 24.8776 23.0172 25.2445L23.0172 25.6119H22.8741C21.8404 25.6119 20.9995 26.5212 20.9995 27.6389L20.9995 28.5473C20.9995 29.665 21.8405 30.5743 22.8741 30.5743H23.0172L23.0172 32.8794H22.8741C22.5778 32.8794 22.3274 32.5596 22.3274 32.181C22.3274 31.8142 22.0301 31.5167 21.6635 31.5167C21.2968 31.5167 20.9995 31.8142 20.9995 32.181C20.9995 33.2987 21.8405 34.208 22.8741 34.208H23.0172L23.0172 34.5754C23.0172 34.9423 23.3145 35.2397 23.6812 35.2397C24.0479 35.2397 24.3451 34.9423 24.3451 34.5754L24.3451 34.208H24.4883C25.5219 34.208 26.3629 33.2987 26.3629 32.181L26.3629 31.2726C26.363 30.1549 25.5221 29.2456 24.4883 29.2456ZM22.8741 29.2457C22.5778 29.2457 22.3274 28.9258 22.3274 28.5473L22.3274 27.6389C22.3274 27.2603 22.5777 26.9404 22.8741 26.9404H23.0172L23.0172 29.2456H22.8741L22.8741 29.2457ZM25.0351 32.181C25.0351 32.5596 24.7848 32.8794 24.4885 32.8794H24.3453L24.3453 30.5742H24.4884C24.7848 30.5742 25.0351 30.894 25.0351 31.2726L25.0351 32.181Z" fill="white"/>
<path d="M35.3541 21.5474L40.6882 21.5474L40.6882 38.2741H35.3541L35.3541 21.5474Z" fill="#FEE9D1"/>
<path d="M7.31201 21.5474H12.6461L12.6461 38.2741H7.31201L7.31201 21.5474Z" fill="#FEE9D1"/>
<path d="M25.2885 2.33322C24.4875 1.88893 23.5141 1.88893 22.7131 2.33322L22.3187 2.55193L42.6365 13.8211H46.0005L25.2885 2.33322Z" fill="#B3200E"/>
<path d="M40.6883 38.2751H38.0325L40.6883 42.0153H43.3443L40.6883 38.2751Z" fill="#B3200E"/>
<path d="M40.6883 17.8075L38.0325 21.5477H40.6883L43.3443 17.8075H40.6883Z" fill="#B3200E"/>
<path d="M12.6462 38.2751H9.99023L12.6462 42.0153H15.3021L12.6462 38.2751Z" fill="#B3200E"/>
<path d="M12.6462 17.8075L9.99023 21.5477H12.6462L15.3021 17.8075H12.6462Z" fill="#B3200E"/>
<g opacity="0.48">
<path d="M38.0325 21.5474H40.6883L40.6883 38.2741H38.0325L38.0325 21.5474Z" fill="#FA541C"/>
<path d="M9.99023 21.5474H12.6461L12.6461 38.2741H9.99023L9.99023 21.5474Z" fill="#FA541C"/>
</g>
<path d="M24.0003 6.00793C23.5089 6.00793 23.0522 6.15652 22.6724 6.41089C23.3128 6.83989 23.7347 7.57026 23.7347 8.39938C23.7347 9.22849 23.3128 9.95878 22.6724 10.3879C23.0522 10.6423 23.5089 10.7908 24.0003 10.7908C25.3205 10.7908 26.3907 9.72014 26.3907 8.39938C26.3907 7.07862 25.3205 6.00793 24.0003 6.00793Z" fill="url(#paint4_linear_332_279931)"/>
<path d="M43.3441 13.8208L43.3441 15.8137C43.3441 16.9143 42.4523 17.8065 41.3522 17.8065H44.0081C45.1082 17.8065 46 16.9143 46 15.8137L46 13.8208H43.3441Z" fill="url(#paint5_linear_332_279931)"/>
<path d="M45.1147 42.0141H42.4589C42.9478 42.0141 43.3442 42.4106 43.3442 42.8998L43.3442 45.1141C43.3442 45.6033 42.9478 45.9999 42.4589 45.9999H45.1147C45.6037 45.9999 46 45.6034 46 45.1141L46 42.8998C46 42.4106 45.6037 42.0141 45.1147 42.0141Z" fill="url(#paint6_linear_332_279931)"/>
<defs>
<linearGradient id="paint0_linear_332_279931" x1="17.0005" y1="22.9628" x2="30.8954" y2="36.851" gradientUnits="userSpaceOnUse">
<stop stop-color="#FFD666"/>
<stop offset="1" stop-color="#FFAB00"/>
</linearGradient>
<linearGradient id="paint1_linear_332_279931" x1="2.00098" y1="6.00806" x2="41.8112" y2="49.8077" gradientUnits="userSpaceOnUse">
<stop stop-color="#C684FF"/>
<stop offset="1" stop-color="#8E33FF"/>
</linearGradient>
<linearGradient id="paint2_linear_332_279931" x1="2.00098" y1="6.00806" x2="41.8112" y2="49.8077" gradientUnits="userSpaceOnUse">
<stop stop-color="#C684FF"/>
<stop offset="1" stop-color="#8E33FF"/>
</linearGradient>
<linearGradient id="paint3_linear_332_279931" x1="2.00098" y1="6.00806" x2="41.8112" y2="49.8077" gradientUnits="userSpaceOnUse">
<stop stop-color="#C684FF"/>
<stop offset="1" stop-color="#8E33FF"/>
</linearGradient>
<linearGradient id="paint4_linear_332_279931" x1="22.6724" y1="6.00793" x2="57.4833" y2="26.3135" gradientUnits="userSpaceOnUse">
<stop stop-color="#8E33FF"/>
<stop offset="1" stop-color="#5119B7"/>
</linearGradient>
<linearGradient id="paint5_linear_332_279931" x1="22.6724" y1="6.00793" x2="57.4833" y2="26.3135" gradientUnits="userSpaceOnUse">
<stop stop-color="#8E33FF"/>
<stop offset="1" stop-color="#5119B7"/>
</linearGradient>
<linearGradient id="paint6_linear_332_279931" x1="22.6724" y1="6.00793" x2="57.4833" y2="26.3135" gradientUnits="userSpaceOnUse">
<stop stop-color="#8E33FF"/>
<stop offset="1" stop-color="#5119B7"/>
</linearGradient>
</defs>
</svg>
