<svg width="48" height="48" viewBox="0 0 48 48" fill="none" xmlns="http://www.w3.org/2000/svg">
<path d="M46.0001 18.0161C46.0001 25.2408 40.4012 30.0576 31.9251 37.3478C30.5074 38.5668 28.9042 39.9461 27.2402 41.415C26.9034 41.7131 26.4707 41.8768 26.0218 41.8768C25.5729 41.8768 25.1402 41.7131 24.8033 41.415C24.6246 41.2573 24.4459 41.0997 24.2689 40.9446C22.794 39.6489 21.3814 38.4341 20.1194 37.3486C11.6432 30.0576 6.04345 25.2408 6.04345 18.0161C6.04346 11.2368 10.7351 6.12366 16.9574 6.12366C19.2019 6.12366 21.2583 6.84044 23.0684 8.2542C24.3758 9.27424 25.3455 10.5036 26.0218 11.5616C26.6981 10.5036 27.6678 9.27424 28.9752 8.2542C30.3142 7.20831 31.7883 6.54408 33.3744 6.26925C33.9319 6.1719 34.5022 6.12366 35.0862 6.12366C41.3085 6.12366 46.0001 11.2368 46.0001 18.0161Z" fill="#FA541C"/>
<path opacity="0.64" d="M46.0007 18.0157C46.0007 25.2404 40.4018 30.0572 31.9257 37.3474C30.508 38.5664 28.9048 39.9457 27.2408 41.4146C26.9039 41.7127 26.4713 41.8764 26.0224 41.8764C25.5735 41.8764 25.1408 41.7127 24.8039 41.4146C24.6252 41.257 24.4465 41.0993 24.2695 40.9442C25.7419 39.6511 27.1545 38.4355 28.42 37.3474C36.8961 30.0572 42.495 25.2404 42.495 18.0157C42.495 11.905 38.6832 7.1485 33.375 6.26889C33.9325 6.17154 34.5028 6.12329 35.0868 6.12329C41.309 6.12329 46.0007 11.2364 46.0007 18.0157Z" fill="#B3200E"/>
<path d="M19.3655 28.3018C19.1344 28.3018 18.9212 28.1765 18.8074 27.9738L15.2598 21.6566L13.7651 24.3183C13.6513 24.521 13.4381 24.6463 13.207 24.6463L2.86318 24.6463C2.50901 24.6463 2.22189 24.357 2.22189 24.0001C2.22189 23.6433 2.50901 23.354 2.86318 23.354L12.8329 23.354L14.7017 20.0264C14.8155 19.8236 15.0287 19.6984 15.2598 19.6984C15.4908 19.6984 15.7041 19.8236 15.8179 20.0264L19.3654 26.3436L23.5336 18.9212C23.6474 18.7185 23.8607 18.5932 24.0917 18.5932C24.3227 18.5932 24.5361 18.7185 24.6498 18.9212L27.1391 23.354L30.9174 23.354C31.2716 23.354 31.5587 23.6433 31.5587 24.0001C31.5587 24.357 31.2716 24.6463 30.9174 24.6463L26.7654 24.6463C26.5343 24.6463 26.321 24.521 26.2073 24.3183L24.0919 20.5515L19.9237 27.9738C19.8098 28.1765 19.5966 28.3018 19.3655 28.3018Z" fill="url(#paint0_linear_332_279930)"/>
<path d="M37.5847 23.9994C37.5847 26.03 35.9456 27.6815 33.9311 27.6815C33.5591 27.6815 33.2 27.6255 32.8622 27.5212C31.3667 27.0595 30.2766 25.6552 30.2766 23.9994C30.2766 22.3444 31.3667 20.9401 32.8622 20.4783C33.2 20.3741 33.5591 20.3181 33.9311 20.3181C35.9456 20.3181 37.5847 21.9696 37.5847 23.9994Z" fill="url(#paint1_linear_332_279930)"/>
<path opacity="0.8" d="M37.5853 24C37.5853 26.0306 35.9461 27.6821 33.9316 27.6821C33.5597 27.6821 33.2005 27.6261 32.8628 27.5219C34.3574 27.0592 35.4476 25.6558 35.4476 24C35.4476 22.345 34.3574 20.9416 32.8628 20.479C33.2005 20.3747 33.5597 20.3187 33.9316 20.3187C35.9461 20.3187 37.5853 21.9703 37.5853 24Z" fill="url(#paint2_linear_332_279930)"/>
<defs>
<linearGradient id="paint0_linear_332_279930" x1="2.00098" y1="23.2551" x2="15.8105" y2="42.6731" gradientUnits="userSpaceOnUse">
<stop stop-color="#EFD6FF"/>
<stop offset="1" stop-color="#C684FF"/>
</linearGradient>
<linearGradient id="paint1_linear_332_279930" x1="2.00098" y1="23.2551" x2="15.8105" y2="42.6731" gradientUnits="userSpaceOnUse">
<stop stop-color="#EFD6FF"/>
<stop offset="1" stop-color="#C684FF"/>
</linearGradient>
<linearGradient id="paint2_linear_332_279930" x1="32.8628" y1="20.3187" x2="39.5551" y2="24.6108" gradientUnits="userSpaceOnUse">
<stop stop-color="#C684FF"/>
<stop offset="1" stop-color="#8E33FF"/>
</linearGradient>
</defs>
</svg>
