<svg width="56" height="56" viewBox="0 0 56 56" fill="none" xmlns="http://www.w3.org/2000/svg">
<path fill-rule="evenodd" clip-rule="evenodd" d="M33.7411 50.6077C36.6515 49.7918 39.5191 48.1555 39.5191 44.9251V40.6616H27.9672V39.2388H45.2974C48.6572 39.2388 49.907 36.9624 51.0754 33.5562C52.2823 30.0495 52.2309 26.6852 51.0754 22.1868C50.2454 18.9478 48.6615 16.5042 45.2974 16.5042H40.9659V21.4754C40.9659 25.3295 37.5889 28.5806 33.7411 28.5806H22.1892C19.0263 28.5806 16.4111 31.1998 16.4111 34.2671V44.9251C16.4111 47.959 19.133 49.7375 22.1892 50.6077C25.8485 51.6497 29.3626 51.838 33.7411 50.6077ZM34.4648 43.5024C33.2705 43.5024 32.2988 44.4562 32.2988 45.6324C32.2988 46.8126 33.2707 47.7666 34.4648 47.7666C35.6635 47.7666 36.6308 46.8124 36.6308 45.6324C36.6308 44.4564 35.663 43.5024 34.4648 43.5024Z" fill="url(#paint0_linear_332_283125)"/>
<path fill-rule="evenodd" clip-rule="evenodd" d="M22.1889 4.99261C17.2969 5.82945 16.4109 7.58684 16.4109 10.8173L16.4106 15.0807H27.9669V16.5035H12.075C8.71499 16.5035 5.77455 18.4663 4.85432 22.1862C3.79292 26.4503 3.74586 29.1032 4.85432 33.5556C5.67608 36.8698 7.63224 39.2382 10.992 39.2382H14.964V34.1247C14.964 30.4299 18.2683 27.1617 22.1889 27.1617H33.7408C36.9551 27.1617 39.5188 24.6012 39.5188 21.4753V10.8173C39.5188 7.78366 36.8782 5.49889 33.7408 4.99261C29.7686 4.35235 25.5101 4.42349 22.1889 4.99261ZM21.4663 7.97595C20.2676 7.97595 19.3003 8.93018 19.3003 10.1102C19.3003 11.2861 20.2681 12.2401 21.4663 12.2401C22.6606 12.2401 23.6322 11.2863 23.6322 10.1102C23.6322 8.92994 22.6603 7.97595 21.4663 7.97595Z" fill="#0277BD"/>
<defs>
<linearGradient id="paint0_linear_332_283125" x1="51.9602" y1="33.9827" x2="-18.2697" y2="33.9827" gradientUnits="userSpaceOnUse">
<stop stop-color="#FFC836"/>
<stop offset="1" stop-color="#FFE873"/>
</linearGradient>
</defs>
</svg>
