<svg width="48" height="48" viewBox="0 0 48 48" fill="none" xmlns="http://www.w3.org/2000/svg">
<path d="M41.0767 16.0164C40.6336 16.0941 40.1794 16.1429 39.7143 16.1429C35.3819 16.1429 31.8571 12.6181 31.8571 8.28571C31.8571 7.82057 31.9059 7.36643 31.9836 6.92329C30.468 6.213 28.8463 5.69443 27.1429 5.40843V2H20.8571V5.40843C17.9924 5.88929 15.3493 7.01521 13.0778 8.633L10.6664 6.22164L6.22164 10.6664L8.633 13.0778C7.01522 15.3493 5.88929 17.9924 5.40843 20.8571H2V27.1429H5.40843C5.88929 30.0076 7.01522 32.6507 8.633 34.9222L6.22164 37.3336L10.6664 41.7784L13.0778 39.367C15.3493 40.9848 17.9932 42.1107 20.8571 42.5916V46H27.1429V42.5916C30.0076 42.1107 32.6507 40.9848 34.9222 39.367L37.3336 41.7784L41.7784 37.3336L39.367 34.9222C40.9848 32.6507 42.1107 30.0068 42.5916 27.1429H46V20.8571H42.5916C42.3056 19.1537 41.787 17.532 41.0767 16.0164ZM36.5714 24C36.5714 30.9434 30.9434 36.5714 24 36.5714C17.0566 36.5714 11.4286 30.9434 11.4286 24C11.4286 17.0566 17.0566 11.4286 24 11.4286C30.9434 11.4286 36.5714 17.0566 36.5714 24Z" fill="url(#paint0_linear_332_279803)"/>
<path d="M39.7139 14.5714C43.1854 14.5714 45.9997 11.7572 45.9997 8.28571C45.9997 4.81421 43.1854 2 39.7139 2C36.2424 2 33.4282 4.81421 33.4282 8.28571C33.4282 11.7572 36.2424 14.5714 39.7139 14.5714Z" fill="url(#paint1_linear_332_279803)"/>
<path d="M34.9997 8.28571C34.9997 5.08079 37.4 2.44157 40.4997 2.05421C40.2419 2.022 39.9803 2 39.7139 2C36.2427 2 33.4282 4.81443 33.4282 8.28571C33.4282 11.757 36.2427 14.5714 39.7139 14.5714C39.9803 14.5714 40.2419 14.5494 40.4997 14.5172C37.4 14.1299 34.9997 11.4906 34.9997 8.28571Z" fill="#118D57"/>
<path opacity="0.64" d="M43.6433 6.71437L38.929 11.4287L35.7861 8.2858L37.3576 6.71437L38.929 8.2858L42.0718 5.14294L43.6433 6.71437Z" fill="white"/>
<path d="M16.2212 8.633C18.4927 7.01521 21.1359 5.88929 24.0006 5.40843V2H20.8577V5.40843C18.7732 5.75807 16.8082 6.45343 15.016 7.42771L16.2212 8.633Z" fill="#B3200E"/>
<path d="M33.6262 13.2443C31.731 12.0995 29.5177 11.4285 27.1425 11.4285C26.609 11.4285 26.0873 11.4725 25.571 11.5369C31.7703 12.3117 36.571 17.5901 36.571 23.9999C36.571 30.4098 31.7703 35.6882 25.571 36.4629C26.0873 36.5274 26.609 36.5714 27.1425 36.5714C34.0858 36.5714 39.7139 30.9433 39.7139 23.9999C39.7139 20.6245 38.3766 17.5673 36.212 15.3092C35.211 14.8079 34.3278 14.1047 33.6262 13.2443Z" fill="#B3200E"/>
<path d="M8.55081 20.8567C9.03167 17.992 10.1576 15.3489 11.7754 13.0774L9.36403 10.666L12.2374 7.79266L10.666 6.22123L6.22117 10.666L8.63253 13.0774C7.01474 15.3489 5.88882 17.992 5.40796 20.8567H8.55081Z" fill="#B3200E"/>
<path d="M16.2212 39.3664L15.016 40.5717C16.8082 41.5459 18.7732 42.2413 20.8577 42.5909V45.9994H24.0006V42.5909C21.1359 42.1101 18.4927 40.9841 16.2212 39.3664Z" fill="#B3200E"/>
<path d="M2 20.8571H5.14286V27.1428H2V20.8571Z" fill="#B3200E"/>
<path d="M9.36403 37.3344L11.7754 34.923C10.1576 32.6507 9.03167 30.0076 8.55081 27.1429H5.40796C5.88882 30.0076 7.01474 32.6507 8.63253 34.9222L6.22117 37.3336L10.666 41.7784L12.2374 40.207L9.36403 37.3344Z" fill="#B3200E"/>
<path d="M23.9999 33.4286C18.7929 33.4286 14.5713 29.2069 14.5713 24C14.5713 18.7931 18.7929 14.5714 23.9999 14.5714C29.2068 14.5714 33.4284 18.7931 33.4284 24C33.4284 29.2069 29.2068 33.4286 23.9999 33.4286Z" fill="url(#paint2_linear_332_279803)"/>
<path d="M16.1427 24C16.1427 19.0578 19.9471 15.0114 24.7856 14.6107C24.5255 14.5895 24.2654 14.5714 23.9999 14.5714C18.7929 14.5714 14.5713 18.7931 14.5713 24C14.5713 29.2069 18.7929 33.4286 23.9999 33.4286C24.2654 33.4286 24.5255 33.4105 24.7856 33.3893C19.9471 32.9886 16.1427 28.9421 16.1427 24Z" fill="#5119B7"/>
<path d="M20.8571 20.8572L17.7143 24.0001L20.8571 27.1429V25.5715L19.2857 24.0001L20.8571 22.4286V20.8572Z" fill="#5119B7"/>
<path d="M27.1428 27.1429L30.2857 24.0001L27.1428 20.8572V22.4286L28.7143 24.0001L27.1428 25.5715V27.1429Z" fill="#5119B7"/>
<path d="M24 19.2858L22.4286 28.7144H24L25.5714 19.2858H24Z" fill="#5119B7"/>
<defs>
<linearGradient id="paint0_linear_332_279803" x1="2" y1="2" x2="46" y2="46" gradientUnits="userSpaceOnUse">
<stop stop-color="#FDAB76"/>
<stop offset="1" stop-color="#FA541C"/>
</linearGradient>
<linearGradient id="paint1_linear_332_279803" x1="33.4282" y1="2" x2="45.9997" y2="14.5714" gradientUnits="userSpaceOnUse">
<stop stop-color="#77ED8B"/>
<stop offset="1" stop-color="#22C55E"/>
</linearGradient>
<linearGradient id="paint2_linear_332_279803" x1="14.5713" y1="14.5714" x2="33.4284" y2="33.4286" gradientUnits="userSpaceOnUse">
<stop stop-color="#EFD6FF"/>
<stop offset="1" stop-color="#C684FF"/>
</linearGradient>
</defs>
</svg>
