<svg width="32" height="32" viewBox="0 0 32 32" fill="none" xmlns="http://www.w3.org/2000/svg">
<path d="M30 15.832C30 23.5641 23.7319 29.832 16 29.832C8.26792 29.832 2 23.5641 2 15.832C2 8.09995 8.26792 1.83203 16 1.83203C23.7319 1.83203 30 8.09995 30 15.832Z" fill="#FDAB76"/>
<path d="M19.6878 7.4422C19.5286 6.82696 18.8495 5.95474 16.2766 5.95474C12.3015 5.95474 11.7354 6.54349 10.6776 5.52685C9.78505 4.66916 9.26082 8.79721 10.4509 10.1082C9.94869 11.965 10.3505 13.8248 10.3505 13.8248H21.5347C21.5345 13.8248 22.4732 9.48059 19.6878 7.4422Z" fill="#B3200E"/>
<path d="M11.4777 14.0201C11.4777 14.0201 10.9955 13.137 10.0312 13.137C9.0669 13.137 8.38373 17.3766 11.4777 16.6699V14.0201Z" fill="#FEE9D1"/>
<path d="M20.4023 14.0201C20.4023 14.0201 20.8845 13.137 21.8488 13.137C22.8133 13.137 23.4963 17.3766 20.4023 16.6699V14.0201Z" fill="#FEE9D1"/>
<path d="M15.9393 8.33899C8.55132 8.33899 9.96379 20.4557 15.9393 20.4557C21.9145 20.4557 23.3272 8.33899 15.9393 8.33899Z" fill="#FEE9D1"/>
<path d="M13.2823 7.0632C11.8669 7.16176 11.381 7.19559 10.6774 6.51957C10.2198 6.07972 9.85963 6.95152 9.77717 8.0818C9.66352 6.55311 10.0908 4.96311 10.6774 5.52686C11.381 6.20296 11.867 6.16914 13.2828 6.07062C13.9959 6.021 14.9449 5.95497 16.2764 5.95497C18.8495 5.95497 19.5286 6.82697 19.6876 7.44242C21.554 8.8079 21.748 11.2071 21.6732 12.6431C21.5971 11.255 21.169 9.51884 19.6876 8.43491C19.5286 7.81947 18.8495 6.94746 16.2764 6.94746C14.9446 6.94746 13.9955 7.01354 13.2823 7.0632Z" fill="#B3200E"/>
<path d="M10.918 13.4184C10.918 6.9706 15.9432 7.67962 15.9432 7.67962C15.9432 7.67962 20.9683 6.9706 20.9683 13.4184C20.9683 13.4184 20.3358 10.7534 18.884 10.0267C18.5739 9.87138 18.354 9.96778 18.012 10.1176C17.6085 10.2945 17.0351 10.5458 15.9432 10.5458C14.8513 10.5458 14.2779 10.2945 13.8744 10.1176C13.5324 9.96778 13.3124 9.87137 13.0023 10.0267C11.5507 10.7534 10.918 13.4184 10.918 13.4184Z" fill="#B3200E"/>
<path d="M26.1114 25.5179C25.7523 24.638 25.0228 23.9326 24.0805 23.6229L19.5406 22.1311C19.1123 21.9904 18.8213 21.5924 18.8173 21.1414L18.801 19.3081C18.0422 19.9913 17.0976 20.4147 15.993 20.4245C14.8885 20.4341 13.9366 20.0274 13.1656 19.3579L13.1812 21.1269C13.1853 21.5847 12.8926 21.9925 12.4575 22.1354L7.91928 23.6237C6.97913 23.9322 6.25024 24.6344 5.88965 25.5113C8.43817 28.1735 12.0273 29.8316 16.0038 29.8316C19.9768 29.8316 23.5631 28.1762 26.1114 25.5179V25.5179Z" fill="#FA541C"/>
<path d="M15.8317 26.1037C18.1595 26.1037 20.1452 24.6425 20.9242 22.5876L19.535 22.1311C19.1067 21.9904 18.8158 21.5922 18.8119 21.1414L18.7957 19.3081C18.0367 19.9913 17.0923 20.4147 15.9876 20.4245C14.883 20.4341 13.9311 20.0274 13.1603 19.3579L13.1759 21.1269C13.18 21.5847 12.8873 21.9925 12.4522 22.1354L10.7773 22.6846C11.5814 24.6882 13.5406 26.1037 15.8317 26.1037Z" fill="#FEE9D1"/>
<path d="M16 2.92578C23.5486 2.92578 29.701 8.9006 29.9883 16.3789C29.9953 16.1973 30 16.0153 30 15.832C30 8.10016 23.7319 1.83203 16 1.83203C8.26792 1.83203 2 8.10016 2 15.832C2 16.0153 2.00449 16.1973 2.01154 16.3789C2.29886 8.9006 8.45121 2.92578 16 2.92578V2.92578Z" fill="#FA541C"/>
</svg>
