<svg width="32" height="32" viewBox="0 0 32 32" fill="none" xmlns="http://www.w3.org/2000/svg">
<path d="M22.9057 5.53027H8.11322C6.94612 5.53027 6 6.47639 6 7.64349V27.719C6 28.8861 6.94612 29.8323 8.11322 29.8323H22.9057C24.0728 29.8323 25.0189 28.8861 25.0189 27.719V7.64349C25.0189 6.47639 24.0728 5.53027 22.9057 5.53027Z" fill="#FA541C"/>
<path d="M7.75 7.95703H23.5001V28.0821H7.75V7.95703Z" fill="#FDAB76"/>
<path d="M19.5625 25.4571H7.75V7.95703H23.5001V21.8541L19.5625 25.4571Z" fill="#FEE9D1"/>
<path d="M17.6209 5.00185V3.94525C17.6209 3.38479 17.3982 2.84728 17.0019 2.45098C16.6056 2.05467 16.0681 1.83203 15.5077 1.83203C14.9472 1.83203 14.4097 2.05467 14.0134 2.45098C13.6171 2.84728 13.3944 3.38479 13.3944 3.94525V5.00185H11.2812L10.2246 6.58677V8.17168H20.7907V6.58677L19.7341 5.00185H17.6209Z" fill="#B3200E"/>
<path d="M14.9824 3.41711H16.039V4.47372H14.9824V3.41711Z" fill="#FDAB76"/>
<path d="M20 25.6552V21.9571H23.6981L20 25.6552Z" fill="#FA541C"/>
<path d="M15.5125 21.3789C14.128 20.9173 12.9237 20.0319 12.0704 18.8479C11.217 17.6639 10.7578 16.2415 10.7578 14.782V12.3977C12.1406 12.3977 13.4974 12.0219 14.6831 11.3105L15.5125 10.8128L16.342 11.3105C17.5277 12.0219 18.8845 12.3977 20.2673 12.3977V14.782C20.2673 16.2415 19.8081 17.6639 18.9547 18.8479C18.1014 20.0319 16.8971 20.9173 15.5125 21.3789Z" fill="#EFD6FF"/>
<path d="M15.5066 17.1527C15.4246 17.1527 15.3437 17.1336 15.2703 17.0969C15.197 17.0602 15.1331 17.0069 15.0839 16.9413L13.499 14.8281L14.3443 14.1941L15.5066 15.7439L19.8387 9.96771L20.684 10.6017L15.9292 16.9413C15.88 17.0069 15.8162 17.0602 15.7428 17.0969C15.6695 17.1336 15.5886 17.1527 15.5066 17.1527Z" fill="#8E33FF"/>
<path d="M9.69824 20.8514H12.3398V21.908H9.69824V20.8514Z" fill="#FA541C"/>
<path d="M9.69824 22.9645H13.3964V24.0211H9.69824V22.9645Z" fill="#FA541C"/>
</svg>
