<svg width="32" height="32" viewBox="0 0 32 32" fill="none" xmlns="http://www.w3.org/2000/svg">
<path d="M30.0009 18.4504L25.9 13.9824C25.5986 13.6538 25.1731 13.4667 24.7271 13.4667H19.6359L19.6357 25.6996H21.5832C21.5832 24.161 22.8304 22.9137 24.369 22.9137C25.9076 22.9137 27.1549 24.161 27.1549 25.6996H28.4086C28.8309 25.6997 29.2359 25.5319 29.5345 25.2334C29.8331 24.9348 30.0008 24.5298 30.0007 24.1075L30.0009 18.4504Z" fill="#FA541C"/>
<path fill-rule="evenodd" clip-rule="evenodd" d="M19.6331 18.4509V25.7001H11.1543C11.1543 24.1613 9.90687 22.9139 8.3681 22.9139C6.82933 22.9139 5.58191 24.1613 5.58191 25.7001H3.59211C3.16983 25.7002 2.76483 25.5325 2.46624 25.2339C2.16765 24.9353 1.99993 24.5303 2 24.108V10.8157C1.99993 10.3934 2.16765 9.98841 2.46624 9.68981C2.76483 9.39122 3.16983 9.2235 3.59211 9.22357H5.31917C5.41846 12.0306 7.72284 14.2549 10.5317 14.2549C13.3405 14.2549 15.6449 12.0306 15.7441 9.22357H18.041C18.9203 9.22364 19.6331 9.93641 19.6331 10.8157V18.4509Z" fill="#FDAB76"/>
<path fill-rule="evenodd" clip-rule="evenodd" d="M15.7469 9.04778C15.7469 9.10646 15.7463 9.16513 15.7437 9.22316C15.6444 12.0302 13.34 14.2545 10.5312 14.2545C7.72236 14.2545 5.41798 12.0302 5.31869 9.22316C5.31608 9.16513 5.31543 9.10646 5.31543 9.04778C5.31543 6.1672 7.6506 3.83203 10.5312 3.83203C13.4118 3.83203 15.7469 6.1672 15.7469 9.04778Z" fill="#EFD6FF"/>
<path d="M27.1527 25.6993C27.1527 27.2379 25.9054 28.4852 24.3668 28.4852C22.8282 28.4852 21.581 27.2379 21.581 25.6993C21.581 24.1607 22.8282 22.9135 24.3668 22.9135C25.9054 22.9135 27.1527 24.1607 27.1527 25.6993Z" fill="#B3200E"/>
<path fill-rule="evenodd" clip-rule="evenodd" d="M8.36789 22.9135C9.90648 22.9135 11.1538 24.1607 11.1538 25.6993C11.1538 27.2379 9.90648 28.4852 8.36789 28.4852C6.8293 28.4852 5.58203 27.2379 5.58203 25.6993C5.58207 24.1607 6.82932 22.9135 8.36789 22.9135Z" fill="#B3200E"/>
<path fill-rule="evenodd" clip-rule="evenodd" d="M12.2698 11.1336C12.1539 11.1338 12.0424 11.0897 11.9579 11.0104L10.2172 9.3805C10.125 9.2942 10.0727 9.17359 10.0728 9.04735V5.66493C10.0728 5.41288 10.2771 5.20856 10.5291 5.20856C10.7812 5.20856 10.9855 5.41288 10.9855 5.66493V8.8498L12.5818 10.3444C12.7185 10.4725 12.7632 10.6711 12.6943 10.8453C12.6255 11.0195 12.4572 11.134 12.2698 11.134L12.2698 11.1336Z" fill="#8E33FF"/>
</svg>
