<svg width="32" height="32" viewBox="0 0 32 32" fill="none" xmlns="http://www.w3.org/2000/svg">
<path d="M30.0013 10.0251V21.6388C30.0013 22.3741 29.5929 23.034 28.9358 23.3626L16.566 29.6306C16.2965 29.7646 16.0018 29.8318 15.7077 29.8318H15.6956C15.3928 29.8297 15.0904 29.7575 14.816 29.6142L14.8111 29.6115L3.03381 23.361C2.39634 23.0269 2 22.3731 2 21.6531V10.0109C2 9.68234 2.08198 9.36853 2.23183 9.0919C2.41116 8.76168 2.68669 8.48506 3.03386 8.30355L14.816 2.05029C15.3615 1.76546 16.0154 1.75944 16.566 2.03388L16.5715 2.03607L28.9358 8.30136C29.2989 8.48288 29.5859 8.76551 29.7696 9.10612C29.9193 9.3822 30.0013 9.69601 30.0013 10.0251Z" fill="#FDAB76"/>
<path d="M29.9985 10.0248V21.6385C29.9985 22.3739 29.5902 23.0337 28.933 23.3623L16.5632 29.6304C16.2937 29.7643 15.999 29.8316 15.7049 29.8316H15.6929V16.0605L29.7668 9.10583C29.9166 9.38191 29.9985 9.69572 29.9985 10.0248Z" fill="#FA541C"/>
<path d="M29.7701 9.10605L23.5026 12.2032L21.9609 12.9653L15.6962 16.0607L2.23242 9.09184C2.41175 8.76162 2.68728 8.48499 3.03445 8.30348L8.08552 5.62241L9.83664 4.69301L14.8166 2.05022C15.0916 1.90644 15.3939 1.8337 15.6962 1.83206C15.9947 1.83042 16.2932 1.89769 16.5666 2.03381L16.572 2.036L28.9364 8.30129C29.2994 8.48281 29.5864 8.76545 29.7701 9.10605Z" fill="#FEE9D1"/>
<path d="M23.5361 12.4366C23.5361 12.4366 23.5361 12.4366 23.5361 12.4371V16.7501C23.5361 17.2027 23.1687 17.5701 22.716 17.5701C22.2634 17.5701 21.8959 17.2027 21.8959 16.7501V12.9313L15.6952 9.64999L8.08447 5.6224L9.83559 4.69299L15.6952 7.79392L23.0998 11.7122C23.1009 11.7127 23.102 11.7133 23.1031 11.7138C23.1189 11.7226 23.1342 11.7324 23.1496 11.7417C23.1578 11.7466 23.1665 11.7516 23.1747 11.757L23.1753 11.7576C23.2392 11.8008 23.2955 11.8521 23.3431 11.909C23.3453 11.9118 23.3475 11.9139 23.3491 11.9161C23.3611 11.9303 23.3715 11.9457 23.3825 11.9604C23.3874 11.9675 23.3929 11.9741 23.3978 11.9818C23.4054 11.9927 23.4115 12.0042 23.4186 12.0157C23.4257 12.0277 23.4333 12.0397 23.4399 12.0523C23.4437 12.0594 23.447 12.0665 23.4503 12.0736C23.459 12.0911 23.4672 12.1086 23.4749 12.1267C23.476 12.1294 23.4765 12.1316 23.4776 12.1338C23.4869 12.1568 23.4946 12.1797 23.5012 12.2032C23.5165 12.2519 23.5269 12.3027 23.5318 12.3552C23.5345 12.3824 23.5361 12.4092 23.5361 12.4366Z" fill="#FDAB76"/>
<path d="M23.5337 12.437C23.5337 12.437 23.5337 12.437 23.5337 12.4375V16.7505C23.5337 17.2032 23.1663 17.5706 22.7136 17.5706C22.261 17.5706 21.8936 17.2032 21.8936 16.7505V12.9968L23.4987 12.2035C23.514 12.2522 23.5244 12.303 23.5293 12.3555C23.5321 12.3828 23.5337 12.4096 23.5337 12.437Z" fill="#B3200E"/>
</svg>
