<svg width="32" height="32" viewBox="0 0 32 32" fill="none" xmlns="http://www.w3.org/2000/svg">
<path d="M26.9944 15.8136L28.3767 15.2547C29.6917 14.7225 30.3377 13.2346 29.8285 11.9105L26.5927 3.49874C26.0749 2.15726 24.5676 1.48959 23.2261 2.00743C23.2071 2.01478 23.1882 2.02231 23.1694 2.03009L7.00213 8.73209C5.70832 9.27 5.07229 10.7354 5.56289 12.0479L6.2138 13.7837L7.30637 16.7779H23.6998L26.9944 15.8136Z" fill="#EFD6FF"/>
<path d="M9.78976 13.785L8.76758 11.2296L12.8563 9.18523L13.8785 11.7407L9.78976 13.785Z" fill="#8E33FF"/>
<path d="M21.8612 11.3006L26.4607 9.2553L26.8525 10.1364L22.2531 12.1817L21.8612 11.3006Z" fill="#8E33FF"/>
<path d="M18.788 10.2807L25.4317 7.21436L25.8357 8.08947L19.1919 11.1558L18.788 10.2807Z" fill="#8E33FF"/>
<path opacity="0.24" d="M28.3717 15.2547C28.4146 15.2374 28.4507 15.2108 28.4922 15.1916C28.363 13.9034 27.2796 12.922 25.985 12.9206H5.88281L6.20682 13.7851L7.30132 16.7779H23.6947L26.9893 15.8135L28.3717 15.2547Z" fill="#8E33FF"/>
<path d="M4.53133 13.8853H25.0231C26.4211 13.8853 27.5544 15.0186 27.5544 16.4166V27.2652C27.5544 28.6632 26.4211 29.7965 25.0231 29.7965H4.53133C3.13331 29.7965 2 28.6632 2 27.2652V16.4166C2 15.0186 3.13331 13.8853 4.53133 13.8853Z" fill="#FA541C"/>
<path d="M20.3225 28.3495C18.7248 28.3495 17.4296 27.0543 17.4296 25.4565C17.4296 23.8588 18.7248 22.5636 20.3225 22.5636C21.9203 22.5636 23.2155 23.8588 23.2155 25.4565C23.2139 27.0536 21.9196 28.3479 20.3225 28.3495ZM20.3225 23.5279C19.2574 23.5279 18.3939 24.3914 18.3939 25.4565C18.3939 26.5217 19.2574 27.3851 20.3225 27.3851C21.3877 27.3851 22.2512 26.5217 22.2512 25.4565C22.2512 24.3914 21.3877 23.5279 20.3225 23.5279Z" fill="#FDAB76"/>
<path d="M23.2151 28.3495C21.6173 28.3495 20.3221 27.0543 20.3221 25.4565C20.3221 23.8588 21.6173 22.5636 23.2151 22.5636C24.8128 22.5636 26.108 23.8588 26.108 25.4565C26.1065 27.0536 24.8122 28.3479 23.2151 28.3495ZM23.2151 23.5279C22.1499 23.5279 21.2865 24.3914 21.2865 25.4565C21.2865 26.5217 22.1499 27.3851 23.2151 27.3851C24.2802 27.3851 25.1437 26.5217 25.1437 25.4565C25.1437 24.3914 24.2802 23.5279 23.2151 23.5279Z" fill="#FDAB76"/>
<path d="M2 16.7776H27.5544V20.6349H2V16.7776Z" fill="#FDAB76"/>
</svg>
