<svg width="32" height="32" viewBox="0 0 32 32" fill="none" xmlns="http://www.w3.org/2000/svg">
<path d="M17.9009 25.0644C22.43 23.9938 25.2336 19.4544 24.163 14.9253C23.0925 10.3962 18.553 7.59259 14.0239 8.66319C9.4948 9.73379 6.69113 14.2732 7.76172 18.8023C8.83231 23.3314 13.3718 26.135 17.9009 25.0644Z" fill="#FDAB76"/>
<path opacity="0.48" d="M15.9609 8.44238V25.2988C20.6083 25.2988 24.3891 21.5179 24.3891 16.8706C24.3891 12.2233 20.6082 8.44238 15.9609 8.44238V8.44238Z" fill="#FA541C"/>
<path d="M25.1264 7.70573C23.1199 5.69925 20.5712 4.4323 17.8109 4.04025L18.6188 3.23235C18.9391 2.91199 18.9391 2.39262 18.6188 2.07226C18.2985 1.75196 17.779 1.75196 17.4587 2.07226L15.3813 4.14967C15.0609 4.46998 15.0609 4.9894 15.3813 5.30976L17.4586 7.38712C17.6188 7.5473 17.8287 7.62742 18.0386 7.62742C18.2485 7.62742 18.4585 7.5473 18.6186 7.38712C18.939 7.06682 18.939 6.54739 18.6186 6.22704L18.1559 5.76427C23.3513 6.78911 27.2819 11.3792 27.2819 16.8707C27.282 23.113 22.2035 28.1914 15.9613 28.1914C9.71913 28.1914 4.64063 23.113 4.64063 16.8708C4.64063 14.4888 5.37163 12.2103 6.75468 10.2816C8.10902 8.39288 9.97605 6.98353 12.1541 6.20598C12.5808 6.05362 12.8031 5.58429 12.6508 5.15757C12.4985 4.73089 12.0291 4.50853 11.6024 4.66084C9.10849 5.55121 6.97114 7.16427 5.42135 9.32558C3.83727 11.5347 3 14.1438 3 16.8708C3 20.3329 4.34821 23.5878 6.7963 26.0358C9.24439 28.4838 12.4992 29.832 15.9613 29.832C19.4234 29.832 22.6783 28.4838 25.1264 26.0358C27.5744 23.5877 28.9227 20.3329 28.9227 16.8708C28.9227 13.4087 27.5744 10.1538 25.1264 7.70573Z" fill="#FDAB76"/>
<path d="M16.9668 16.0572C16.3178 15.8278 15.601 15.5514 15.205 15.2408C15.1058 15.163 15.0636 14.9661 15.1021 14.7617C15.1223 14.6545 15.2162 14.2964 15.5769 14.1878C16.2116 13.9966 16.6441 14.2481 16.8006 14.3649C17.1636 14.6363 17.6776 14.562 17.9488 14.1991C18.2201 13.8362 18.1458 13.3222 17.783 13.051C17.6326 12.9385 17.2658 12.6981 16.741 12.5675V12.3474C16.741 11.8944 16.3737 11.5271 15.9206 11.5271C15.4676 11.5271 15.1003 11.8944 15.1003 12.3474V12.6181C14.2735 12.8685 13.6565 13.5731 13.4898 14.4579C13.3357 15.2761 13.6049 16.0708 14.1926 16.5317C14.7737 16.9875 15.6065 17.3164 16.4199 17.604C17.0616 17.8308 17.0805 18.3221 17.0347 18.5948C16.9582 19.05 16.5752 19.5419 15.9152 19.5463C15.226 19.5508 15.0299 19.5198 14.5098 19.1795C14.1306 18.9313 13.6222 19.0377 13.3742 19.4169C13.1262 19.796 13.2324 20.3044 13.6116 20.5524C14.1774 20.9226 14.6014 21.084 15.1003 21.1486V21.3947C15.1003 21.8478 15.4676 22.2151 15.9206 22.2151C16.3737 22.2151 16.741 21.8478 16.741 21.3947V21.0648C17.1275 20.9472 17.4807 20.7463 17.7852 20.4666C18.2416 20.0472 18.5496 19.479 18.6526 18.8667C18.8627 17.617 18.1852 16.4879 16.9668 16.0572V16.0572Z" fill="#FA541C"/>
<path d="M17.8105 4.04025L18.6183 3.23235C18.9387 2.91199 18.9387 2.39262 18.6183 2.07226C18.298 1.75196 17.7786 1.75196 17.4583 2.07226L15.3809 4.14967C15.0605 4.46998 15.0605 4.9894 15.3809 5.30976L17.4583 7.38712C17.6184 7.5473 17.8284 7.62742 18.0383 7.62742C18.2482 7.62742 18.4582 7.5473 18.6183 7.38712C18.9386 7.06682 18.9386 6.54739 18.6183 6.22704L18.1555 5.76427C23.3509 6.78911 27.2816 11.3792 27.2816 16.8707C27.2817 23.113 22.2032 28.1914 15.961 28.1914V29.832C19.4231 29.832 22.6779 28.4838 25.126 26.0358C27.5741 23.5877 28.9223 20.3329 28.9223 16.8708C28.9223 13.4087 27.5741 10.1538 25.126 7.70573C23.1195 5.69925 20.5709 4.43225 17.8105 4.04025V4.04025Z" fill="#FA541C"/>
<path d="M16.9625 16.0567C16.6289 15.9388 16.2776 15.8083 15.9609 15.6673V17.438C16.112 17.495 16.2642 17.55 16.4157 17.6036C17.0573 17.8303 17.0762 18.3217 17.0304 18.5944C16.9559 19.0377 16.5898 19.5147 15.9609 19.5433V22.2124C16.3931 22.1891 16.7367 21.8323 16.7367 21.3943V21.0643C17.1232 20.9468 17.4764 20.7459 17.7809 20.4662C18.2374 20.0468 18.5454 19.4786 18.6484 18.8663C18.8585 17.6165 18.181 16.4874 16.9625 16.0567Z" fill="#B3200E"/>
<path d="M15.9609 11.5288V14.1201C16.3837 14.1011 16.6743 14.2732 16.7964 14.3645C17.1594 14.6358 17.6733 14.5616 17.9445 14.1986C18.2158 13.8357 18.1416 13.3217 17.7787 13.0505C17.6283 12.938 17.2616 12.6976 16.7367 12.567V12.3469C16.7367 11.9089 16.3931 11.5521 15.9609 11.5288Z" fill="#B3200E"/>
</svg>
