<svg width="80" height="80" viewBox="0 0 80 80" fill="none" xmlns="http://www.w3.org/2000/svg">
<path d="M39.6875 57.6141V37.6875C39.6875 34.9989 41.8739 32.8125 44.5625 32.8125H66.5V23.0625H8V59.625C8 62.3172 10.1828 64.5 12.875 64.5H34.8125C34.8125 61.3227 36.8515 58.6207 39.6875 57.6141Z" fill="#FDAB76"/>
<path d="M66.5 23.0625H8V15.75C8 13.0578 10.1828 10.875 12.875 10.875H61.625C64.3172 10.875 66.5 13.0578 66.5 15.75V23.0625Z" fill="#FA541C"/>
<path d="M17.75 10.875H12.875C10.1828 10.875 8 13.0578 8 15.75V23.0625H12.875V15.75C12.875 13.0578 15.0578 10.875 17.75 10.875Z" fill="#B3200E"/>
<path d="M12.875 59.625V23.0625H8V59.625C8 62.3172 10.1828 64.5 12.875 64.5H17.75C15.0578 64.5 12.875 62.3172 12.875 59.625Z" fill="#FA541C"/>
<path d="M25.0625 15.75C23.7158 15.75 22.625 14.6592 22.625 13.3125V8.4375C22.625 7.09078 23.7158 6 25.0625 6C26.4092 6 27.5 7.09078 27.5 8.4375V13.3125C27.5 14.6592 26.4092 15.75 25.0625 15.75Z" fill="#FDAB76"/>
<path d="M37.25 15.75C35.9033 15.75 34.8125 14.6592 34.8125 13.3125V8.4375C34.8125 7.09078 35.9033 6 37.25 6C38.5967 6 39.6875 7.09078 39.6875 8.4375V13.3125C39.6875 14.6592 38.5967 15.75 37.25 15.75Z" fill="#FDAB76"/>
<path d="M49.4375 15.75C48.0908 15.75 47 14.6592 47 13.3125V8.4375C47 7.09078 48.0908 6 49.4375 6C50.7842 6 51.875 7.09078 51.875 8.4375V13.3125C51.875 14.6592 50.7842 15.75 49.4375 15.75Z" fill="#FDAB76"/>
<path d="M25.0625 27.9375H29.9375V32.8125H25.0625V27.9375Z" fill="#770508"/>
<path d="M34.8125 27.9375H39.6875V32.8125H34.8125V27.9375Z" fill="#770508"/>
<path d="M44.5625 27.9375H49.4375V32.8125H44.5625V27.9375Z" fill="#770508"/>
<path d="M54.3125 27.9375H59.1875V32.8125H54.3125V27.9375Z" fill="#770508"/>
<path d="M15.3125 37.6875H20.1875V42.5625H15.3125V37.6875Z" fill="#770508"/>
<path d="M25.0625 37.6875H29.9375V42.5625H25.0625V37.6875Z" fill="#FA541C"/>
<path d="M34.8125 37.6875H39.6875V42.5625H34.8125V37.6875Z" fill="#770508"/>
<path d="M15.3125 47.4375H20.1875V52.3125H15.3125V47.4375Z" fill="#770508"/>
<path d="M25.0625 47.4375H29.9375V52.3125H25.0625V47.4375Z" fill="#770508"/>
<path d="M34.8125 47.4375H39.6875V52.3125H34.8125V47.4375Z" fill="#770508"/>
<path d="M70.1562 45H68.9375V40.125H70.1562C70.829 40.125 71.375 40.671 71.375 41.3438V43.7812C71.375 44.454 70.829 45 70.1562 45Z" fill="#8E33FF"/>
<path d="M70.1562 54.75H68.9375V49.875H70.1562C70.829 49.875 71.375 50.421 71.375 51.0938V53.5312C71.375 54.204 70.829 54.75 70.1562 54.75Z" fill="#8E33FF"/>
<path d="M70.1562 64.5H68.9375V59.625H70.1562C70.829 59.625 71.375 60.171 71.375 60.8438V63.2812C71.375 63.954 70.829 64.5 70.1562 64.5Z" fill="#8E33FF"/>
<path fill-rule="evenodd" clip-rule="evenodd" d="M42.125 59.625C44.8172 59.625 47 61.8078 47 64.5C47 66.5792 45.6935 68.3415 43.8605 69.0423L42.125 74.25L40.3895 69.0423C38.5565 68.3415 37.25 66.5792 37.25 64.5C37.25 61.8078 39.4328 59.625 42.125 59.625ZM44.5625 64.5C44.5625 65.8462 43.4712 66.9375 42.125 66.9375C40.7788 66.9375 39.6875 65.8462 39.6875 64.5C39.6875 63.1538 40.7788 62.0625 42.125 62.0625C43.4712 62.0625 44.5625 63.1538 44.5625 64.5Z" fill="#FA541C"/>
<path fill-rule="evenodd" clip-rule="evenodd" d="M44.5625 35.25H66.5C67.8467 35.25 68.9375 36.3408 68.9375 37.6875V66.9375C68.9375 68.2842 67.8467 69.375 66.5 69.375H47.5594C48.7416 68.0673 49.4375 66.3574 49.4375 64.5C49.4375 60.4672 46.1578 57.1875 42.125 57.1875V37.6875C42.125 36.3408 43.2158 35.25 44.5625 35.25ZM61.625 40.125H49.4375V45H61.625V40.125Z" fill="#C684FF"/>
</svg>
