<svg width="80" height="80" viewBox="0 0 80 80" fill="none" xmlns="http://www.w3.org/2000/svg">
<path d="M18.4572 74.9757H4.93701V57.6404C4.93701 57.2074 5.28801 56.8566 5.72082 56.8566H17.6733C18.1062 56.8566 18.4571 57.2076 18.4571 57.6404V74.9757H18.4572Z" fill="#FDAB76"/>
<path d="M18.4564 57.6411V73.6468H14.6266V57.6411C14.6266 57.2068 14.2754 56.8573 13.8428 56.8573H17.6725C18.1052 56.8573 18.4564 57.2069 18.4564 57.6411Z" fill="#FA541C"/>
<path d="M56.1951 74.9759H42.6748V34.5176C42.6748 34.0847 43.0258 33.7338 43.4586 33.7338H55.4111C55.8441 33.7338 56.1949 34.0848 56.1949 34.5176V74.9759H56.1951Z" fill="#FDAB76"/>
<path d="M56.1942 34.5182V73.6468H52.3644V34.5182C52.3644 34.0839 52.0132 33.7344 51.5806 33.7344H55.4104C55.843 33.7344 56.1942 34.084 56.1942 34.5182Z" fill="#FA541C"/>
<path d="M75.0642 74.9758H61.5439V20.0428C61.5439 19.6099 61.8949 19.259 62.3278 19.259H74.2802C74.7132 19.259 75.064 19.61 75.064 20.0428V74.9758H75.0642Z" fill="#FDAB76"/>
<path d="M75.0633 20.0435V73.6467H71.2335V20.0435C71.2335 19.6091 70.8824 19.2596 70.4497 19.2596H74.2795C74.7122 19.2595 75.0633 19.6091 75.0633 20.0435Z" fill="#FA541C"/>
<path d="M37.3259 74.9757H23.8057V43.1826C23.8057 42.7497 24.1567 42.3988 24.5895 42.3988H36.5419C36.9749 42.3988 37.3257 42.7498 37.3257 43.1826V74.9757H37.3259Z" fill="#FDAB76"/>
<path d="M37.325 43.1833V73.6467H33.4952V43.1833C33.4952 42.749 33.1441 42.3995 32.7114 42.3995H36.5412C36.9739 42.3993 37.325 42.749 37.325 43.1833Z" fill="#FA541C"/>
<path d="M58.8291 1.07843L50.2494 2.59258C48.8149 2.84578 47.7999 4.23394 47.9936 5.67771C48.2037 7.24274 49.6478 8.29864 51.2028 8.02427L52.6825 7.76315L45.9277 18.4142C45.3931 19.2569 44.2766 19.5069 43.4338 18.9723L31.7624 12.8795C30.3068 11.9563 28.3782 12.3877 27.4547 13.8431L16.888 29.6776C15.9969 31.0816 16.4131 32.9422 17.8174 33.8328C19.2214 34.7232 21.0814 34.3069 21.9719 32.9029L30.0121 21.0397C30.5467 20.1969 31.6632 19.9469 32.506 20.4815L44.184 26.5784C45.6399 27.5018 47.5689 27.0701 48.4923 25.6141L57.777 10.9738L58.1098 12.8591C58.3744 14.3586 59.8046 15.3598 61.3041 15.095C62.8038 14.8304 63.805 13.4 63.5401 11.9004L62.0235 3.31408C61.7587 1.81471 60.3287 0.813809 58.8291 1.07843Z" fill="#C684FF"/>
<path d="M63.5397 11.8999L62.0236 3.31441C61.7587 1.81534 60.3276 0.813677 58.8285 1.07845L58.6909 1.10222C58.954 2.14806 59.28 3.18019 59.4007 4.25864C59.5232 5.35049 60.2031 7.31192 58.9746 8.02124C58.2225 8.45542 57.3568 7.97935 56.5767 8.46974C55.8905 8.90103 55.5209 9.53874 55.0951 10.2091C54.0459 11.8609 53.0001 13.5111 51.9542 15.1613C50.4466 17.5382 49.028 19.9739 47.4314 22.2936C46.307 23.9274 45.3733 24.0972 43.1225 22.8521L31.4437 16.7554C30.6015 16.2207 29.4845 16.4703 28.9496 17.3123L20.9103 29.5819C20.0189 30.9859 18.16 31.402 16.7558 30.5123C16.6879 30.4681 16.6218 30.4239 16.5589 30.3747C16.1532 31.648 16.6352 33.0826 17.8169 33.8331C18.3178 34.1506 18.8747 34.3017 19.4264 34.3017C20.4231 34.3017 21.3975 33.806 21.9714 32.9027L30.0107 21.0389C30.5456 20.1968 31.6626 19.9472 32.5047 20.4821L44.1836 26.5788C45.6387 27.5024 47.5673 27.0695 48.4909 25.6144L57.7758 10.9731L58.1085 12.8592C58.3734 14.3583 59.8029 15.36 61.3036 15.0952C62.6415 14.8592 63.5819 13.6945 63.5819 12.3822C63.5822 12.2226 63.5687 12.0613 63.5397 11.8999Z" fill="#8E33FF"/>
<path d="M78.2162 78.9641H1.78381C1.35085 78.9641 1 78.6131 1 78.1803V74.4309C1 73.9979 1.351 73.6471 1.78381 73.6471H78.216C78.649 73.6471 78.9998 73.9981 78.9998 74.4309V78.1803C79 78.6131 78.6492 78.9641 78.2162 78.9641Z" fill="#DFE3E8"/>
</svg>
