<svg width="80" height="80" viewBox="0 0 80 80" fill="none" xmlns="http://www.w3.org/2000/svg">
<path d="M70.6412 50.3314C70.6212 50.5334 70.6094 50.7389 70.6094 50.9476C70.6094 54.0681 73.0543 56.6201 76.1321 56.7918C76.1902 56.795 76.3063 56.7969 76.4091 56.7979C76.5157 56.7987 76.6015 56.8855 76.6015 56.9921V63.7367C76.6015 66.808 74.1118 69.2978 71.0405 69.2978H8.54854C5.47725 69.2978 2.98746 66.808 2.98746 63.7367V57.5196C2.98746 57.1261 3.27909 56.7965 3.66861 56.742C3.95928 56.7014 4.2431 56.6395 4.51881 56.5574C6.93872 55.8375 8.70215 53.5997 8.70215 50.9477C8.70215 49.5032 8.17939 48.1822 7.31264 47.1635C7.3093 47.1585 7.30436 47.1519 7.29768 47.1468C6.39383 46.0882 5.11686 45.3564 3.67052 45.1533C3.2802 45.0984 2.9873 44.7695 2.9873 44.3752V39.079C2.9873 36.0077 5.47709 33.5179 8.54838 33.5179H71.0419C74.1124 33.5179 76.6014 36.0069 76.6014 39.0774V44.9045C76.6014 45.0107 76.5145 45.0976 76.4085 45.0974C76.3731 45.0974 76.3429 45.0974 76.3279 45.0978C73.3668 45.1651 70.9456 47.4314 70.6412 50.3314Z" fill="#FA541C"/>
<path d="M76.6015 39.0773V44.9034C76.6015 45.01 76.5159 45.0966 76.4093 45.0976C76.3032 45.0985 76.1819 45.1006 76.1213 45.1041C73.2544 45.2692 70.9386 47.499 70.6414 50.3315L13.268 66.8464C10.3155 67.6964 7.23591 65.9914 6.38587 63.0404L4.51881 56.5574C6.93872 55.8375 8.70215 53.5997 8.70215 50.9477C8.70215 49.5032 8.17939 48.1822 7.31264 47.1635C7.3093 47.1585 7.30436 47.1519 7.29768 47.1468C6.39383 46.0882 5.11686 45.3564 3.67052 45.1533C3.2802 45.0984 2.9873 44.7695 2.9873 44.3752V39.079C2.9873 36.0077 5.47709 33.5179 8.54838 33.5179H71.0419C74.1124 33.5179 76.6015 36.0069 76.6015 39.0773Z" fill="#B3200E"/>
<path d="M74.9761 44.6035L57.1189 49.7435L54.8235 50.4041L14.921 61.8892C11.9697 62.7393 8.88953 61.0344 8.03949 58.0831L6.35151 52.2188C6.22687 51.7858 6.43333 51.3239 6.84195 51.1341C9.41229 49.9398 10.8016 47.0202 9.99267 44.212C9.18577 41.4061 6.46071 39.6715 3.65064 40.0235C3.20445 40.0793 2.78102 39.8157 2.65654 39.3837L1.21848 34.3871C0.370031 31.4358 2.07329 28.354 5.02456 27.5056L44.9271 16.0205L47.2225 15.3599L65.0797 10.2198C68.031 9.36981 71.1112 11.0731 71.9612 14.0243L73.4903 19.3366C73.5651 19.5965 73.4231 19.8699 73.1672 19.9571C73.0126 20.0098 72.8552 20.0665 72.7578 20.1091C70.1099 21.268 68.6644 24.2366 69.4859 27.0885C70.3382 30.0473 73.3216 31.8155 76.2886 31.2026C76.3157 31.197 76.3507 31.1889 76.3902 31.1792C76.6552 31.1143 76.9249 31.2692 77.0003 31.5313L78.7821 37.7218C79.6307 40.6732 77.9274 43.7534 74.9761 44.6035Z" fill="#FDAB76"/>
<path d="M71.9067 13.8543C70.9896 11.0082 67.9728 9.38553 65.0786 10.2185L5.02333 27.5043C2.18286 28.3218 0.499175 31.2061 1.134 34.0528L71.9067 13.8543Z" fill="#FEE9D1"/>
<path d="M46.0742 15.689L55.971 50.0731L14.9206 61.8887C11.9695 62.7381 8.88847 61.0343 8.03906 58.0832L6.35124 52.2191C6.2266 51.7861 6.43306 51.3242 6.84169 51.1344C9.41218 49.9399 10.8014 47.0203 9.99304 44.2115C9.18518 41.405 6.46028 39.6713 3.65038 40.0224C3.20418 40.0782 2.78076 39.8146 2.65643 39.3825L1.21837 34.3862C0.368967 31.4351 2.07271 28.3541 5.02381 27.5047L46.0742 15.689Z" fill="#FEE9D1"/>
<path d="M46.0739 15.689L5.02367 27.5046C3.23143 28.0232 1.65217 29.5125 1.18082 31.4468C0.964175 32.2764 0.936795 33.1656 1.13402 34.0515C1.13418 34.052 1.13418 34.0526 1.13434 34.0531L47.547 20.8069L46.0739 15.689Z" fill="#FDAB76"/>
<path d="M28.0087 36.8371L22.8946 29.6388C22.6968 29.3604 22.8333 28.9699 23.1616 28.8753L25.8368 28.1054C26.0056 28.0568 26.1872 28.1011 26.3147 28.2217L33.4531 34.9798C35.3718 34.3312 36.8384 33.8453 37.3607 33.695C39.4995 33.0794 41.9022 35.2381 41.9022 35.2381C41.9022 35.2381 41.0148 38.3439 38.876 38.9595C38.3538 39.1098 36.8536 39.4778 34.8841 39.9484L32.4302 49.4693C32.3864 49.6391 32.2561 49.7733 32.0873 49.8219L29.4121 50.5919C29.0839 50.6864 28.7606 50.4282 28.7801 50.0872L29.2851 41.2697C23.8562 42.5402 18.1917 43.8442 18.1917 43.8442L16.3515 44.4755C16.1282 44.5521 15.8819 44.4605 15.7627 44.2568L13.5478 40.4674C13.3253 40.0867 13.6734 39.6268 14.1003 39.7376L17.2447 40.5539C17.2447 40.5539 22.7352 38.647 28.0087 36.8371Z" fill="#8E33FF"/>
<path d="M65.0533 20.3801L54.702 23.3595C54.2441 23.4913 53.7659 23.2269 53.6341 22.769L52.7756 19.7862C52.6438 19.3282 52.9082 18.85 53.3662 18.7182L63.7174 15.7388C64.1754 15.607 64.6535 15.8714 64.7853 16.3293L65.6438 19.3121C65.7756 19.7703 65.5112 20.2483 65.0533 20.3801Z" fill="#FA541C"/>
<path d="M67.8455 64.3323H56.4294C55.9416 64.3323 55.5464 63.9371 55.5464 63.4493V60.593C55.5464 60.1052 55.9416 59.71 56.4294 59.71H67.8455C68.3331 59.71 68.7285 60.1052 68.7285 60.593V63.4493C68.7285 63.9371 68.3331 64.3323 67.8455 64.3323Z" fill="#FDAB76"/>
<path fill-rule="evenodd" clip-rule="evenodd" d="M46.5361 18.4886C46.6459 18.4886 46.7574 18.4742 46.8672 18.4424C47.5008 18.2593 47.8669 17.5987 47.6838 16.9652L47.2222 15.359L44.9268 16.0196L45.39 17.6258C45.5396 18.1479 46.0172 18.4886 46.5361 18.4886ZM55.0703 42.6276L54.1947 39.5824C54.0117 38.9489 53.3495 38.5827 52.7175 38.7658C52.084 38.9473 51.7178 39.6095 51.8993 40.243L52.7764 43.2882C52.926 43.8119 53.4036 44.1526 53.9225 44.1526C54.0324 44.1526 54.1438 44.1366 54.2536 44.1048C54.8872 43.9233 55.2533 43.2611 55.0703 42.6276ZM52.6093 34.0731L51.7322 31.0279C51.5491 30.3943 50.8885 30.0298 50.255 30.2113C49.6214 30.3943 49.2553 31.0549 49.4383 31.6885L50.3138 34.7337C50.4651 35.2574 50.9426 35.598 51.46 35.598C51.5698 35.598 51.6812 35.5821 51.7911 35.5503C52.4246 35.3688 52.7907 34.7066 52.6093 34.0731ZM50.1467 25.5185L49.2696 22.475C49.0881 21.8414 48.4243 21.4753 47.7924 21.6567C47.1588 21.8398 46.7927 22.502 46.9758 23.1356L47.8513 26.1792C48.0025 26.7029 48.4801 27.0435 48.999 27.0435C49.1072 27.0435 49.2187 27.0292 49.3285 26.9974C49.9621 26.8143 50.3282 26.1521 50.1467 25.5185ZM57.1188 49.7433L54.8233 50.4039L54.3617 48.7977C54.1787 48.1642 54.5448 47.502 55.1783 47.3205C55.8103 47.1375 56.4741 47.5036 56.6555 48.1371L57.1188 49.7433Z" fill="#FA541C"/>
<path d="M64.7179 38.9513C64.1993 38.9513 63.7219 38.6107 63.5713 38.0874C63.3889 37.4537 63.7547 36.7923 64.3884 36.6099L70.8046 34.763C71.4369 34.5806 72.0996 34.9463 72.282 35.5801C72.4644 36.2138 72.0986 36.8753 71.4649 37.0577L65.0487 38.9045C64.9385 38.9362 64.8274 38.9513 64.7179 38.9513Z" fill="#FA541C"/>
<path d="M65.901 43.0645C65.3824 43.0645 64.905 42.7238 64.7544 42.2004C64.572 41.5669 64.9378 40.9053 65.5715 40.7229L71.9877 38.8762C72.6202 38.6938 73.2827 39.0594 73.4651 39.6933C73.6475 40.3268 73.2817 40.9884 72.648 41.1708L66.2318 43.0175C66.1215 43.0494 66.0102 43.0645 65.901 43.0645Z" fill="#FA541C"/>
<path d="M13.9337 56.2396C13.4151 56.2396 12.9377 55.8989 12.7871 55.3757C12.6047 54.742 12.9705 54.0806 13.6042 53.8982L22.6527 51.2938C23.2851 51.1115 23.9478 51.477 24.1301 52.1108C24.3125 52.7445 23.9467 53.406 23.313 53.5884L14.2645 56.1928C14.1542 56.2245 14.0431 56.2396 13.9337 56.2396Z" fill="#FDAB76"/>
<path d="M49.7003 62.9753H37.0083C36.3488 62.9753 35.8145 62.4407 35.8145 61.7814C35.8145 61.1221 36.3488 60.5875 37.0083 60.5875H49.7003C50.3598 60.5875 50.8942 61.1221 50.8942 61.7814C50.8942 62.4407 50.3598 62.9753 49.7003 62.9753Z" fill="#B3200E"/>
</svg>
