<svg width="80" height="80" viewBox="0 0 80 80" fill="none" xmlns="http://www.w3.org/2000/svg">
<path d="M49.3525 75.437C48.7215 75.437 48.21 74.9254 48.21 74.2944V71.7378C48.21 71.1068 48.7215 70.5952 49.3525 70.5952C49.9835 70.5952 50.4951 71.1068 50.4951 71.7378V74.2944C50.4951 74.9254 49.9835 75.437 49.3525 75.437Z" fill="#8E33FF"/>
<path d="M67.8359 75.437C67.2049 75.437 66.6934 74.9254 66.6934 74.2944V71.7378C66.6934 71.1068 67.2049 70.5952 67.8359 70.5952C68.4669 70.5952 68.9785 71.1068 68.9785 71.7378V74.2944C68.9785 74.9254 68.4669 75.437 67.8359 75.437Z" fill="#8E33FF"/>
<path d="M13.8579 75.1323C13.2269 75.1323 12.7153 74.6208 12.7153 73.9897V71.4331C12.7153 70.8021 13.2269 70.2905 13.8579 70.2905C14.4889 70.2905 15.0005 70.8021 15.0005 71.4331V73.9897C15.0005 74.6208 14.4889 75.1323 13.8579 75.1323Z" fill="#FA541C"/>
<path d="M44.5688 75.1323C43.9378 75.1323 43.4263 74.6208 43.4263 73.9897V71.4331C43.4263 70.8021 43.9378 70.2905 44.5688 70.2905C45.1999 70.2905 45.7114 70.8021 45.7114 71.4331V73.9897C45.7114 74.6208 45.1999 75.1323 44.5688 75.1323Z" fill="#FA541C"/>
<path d="M26.4897 41.6998C25.8587 41.6998 25.3472 40.9906 25.3472 40.1157V36.6397C25.3472 35.7648 25.8587 35.0556 26.4897 35.0556C27.1208 35.0556 27.6323 35.7648 27.6323 36.6397V40.1157C27.6323 40.9906 27.1208 41.6998 26.4897 41.6998Z" fill="#FA541C"/>
<path d="M36.3511 41.6998C35.7201 41.6998 35.2085 40.9906 35.2085 40.1157V36.6397C35.2085 35.7648 35.7201 35.0556 36.3511 35.0556C36.9821 35.0556 37.4937 35.7648 37.4937 36.6397V40.1157C37.4937 40.9906 36.9821 41.6998 36.3511 41.6998Z" fill="#FA541C"/>
<path d="M50.6675 28.0822C50.0365 28.0822 49.5249 27.5706 49.5249 26.9396V9.42494C49.5249 7.85428 50.8028 6.57642 52.3734 6.57642H53.7681C54.3991 6.57642 54.9107 7.08799 54.9107 7.71899C54.9107 8.35 54.3991 8.86157 53.7681 8.86157H52.3734C52.0628 8.86157 51.8101 9.11431 51.8101 9.42494V26.9397C51.8101 27.5706 51.2985 28.0822 50.6675 28.0822Z" fill="#C684FF"/>
<path d="M65.7349 28.2671C65.1039 28.2671 64.5923 27.7555 64.5923 27.1245V9.42494C64.5923 9.11431 64.3396 8.86157 64.029 8.86157H62.8242C62.1932 8.86157 61.6816 8.35 61.6816 7.71899C61.6816 7.08799 62.1932 6.57642 62.8242 6.57642H64.029C65.5996 6.57642 66.8775 7.85428 66.8775 9.42494V27.1245C66.8775 27.7555 66.3659 28.2671 65.7349 28.2671Z" fill="#C684FF"/>
<path d="M47.7043 71.281H22.9083L20.3722 69.7576L17.8361 71.281H11.2873C10.3018 71.281 9.50293 70.4822 9.50293 69.4966V42.1534C9.50293 41.1678 10.3018 40.369 11.2873 40.369H17.8361L20.3722 41.8924L22.9083 40.369H47.7043V71.281Z" fill="#FDAB76"/>
<path d="M37.7967 40.369H47.7042V71.281H37.7967V40.369Z" fill="#FA541C"/>
<path d="M17.8364 40.369H22.9085V71.281H17.8364V40.369Z" fill="#FA541C"/>
<path d="M69.7266 71.5215H46.4211C44.3938 71.5215 42.7505 69.878 42.7505 67.8507V30.6866C42.7505 28.6594 44.394 27.0161 46.4211 27.0161H69.7266C71.7538 27.0161 73.3972 28.6594 73.3972 30.6866V67.8507C73.3973 69.878 71.754 71.5215 69.7266 71.5215Z" fill="#C684FF"/>
<path d="M69.7261 27.0161H65.1558C67.183 27.0161 68.8263 28.6594 68.8263 30.6866V67.8507C68.8263 69.878 67.183 71.5215 65.1558 71.5215H69.7261C71.7533 71.5215 73.3966 69.878 73.3966 67.8507V30.6866C73.3968 28.6594 71.7535 27.0161 69.7261 27.0161Z" fill="#8E33FF"/>
<path d="M37.7993 37.2031H25.1075C24.5128 37.2031 24.0308 36.721 24.0308 36.1264V33.9841C24.0308 33.3894 24.5129 32.9073 25.1075 32.9073H37.7993C38.394 32.9073 38.8761 33.3895 38.8761 33.9841V36.1264C38.8761 36.721 38.3939 37.2031 37.7993 37.2031Z" fill="#B3200E"/>
<path d="M58.0738 47.2211C57.4427 47.2211 56.9312 46.7095 56.9312 46.0785V33.2119C56.9312 32.5808 57.4427 32.0693 58.0738 32.0693C58.7048 32.0693 59.2163 32.5808 59.2163 33.2119V46.0785C59.2163 46.7097 58.7048 47.2211 58.0738 47.2211Z" fill="#8E33FF"/>
<path d="M50.4121 66.5786C49.7811 66.5786 49.2695 66.0671 49.2695 65.4361V33.2119C49.2695 32.5808 49.7811 32.0693 50.4121 32.0693C51.0431 32.0693 51.5547 32.5808 51.5547 33.2119V65.4361C51.5547 66.0671 51.0431 66.5786 50.4121 66.5786Z" fill="#8E33FF"/>
<path d="M58.0738 66.5786C57.4427 66.5786 56.9312 66.067 56.9312 65.436V50.6489C56.9312 50.0179 57.4427 49.5063 58.0738 49.5063C58.7048 49.5063 59.2163 50.0179 59.2163 50.6489V65.436C59.2163 66.067 58.7048 66.5786 58.0738 66.5786Z" fill="#8E33FF"/>
<path d="M65.7354 66.5786C65.1044 66.5786 64.5928 66.0671 64.5928 65.4361V33.2119C64.5928 32.5808 65.1044 32.0693 65.7354 32.0693C66.3664 32.0693 66.878 32.5808 66.878 33.2119V65.4361C66.878 66.0671 66.3664 66.5786 65.7354 66.5786Z" fill="#8E33FF"/>
<path d="M60.7828 4.36511H55.6207C54.367 4.36511 53.3506 5.3814 53.3506 6.63519V8.64765C53.3506 9.90128 54.3669 10.9177 55.6207 10.9177H60.7828C62.0365 10.9177 63.0529 9.90144 63.0529 8.64765V6.63519C63.0527 5.38155 62.0365 4.36511 60.7828 4.36511Z" fill="#8E33FF"/>
<path d="M77.8574 76.3853H2.14258C1.51157 76.3853 1 75.8737 1 75.2427C1 74.6117 1.51157 74.1001 2.14258 74.1001H77.8574C78.4884 74.1001 79 74.6117 79 75.2427C79 75.8737 78.4884 76.3853 77.8574 76.3853Z" fill="#DFE3E8"/>
</svg>
