<svg width="80" height="80" viewBox="0 0 80 80" fill="none" xmlns="http://www.w3.org/2000/svg">
<g clip-path="url(#clip0_3_183250)">
<g opacity="0.16">
<path d="M75.9383 21.7155C73.5469 20.3348 70.4889 21.1541 69.1082 23.5457L66.7868 27.5665L75.4471 32.5665L77.7685 28.5457C79.1491 26.1543 78.3297 23.0963 75.9383 21.7155Z" fill="#1C252E"/>
<path d="M33.127 35.6252C40.2031 35.6252 45.9395 29.8888 45.9395 22.8127C45.9395 15.7365 40.2031 10.0002 33.127 10.0002C26.0508 10.0002 20.3145 15.7365 20.3145 22.8127C20.3145 29.8888 26.0508 35.6252 33.127 35.6252Z" fill="#1C252E"/>
<path d="M69.1082 23.5457C70.4889 21.1541 73.5469 20.3348 75.9383 21.7155C78.3297 23.0963 79.1491 26.1543 77.7685 28.5457L58.1051 62.603L49.4448 57.603L69.1082 23.5457Z" fill="#1C252E"/>
<path d="M58.1051 62.603L48.0611 70L49.4448 57.603L58.1051 62.603Z" fill="#1C252E"/>
</g>
<path d="M47.5015 22.8127C47.5015 14.8863 41.0529 8.43768 33.1265 8.43768C25.2001 8.43768 18.7515 14.8863 18.7515 22.8127C18.7515 26.9247 20.4874 30.6385 23.2643 33.261C23.3163 33.3166 23.3716 33.3692 23.4321 33.4172C25.9901 35.7577 29.3943 37.1875 33.1263 37.1875C36.8583 37.1875 40.2626 35.7575 42.8205 33.4172C42.881 33.3692 42.9363 33.3164 42.9883 33.261C45.7655 30.6385 47.5015 26.9247 47.5015 22.8127ZM33.1265 11.5627C39.3297 11.5627 44.3765 16.6094 44.3765 22.8127C44.3765 25.3075 43.5591 27.6142 42.1796 29.4819C41.0272 27.7728 39.4302 26.4436 37.576 25.623C38.3119 24.6719 38.7515 23.4805 38.7515 22.1877V21.1721C38.7515 18.0703 36.2282 15.5471 33.1265 15.5471C30.0247 15.5471 27.5015 18.0703 27.5015 21.1721V22.1877C27.5015 23.4805 27.941 24.6719 28.6769 25.623C26.8227 26.4436 25.2257 27.7728 24.0733 29.4819C22.6938 27.6142 21.8765 25.3075 21.8765 22.8127C21.8765 16.6094 26.9232 11.5627 33.1265 11.5627ZM30.6265 22.1877V21.1721C30.6265 19.7936 31.748 18.6721 33.1265 18.6721C34.5049 18.6721 35.6265 19.7936 35.6265 21.1721V22.1877C35.6265 23.5661 34.5049 24.6877 33.1265 24.6877C31.748 24.6877 30.6265 23.5661 30.6265 22.1877ZM26.331 31.7708C27.7043 29.3357 30.2669 27.8127 33.1265 27.8127C35.986 27.8127 38.5486 29.3357 39.9219 31.7708C38.0324 33.2077 35.6779 34.0627 33.1265 34.0627C30.5751 34.0627 28.2204 33.2077 26.331 31.7708Z" fill="#1C252E"/>
<path d="M64.689 62.2389C63.8262 62.2389 63.1265 62.9385 63.1265 63.8014V75.3127C63.1265 76.1742 62.4255 76.8752 61.564 76.8752H4.68896C3.8274 76.8752 3.12646 76.1742 3.12646 75.3127V4.68768C3.12646 3.82612 3.8274 3.12518 4.68896 3.12518H61.564C62.4255 3.12518 63.1265 3.82612 63.1265 4.68768V21.6799C63.1265 22.5428 63.8262 23.2424 64.689 23.2424C65.5518 23.2424 66.2515 22.5428 66.2515 21.6799V4.68768C66.2515 2.103 64.1487 0.000183105 61.564 0.000183105H4.68896C2.10428 0.000183105 0.00146484 2.103 0.00146484 4.68768V75.3127C0.00146484 77.8974 2.10428 80.0002 4.68896 80.0002H61.564C64.1487 80.0002 66.2515 77.8974 66.2515 75.3127V63.8014C66.2515 62.9385 65.5518 62.2389 64.689 62.2389Z" fill="#1C252E"/>
<path d="M41.564 68.4377H33.1265C32.2637 68.4377 31.564 69.1372 31.564 70.0002C31.564 70.8632 32.2637 71.5627 33.1265 71.5627H41.564C42.4268 71.5627 43.1265 70.8632 43.1265 70.0002C43.1265 69.1372 42.4268 68.4377 41.564 68.4377Z" fill="#1C252E"/>
<path d="M41.564 59.6877H19.3765C18.5137 59.6877 17.814 60.3872 17.814 61.2502C17.814 62.1132 18.5137 62.8127 19.3765 62.8127H41.564C42.4268 62.8127 43.1265 62.1132 43.1265 61.2502C43.1265 60.3872 42.4268 59.6877 41.564 59.6877Z" fill="#1C252E"/>
<path d="M41.564 50.9377H19.3765C18.5137 50.9377 17.814 51.6372 17.814 52.5002C17.814 53.3632 18.5137 54.0627 19.3765 54.0627H41.564C42.4268 54.0627 43.1265 53.3632 43.1265 52.5002C43.1265 51.6372 42.4268 50.9377 41.564 50.9377Z" fill="#1C252E"/>
<path d="M13.8073 42.6455C13.5169 42.3549 13.1137 42.1877 12.7012 42.1877C12.2901 42.1877 11.887 42.3549 11.5965 42.6455C11.3059 42.9361 11.1387 43.3392 11.1387 43.7502C11.1387 44.1611 11.3058 44.5642 11.5965 44.8549C11.8887 45.1455 12.2901 45.3127 12.7012 45.3127C13.1137 45.3127 13.5153 45.1455 13.8073 44.8549C14.098 44.5642 14.2653 44.1611 14.2653 43.7502C14.2653 43.3392 14.0981 42.9361 13.8073 42.6455Z" fill="#1C252E"/>
<path d="M13.8073 51.3955C13.5153 51.1049 13.1137 50.9377 12.7012 50.9377C12.2901 50.9377 11.8887 51.1049 11.5965 51.3955C11.3059 51.6861 11.1387 52.0892 11.1387 52.5002C11.1387 52.9111 11.3058 53.3142 11.5965 53.6049C11.8887 53.8955 12.2901 54.0627 12.7012 54.0627C13.1137 54.0627 13.5153 53.8955 13.8073 53.6049C14.098 53.3142 14.2653 52.9111 14.2653 52.5002C14.2653 52.0892 14.0981 51.6861 13.8073 51.3955Z" fill="#1C252E"/>
<path d="M12.7012 59.6877C12.2901 59.6877 11.8887 59.8549 11.5965 60.1455C11.3059 60.4361 11.1387 60.8392 11.1387 61.2502C11.1387 61.6611 11.3058 62.0642 11.5965 62.3549C11.887 62.6455 12.2901 62.8127 12.7012 62.8127C13.1137 62.8127 13.5169 62.6455 13.8073 62.3549C14.098 62.0642 14.2653 61.6611 14.2653 61.2502C14.2653 60.8392 14.0981 60.4361 13.8073 60.1455C13.5153 59.8549 13.1137 59.6877 12.7012 59.6877Z" fill="#1C252E"/>
<path d="M41.564 42.1877H19.3765C18.5137 42.1877 17.814 42.8872 17.814 43.7502C17.814 44.6132 18.5137 45.3127 19.3765 45.3127H41.564C42.4268 45.3127 43.1265 44.6132 43.1265 43.7502C43.1265 42.8872 42.4268 42.1877 41.564 42.1877Z" fill="#1C252E"/>
<path d="M76.7196 20.3622C75.2016 19.4858 73.4332 19.253 71.7398 19.7066C70.0466 20.1603 68.6313 21.2462 67.7551 22.7642L48.0923 56.8209C47.9846 57.0076 47.9165 57.2147 47.8926 57.4289L46.5085 69.8264C46.4398 70.4433 46.7426 71.0425 47.2801 71.353C47.5227 71.493 47.7923 71.5623 48.0612 71.5623C48.388 71.5623 48.7137 71.46 48.9879 71.258L59.0323 63.8605C59.2059 63.7327 59.3512 63.5703 59.4588 63.3836L79.1215 29.3269C80.9309 26.1931 79.8534 22.1716 76.7196 20.3622ZM50.7332 60.15L55.2554 62.7609L50.0104 66.6237L50.7332 60.15ZM57.5338 60.4678L51.5799 57.0303L67.3588 29.7006L73.3127 33.1381L57.5338 60.4678ZM76.4152 27.7642L74.8751 30.4319L68.9212 26.9944L70.4613 24.3267C70.9204 23.5316 71.6616 22.9628 72.5485 22.7251C73.4357 22.4873 74.362 22.6095 75.157 23.0686C75.9521 23.5277 76.5209 24.2689 76.7585 25.1558C76.9962 26.0427 76.8743 26.9691 76.4152 27.7642Z" fill="#1C252E"/>
</g>
<defs>
<clipPath id="clip0_3_183250">
<rect width="80" height="80" fill="white"/>
</clipPath>
</defs>
</svg>
