<svg width="80" height="80" viewBox="0 0 80 80" fill="none" xmlns="http://www.w3.org/2000/svg">
<g clip-path="url(#clip0_3_183247)">
<g opacity="0.16">
<path fill-rule="evenodd" clip-rule="evenodd" d="M60.318 30.9385C60.318 47.1623 47.166 60.3142 30.9422 60.3142C14.7184 60.3142 1.56641 47.1623 1.56641 30.9385C1.56641 14.7147 14.7184 1.56268 30.9422 1.56268C47.166 1.56268 60.318 14.7147 60.318 30.9385ZM52.5911 30.9383C52.5911 42.8948 42.8985 52.5874 30.942 52.5874C18.9856 52.5874 9.29297 42.8948 9.29297 30.9383C9.29297 18.9819 18.9856 9.28925 30.942 9.28925C42.8985 9.28925 52.5911 18.9819 52.5911 30.9383Z" fill="#1C252E"/>
<path d="M73.575 77.5869L77.5808 73.5812C78.7172 72.4449 78.7172 70.6027 77.5808 69.4665L62.0286 53.9143L53.9081 62.0348L69.4603 77.5869C70.5964 78.7232 72.4387 78.7232 73.575 77.5869Z" fill="#1C252E"/>
</g>
<path d="M78.6872 68.3621L63.135 52.8099C62.5247 52.1997 61.5356 52.1997 60.9252 52.8099L60.2403 53.4947L55.9252 49.1796C58.443 45.7319 60.2445 41.7817 61.1627 37.5944C61.3477 36.7514 60.8142 35.9183 59.9713 35.7335C59.1278 35.5492 58.295 36.0821 58.1103 36.925C55.3367 49.5722 43.9113 58.7516 30.9428 58.7516C15.6066 58.7516 3.12955 46.2746 3.12955 30.9383C3.12955 15.6021 15.6064 3.12534 30.9427 3.12534C44.2858 3.12534 55.7767 12.6232 58.2652 25.7089C58.4264 26.5566 59.2441 27.1133 60.0921 26.9521C60.9399 26.7908 61.4963 25.9728 61.3352 25.1252C58.5666 10.5667 45.7845 0.000183105 30.9427 0.000183105C13.8831 0.000183105 0.00439453 13.8789 0.00439453 30.9385C0.00439453 47.998 13.8831 61.8767 30.9427 61.8767C37.495 61.8767 43.9074 59.7752 49.1761 55.9322L53.4895 60.2457L52.8047 60.9305C52.1946 61.5407 52.1946 62.53 52.8047 63.1403L68.3569 78.6925C69.2288 79.5642 70.3739 80.0002 71.5192 80.0002C72.6642 80.0002 73.8094 79.5642 74.6814 78.6925L78.6874 74.6866C80.4306 72.943 80.4306 70.1058 78.6872 68.3621ZM51.6164 53.953C52.4356 53.2158 53.2131 52.4369 53.9461 51.6205L58.0305 55.7049L55.6994 58.036L51.6164 53.953ZM76.4772 72.4769L72.4713 76.4828C71.946 77.0082 71.0916 77.0078 70.5666 76.4828L56.1194 62.0357L62.03 56.1249L76.4772 70.5719C77.0024 71.0972 77.0024 71.9517 76.4772 72.4769Z" fill="#1C252E"/>
<path d="M58.7567 30.9385L58.7564 31.0496C58.7531 31.9126 59.4498 32.6149 60.3128 32.6182C60.315 32.6182 60.3169 32.6182 60.3191 32.6182C61.1791 32.6182 61.8781 31.9226 61.8814 31.0618L61.8817 30.9384C61.8817 30.0754 61.182 29.3759 60.3192 29.3759C59.4564 29.3759 58.7567 30.0756 58.7567 30.9385Z" fill="#1C252E"/>
<path d="M20.4156 33.9371V25.6252H22.1753C23.0381 25.6252 23.7378 24.9257 23.7378 24.0627C23.7378 23.1998 23.0381 22.5002 22.1753 22.5002H15.5308C14.668 22.5002 13.9683 23.1998 13.9683 24.0627C13.9683 24.9257 14.668 25.6252 15.5308 25.6252H17.2905V33.9371C17.2905 34.9074 16.5011 35.6968 15.5308 35.6968C14.5605 35.6968 13.7711 34.9074 13.7711 33.9371C13.7711 33.0741 13.0714 32.3746 12.2086 32.3746C11.3458 32.3746 10.6461 33.0741 10.6461 33.9371C10.6461 36.6306 12.8374 38.822 15.531 38.822C18.2245 38.822 20.4156 36.6306 20.4156 33.9371Z" fill="#1C252E"/>
<path d="M23.178 30.6617C23.178 35.1617 26.8391 38.8226 31.339 38.8226C35.8388 38.8226 39.4999 35.1615 39.4999 30.6617C39.4999 26.1618 35.8386 22.5009 31.3388 22.5009C26.839 22.5009 23.178 26.1617 23.178 30.6617ZM36.3747 30.6617C36.3747 33.4384 34.1157 35.6976 31.3388 35.6976C28.5619 35.6976 26.3029 33.4385 26.3029 30.6617C26.3029 27.8848 28.5619 25.6259 31.3388 25.6259C34.1157 25.6259 36.3747 27.8851 36.3747 30.6617Z" fill="#1C252E"/>
<path d="M46.2388 22.5009H43.0317C42.1689 22.5009 41.4692 23.2004 41.4692 24.0634V37.8137C41.4692 38.6767 42.1689 39.3762 43.0317 39.3762H46.2386C48.9957 39.3762 51.2388 37.1332 51.2388 34.376C51.2388 33.0453 50.7152 31.8354 49.8646 30.9384C50.7152 30.0415 51.2388 28.8317 51.2388 27.5007C51.2389 24.7439 48.9958 22.5009 46.2388 22.5009ZM44.5944 25.6259H46.2386C47.2725 25.6259 48.1136 26.467 48.1136 27.5009C48.1136 28.5348 47.2725 29.3759 46.2386 29.3759H44.5944V25.6259ZM46.2388 36.2512H44.5944V32.501H46.2386C47.2725 32.501 48.1136 33.3421 48.1136 34.376C48.1136 35.41 47.2727 36.2512 46.2388 36.2512Z" fill="#1C252E"/>
<path d="M46.1772 17.2668C46.5772 17.2668 46.9769 17.1142 47.282 16.8092C47.8922 16.199 47.8922 15.2096 47.282 14.5995C38.2725 5.59042 23.6131 5.59042 14.6036 14.5995C13.9934 15.2096 13.9934 16.199 14.6036 16.8092C15.2137 17.4195 16.2028 17.4195 16.8134 16.8092C24.6044 9.01839 37.2811 9.01839 45.0723 16.8092C45.3775 17.1143 45.7773 17.2668 46.1772 17.2668Z" fill="#1C252E"/>
<path d="M14.6029 45.0682C13.9928 45.6783 13.9928 46.6677 14.6029 47.278L14.6173 47.2922L14.6245 47.2992C14.9301 47.6066 15.3318 47.7605 15.7339 47.7605C16.1317 47.7605 16.5298 47.6096 16.8342 47.3074C17.4464 46.6997 17.4511 45.7117 16.8439 45.0992L16.8129 45.0682C16.2023 44.458 15.2133 44.458 14.6029 45.0682Z" fill="#1C252E"/>
<path d="M19.4801 51.0085C23.0468 53.0483 26.9912 54.0411 30.912 54.0411C36.9029 54.0411 42.8379 51.7227 47.2826 47.2783C47.8928 46.6681 47.8928 45.6788 47.2826 45.0685C46.6724 44.4585 45.6834 44.4583 45.0728 45.0685C38.7137 51.4275 28.8274 52.7544 21.0318 48.2958C20.2826 47.8674 19.3282 48.1272 18.8996 48.8764C18.471 49.6255 18.731 50.58 19.4801 51.0085Z" fill="#1C252E"/>
</g>
<defs>
<clipPath id="clip0_3_183247">
<rect width="80" height="80" fill="white"/>
</clipPath>
</defs>
</svg>
