<svg width="80" height="80" viewBox="0 0 80 80" fill="none" xmlns="http://www.w3.org/2000/svg">
<g clip-path="url(#clip0_451_82341)">
<path opacity="0.08" d="M63.9145 0.574227C68.2693 2.98998 68.4586 13.6884 68.9005 21.7639C69.4054 29.8395 70.1627 35.3612 73.0028 42.6775C75.8429 49.9938 80.8289 59.1046 79.8822 66.3519C78.9986 73.5992 72.2455 79.0519 64.9874 79.8802C57.7925 80.7085 50.0925 76.9813 42.582 76.7052C35.0715 76.4291 27.6872 79.6041 20.9972 78.4997C14.244 77.3264 8.1851 71.8736 4.33517 64.8335C0.485236 57.8623 -1.09261 49.3725 0.800805 42.0563C2.69421 34.809 8.05887 28.6661 12.3506 22.5231C16.5792 16.3112 19.7349 10.0992 24.5946 7.95956C29.3913 5.81987 35.9551 7.89053 43.4656 5.95792C50.9762 4.02532 59.5596 -1.84154 63.9145 0.574227Z" fill="#1C252E"/>
<path d="M67.4282 35.9289L61.5919 31.5161V12.0455C61.5919 11.4178 61.0831 10.9091 60.4555 10.9091H19.5465C18.9189 10.9091 18.4102 11.4178 18.4102 12.0455V31.5162L12.4308 36.0371C11.4794 36.7552 10.911 37.8931 10.9102 39.0819V65.2719C10.9102 67.3778 12.6234 69.0909 14.7292 69.0909H65.2726C67.3785 69.0909 69.0917 67.3777 69.0917 65.2719V39.0819C69.0918 37.8185 68.4706 36.6426 67.4282 35.9289ZM13.1829 44.8565L23.6703 52.7858L13.1829 60.7154V44.8565ZM25.5544 51.3612L25.2284 51.1148V17.7274H54.7736V51.1148L54.4475 51.3612L42.3713 42.2304C41.6831 41.7108 40.8644 41.4362 40.0054 41.4362C40.0032 41.4362 40.0009 41.4362 39.9985 41.4362C39.1377 41.4362 38.319 41.7108 37.6301 42.231L25.5544 51.3612ZM66.8192 44.8565V60.7151L56.3318 52.7858L66.8192 44.8565ZM66.0808 37.7595C66.0978 37.7724 66.1152 37.7847 66.1328 37.7966C66.5625 38.0852 66.8192 38.5657 66.8192 39.082V42.0074L61.5919 45.9596V34.3654L66.0808 37.7595ZM59.3192 13.1818V47.6778L57.0463 49.3963V16.591C57.0463 15.9634 56.5375 15.4547 55.91 15.4547H24.0921C23.4644 15.4547 22.9557 15.9634 22.9557 16.591V49.3963L20.6829 47.6778V13.1818H59.3192ZM13.8008 37.8506L18.4102 34.3654V45.9594L13.1829 42.0071V39.0827C13.1832 38.5958 13.4082 38.1469 13.8008 37.8506ZM65.2726 66.8182H14.7292C13.8765 66.8182 13.1829 66.1246 13.1829 65.2719V63.5646L39.0001 44.0443C39.2908 43.8248 39.6359 43.7089 40.0004 43.7089H40.0033C40.366 43.7089 40.7112 43.8249 41.0011 44.0438L66.819 63.5645V65.2719C66.8192 66.1246 66.1253 66.8182 65.2726 66.8182Z" fill="#1C252E"/>
<path d="M38.8907 35.9201L41.3014 38.3308C42.4083 39.3551 43.9325 37.8296 42.9085 36.7237L40.513 34.3281C42.6997 32.3105 44.416 31.485 47.8316 30.071C48.1823 29.9258 48.4374 29.6151 48.5114 29.2428C48.5855 28.8706 48.4688 28.4858 48.2005 28.2175L40.9685 20.9856C40.7002 20.7172 40.3152 20.6004 39.9432 20.6747C39.571 20.7488 39.2602 21.0038 39.1151 21.3545C37.5299 25.1834 36.6842 26.8769 34.0694 29.4918L32.4624 31.0988C31.1333 32.4281 31.1333 34.5908 32.4624 35.92L33.266 36.7236C34.5305 38.0424 36.8225 38.0423 38.0871 36.7236L38.8907 35.9201ZM40.5561 23.7874L45.3987 28.63C42.9376 29.6966 41.099 30.6943 38.906 32.7211L36.4649 30.2801C38.4919 28.087 39.4896 26.2483 40.5561 23.7874ZM36.4801 35.1165C36.0615 35.5537 35.2916 35.5537 34.8731 35.1165L34.0696 34.3129C33.6265 33.8699 33.6265 33.149 34.0696 32.7059L34.8731 31.9024L37.2837 34.3129L36.4801 35.1165Z" fill="#1C252E"/>
</g>
<defs>
<clipPath id="clip0_451_82341">
<rect width="80" height="80" fill="white"/>
</clipPath>
</defs>
</svg>
