<svg width="80" height="80" viewBox="0 0 80 80" fill="none" xmlns="http://www.w3.org/2000/svg">
<g clip-path="url(#clip0_451_82340)">
<path opacity="0.08" d="M66.9603 1.2452C71.31 4.41006 71.4731 14.2866 72.0712 21.7623C72.6149 29.1833 73.5936 34.258 75.7685 40.5877C77.9434 46.9175 81.3144 54.5023 79.4658 59.6861C77.6172 64.9245 70.4944 67.7074 63.9154 71.7998C57.3908 75.8378 51.4098 81.1853 46.2445 79.7665C41.0248 78.4025 36.6751 70.272 29.2805 66.6706C21.8859 63.1237 11.5008 64.0514 5.68305 60.2863C-0.134755 56.4666 -1.33094 47.8996 1.38766 40.9152C4.10626 33.9306 10.6853 28.4739 16.0137 23.7812C21.2878 19.0339 25.2025 15.0505 29.8785 12.0494C34.5545 9.10282 39.9917 7.1384 47.0057 4.3555C54.0197 1.62717 62.6105 -1.91966 66.9603 1.2452Z" fill="#1C252E"/>
<path d="M44.5452 60H42.727V51.0909C42.727 50.8498 42.6312 50.6186 42.4608 50.4481C42.2903 50.2776 42.059 50.1818 41.818 50.1818C41.5769 50.1818 41.3456 50.2776 41.1751 50.4481C41.0047 50.6186 40.9089 50.8498 40.9089 51.0909V60H17.2725V41.8182H24.8361C25.0772 41.8182 25.3085 41.7224 25.479 41.5519C25.6494 41.3814 25.7452 41.1502 25.7452 40.9091C25.7452 40.668 25.6494 40.4368 25.479 40.2663C25.3085 40.0958 25.0772 40 24.8361 40H16.3634C16.1223 40 15.8911 40.0958 15.7206 40.2663C15.5501 40.4368 15.4543 40.668 15.4543 40.9091V60H13.6361C13.3951 60 13.1638 60.0958 12.9933 60.2663C12.8229 60.4368 12.7271 60.668 12.7271 60.9091V62.7273C12.7271 63.9328 13.206 65.089 14.0584 65.9414C14.9108 66.7938 16.067 67.2727 17.2725 67.2727H40.9089C42.1144 67.2727 43.2706 66.7938 44.123 65.9414C44.9754 65.089 45.4543 63.9328 45.4543 62.7273V60.9091C45.4543 60.668 45.3585 60.4368 45.188 60.2663C45.0176 60.0958 44.7863 60 44.5452 60ZM43.6361 62.7273C43.6361 63.4506 43.3488 64.1443 42.8373 64.6557C42.3259 65.1673 41.6321 65.4545 40.9089 65.4545H39.0907V64.5454C39.0907 64.3044 38.9949 64.0732 38.8244 63.9026C38.654 63.7322 38.4227 63.6364 38.1816 63.6364C37.9405 63.6364 37.7092 63.7322 37.5388 63.9026C37.3683 64.0732 37.2725 64.3044 37.2725 64.5454V65.4545H20.9089V64.5454C20.9089 64.3044 20.8131 64.0732 20.6426 63.9026C20.4721 63.7322 20.2409 63.6364 19.9998 63.6364C19.7587 63.6364 19.5274 63.7322 19.357 63.9026C19.1865 64.0732 19.0907 64.3044 19.0907 64.5454V65.4545H17.2725C16.5492 65.4545 15.8555 65.1673 15.3441 64.6557C14.8326 64.1443 14.5452 63.4506 14.5452 62.7273V61.8182H43.6361V62.7273Z" fill="#1C252E"/>
<path d="M59.9998 18.1818H61.818C62.059 18.1818 62.2903 18.0861 62.4608 17.9155C62.6312 17.7451 62.7271 17.5138 62.7271 17.2727C62.7271 17.0316 62.6312 16.8004 62.4608 16.6299C62.2903 16.4594 62.059 16.3636 61.818 16.3636H59.9998C59.2765 16.3636 58.5828 16.651 58.0713 17.1624C57.5599 17.6739 57.2725 18.3676 57.2725 19.0909V20H56.3634C56.1223 20 55.891 20.0958 55.7206 20.2663C55.5501 20.4368 55.4543 20.668 55.4543 20.9091C55.4543 21.1502 55.5501 21.3814 55.7206 21.5519C55.891 21.7224 56.1223 21.8182 56.3634 21.8182H57.2725V24.5454C57.2725 24.7865 57.3683 25.0178 57.5388 25.1883C57.7092 25.3588 57.9405 25.4545 58.1816 25.4545C58.4227 25.4545 58.654 25.3588 58.8244 25.1883C58.9949 25.0178 59.0907 24.7865 59.0907 24.5454V21.8182H59.9998C60.2409 21.8182 60.4721 21.7224 60.6426 21.5519C60.813 21.3814 60.9089 21.1502 60.9089 20.9091C60.9089 20.668 60.813 20.4368 60.6426 20.2663C60.4721 20.0958 60.2409 20 59.9998 20H59.0907V19.0909C59.0907 18.8498 59.1865 18.6186 59.357 18.4481C59.5274 18.2776 59.7587 18.1818 59.9998 18.1818Z" fill="#1C252E"/>
<path d="M64.5452 12.7273H53.6361C52.9129 12.7273 52.2191 13.0146 51.7077 13.5261C51.1962 14.0375 50.9089 14.7313 50.9089 15.4545V17.2727C50.9089 17.5138 51.0047 17.7451 51.1751 17.9155C51.3456 18.0861 51.5769 18.1818 51.818 18.1818C52.059 18.1818 52.2903 18.0861 52.4608 17.9155C52.6312 17.7451 52.7271 17.5138 52.7271 17.2727V15.4545C52.7271 15.2134 52.8229 14.9823 52.9933 14.8117C53.1638 14.6413 53.3951 14.5454 53.6361 14.5454H64.5452C64.7863 14.5454 65.0176 14.6413 65.188 14.8117C65.3585 14.9823 65.4543 15.2134 65.4543 15.4545V26.3636C65.4543 26.6047 65.3585 26.836 65.188 27.0064C65.0176 27.177 64.7863 27.2727 64.5452 27.2727H53.6361C53.3951 27.2727 53.1638 27.177 52.9933 27.0064C52.8229 26.836 52.7271 26.6047 52.7271 26.3636V20.9091C52.7271 20.668 52.6312 20.4368 52.4608 20.2663C52.2903 20.0958 52.059 20 51.818 20C51.5769 20 51.3456 20.0958 51.1751 20.2663C51.0047 20.4368 50.9089 20.668 50.9089 20.9091V26.3636C50.9089 27.087 51.1962 27.7806 51.7077 28.2922C52.2191 28.8036 52.9129 29.0909 53.6361 29.0909H64.5452C65.2685 29.0909 65.9622 28.8036 66.4737 28.2922C66.9851 27.7806 67.2725 27.087 67.2725 26.3636V15.4545C67.2725 14.7313 66.9851 14.0375 66.4737 13.5261C65.9622 13.0146 65.2685 12.7273 64.5452 12.7273Z" fill="#1C252E"/>
<path d="M55.4543 49.0909C55.4543 49.8102 55.6676 50.5132 56.0671 51.1112C56.4667 51.7092 57.0347 52.1753 57.6991 52.4505C58.3636 52.7257 59.0947 52.7977 59.8001 52.6574C60.5055 52.5171 61.1534 52.1708 61.662 51.6623C62.1705 51.1537 62.5169 50.5057 62.6572 49.8004C62.7975 49.095 62.7255 48.3638 62.4502 47.6994C62.1751 47.0349 61.709 46.467 61.111 46.0674C60.513 45.6678 59.8099 45.4545 59.0907 45.4545C58.1262 45.4545 57.2013 45.8377 56.5194 46.5196C55.8374 47.2016 55.4543 48.1265 55.4543 49.0909ZM60.9089 49.0909C60.9089 49.4505 60.8022 49.8021 60.6024 50.1011C60.4027 50.4001 60.1187 50.6331 59.7865 50.7707C59.4542 50.9084 59.0887 50.9444 58.736 50.8742C58.3833 50.804 58.0593 50.6309 57.805 50.3766C57.5508 50.1224 57.3776 49.7984 57.3074 49.4456C57.2373 49.093 57.2733 48.7274 57.4109 48.3952C57.5485 48.0629 57.7816 47.779 58.0806 47.5792C58.3796 47.3794 58.731 47.2727 59.0907 47.2727C59.5729 47.2727 60.0353 47.4643 60.3763 47.8053C60.7173 48.1463 60.9089 48.6087 60.9089 49.0909Z" fill="#1C252E"/>
<path d="M64.5452 40.9091H53.6361C52.9129 40.9091 52.2191 41.1964 51.7077 41.7079C51.1962 42.2194 50.9089 42.9131 50.9089 43.6364V54.5454C50.9089 55.2688 51.1962 55.9624 51.7077 56.4739C52.2191 56.9854 52.9129 57.2727 53.6361 57.2727H64.5452C65.2685 57.2727 65.9622 56.9854 66.4737 56.4739C66.9851 55.9624 67.2725 55.2688 67.2725 54.5454V52.7273C67.2725 52.4862 67.1767 52.255 67.0062 52.0844C66.8358 51.914 66.6045 51.8182 66.3634 51.8182C66.1223 51.8182 65.891 51.914 65.7206 52.0844C65.5501 52.255 65.4543 52.4862 65.4543 52.7273V54.5454C65.4543 54.7865 65.3585 55.0178 65.188 55.1883C65.0176 55.3588 64.7863 55.4545 64.5452 55.4545H53.6361C53.3951 55.4545 53.1638 55.3588 52.9933 55.1883C52.8229 55.0178 52.7271 54.7865 52.7271 54.5454V43.6364C52.7271 43.3953 52.8229 43.1641 52.9933 42.9935C53.1638 42.8231 53.3951 42.7273 53.6361 42.7273H64.5452C64.7863 42.7273 65.0176 42.8231 65.188 42.9935C65.3585 43.1641 65.4543 43.3953 65.4543 43.6364V49.0909C65.4543 49.332 65.5501 49.5633 65.7206 49.7337C65.891 49.9043 66.1223 50 66.3634 50C66.6045 50 66.8358 49.9043 67.0062 49.7337C67.1767 49.5633 67.2725 49.332 67.2725 49.0909V43.6364C67.2725 42.9131 66.9851 42.2194 66.4737 41.7079C65.9622 41.1964 65.2685 40.9091 64.5452 40.9091Z" fill="#1C252E"/>
<path d="M33.1543 23.5006C33.299 23.5903 33.466 23.6375 33.6361 23.637C33.7784 23.6362 33.9186 23.6019 34.0452 23.537L39.4998 20.8097C39.6487 20.7334 39.7737 20.6175 39.8609 20.4748C39.9481 20.332 39.9943 20.168 39.9943 20.0006C39.9943 19.8334 39.9481 19.6693 39.8609 19.5265C39.7737 19.3837 39.6487 19.2678 39.4998 19.1915L34.0452 16.4643C33.9069 16.3945 33.7529 16.3614 33.598 16.3678C33.4432 16.3743 33.2927 16.4203 33.1606 16.5014C33.0285 16.5824 32.9193 16.6959 32.8434 16.831C32.7676 16.9661 32.7275 17.1184 32.727 17.2734V22.7279C32.7267 22.8824 32.7658 23.0344 32.8406 23.1696C32.9153 23.3048 33.0233 23.4187 33.1543 23.5006ZM34.5452 18.7461L37.0543 20.0006L34.5452 21.2552V18.7461Z" fill="#1C252E"/>
<path d="M35.4543 28.1818C37.0725 28.1818 38.6544 27.702 39.9999 26.8029C41.3454 25.9039 42.394 24.6261 43.0133 23.1311C43.6326 21.636 43.7946 19.9909 43.479 18.4038C43.1632 16.8167 42.384 15.3588 41.2398 14.2145C40.0955 13.0704 38.6376 12.2911 37.0505 11.9754C35.4634 11.6597 33.8183 11.8217 32.3232 12.441C30.8282 13.0603 29.5504 14.1089 28.6514 15.4544C27.7523 16.7999 27.2725 18.3818 27.2725 20C27.2725 22.17 28.1345 24.251 29.6689 25.7854C31.2033 27.3198 33.2844 28.1818 35.4543 28.1818ZM35.4543 13.6364C36.713 13.6364 37.9432 14.0095 38.9898 14.7088C40.0362 15.4081 40.8519 16.4019 41.3336 17.5647C41.8152 18.7275 41.9412 20.0071 41.6957 21.2414C41.4501 22.4759 40.844 23.6098 39.9541 24.4998C39.0641 25.3897 37.9302 25.9958 36.6958 26.2414C35.4614 26.4869 34.1819 26.3609 33.0191 25.8793C31.8562 25.3975 30.8624 24.5819 30.1631 23.5354C29.4639 22.489 29.0907 21.2586 29.0907 20C29.0907 18.3123 29.7611 16.6936 30.9546 15.5003C32.148 14.3068 33.7666 13.6364 35.4543 13.6364Z" fill="#1C252E"/>
<path d="M44.5452 31.8182C44.6863 31.8182 44.8255 31.7854 44.9518 31.7222C45.078 31.6591 45.1878 31.5674 45.2725 31.4545L47.9998 27.8182C48.1444 27.6253 48.2065 27.3828 48.1724 27.1442C48.1383 26.9054 48.0108 26.6901 47.818 26.5454C47.625 26.4008 47.3826 26.3386 47.1439 26.3728C46.9052 26.4069 46.6899 26.5344 46.5452 26.7273L43.818 30.3636C43.6732 30.5565 43.6111 30.799 43.6452 31.0376C43.6793 31.2764 43.8069 31.4917 43.9998 31.6364C44.1571 31.7544 44.3485 31.8182 44.5452 31.8182Z" fill="#1C252E"/>
<path d="M46.5452 35.0909C46.6299 35.2038 46.7397 35.2954 46.866 35.3585C46.9921 35.4217 47.1313 35.4545 47.2725 35.4545C47.4691 35.4545 47.6606 35.3907 47.818 35.2727L51.4543 32.5454C51.6471 32.4008 51.7747 32.1854 51.8088 31.9467C51.8429 31.7081 51.7808 31.4656 51.6361 31.2727C51.4914 31.0798 51.2761 30.9524 51.0374 30.9183C50.7987 30.8841 50.5562 30.9463 50.3634 31.0909L46.7271 33.8182C46.5341 33.9628 46.4066 34.1782 46.3725 34.4169C46.3384 34.6555 46.4005 34.898 46.5452 35.0909Z" fill="#1C252E"/>
<path d="M55.4542 37.0903C55.4327 36.9697 55.387 36.8548 55.3199 36.7524C55.2527 36.65 55.1656 36.5622 55.0637 36.4943C54.9619 36.4264 54.8473 36.3797 54.727 36.3572C54.6066 36.3346 54.483 36.3366 54.3633 36.363L49.8179 37.2721C49.6985 37.2841 49.5827 37.3194 49.477 37.3761C49.3712 37.4328 49.2777 37.5098 49.2017 37.6026C49.0482 37.7902 48.9756 38.031 48.9997 38.2721C49.0239 38.5132 49.1428 38.7349 49.3302 38.8883C49.5178 39.0417 49.7586 39.1144 49.9997 39.0903H50.1815L54.727 38.1812C54.8475 38.1596 54.9624 38.1139 55.0649 38.0467C55.1672 37.9796 55.255 37.8925 55.323 37.7906C55.3909 37.6887 55.4375 37.5742 55.4601 37.4539C55.4827 37.3335 55.4807 37.2098 55.4542 37.0903Z" fill="#1C252E"/>
<path d="M13.6361 37.2727H24.5452C24.7863 37.2727 25.0176 37.177 25.1881 37.0064C25.3585 36.836 25.4543 36.6047 25.4543 36.3636V21.8182C25.4543 21.5771 25.3585 21.3459 25.1881 21.1754C25.0176 21.0049 24.7863 20.9091 24.5452 20.9091H13.6361C13.3951 20.9091 13.1638 21.0049 12.9933 21.1754C12.8229 21.3459 12.7271 21.5771 12.7271 21.8182V36.3636C12.7271 36.6047 12.8229 36.836 12.9933 37.0064C13.1638 37.177 13.3951 37.2727 13.6361 37.2727ZM14.5452 22.7273H23.6361V35.4545H14.5452V22.7273Z" fill="#1C252E"/>
<path d="M20.9089 24.5454H19.0907C18.8496 24.5454 18.6183 24.6413 18.4479 24.8117C18.2774 24.9823 18.1816 25.2134 18.1816 25.4545C18.1816 25.6956 18.2774 25.9269 18.4479 26.0974C18.6183 26.2679 18.8496 26.3636 19.0907 26.3636H20.9089C21.15 26.3636 21.3812 26.2679 21.5517 26.0974C21.7221 25.9269 21.818 25.6956 21.818 25.4545C21.818 25.2134 21.7221 24.9823 21.5517 24.8117C21.3812 24.6413 21.15 24.5454 20.9089 24.5454Z" fill="#1C252E"/>
<path d="M20.9089 28.1818H17.2725C17.0314 28.1818 16.8001 28.2776 16.6297 28.4481C16.4592 28.6186 16.3634 28.8498 16.3634 29.0909C16.3634 29.332 16.4592 29.5633 16.6297 29.7337C16.8001 29.9043 17.0314 30 17.2725 30H20.9089C21.15 30 21.3812 29.9043 21.5517 29.7337C21.7221 29.5633 21.818 29.332 21.818 29.0909C21.818 28.8498 21.7221 28.6186 21.5517 28.4481C21.3812 28.2776 21.15 28.1818 20.9089 28.1818Z" fill="#1C252E"/>
<path d="M20.9089 31.8182H17.2725C17.0314 31.8182 16.8001 31.914 16.6297 32.0844C16.4592 32.255 16.3634 32.4862 16.3634 32.7273C16.3634 32.9684 16.4592 33.1996 16.6297 33.3701C16.8001 33.5406 17.0314 33.6364 17.2725 33.6364H20.9089C21.15 33.6364 21.3812 33.5406 21.5517 33.3701C21.7221 33.1996 21.818 32.9684 21.818 32.7273C21.818 32.4862 21.7221 32.255 21.5517 32.0844C21.3812 31.914 21.15 31.8182 20.9089 31.8182Z" fill="#1C252E"/>
<path d="M43.7454 37.0001C43.6857 36.8963 43.6061 36.8052 43.5112 36.732C43.4163 36.6589 43.308 36.6052 43.1923 36.574C43.0767 36.5427 42.956 36.5346 42.8371 36.55C42.7184 36.5654 42.6038 36.6041 42.5 36.6637C42.396 36.7234 42.305 36.803 42.2319 36.8979C42.1588 36.9928 42.105 37.1012 42.0738 37.2168C42.0426 37.3324 42.0344 37.4531 42.0498 37.5719C42.0652 37.6907 42.1039 37.8054 42.1636 37.9092L46.1727 44.8455L31.6272 50.3001C31.6272 50.3001 31.6272 50.3001 31.5636 50.3001H31.4909L27.5545 52.5728C27.3474 52.6925 27.1188 52.7702 26.8817 52.8014C26.6446 52.8326 26.4036 52.8167 26.1727 52.7546C25.7087 52.6293 25.3131 52.3254 25.0727 51.9092L23.2545 48.7637C23.0406 48.3522 22.9921 47.8744 23.1188 47.4284C23.2455 46.9822 23.538 46.6014 23.9363 46.3637L27.0818 44.5455L29.3545 48.4819C29.4346 48.6206 29.5499 48.7357 29.6888 48.8155C29.8277 48.8954 29.9851 48.9371 30.1454 48.9364C30.3052 48.9371 30.4625 48.8955 30.6011 48.816C30.7399 48.7365 30.8551 48.6218 30.9354 48.4834C31.0156 48.3452 31.058 48.1882 31.0581 48.0283C31.0582 47.8684 31.0162 47.7113 30.9363 47.5728L28.5909 43.5183L40 34.1092L40.3727 34.7546C40.4323 34.8585 40.5119 34.9496 40.6068 35.0227C40.7017 35.0958 40.8101 35.1495 40.9257 35.1807C41.0413 35.212 41.162 35.2202 41.2809 35.2047C41.3996 35.1894 41.5142 35.1507 41.6181 35.091C41.722 35.0314 41.8131 34.9517 41.8861 34.8568C41.9593 34.762 42.013 34.6536 42.0442 34.5379C42.0755 34.4223 42.0836 34.3016 42.0682 34.1828C42.0528 34.064 42.0141 33.9494 41.9545 33.8455L41.0454 32.2728C40.9788 32.1589 40.8881 32.0609 40.7798 31.9855C40.6715 31.9102 40.5481 31.8594 40.4181 31.8364C40.2874 31.8118 40.153 31.8162 40.0241 31.8492C39.8954 31.8822 39.7754 31.943 39.6727 32.0274L26.9454 42.5183L23.0727 44.7546C22.3777 45.1594 21.8365 45.7833 21.5338 46.5284C21.2311 47.2735 21.184 48.0981 21.4 48.8728L20.4909 49.391C20.0224 49.66 19.6444 50.062 19.4048 50.5461C19.1651 51.0302 19.0747 51.5744 19.1448 52.1101C19.2149 52.6456 19.4424 53.1484 19.7986 53.5544C20.1548 53.9604 20.6235 54.2516 21.1454 54.391C21.3767 54.4523 21.6151 54.4828 21.8545 54.4819C22.3327 54.4799 22.8024 54.3547 23.2181 54.1183L24.1272 53.6001C24.5639 54.0513 25.1131 54.3776 25.7181 54.5455C26.0288 54.6324 26.35 54.6753 26.6727 54.6728C27.3117 54.6743 27.9394 54.5048 28.4909 54.1819L29.2818 53.7274L31.1 56.8819C31.4612 57.5066 32.0555 57.9626 32.7524 58.1501C33.4493 58.3375 34.1921 58.2411 34.8181 57.8819C35.1287 57.703 35.4009 57.4646 35.6192 57.1804C35.8376 56.8962 35.9978 56.5717 36.0907 56.2255C36.1835 55.8794 36.2072 55.5183 36.1605 55.163C36.1137 54.8076 35.9974 54.465 35.8181 54.1546L34.1636 51.2728L47.8 46.1546C47.9236 46.1082 48.0356 46.0353 48.1282 45.9411C48.2209 45.8469 48.2919 45.7336 48.3363 45.6092C48.3805 45.4863 48.3978 45.3552 48.3868 45.225C48.3758 45.0947 48.3369 44.9684 48.2727 44.8546L43.7454 37.0001ZM22.2727 52.5364C22.1691 52.5963 22.0548 52.6352 21.9362 52.6507C21.8177 52.6664 21.6972 52.6584 21.5818 52.6274C21.3489 52.5669 21.1494 52.4164 21.0272 52.2092C20.9673 52.1056 20.9285 51.9914 20.9129 51.8728C20.8973 51.7543 20.9052 51.6337 20.9363 51.5183C20.9673 51.4022 21.021 51.2934 21.0944 51.1983C21.1678 51.1031 21.2592 51.0234 21.3636 50.9637L22.1545 50.5092L23.0636 52.0819L22.2727 52.5364ZM34.2363 55.0819C34.2961 55.1854 34.335 55.2997 34.3506 55.4183C34.3661 55.5369 34.3582 55.6574 34.3272 55.7728C34.2623 56.0039 34.1088 56.2 33.9 56.3183C33.6922 56.4375 33.446 56.4701 33.2144 56.4088C32.983 56.3475 32.785 56.1974 32.6636 55.991L30.8454 52.8364L32.3545 51.9728H32.4272L34.2363 55.0819Z" fill="#1C252E"/>
</g>
<defs>
<clipPath id="clip0_451_82340">
<rect width="80" height="80" fill="white"/>
</clipPath>
</defs>
</svg>
