<svg width="80" height="80" viewBox="0 0 80 80" fill="none" xmlns="http://www.w3.org/2000/svg">
<g clip-path="url(#clip0_3_183051)">
<g opacity="0.16">
<path d="M32.0002 52L9.3335 36.2266L1.3335 30.6667V73.3334C1.3335 76.2787 3.72152 78.6667 6.66683 78.6667L32.0002 52Z" fill="#1C252E"/>
<path d="M48 52L73.3333 78.6667C76.2786 78.6667 78.6667 76.2787 78.6667 73.3334V30.6667L70.6667 36.2266L48 52Z" fill="#1C252E"/>
<path d="M9.3335 25.3333H6.66683C3.72152 25.3333 1.3335 27.7214 1.3335 30.6667L9.3335 36.2266V25.3333Z" fill="#1C252E"/>
<path d="M73.3332 25.3333H70.6665L70.6667 36.2266L78.6667 30.6667C78.6667 27.7214 76.2785 25.3333 73.3332 25.3333Z" fill="#1C252E"/>
<path d="M48 52H32.0002L6.66683 78.6667H73.3333L48 52Z" fill="#1C252E"/>
<path d="M62.6667 12H70.6667L60 1.33331V9.33331C60.0046 10.804 61.196 11.9954 62.6667 12Z" fill="#1C252E"/>
</g>
<path d="M73.3333 24H72V12C72 11.9707 71.985 11.9466 71.9837 11.9173C71.9759 11.7975 71.9518 11.679 71.9121 11.5651C71.8971 11.5228 71.8867 11.4811 71.8678 11.4401C71.8053 11.2995 71.7181 11.1706 71.6107 11.0599L60.944 0.393229C60.8327 0.285807 60.7031 0.198568 60.5612 0.136068C60.5228 0.117188 60.4811 0.106771 60.4414 0.0917968C60.3249 0.0507813 60.2031 0.0266927 60.0801 0.0201823C60.0508 0.014974 60.028 0 60 0H13.3333C10.388 0 8 2.38802 8 5.33333V24H6.66667C2.98633 24.0046 0.0045573 26.9863 0 30.6667V73.3333C0.0045573 77.0137 2.98633 79.9954 6.66667 80H73.3333C77.0137 79.9954 79.9954 77.0137 80 73.3333V30.6667C79.9954 26.9863 77.0137 24.0046 73.3333 24ZM32.5736 53.3333H47.4264L70.2266 77.3333H9.77344L32.5736 53.3333ZM73.3333 26.6667C75.2858 26.666 76.9531 28.0749 77.2786 30L72 33.6758V26.6667H73.3333ZM67.4479 10.6667H62.6667C61.9303 10.6667 61.3333 10.0697 61.3333 9.33333V4.55208L67.4479 10.6667ZM10.6667 5.33333C10.6667 3.86068 11.8607 2.66667 13.3333 2.66667H58.6667V9.33333C58.6667 11.5423 60.4577 13.3333 62.6667 13.3333H69.3333V35.5293L47.5814 50.6667H32.4186L10.6667 35.5293V5.33333ZM6.66667 26.6667H8V33.6758L2.72135 30.0065C3.04362 28.0788 4.71224 26.6667 6.66667 26.6667ZM2.66667 73.3333V33.2174L29.9642 52.2077L6.13346 77.2975C4.14844 77.0306 2.66667 75.3359 2.66667 73.3333ZM73.8665 77.2975L50.0358 52.2077L77.3333 33.2174V73.3333C77.3333 75.3359 75.8516 77.0306 73.8665 77.2975Z" fill="#1C252E"/>
<path d="M28 10.6667H52C52.7363 10.6667 53.3333 10.0697 53.3333 9.33333C53.3333 8.59701 52.7363 8 52 8H28C27.2637 8 26.6667 8.59701 26.6667 9.33333C26.6667 10.0697 27.2637 10.6667 28 10.6667Z" fill="#1C252E"/>
<path d="M16 17.3333C16 18.0697 16.597 18.6667 17.3333 18.6667H62.6667C63.403 18.6667 64 18.0697 64 17.3333C64 16.597 63.403 16 62.6667 16H17.3333C16.597 16 16 16.597 16 17.3333Z" fill="#1C252E"/>
<path d="M62.6667 24H17.3333C16.597 24 16 24.597 16 25.3333C16 26.0697 16.597 26.6667 17.3333 26.6667H62.6667C63.403 26.6667 64 26.0697 64 25.3333C64 24.597 63.403 24 62.6667 24Z" fill="#1C252E"/>
<path d="M62.6667 32H17.3333C16.597 32 16 32.597 16 33.3333C16 34.0697 16.597 34.6667 17.3333 34.6667H62.6667C63.403 34.6667 64 34.0697 64 33.3333C64 32.597 63.403 32 62.6667 32Z" fill="#1C252E"/>
<path d="M54.6667 40H25.3333C24.597 40 24 40.597 24 41.3333C24 42.0697 24.597 42.6667 25.3333 42.6667H54.6667C55.403 42.6667 56 42.0697 56 41.3333C56 40.597 55.403 40 54.6667 40Z" fill="#1C252E"/>
<path d="M14.6667 13.3333C15.403 13.3333 16 12.7363 16 12V9.33333C16 8.59701 16.597 8 17.3333 8H20C20.7363 8 21.3333 7.403 21.3333 6.66667C21.3333 5.93034 20.7363 5.33333 20 5.33333H17.3333C15.1243 5.33333 13.3333 7.12435 13.3333 9.33333V12C13.3333 12.7363 13.9303 13.3333 14.6667 13.3333Z" fill="#1C252E"/>
</g>
<defs>
<clipPath id="clip0_3_183051">
<rect width="80" height="80" fill="white"/>
</clipPath>
</defs>
</svg>
