<svg width="80" height="80" viewBox="0 0 80 80" fill="none" xmlns="http://www.w3.org/2000/svg">
<g clip-path="url(#clip0_451_82339)">
<path opacity="0.08" d="M60.0284 9.57145C64.9113 14.1225 68.7722 18.6735 72.2924 23.7935C75.8126 28.8565 78.9922 34.4885 79.7871 40.5755C80.5819 46.6626 79.0489 53.2616 76.8914 60.714C74.7906 68.2233 72.0653 76.6995 66.3875 79.1458C60.7097 81.592 52.0795 78.1218 44.0738 76.984C36.1249 75.8463 28.7438 77.0978 21.1355 75.7894C13.4705 74.4241 5.57845 70.5556 2.22855 64.1842C-1.06456 57.8127 0.184549 48.9381 0.468439 40.2911C0.809106 31.6441 0.127769 23.1677 4.04544 17.7634C7.96311 12.4159 16.3662 10.0835 23.6905 6.95459C31.0149 3.76885 37.2605 -0.270216 43.2789 0.0142248C49.2974 0.298666 55.2023 4.9635 60.0284 9.57145Z" fill="#1C252E"/>
<path d="M35.1645 14.7997C23.9222 14.7997 14.8086 23.9133 14.8086 35.1556C14.8086 46.3979 23.9222 55.5115 35.1645 55.5115C46.4068 55.5115 55.5204 46.3979 55.5204 35.1556C55.5081 23.9184 46.4017 14.812 35.1645 14.7997ZM35.1645 16.7384C41.152 16.7431 46.7628 19.6613 50.2046 24.5609L47.7813 26.9842C47.1916 26.6273 46.5164 26.4364 45.8271 26.4317C43.6858 26.4317 41.9498 28.1676 41.9498 30.309C41.9532 30.9991 42.143 31.6753 42.4994 32.2661L36.1522 38.6133C34.9504 37.8804 33.4399 37.8804 32.2381 38.6133L27.8296 34.2047C28.1859 33.6139 28.3758 32.9377 28.3792 32.2476C28.3818 30.1105 26.6516 28.3759 24.5145 28.3733C22.747 28.3711 21.2028 29.5666 20.7622 31.2783H17.1659C19.0013 22.8032 26.4928 16.7511 35.1645 16.7384ZM47.7658 30.309C47.7658 31.3797 46.8978 32.2476 45.8271 32.2476C44.7564 32.2476 43.8885 31.3797 43.8885 30.309C43.8885 29.2383 44.7564 28.3703 45.8271 28.3703C46.8978 28.3703 47.7658 29.2383 47.7658 30.309ZM36.1338 41.941C36.1338 43.0117 35.2659 43.8796 34.1951 43.8796C33.1244 43.8796 32.2565 43.0117 32.2565 41.941C32.2565 40.8702 33.1244 40.0023 34.1951 40.0023C35.2659 40.0023 36.1338 40.8702 36.1338 41.941ZM26.4405 32.2476C26.4405 33.3184 25.5726 34.1863 24.5018 34.1863C23.4311 34.1863 22.5632 33.3184 22.5632 32.2476C22.5632 31.1769 23.4311 30.309 24.5018 30.309C25.5726 30.309 26.4405 31.1769 26.4405 32.2476ZM44.1131 51.2593C41.3757 52.7793 38.2957 53.5756 35.1645 53.5728C24.9998 53.5797 16.7541 45.3453 16.7472 35.1807C16.7468 34.5247 16.7814 33.8691 16.8509 33.2169H20.7622C21.2028 34.9235 22.7392 36.1182 24.5018 36.1249C25.1919 36.1214 25.8681 35.9316 26.4589 35.5753L30.8675 39.9838C30.5111 40.5745 30.3212 41.2508 30.3178 41.9408C30.3178 44.0822 32.0538 45.8182 34.1951 45.8182C36.3365 45.8182 38.0725 44.0822 38.0725 41.9408C38.0691 41.2508 37.8792 40.5745 37.5228 39.9838L43.87 33.6366C44.4608 33.993 45.137 34.1828 45.8271 34.1862C47.9685 34.1862 49.7044 32.4503 49.7044 30.3089C49.701 29.6188 49.5111 28.9426 49.1548 28.3518L51.2679 26.2396C56.2012 35.1245 52.9978 46.3262 44.1131 51.2593Z" fill="#1C252E"/>
<path d="M59.3977 20.6154C61.1603 20.6088 62.6967 19.4143 63.1374 17.7074H69.0909V15.7688H63.1374C62.6967 14.0621 61.1603 12.8675 59.3977 12.8608C57.2563 12.8608 55.5204 14.5968 55.5204 16.7382C55.5238 17.4282 55.7136 18.1044 56.0699 18.6953L54.3668 20.3983C46.2178 9.78162 31.0052 7.78119 20.3885 15.9303C9.77176 24.0793 7.77131 39.292 15.9203 49.9087C23.6125 59.93 37.7127 62.361 48.3163 55.4939L60.4155 67.5931C62.4 69.5776 65.6175 69.5776 67.6021 67.5931C69.5867 65.6084 69.5867 62.391 67.6021 60.4064L55.5029 48.3073C60.6959 40.3083 60.6959 30.0026 55.5029 22.0035L57.4416 20.0649C58.032 20.4213 58.708 20.6116 59.3977 20.6154ZM59.3977 14.7995C60.4684 14.7995 61.3363 15.6674 61.3363 16.7382C61.3363 17.8089 60.4684 18.6768 59.3977 18.6768C58.3269 18.6768 57.459 17.8089 57.459 16.7382C57.459 15.6674 58.327 14.7995 59.3977 14.7995ZM66.2315 61.7771C67.4729 62.9907 67.4956 64.981 66.2819 66.2224C65.0684 67.4639 63.0781 67.4865 61.8367 66.273C61.8196 66.2563 61.8028 66.2395 61.7861 66.2224L53.983 58.4193L58.4284 53.974L66.2315 61.7771ZM57.0578 52.6033L52.6124 57.0487L49.9293 54.3656C50.0659 54.2609 50.1939 54.1455 50.3287 54.038C50.4634 53.9303 50.6194 53.8014 50.7638 53.6803C50.9761 53.5019 51.1855 53.3216 51.391 53.1364C51.4967 53.0395 51.5975 52.9426 51.7012 52.8457C52.0987 52.4734 52.4835 52.0886 52.8557 51.6912C52.9526 51.5875 53.0496 51.4867 53.1465 51.381C53.3316 51.1755 53.5119 50.9662 53.6903 50.7539C53.8118 50.6104 53.931 50.4653 54.0479 50.3186C54.1546 50.1849 54.2699 50.0569 54.3746 49.9203L57.0578 52.6033ZM53.2987 48.1008C52.9933 48.5273 52.6783 48.9451 52.3458 49.3473C52.2488 49.4646 52.1451 49.5781 52.0453 49.6934C51.7487 50.0385 51.4424 50.3733 51.1264 50.6976C50.9888 50.8398 50.8488 50.9797 50.7067 51.1173C50.3835 51.4333 50.0488 51.7397 49.7025 52.0363C49.5871 52.1333 49.4737 52.2389 49.3564 52.3368C48.9541 52.6693 48.5363 52.9843 48.1098 53.2896C38.0753 60.4584 24.1292 58.1353 16.9604 48.1008C9.79167 38.0663 12.1148 24.1202 22.1492 16.9514C32.1838 9.78262 46.1298 12.1056 53.2987 22.1403C58.8457 29.9048 58.8457 40.3363 53.2987 48.1008Z" fill="#1C252E"/>
</g>
<defs>
<clipPath id="clip0_451_82339">
<rect width="80" height="80" fill="white"/>
</clipPath>
</defs>
</svg>
