<svg width="80" height="80" viewBox="0 0 80 80" fill="none" xmlns="http://www.w3.org/2000/svg">
<g clip-path="url(#clip0_3_183253)">
<g opacity="0.16">
<path d="M63.944 6.20813H16.0537C12.0537 6.20813 8.43102 7.83 5.80867 10.4523C3.18633 13.0747 1.56445 16.6973 1.56445 20.6973C1.56445 28.7005 8.05211 35.1866 16.0537 35.1866H63.944C67.944 35.1866 71.5666 33.5647 74.189 30.9439C76.8113 28.3216 78.4332 24.6989 78.4332 20.6973C78.4332 12.6958 71.9455 6.20813 63.944 6.20813Z" fill="#1C252E"/>
<path d="M51.1902 43.8832H51.0596C49.77 43.8832 48.6613 44.645 48.1502 45.7414V44.8348C48.1502 43.1543 46.6525 41.792 44.8052 41.792C43.3054 41.792 42.0361 42.69 41.6118 43.9271C41.1899 42.69 39.9285 41.792 38.4377 41.792C37.2872 41.792 36.2735 42.327 35.6766 43.1398V35.7756C35.6766 34.0153 34.2496 32.5884 32.4894 32.5884C30.7291 32.5884 29.3022 34.0154 29.3022 35.7756V54.7181L26.4047 51.8954C25.0916 50.6162 22.9975 50.6198 21.6888 51.9034L21.6288 51.9622C20.2972 53.2681 20.3475 55.2659 21.4446 56.7537C24.6891 61.1543 29.4933 67.8286 29.4933 67.8286V72.4136C29.4933 73.1765 30.1119 73.7951 30.8749 73.7951H47.8482C48.6111 73.7951 49.2297 73.1765 49.2297 72.4136V69.0206C52.5568 65.3801 54.4016 60.6268 54.4016 55.6951V47.0945C54.4016 45.3211 52.9638 43.8832 51.1902 43.8832Z" fill="#1C252E"/>
</g>
<path d="M37.9728 27.4575C38.8374 27.4575 39.5384 26.7566 39.5384 25.8919V20.0138L44.0554 26.5547C44.5076 27.2079 45.2649 27.4844 45.9846 27.2596C46.7174 27.0307 47.191 26.3494 47.191 25.524V14.9713C47.191 14.1066 46.4901 13.4057 45.6254 13.4057C44.7607 13.4057 44.0598 14.1066 44.0598 14.9713V21.051L39.2609 14.1021C38.8715 13.5385 38.1609 13.2933 37.5067 13.4971C36.8526 13.701 36.407 14.3066 36.407 14.9918V25.8921C36.4071 26.7568 37.1081 27.4575 37.9728 27.4575Z" fill="#1C252E"/>
<path d="M18.055 14.9713V25.8919C18.055 26.7566 18.7559 27.4575 19.6206 27.4575C20.4853 27.4575 21.1862 26.7566 21.1862 25.8919V14.9713C21.1862 14.1066 20.4853 13.4057 19.6206 13.4057C18.7559 13.4058 18.055 14.1068 18.055 14.9713Z" fill="#1C252E"/>
<path d="M30.572 18.8678C29.7073 18.8678 29.0063 19.5688 29.0063 20.4335C29.0063 21.2981 29.7073 21.9991 30.572 21.9991H32.076C31.5982 23.688 30.329 24.3283 29.1251 24.3283C26.9774 24.3283 25.2302 22.5811 25.2302 20.4335C25.2302 18.2858 26.9774 16.5386 29.1251 16.5386C29.9059 16.5386 30.6584 16.7683 31.3016 17.2028C32.018 17.6869 32.9913 17.4985 33.4752 16.7821C33.9593 16.0656 33.7709 15.0924 33.0545 14.6085C31.8916 13.8228 30.5329 13.4077 29.1251 13.4077C25.2509 13.4077 22.0991 16.5595 22.0991 20.4336C22.0991 24.3077 25.251 27.4595 29.1251 27.4595C32.8221 27.4595 35.4043 24.5703 35.4043 20.4336C35.4043 19.5689 34.7034 18.868 33.8387 18.868L30.572 18.8678Z" fill="#1C252E"/>
<path d="M12.0593 24.3262C11.0294 24.3262 10.0405 23.9132 9.41363 23.2216C8.83285 22.5808 7.84285 22.5324 7.20222 23.1129C6.5616 23.6935 6.51285 24.6835 7.09347 25.3243C8.32207 26.6799 10.1319 27.4574 12.0591 27.4574C14.4578 27.4574 16.4735 25.9193 16.8518 23.8001C17.138 22.1976 16.4205 20.1077 13.5493 19.0487C12.2422 18.5665 11.0228 18.0422 10.6133 17.8633C10.4227 17.6963 10.4197 17.4768 10.4375 17.353C10.4597 17.1983 10.5752 16.8194 11.1655 16.6416C12.5941 16.211 13.9394 17.2626 13.9863 17.2997C14.6482 17.8477 15.6293 17.7597 16.1828 17.101C16.7393 16.4391 16.6536 15.4516 15.9918 14.8952C15.8852 14.8057 13.3477 12.7135 10.2624 13.6435C8.67925 14.1204 7.55879 15.3713 7.33816 16.908C7.13051 18.3547 7.75785 19.7466 8.97535 20.5405C9.04457 20.5857 9.11722 20.6252 9.19269 20.6588C9.25613 20.6872 10.7658 21.3591 12.4658 21.9862C12.8024 22.1104 13.8913 22.5683 13.7696 23.2496C13.6772 23.7673 12.9969 24.3262 12.0593 24.3262Z" fill="#1C252E"/>
<path d="M52.7722 13.4058C51.9075 13.4058 51.2066 14.1068 51.2066 14.9715V22.4861C51.2066 24.2069 52.0261 25.6032 53.6425 26.6357C54.4941 27.1797 55.4543 27.4563 56.4963 27.4577H56.5049C57.4007 27.4577 58.2425 27.2625 59.0066 26.8777C60.8893 25.9296 61.9261 24.3672 61.9261 22.4782V14.9713C61.9261 14.1066 61.2252 13.4057 60.3605 13.4057C59.4958 13.4057 58.7949 14.1066 58.7949 14.9713V22.478C58.7949 22.9725 58.6527 23.5499 57.598 24.081C57.2702 24.2461 56.9125 24.3265 56.5046 24.3265H56.5004C56.0577 24.3258 55.6743 24.2182 55.3282 23.9969C54.5033 23.47 54.3375 23.028 54.3375 22.486V14.9713C54.3377 14.1068 53.6368 13.4058 52.7722 13.4058Z" fill="#1C252E"/>
<path d="M66.5196 26.0565V22.8649H67.9949C70.5908 22.8649 72.7027 20.7801 72.7027 18.2176C72.7027 15.6549 70.5908 13.5701 67.9949 13.5701H64.9541C64.0894 13.5701 63.3885 14.271 63.3885 15.1357V26.0565C63.3885 26.9212 64.0894 27.6221 64.9541 27.6221C65.8188 27.6221 66.5196 26.9212 66.5196 26.0565ZM66.5196 16.7013H67.9949C68.8496 16.7013 69.5716 17.3957 69.5716 18.2176C69.5716 19.0395 68.8496 19.7338 67.995 19.7338H66.5197L66.5196 16.7013Z" fill="#1C252E"/>
<path d="M63.7675 4.64319H47.0675C46.2827 4.64319 45.5813 5.19991 45.4697 5.97663C45.3308 6.94428 46.0777 7.77428 47.0186 7.77428H63.7784C70.7269 7.77428 76.7088 13.453 76.8642 20.3997C76.9439 23.9633 75.5933 27.3262 73.0822 29.8373C70.6403 32.2776 67.3948 33.6216 63.9439 33.6216H36.7238C35.9369 32.0807 34.3345 31.0226 32.4889 31.0226C30.6433 31.0226 29.0411 32.0807 28.2542 33.6216H16.2189C9.27219 33.6216 3.29016 27.9443 3.13313 20.9993C3.0525 17.4357 4.40312 14.0721 6.91547 11.5601C9.35672 9.11881 12.6019 7.77444 16.0534 7.77444H32.9314C33.7163 7.77444 34.4177 7.21772 34.5292 6.441C34.6681 5.47334 33.9212 4.64334 32.9803 4.64334H16.0533C11.7655 4.64334 7.73391 6.3135 4.70125 9.346C1.54516 12.5023 -0.135312 16.7402 0.00687502 21.2232C0.282344 29.9113 7.53734 36.7527 16.2298 36.7527H27.7359L27.7361 51.0068V51.0068L27.4966 50.7737C25.5945 48.9208 22.4875 48.9262 20.5919 50.7855L20.532 50.8441C18.7195 52.6218 18.5731 55.4977 20.1839 57.6826C22.9263 61.4019 26.8322 66.8143 27.9272 68.3335V72.4132C27.9272 74.041 29.2467 75.3605 30.8745 75.3605H47.8475C49.4752 75.3605 50.7947 74.041 50.7947 72.4133V69.6151C54.1345 65.7432 55.9666 60.8246 55.9666 55.6952V47.0949C55.9666 44.4566 53.8278 42.3177 51.1894 42.3177H51.0589C50.3002 42.3177 49.5825 42.4963 48.9447 42.8126C48.1942 41.2826 46.6206 40.2263 44.8045 40.2263C43.6391 40.2263 42.5741 40.6619 41.7617 41.378C40.9494 40.6621 39.8842 40.2263 38.7188 40.2263C38.2022 40.2263 37.7056 40.313 37.2416 40.4705L37.2414 36.7529L63.9439 36.7527C68.2309 36.7527 72.2623 35.0833 75.2959 32.0515C78.4514 28.896 80.1317 24.6583 79.9905 20.1752C79.7162 11.4862 72.4609 4.64319 63.7675 4.64319ZM37.2419 44.8346C37.2419 43.9469 38.0291 43.2394 38.9419 43.3737C39.6734 43.4812 40.1964 44.1427 40.1964 44.8823V49.3549C40.1964 50.0255 40.6161 50.6401 41.2559 50.8412C42.3355 51.1805 43.3277 50.3837 43.3277 49.3549V44.8824C43.3277 44.1429 43.8506 43.4813 44.5822 43.3738C45.4952 43.2396 46.2823 43.9471 46.2823 44.8348V49.306C46.2823 50.0907 46.8389 50.7921 47.6156 50.9038C48.5833 51.043 49.4134 50.2958 49.4134 49.3551V47.0946C49.4134 46.1855 50.1503 45.4487 51.0594 45.4487H51.1898C52.0989 45.4487 52.8358 46.1855 52.8358 47.0946V56.3408C52.8358 60.6904 51.0069 64.753 48.0734 67.9646C47.81 68.253 47.6639 68.6298 47.6639 69.0204V72.2291L31.0586 72.2293L31.0584 67.8282C31.0584 67.4999 30.9553 67.1799 30.7636 66.9137C30.7155 66.8468 25.9169 60.1816 22.7042 55.8243C22.1239 55.0371 21.9052 53.8832 22.7247 53.0794L22.7845 53.0207C23.478 52.3398 24.6148 52.3374 25.3111 53.0155L28.1798 55.8101C28.5403 56.1613 29.0438 56.3457 29.5408 56.2657C30.3252 56.1394 30.8677 55.4726 30.8677 54.7176V35.8188C30.8677 35.0199 31.4272 34.3058 32.2155 34.176C33.23 34.009 34.1111 34.7912 34.1111 35.7751V49.3057C34.1111 50.0905 34.6678 50.7919 35.4445 50.9035C36.4122 51.0424 37.2422 50.2955 37.2422 49.3546L37.2419 44.8346Z" fill="#1C252E"/>
<path d="M39.9989 7.77141C40.8619 7.77141 41.5614 7.07186 41.5614 6.20891C41.5614 5.34597 40.8619 4.64641 39.9989 4.64641C39.136 4.64641 38.4364 5.34597 38.4364 6.20891C38.4364 7.07186 39.136 7.77141 39.9989 7.77141Z" fill="#1C252E"/>
</g>
<defs>
<clipPath id="clip0_3_183253">
<rect width="80" height="80" fill="white"/>
</clipPath>
</defs>
</svg>
