<svg width="80" height="80" viewBox="0 0 80 80" fill="none" xmlns="http://www.w3.org/2000/svg">
<g clip-path="url(#clip0_451_82342)">
<path opacity="0.08" d="M79.4182 19.2015C82.888 32.6425 70.3182 52.8458 55.5224 65.8695C40.6611 78.8095 23.5085 84.737 12.5753 75.5536C1.64205 66.4538 -3.07166 42.2433 2.10033 25.8803C7.20684 9.51727 22.1991 1.00179 39.3517 0.0834592C56.5698 -0.834873 76.0139 5.84391 79.4182 19.2015Z" fill="#1C252E"/>
<path d="M24.9783 22.8409H51.6317C54.0346 22.8409 55.9895 24.8036 55.9895 27.2159V38.87C55.9895 39.3408 56.3712 39.7223 56.8418 39.7223C57.3125 39.7223 57.6941 39.3408 57.6941 38.87V27.2159C57.6941 23.8637 54.9745 21.1364 51.6317 21.1364H24.9783C24.5076 21.1364 24.126 21.5178 24.126 21.9887C24.126 22.4595 24.5076 22.8409 24.9783 22.8409Z" fill="#1C252E"/>
<path d="M45.7226 49.1541H29.6509C29.4008 49.1541 29.1633 49.264 29.0014 49.4547L24.1721 55.1388L19.3431 49.4546C19.1811 49.2639 18.9436 49.154 18.6935 49.154H16.9715C14.5686 49.154 12.6137 47.1914 12.6137 44.779V27.2159C12.6137 24.8036 14.5686 22.8409 16.9715 22.8409H21.026C21.4967 22.8409 21.8783 22.4595 21.8783 21.9887C21.8783 21.5178 21.4967 21.1364 21.026 21.1364H16.9715C13.6287 21.1364 10.9092 23.8637 10.9092 27.2159V44.7791C10.9092 48.1314 13.6287 50.8587 16.9715 50.8587H18.2993L23.5227 57.0069C23.6846 57.1977 23.9221 57.3075 24.1723 57.3075C24.4224 57.3075 24.6598 57.1977 24.8218 57.0069L30.0452 50.8587H45.7226C46.1933 50.8587 46.5749 50.4772 46.5749 50.0064C46.5749 49.5356 46.1933 49.1541 45.7226 49.1541Z" fill="#1C252E"/>
<path d="M36.0601 61.7421H28.3119C27.8412 61.7421 27.4596 62.1236 27.4596 62.5944C27.4596 63.0652 27.8412 63.4467 28.3119 63.4467H36.0601C37.1428 63.4467 38.0237 64.3303 38.0237 65.4166C38.0237 66.5028 37.1428 67.3866 36.0601 67.3866H14.5774C13.4946 67.3866 12.6137 66.5028 12.6137 65.4166C12.6137 64.3303 13.4946 63.4467 14.5774 63.4467H15.3314C15.6047 63.4467 15.8615 63.3155 16.0218 63.094L17.5028 61.0476L18.9838 63.094C19.1441 63.3154 19.4009 63.4467 19.6743 63.4467H24.3711C24.8418 63.4467 25.2234 63.0652 25.2234 62.5944C25.2234 62.1236 24.8418 61.7421 24.3711 61.7421H20.1095L18.1933 59.0941C18.033 58.8728 17.7762 58.7416 17.5028 58.7416C17.2294 58.7416 16.9726 58.8727 16.8124 59.0941L14.8961 61.7421H14.5774C12.5547 61.7421 10.9092 63.3905 10.9092 65.4166C10.9092 67.4427 12.5547 69.0911 14.5774 69.0911H36.0601C38.0827 69.0911 39.7283 67.4427 39.7283 65.4166C39.7283 63.3905 38.0827 61.7421 36.0601 61.7421Z" fill="#1C252E"/>
<path d="M43.9387 18.2581H47.1447C47.6154 18.2581 47.997 17.8767 47.997 17.4058C47.997 16.935 47.6154 16.5536 47.1447 16.5536H43.9387C42.856 16.5536 41.9751 15.6699 41.9751 14.5837C41.9751 13.4974 42.856 12.6137 43.9387 12.6137H65.4215C66.5042 12.6137 67.3851 13.4973 67.3851 14.5836C67.3851 15.6698 66.5042 16.5536 65.4215 16.5536H64.6675C64.394 16.5536 64.1372 16.6847 63.977 16.9061L62.496 18.9527L61.0149 16.906C60.8547 16.6847 60.5979 16.5534 60.3245 16.5534H51.0856C50.6149 16.5534 50.2334 16.9349 50.2334 17.4057C50.2334 17.8765 50.6149 18.2579 51.0856 18.2579H59.8893L61.8055 20.9059C61.9657 21.1273 62.2225 21.2586 62.496 21.2586C62.7694 21.2586 63.0262 21.1274 63.1865 20.9059L65.1026 18.2579H65.4215C67.444 18.2579 69.0896 16.6096 69.0896 14.5834C69.0896 12.5576 67.444 10.9091 65.4215 10.9091H43.9387C41.9161 10.9091 40.2705 12.5575 40.2705 14.5837C40.2705 16.6097 41.9161 18.2581 43.9387 18.2581Z" fill="#1C252E"/>
<path d="M23.3924 39.7658C22.9216 39.7658 22.5401 40.1473 22.5401 40.6181C22.5401 41.0889 22.9216 41.4704 23.3924 41.4704H27.9376C28.4084 41.4704 28.7899 41.0889 28.7899 40.6181V36.0727C28.7899 35.6018 28.4084 35.2204 27.9376 35.2204H24.2446V32.3795H27.9376C28.4084 32.3795 28.7899 31.998 28.7899 31.5272C28.7899 31.0564 28.4084 30.6749 27.9376 30.6749H23.3924C22.9216 30.6749 22.5401 31.0564 22.5401 31.5272V36.0727C22.5401 36.5435 22.9216 36.9249 23.3924 36.9249H27.0854V39.7658H23.3924Z" fill="#1C252E"/>
<path d="M36.4609 32.3795C36.9316 32.3795 37.3132 31.998 37.3132 31.5272C37.3132 31.0564 36.9316 30.6749 36.4609 30.6749H31.9155C31.4449 30.6749 31.0633 31.0564 31.0633 31.5272V40.6181C31.0633 41.0889 31.4449 41.4704 31.9155 41.4704H36.4609C36.9316 41.4704 37.3132 41.0889 37.3132 40.6181C37.3132 40.1473 36.9316 39.7658 36.4609 39.7658H32.7678V36.9249H36.4609C36.9316 36.9249 37.3132 36.5435 37.3132 36.0727C37.3132 35.6018 36.9316 35.2204 36.4609 35.2204H32.7678V32.3795H36.4609Z" fill="#1C252E"/>
<path d="M40.4382 30.6749C39.9675 30.6749 39.5859 31.0564 39.5859 31.5272V40.6181C39.5859 41.0889 39.9675 41.4704 40.4382 41.4704H44.9835C45.4542 41.4704 45.8358 41.0889 45.8358 40.6181V31.5272C45.8358 31.0564 45.4542 30.6749 44.9835 30.6749H40.4382ZM44.1313 39.7658H41.2905V32.3795H44.1313V39.7658Z" fill="#1C252E"/>
<path d="M69.0898 50.1416C69.0896 49.7225 68.7849 49.3658 68.371 49.3002L67.1951 49.1137L66.6339 47.7592L67.3332 46.7946C67.5791 46.4554 67.5419 45.9878 67.2457 45.6916L64.8386 43.2848C64.5421 42.9883 64.074 42.9514 63.7349 43.1981L62.7723 43.8979L61.4185 43.3372L61.2313 42.1608C61.1655 41.7469 60.8085 41.4425 60.3895 41.4425L56.9864 41.4438C56.5673 41.444 56.2104 41.749 56.1449 42.1629L55.9586 43.3399L54.606 43.9011L53.6425 43.2018C53.3031 42.9555 52.835 42.9925 52.5389 43.2893L50.1335 45.6978C49.8375 45.9942 49.8008 46.4619 50.0469 46.8008L50.7466 47.7645L50.186 49.12L49.0109 49.3073C48.5971 49.3732 48.2926 49.7302 48.2927 50.1492L48.2941 53.5543C48.2942 53.9734 48.5991 54.3301 49.013 54.3957L50.1887 54.5822L50.75 55.9366L50.0507 56.9013C49.8048 57.2405 49.8419 57.7081 50.1381 58.0042L52.545 60.4111C52.8414 60.7074 53.3095 60.7446 53.6487 60.4978L54.6114 59.7981L55.9651 60.3588L56.1523 61.5351C56.2182 61.949 56.575 62.2534 56.994 62.2534L60.3972 62.2519C60.8163 62.2518 61.1731 61.9468 61.2385 61.5329L61.4249 60.3559L62.7776 59.7947L63.7412 60.4941C64.0805 60.7405 64.5485 60.7033 64.8448 60.4066L67.2501 57.9981C67.5462 57.7018 67.5828 57.2341 67.3368 56.8951L66.6372 55.9314L67.1977 54.5758L68.3728 54.3887C68.7867 54.3228 69.0913 53.9657 69.091 53.5468L69.0898 50.1416ZM66.4586 52.9677C66.1659 53.0142 65.9185 53.2097 65.8051 53.4836L64.88 55.7206C64.7668 55.9943 64.8039 56.3073 64.9778 56.5469L65.5305 57.3081L64.1535 58.687L63.3927 58.1349C63.1526 57.9607 62.8394 57.9238 62.5655 58.0374L60.3313 58.9645C60.0575 59.0781 59.8625 59.3257 59.8162 59.6184L59.669 60.5479L57.7215 60.5488L57.5736 59.62C57.5271 59.3274 57.3318 59.0799 57.058 58.9665L54.8225 58.0408C54.7175 57.9973 54.6068 57.976 54.4965 57.976C54.3191 57.976 54.1433 58.0314 53.9953 58.139L53.2355 58.6913L51.8576 57.3134L52.41 56.5514C52.5839 56.3115 52.6207 55.9986 52.5073 55.7249L51.581 53.4891C51.4675 53.2152 51.2199 53.02 50.9272 52.9737L49.9986 52.8264L49.9978 50.8764L50.9257 50.7284C51.2185 50.6818 51.4659 50.4864 51.5791 50.2125L52.5042 47.9755C52.6175 47.7018 52.5804 47.3888 52.4063 47.1491L51.8536 46.3879L53.2307 45.0091L53.9914 45.5611C54.2315 45.7356 54.5449 45.7723 54.8186 45.6587L57.0528 44.7316C57.3266 44.6179 57.5216 44.3702 57.568 44.0775L57.715 43.1481L59.6625 43.1474L59.8103 44.0761C59.8568 44.3688 60.0521 44.6163 60.3259 44.7297L62.5615 45.6554C62.8355 45.7688 63.1487 45.7316 63.3886 45.5573L64.1485 45.005L65.5264 46.3828L64.974 47.1448C64.8001 47.3847 64.7633 47.6977 64.8767 47.9713L65.8032 50.2069C65.9167 50.4808 66.1644 50.676 66.4571 50.7224L67.3857 50.8697L67.3865 52.8198L66.4586 52.9677Z" fill="#1C252E"/>
<path d="M62.3105 50.9961C61.8399 50.9961 61.4583 51.3776 61.4583 51.8484C61.4583 53.3738 60.2174 54.6147 58.6922 54.6147C57.1669 54.6147 55.926 53.3738 55.926 51.8484C55.926 50.323 57.1669 49.0821 58.6922 49.0821C59.0916 49.0821 59.4767 49.1652 59.8366 49.3291C60.2651 49.5243 60.7705 49.3348 60.9655 48.9065C61.1604 48.4779 60.9713 47.9726 60.5428 47.7776C59.9596 47.5121 59.3371 47.3775 58.6922 47.3775C56.2271 47.3775 54.2215 49.383 54.2215 51.8483C54.2215 54.3135 56.2271 56.3191 58.6922 56.3191C61.1573 56.3191 63.1628 54.3135 63.1628 51.8483C63.1628 51.3776 62.7813 50.9961 62.3105 50.9961Z" fill="#1C252E"/>
</g>
<defs>
<clipPath id="clip0_451_82342">
<rect width="80" height="80" fill="white"/>
</clipPath>
</defs>
</svg>
